<?xml version="1.0" encoding="utf-8"?>
<!-- Generator: Adobe Illustrator 25.4.8, SVG Export Plug-In . SVG Version: 6.00 Build 0)  -->
<svg version="1.1" id="圖層_1" xmlns="http://www.w3.org/2000/svg" xmlns:xlink="http://www.w3.org/1999/xlink" x="0px" y="0px"
	 viewBox="0 0 249.2 100" style="enable-background:new 0 0 249.2 100;" xml:space="preserve">
<style type="text/css">
	.st0{fill:#FFFFFF;}
</style>
<g>
	<path class="st0" d="M212.4,39.9l-26.6,47.8l34.4-0.1l3.7-6.6c0,0-23.2-3.2-13.5-19.4c0,0,7.2-13.1,32.5-14.4l4.2-7.4L212.4,39.9z"
		/>
	<polygon class="st0" points="249.2,50.4 215.1,64.6 233.8,78.2 	"/>
	<g>
		<rect x="124.1" y="68.5" class="st0" width="8.6" height="5.2"/>
		<path class="st0" d="M98.3,56.1c0.4,0.4,0.8,0.9,1.2,1.3c0.5-0.3,0.9-0.7,1.2-1.1c0.6-0.7,1.1-1.2,1.4-1.7h-5.6
			C97.3,55.2,97.8,55.6,98.3,56.1z"/>
		<path class="st0" d="M93.9,69.3c0,0.7-0.1,1.6-0.2,2.4h11.8V69H93.9V69.3z"/>
		<path class="st0" d="M0,12.3v75.4h175.6l42.2-75.4C217.8,12.3,0,12.3,0,12.3z M120.5,54.4c0-0.3,0.1-0.5,0.3-0.5h6.6v-3.3
			c0-0.2,0.2-0.3,0.5-0.3c1.6,0,2.4,0.1,2.4,0.3S130.3,51,130,51c-0.2,0-0.2,0.2-0.2,0.6v2.3h6.1c0.2,0,0.4,0.2,0.4,0.5v0.9
			c0,0.3-0.2,0.5-0.4,0.5h-15c-0.2,0-0.3-0.2-0.3-0.5L120.5,54.4L120.5,54.4z M135.1,57.3c0,0.2-0.1,0.2-0.2,0.3
			c-0.2,0-0.4,0.1-0.4,0.3c-0.7,1.7-1.2,3-1.9,3.9c-0.2,0.2-0.2,0.3-0.3,0.3c-0.2,0-0.3-0.1-0.6-0.2l-1.2-0.5
			c-0.2-0.1-0.2-0.1-0.2-0.2c0,0,0.1-0.1,0.2-0.2c0.6-0.8,1-1.6,1.2-2.2c0.4-0.8,0.7-1.7,0.9-2.5c0.1-0.2,0.2-0.3,0.2-0.3l1.9,0.7
			C134.9,57,135.1,57.1,135.1,57.3z M126.4,61.6c0,0.1-0.7,0.2-2.2,0.6c-0.1-0.6-0.2-1.2-0.6-2c-0.3-0.9-0.7-1.8-1.2-2.7
			c0-0.2,0.6-0.5,1.7-1.1c0.5,1,1,1.9,1.3,2.7C125.9,59.9,126.3,60.7,126.4,61.6z M55.4,52.2c0-0.2,0.1-0.3,0.2-0.3h15.9
			c0.2,0,0.2,0.1,0.2,0.3v0.9c0,0.3-0.1,0.5-0.2,0.5H55.7c-0.2,0-0.2-0.2-0.2-0.5V52.2z M68.4,60c0.7,0.7,1.4,1.6,1.9,2.5
			c0.2,0.5,0.5,1.1,0.7,1.8c0,0.2-0.1,0.2-0.3,0.2l-1.3,0.2c-0.2,0-0.3-0.1-0.2-0.3c-0.2-0.8-0.6-1.7-1.2-2.6
			c-0.5-0.7-1.1-1.3-1.8-1.8c-0.1-0.1-0.1-0.2-0.2-0.2l0.1-0.1c0.5-0.7,0.9-1.3,1.2-2c0.4-0.8,0.7-1.7,1.1-2.7
			c0.1-0.2,0.2-0.3,0.3-0.3l2.2,0.8c0.1,0.1,0.2,0.2,0.2,0.2c0,0.2-0.2,0.2-0.4,0.3c-0.3,0.1-0.6,0.2-0.7,0.3
			c-0.3,1-0.9,2.1-1.7,3.3v0.1L68.4,60z M62.8,59.8c0.8,0.7,1.5,1.6,2.1,2.6c0.2,0.5,0.5,1.1,0.7,1.9c0,0.2-0.1,0.2-0.3,0.2L64,64.8
			c-0.2,0-0.3-0.1-0.2-0.3c-0.2-0.8-0.6-1.7-1.3-2.7c-0.5-0.7-1.2-1.3-1.9-1.9c-0.1-0.1-0.1-0.1-0.2-0.1c0-0.1,0-0.1,0.1-0.2
			c0.5-0.6,1-1.2,1.4-1.9c0.4-0.7,0.8-1.6,1.2-2.6c0.1-0.2,0.2-0.3,0.3-0.3l2.2,0.8c0.1,0.1,0.2,0.2,0.2,0.3s-0.2,0.3-0.4,0.3
			c-0.3,0.1-0.6,0.2-0.7,0.4c-0.3,0.9-1,1.8-1.9,2.9v0.1C62.7,59.7,62.8,59.8,62.8,59.8z M55,59.7c0.5-0.7,1-1.3,1.3-2
			c0.4-0.8,0.7-1.7,1.1-2.7c0.1-0.2,0.2-0.3,0.4-0.3l2.2,0.8c0.1,0.1,0.2,0.2,0.2,0.2c0,0.2-0.2,0.2-0.4,0.3
			c-0.3,0.1-0.6,0.2-0.7,0.3c-0.3,1-1,2.1-1.7,3.3v0.1l0.2,0.1c0.8,0.7,1.6,1.7,2.2,2.6c0.2,0.5,0.5,1.2,0.7,1.9
			c0,0.2-0.1,0.2-0.3,0.3L58.7,65c-0.2,0-0.3-0.1-0.2-0.2c-0.2-0.9-0.7-1.8-1.3-2.7c-0.5-0.7-1.2-1.4-2-1.9C55,60,55,59.9,54.9,59.9
			L55,59.7z M46.9,68.6c-0.2,0.2-0.4,0.3-0.4,0.5c-0.2,1.7-0.4,3.2-0.7,4.4c-0.2,0.7-0.4,1.2-0.7,2c-0.1,0.2-0.2,0.2-0.2,0.2
			c-0.7-0.2-1.2-0.3-1.7-0.4c-0.2-0.1-0.2-0.2-0.2-0.2c0.4-0.8,0.7-1.7,1.1-2.7c0.3-1,0.6-2.4,0.7-4.3c0-0.2,0.1-0.3,0.3-0.3
			c1.5,0.3,2.3,0.6,2.3,0.7C47.1,68.4,47,68.5,46.9,68.6z M49.9,77.1c0,0.2-0.2,0.3-0.5,0.3h-1.2c-0.2,0-0.4-0.1-0.4-0.3V65.4
			l-4.1,0.8c-0.5,0.6-0.8,0.8-0.8,0.8c-0.1,0-0.3-0.9-0.7-2.8c0-0.2,0.9-0.3,2.7-0.5c1.2-1.5,2.3-2.7,3.2-3.9
			c-1.1-0.8-1.9-1.4-2.5-1.7c-0.8-0.5-1.7-1-2.7-1.4c0-0.2,0.4-0.7,1.3-1.6c0.1-0.2,0.2-0.2,0.2-0.2c0.3,0.2,0.7,0.4,1,0.7
			c0.7-0.7,1.2-1.6,1.7-2.3c0.8-1.3,1.5-2.3,1.8-3.1l2.5,1.3l0.2,0.3c0,0.2-0.2,0.2-0.5,0.2c-0.5,0-0.8,0.1-1,0.3
			c-1.1,1.6-2.1,3.1-3.1,4.4c0.7,0.5,1.3,1.1,1.9,1.7c1-1.2,1.8-2.4,2.5-3.5c1.5,1.1,2.2,1.7,2.2,1.9c0,0.1-0.1,0.2-0.3,0.2
			c-0.4,0-0.7,0.1-0.8,0.2c-1.7,2.2-3.3,4.2-4.9,6l4.7-0.5c-0.2-0.5-0.5-1-0.8-1.5c0-0.1,0.6-0.4,1.7-0.9c0.6,1.1,1.1,2.1,1.5,3.1
			c0.3,0.8,0.7,1.7,0.9,2.7c0,0.1-0.7,0.2-1.9,0.6c-0.1-0.6-0.3-1.3-0.7-2.2l-0.2-0.3l-3,0.7v12.2H49.9z M52.8,74
			c-0.1-0.7-0.2-1.4-0.4-2.3c-0.2-1.1-0.6-2.2-1.1-3.2c0-0.2,0.6-0.5,1.7-1c0.4,1.2,0.8,2.2,1.1,3.2c0.2,0.9,0.5,1.8,0.7,2.8
			C54.7,73.6,54.2,73.8,52.8,74z M72,76.1c0,0.3-0.1,0.5-0.2,0.5H55.2c-0.2,0-0.2-0.2-0.2-0.5v-0.9c0-0.2,0.1-0.3,0.2-0.3h7.3v-6.6
			h-6c-0.2,0-0.2-0.2-0.2-0.5v-0.9c0-0.2,0.1-0.3,0.2-0.3h14.1c0.2,0,0.2,0.1,0.2,0.3v0.9c0,0.3-0.1,0.5-0.2,0.5h-6v6.6h7.1
			c0.2,0,0.2,0.1,0.2,0.3L72,76.1L72,76.1z M86.7,66c-0.7,2.5-1.2,4.7-1.8,6.4c-0.3,1-0.7,2.1-1.2,3.2c-0.1,0.3-0.2,0.7-0.2,1.2
			c0,0.2-0.1,0.3-0.2,0.3c-0.2,0-0.8-0.6-1.9-1.7c-0.1-0.1-0.2-0.2-0.2-0.3c0-0.2,0-0.3,0.1-0.4c0.4-0.7,0.8-1.4,1.3-2.3
			c0.6-1.3,1.2-2.8,1.7-4.4c0.5-1.4,0.9-2.7,1.2-3.9c0.1-0.2,0.1-0.3,0.2-0.3S86,63.8,86,64c0.5,1,0.8,1.6,0.8,1.7
			C86.8,65.7,86.8,65.9,86.7,66z M87.6,60.6c-0.7,0.7-0.9,1.2-1,1.2c-1-0.5-2-0.9-3.1-1.3c-0.9-0.3-1.6-0.6-2.2-0.7
			c0-0.1,0.3-0.5,0.9-1.2c0.1-0.2,0.2-0.2,0.2-0.2c1.2,0.4,2.2,0.7,3,1.1l2.3,1C87.7,60.5,87.6,60.6,87.6,60.6z M87.6,53.6
			c-0.7,0.7-0.9,1.2-1,1.2c-0.8-0.6-1.7-1.1-2.6-1.6c-0.7-0.3-1.3-0.7-1.8-0.7c0-0.1,0.3-0.5,0.9-1.2c0.1-0.2,0.2-0.2,0.2-0.2
			c1,0.4,1.8,0.7,2.5,1.2c0.7,0.4,1.4,0.8,1.9,1.2C87.8,53.3,87.8,53.4,87.6,53.6z M107.9,65.6c-0.2,0-0.2,0.2-0.2,0.6v10.9
			c0,0.2-0.2,0.3-0.5,0.3h-1.2c-0.2,0-0.4-0.1-0.4-0.3v-3.6H93.4c-0.1,0.3-0.2,0.7-0.3,0.9c-0.3,0.7-0.7,1.4-1.3,2.1
			c-0.4,0.5-1,1.1-1.9,1.7c-0.1,0-0.2-0.1-0.3-0.2c-0.3-0.2-0.7-0.5-1-0.7c-0.2-0.1-0.2-0.2-0.2-0.2c0.8-0.7,1.4-1.2,1.7-1.6
			c0.3-0.4,0.7-0.9,0.9-1.5c0.2-0.6,0.4-1.3,0.6-2.2c0.1-0.7,0.2-1.5,0.2-2.3v-4.2c0-0.2,0.1-0.3,0.2-0.3c1.7,0.2,2.7,0.2,2.7,0.3
			c0,0.2-0.1,0.3-0.2,0.4c-0.2,0.2-0.3,0.4-0.3,0.7v1.1h11.6v-2.2c0-0.2,0.2-0.2,0.4-0.2c1.5,0,2.2,0.1,2.2,0.3
			C108.2,65.5,108.1,65.5,107.9,65.6z M111.2,63.8c-0.2,0.2-0.5,0.6-0.7,0.9c-0.1,0.1-0.2,0.2-0.4,0.2c-0.4-0.3-0.9-0.7-1.3-1.2
			c-0.3-0.4-0.7-0.9-1-1.4c-0.2-0.5-0.6-1.1-0.8-1.7c-0.2-0.5-0.4-1.1-0.6-1.8l-0.5,0.2l-1.6,0.3v3.4c0.9-0.2,1.8-0.5,2.7-0.8h0.1
			c0.2,0,0.2,0.1,0.2,0.2c0,0.8-0.1,1.3-0.2,1.4c-1.4,0.4-2.8,0.8-4.3,1.2c-0.2,0.4-0.5,0.7-0.7,0.7c-0.2,0-0.5-0.7-1-1.9l1-0.2
			v-5.6l0.1-0.2c-0.5,0.5-1.1,1-1.8,1.5V65c0,0.2-0.2,0.3-0.5,0.3h-1c-0.3,0-0.5-0.1-0.5-0.3v-6.5c-0.4-0.5-0.8-1-1.2-1.4
			c0,2-0.1,3.4-0.2,4.2c-0.2,1.1-0.3,1.8-0.7,2.3c-0.2,0.6-0.9,0.8-2,0.8c-0.8,0-1.2-0.2-1.2-0.6c-0.1-0.4-0.2-0.9-0.5-1.4v-0.1
			c0.7,0.2,1.2,0.2,1.7,0.2c0.4,0,0.7-0.2,0.7-0.5c0.2-0.2,0.2-0.7,0.3-1.6c0.1-0.5,0.1-1.2,0.2-2.2h-2c-0.1,0.6-0.2,1.1-0.4,1.6
			c-0.2,0.7-0.5,1.4-0.8,1.9c-0.4,0.7-1.2,1.5-2.3,2.5c-0.1,0.1-0.1,0.1-0.2,0.1c-0.2,0-0.3-0.2-0.5-0.4c-0.3-0.2-0.7-0.5-0.9-0.8
			C88.1,63,88.1,63,88.1,63v-0.1c1-0.6,1.7-1.2,2.2-1.7c0.3-0.4,0.6-0.8,0.8-1.4c0.2-0.4,0.2-0.8,0.4-1.3h-2c-0.2,0-0.4-0.1-0.4-0.3
			v-0.9c0-0.2,0.2-0.3,0.4-0.3h7.1c-0.6-0.5-1.1-0.9-1.4-1.2c0-0.1,0.2-0.4,0.7-0.9h-6.3c-0.2,0-0.2-0.2-0.2-0.5v-0.9
			c0-0.2,0.1-0.3,0.2-0.3h9.1v-2.2c0-0.2,0.2-0.3,0.5-0.3c1.6,0,2.4,0.1,2.4,0.3s-0.1,0.4-0.3,0.4c-0.2,0-0.3,0.2-0.3,0.6v1.2h9.2
			c0.2,0,0.2,0.1,0.2,0.3v0.9c0,0.3-0.1,0.5-0.2,0.5h-6.6l1.2,0.6c0.2,0.2,0.2,0.2,0.2,0.3c0,0.1-0.2,0.2-0.4,0.2
			c-0.4,0-0.7,0.1-0.8,0.2c-0.3,0.3-0.7,0.7-1.2,1.2h0.2l1.1,0.4c0.7-0.1,1.3-0.2,1.9-0.4c0.7-0.2,1.4-0.4,2.1-0.7
			c0.5-0.2,0.9-0.4,1.3-0.7h0.1c0.1,0,0.2,0.1,0.3,0.2c0.8,0.9,1.2,1.4,1.2,1.5c0,0.2-0.1,0.2-0.2,0.2l-0.6-0.2h-0.1
			c-0.4,0.2-0.9,0.4-1.4,0.6c0.2,0.8,0.5,1.4,0.7,1.9c0.2,0.6,0.6,1.1,0.8,1.6c0.2,0.4,0.6,0.7,0.9,1c0.3,0.2,0.6,0.5,0.9,0.7
			C111.4,63.6,111.3,63.7,111.2,63.8z M134.9,77c0,0.2-0.2,0.3-0.5,0.3h-1.2c-0.3,0-0.5-0.1-0.5-0.3v-1.4h-8.6V77
			c0,0.2-0.2,0.3-0.5,0.3h-1.2c-0.3,0-0.5-0.1-0.5-0.3v-9.9c0-0.3,0.2-0.5,0.5-0.5h12.1c0.3,0,0.5,0.1,0.5,0.3L134.9,77L134.9,77z
			 M137.1,63.8c0,0.3-0.1,0.5-0.3,0.5h-16.4c-0.2,0-0.4-0.2-0.4-0.5v-0.9c0-0.3,0.2-0.4,0.4-0.4h16.4c0.2,0,0.3,0.2,0.3,0.4V63.8z
			 M145,61.7c1.1,1,2,2.2,2.7,3.7c0.7,1.5,1.1,3,1.1,4.5c0,1-0.2,1.9-0.7,2.7c-0.5,0.8-1.2,1.3-2,1.7c-0.6,0.3-1.5,0.5-2.9,0.5
			c-0.6,0-0.8-0.2-0.8-0.5c-0.1-0.7-0.3-1.2-0.6-1.6c0-0.2,0.1-0.3,0.3-0.3l1.5,0.2c1,0,1.7-0.2,2.2-0.8c0.4-0.4,0.6-1.1,0.6-1.9
			c0-1.1-0.2-2.2-0.8-3.7c-0.7-1.5-1.8-3-3.3-4.3c-0.2-0.2-0.2-0.2-0.2-0.4c0-0.1,0.1-0.2,0.2-0.5l4.5-7.9h-6.1v23.8
			c0,0.2-0.2,0.3-0.5,0.3h-1.2c-0.3,0-0.5-0.1-0.5-0.3V51.8c0-0.2,0.2-0.3,0.5-0.3h8.8c0.4,0,0.7,0.1,0.8,0.2
			c0.5,0.3,0.8,0.7,0.8,0.7l-4.4,8.4c-0.1,0.2-0.2,0.3-0.2,0.4C144.8,61.4,144.9,61.5,145,61.7z"/>
	</g>
</g>
</svg>
