<?xml version="1.0" encoding="utf-8"?>
<!-- Generator: Adobe Illustrator 25.4.8, SVG Export Plug-In . SVG Version: 6.00 Build 0)  -->
<svg version="1.1" id="圖層_1" xmlns="http://www.w3.org/2000/svg" xmlns:xlink="http://www.w3.org/1999/xlink" x="0px" y="0px"
	 viewBox="0 0 102.3 100" style="enable-background:new 0 0 102.3 100;" xml:space="preserve">
<style type="text/css">
	.st0{fill:#FFFFFF;}
	.st1{fill:none;stroke:#FFFFFF;stroke-width:2.1754;}
	.st2{fill:none;stroke:#FFFFFF;stroke-width:1.7969;}
</style>
<g>
	<g>
		<path class="st0" d="M83.7,49.9c0-15.5-10.8-28.4-25.3-31.7l4.5,18.1h7.6l9.2,28.4c-0.7,1.4-2.5,4.1-5.2,7l0.1,0.3
			c-0.3,0.6-0.8,1.2-1.5,1.9c0,0,0,0,0,0C79.6,68,83.7,59.4,83.7,49.9z"/>
		<path class="st0" d="M29,73.3c-0.9-0.8-1.4-1.2-1.4-1.2l0.2-0.7c-3.4-3.4-5.3-6.3-5.3-6.3l8.6-28.8h6.6l5.6-18
			c-14.2,3.5-24.7,16.3-24.7,31.6c0,14.3,9.3,26.5,22.1,30.8c-1-0.4-2-0.9-2.9-1.4C34.6,77.9,31.6,75.8,29,73.3z"/>
		<path class="st0" d="M58.7,37.7l-4.6-19.5l-6.9-0.3l-4.3,18.8h-5l-10,34.7c0.5,0.5,0.9,0.9,1.5,1.4c5.3-3.4,12.2-5.6,19.8-5.8
			v-6.4C40.6,58.5,38,46.9,38,46.9c6.9,0,10.8,4.4,12.6,7.2c1.8-2.7,5.7-7.2,12.6-7.2c0,0-2.6,11.5-11.1,13.6V67
			c8,0.3,15.2,2.8,20.6,6.6c0.6-0.6,1.3-1.2,1.8-1.8L63.7,37.7H58.7z"/>
		<path class="st0" d="M42.1,81.2c2.9,0.8,5.9,1.3,9,1.3c0.1,0,0.2,0,0.3,0c-3.9,0-7.6-0.8-11.1-2C40.9,80.7,41.5,81,42.1,81.2z"/>
		<path class="st0" d="M58.4,18.2l-0.2-0.7c0,0-9.3-1-14.9,0.7l0,0.2c2.5-0.6,5.1-1,7.8-1C53.6,17.4,56.1,17.7,58.4,18.2z"/>
		<path class="st0" d="M51,83c2.6,0,5-0.4,7.3-1c-2.4,0.6-4.9,1-7.6,1C50.8,83,50.9,83,51,83z"/>
		<path class="st0" d="M40.7,80.8c3,1.3,6.3,2.2,9.7,2.2c0.1,0,0.2,0,0.2,0c-3,0-5.9-0.7-8.6-1.7C41.6,81.1,41.2,80.9,40.7,80.8z"/>
		<path class="st0" d="M58.3,82c1.3-0.3,2.5-0.7,3.6-1.1c-0.6,0.2-1.2,0.4-1.8,0.5C59.5,81.6,58.9,81.8,58.3,82z"/>
		<path class="st0" d="M51.7,82.5c2.9,0,5.7-0.4,8.4-1.1c0.8-0.3,1.7-0.6,2.4-1c-3.5,1.3-7.2,2-11.1,2.1
			C51.5,82.5,51.6,82.5,51.7,82.5z"/>
		<path class="st0" d="M28.8,73.1c0.1,0.1,0.1,0.1,0.2,0.2c1.7,1.5,4.8,4,8.8,6.1c0.8,0.4,1.6,0.7,2.5,1c-4.3-2-8.1-4.9-11-7.7
			C29.2,72.9,29,73,28.8,73.1z"/>
		<path class="st0" d="M61.9,80.9c4.3-1.4,8.2-3.7,11.6-6.7c-0.1-0.1-0.2-0.1-0.3-0.2c0,0-0.1,0.1-0.1,0.1
			C70.8,76.3,66.8,79,61.9,80.9z"/>
		<path class="st0" d="M62.6,80.4C66.5,79,70,76.8,73.1,74c0,0,0.1-0.1,0.1-0.1c-0.2-0.1-0.3-0.2-0.5-0.3
			C70,76.1,66.6,78.6,62.6,80.4z"/>
	</g>
	<path class="st1" d="M83.7,49.9c0,18-14.6,32.5-32.5,32.5c-18,0-32.6-14.6-32.6-32.5c0-18,14.6-32.5,32.6-32.5
		C69.1,17.4,83.7,32,83.7,49.9z"/>
	<g>
		<path class="st0" d="M18.5,63.7l2.1,3.4l-0.4,0.2c-0.1-0.1-0.2-0.3-0.3-0.5c-0.1-0.2-0.3-0.3-0.3-0.3c-0.1-0.1-0.3-0.1-0.4-0.1
			c-0.1,0-0.2,0-0.4,0.1L13.1,70l0,0.1l8.2-1.4l0.2,0.3l-5.1,6.6l0,0.1l4.6-2.8c0.4-0.3,0.8-0.5,1-0.7c0.2-0.2,0.3-0.4,0.3-0.6
			c0-0.1,0-0.3-0.1-0.6c-0.1-0.3-0.1-0.5-0.2-0.6l0.4-0.2l1.9,3.1l-0.4,0.2c-0.1-0.2-0.2-0.3-0.4-0.5c-0.1-0.2-0.3-0.3-0.4-0.3
			c-0.2-0.1-0.4-0.1-0.6,0c-0.2,0.1-0.6,0.3-1.1,0.6l-3.9,2.4c-0.2,0.1-0.4,0.3-0.5,0.4c-0.1,0.1-0.2,0.3-0.2,0.5c0,0.2,0,0.4,0,0.5
			c0.1,0.2,0.1,0.4,0.2,0.5l-0.4,0.2L15,75.3l4.4-5.7l-6,1.1c-0.2,0-0.4,0.1-0.7,0.2c-0.2,0.1-0.4,0.1-0.4,0.2l-1.5-2.5l0.4-0.2
			c0.1,0.1,0.2,0.2,0.3,0.4c0.1,0.1,0.2,0.2,0.3,0.3c0.1,0.1,0.2,0.1,0.4,0.1c0.1,0,0.3-0.1,0.4-0.1l5.5-3.4
			c0.1-0.1,0.2-0.2,0.3-0.3c0.1-0.1,0.1-0.2,0.1-0.4c0-0.1,0-0.2-0.1-0.4c-0.1-0.2-0.1-0.3-0.2-0.4L18.5,63.7z"/>
		<path class="st0" d="M17.3,59.1l1.3,3.8l-0.4,0.1c0-0.1-0.1-0.3-0.2-0.5c-0.1-0.2-0.2-0.3-0.2-0.4c-0.1-0.1-0.2-0.2-0.3-0.2
			c-0.1,0-0.2,0-0.4,0l-6.2,2.1c-0.1,0-0.3,0.1-0.3,0.2c-0.1,0.1-0.1,0.2-0.1,0.4c0,0.1,0,0.3,0,0.5c0,0.2,0,0.4,0.1,0.5L10,65.8
			L8.7,62l0.4-0.1c0,0.1,0.1,0.3,0.2,0.4c0.1,0.2,0.2,0.3,0.3,0.4c0.1,0.1,0.2,0.2,0.3,0.2c0.1,0,0.3,0,0.4,0l6.2-2.1
			c0.1,0,0.2-0.1,0.3-0.2c0.1-0.1,0.1-0.2,0.1-0.4c0-0.1,0-0.2,0-0.4c0-0.2-0.1-0.4-0.1-0.5L17.3,59.1z"/>
		<path class="st0" d="M7.3,50.2c0,0.1,0.1,0.3,0.2,0.5c0.1,0.2,0.2,0.4,0.3,0.5c0.1,0.1,0.3,0.2,0.6,0.2c0.3,0,0.7,0,1.1-0.1
			l6.6-0.8l0.1,0.5l-6.7,6.3l4.6-0.5c0.5-0.1,0.9-0.1,1.2-0.2c0.3-0.1,0.5-0.2,0.6-0.4c0.1-0.1,0.1-0.3,0.2-0.6
			c0-0.3,0.1-0.5,0.1-0.6l0.4-0.1l0.4,3.7l-0.4,0.1c0-0.1-0.1-0.3-0.2-0.6c-0.1-0.3-0.2-0.4-0.3-0.5c-0.1-0.1-0.3-0.2-0.6-0.2
			c-0.2,0-0.7,0-1.2,0.1L9.8,58c-0.2,0-0.4,0.1-0.6,0.2c-0.2,0.1-0.3,0.2-0.4,0.3c-0.1,0.2-0.2,0.4-0.3,0.7
			c-0.1,0.3-0.1,0.5-0.1,0.6L8,59.9l-0.3-2.6l6.2-5.8L9.6,52c-0.5,0.1-0.9,0.1-1.2,0.2c-0.3,0.1-0.4,0.2-0.5,0.4
			c-0.1,0.1-0.1,0.3-0.2,0.6c0,0.3-0.1,0.5-0.1,0.6l-0.4,0.1l-0.4-3.6L7.3,50.2z"/>
		<path class="st0" d="M16.4,44.9l-0.3,4l-0.4,0c0-0.1,0-0.3,0-0.5c0-0.2,0-0.4,0-0.5c0-0.1-0.1-0.3-0.2-0.3
			c-0.1-0.1-0.2-0.1-0.4-0.1l-6.5-0.6c-0.1,0-0.3,0-0.4,0c-0.1,0-0.2,0.1-0.3,0.3c-0.1,0.1-0.1,0.3-0.2,0.5
			c-0.1,0.2-0.1,0.3-0.1,0.5l-0.4,0l0.3-4l0.4,0c0,0.1,0,0.3,0,0.5c0,0.2,0,0.3,0.1,0.5c0,0.2,0.1,0.3,0.2,0.3
			c0.1,0.1,0.2,0.1,0.4,0.1l6.5,0.6c0.1,0,0.3,0,0.4-0.1c0.1-0.1,0.2-0.1,0.3-0.3c0-0.1,0.1-0.2,0.1-0.4c0.1-0.2,0.1-0.4,0.1-0.5
			L16.4,44.9z"/>
		<path class="st0" d="M13.9,37.5c0.3-0.1,0.5-0.2,0.8-0.2c0.3,0,0.6,0,0.9,0.1c0.8,0.2,1.3,0.7,1.7,1.4c0.4,0.7,0.4,1.5,0.2,2.3
			c-0.1,0.4-0.3,0.8-0.5,1.1c-0.2,0.4-0.5,0.7-0.7,0.9l0.4,0.4L16.5,44l-3-0.7l0.1-0.5c0.4,0,0.8,0,1.1-0.1c0.3-0.1,0.7-0.2,1-0.3
			c0.3-0.2,0.6-0.3,0.8-0.6c0.2-0.2,0.4-0.6,0.5-0.9C17,40.5,17,40.3,17,40c0-0.2-0.1-0.4-0.2-0.6c-0.1-0.2-0.2-0.3-0.4-0.4
			c-0.2-0.1-0.4-0.2-0.6-0.3c-0.3-0.1-0.7-0.1-1,0c-0.4,0.1-0.7,0.4-0.9,0.7c-0.2,0.2-0.4,0.5-0.6,0.8c-0.2,0.3-0.4,0.6-0.6,0.8
			c-0.3,0.4-0.7,0.7-1.2,0.9c-0.4,0.2-0.9,0.2-1.5,0c-0.3-0.1-0.6-0.2-0.9-0.4c-0.3-0.2-0.5-0.5-0.6-0.8c-0.2-0.3-0.2-0.6-0.3-1
			c0-0.4,0-0.7,0.1-1.1c0.1-0.4,0.3-0.7,0.5-1C9,37.5,9.2,37.3,9.4,37l-0.4-0.4l0.1-0.5l2.9,0.7L12,37.4c-0.4,0-0.7,0-1,0.1
			c-0.3,0-0.6,0.1-0.9,0.2c-0.3,0.1-0.5,0.3-0.7,0.5c-0.2,0.2-0.4,0.5-0.5,0.9c-0.1,0.4-0.1,0.8,0.1,1.1c0.2,0.3,0.4,0.6,0.8,0.7
			c0.4,0.1,0.7,0.1,1,0c0.3-0.1,0.6-0.3,0.8-0.6c0.2-0.3,0.4-0.5,0.6-0.8c0.2-0.3,0.4-0.5,0.6-0.8c0.2-0.2,0.4-0.4,0.5-0.6
			C13.5,37.8,13.7,37.7,13.9,37.5z"/>
		<path class="st0" d="M15.7,27.8l-0.2,0.4c-0.2,0-0.3-0.1-0.6-0.1c-0.2,0-0.5,0-0.7,0c-0.2,0-0.4,0.1-0.6,0.1
			c-0.2,0.1-0.3,0.2-0.4,0.3c-0.1,0.1-0.2,0.3-0.3,0.4c-0.1,0.2-0.2,0.3-0.3,0.5l-0.2,0.3l6.5,3.2c0.1,0.1,0.3,0.1,0.4,0.1
			c0.1,0,0.3-0.1,0.4-0.2c0.1-0.1,0.2-0.2,0.3-0.4c0.2-0.2,0.3-0.4,0.3-0.5l0.4,0.2l-1.9,3.8L18.4,36c0-0.1,0.1-0.3,0.2-0.5
			c0.1-0.2,0.1-0.4,0.1-0.5c0-0.1,0-0.3-0.1-0.4c-0.1-0.1-0.2-0.2-0.3-0.3l-6.5-3.3l-0.2,0.3c-0.1,0.1-0.1,0.3-0.2,0.4
			c-0.1,0.2-0.2,0.4-0.2,0.5c0,0.1,0,0.3,0,0.5c0.1,0.2,0.2,0.4,0.3,0.6c0.1,0.2,0.2,0.4,0.4,0.6c0.1,0.2,0.3,0.3,0.4,0.4l-0.2,0.4
			L10,33.8l3.5-7L15.7,27.8z"/>
		<path class="st0" d="M27.4,23.7l-1.6,1.9c-1-0.1-1.9-0.2-2.6-0.3c-0.7-0.1-1.5-0.1-2.4-0.1l-0.6,0.7l2.2,1.8
			c0.1,0.1,0.2,0.2,0.3,0.2c0.1,0,0.2,0,0.4-0.1c0.1,0,0.2-0.1,0.3-0.3c0.1-0.1,0.3-0.2,0.3-0.3l0.3,0.3l-2.4,2.9l-0.3-0.3
			c0.1-0.1,0.1-0.2,0.2-0.4c0.1-0.2,0.2-0.3,0.2-0.4c0-0.1,0-0.3,0-0.4c0-0.1-0.1-0.2-0.3-0.3l-5-4.2c-0.1-0.1-0.2-0.2-0.3-0.2
			c-0.1,0-0.2,0-0.4,0.1c-0.1,0.1-0.2,0.1-0.3,0.2c-0.1,0.1-0.2,0.2-0.3,0.3l-0.3-0.3l2.7-3.2c0.2-0.3,0.5-0.5,0.8-0.7
			c0.3-0.2,0.6-0.4,0.9-0.5c0.3-0.1,0.6-0.1,0.9-0.1c0.3,0.1,0.6,0.2,0.9,0.5c0.3,0.2,0.5,0.5,0.6,0.7c0.1,0.3,0.2,0.5,0.2,0.8
			c0,0.3,0,0.5-0.1,0.8c-0.1,0.3-0.2,0.6-0.3,0.9c0.7,0,1.4,0.1,1.9,0.1c0.5,0,1.1,0.1,1.8,0.1c0.3,0,0.6,0,0.8,0
			c0.2,0,0.4-0.1,0.5-0.2c0.1,0,0.2-0.1,0.4-0.2c0.1-0.1,0.2-0.2,0.3-0.3L27.4,23.7z M20.1,22c-0.4-0.4-0.9-0.5-1.3-0.5
			c-0.4,0-0.9,0.3-1.2,0.7l-0.7,0.8l3,2.5l0.5-0.6c0.4-0.5,0.5-0.9,0.5-1.5C20.8,22.9,20.6,22.4,20.1,22z"/>
		<path class="st0" d="M28.5,12.4c-0.1,0-0.1,0.1-0.2,0.3c-0.1,0.1-0.2,0.2-0.2,0.3c-0.1,0.2-0.1,0.3-0.1,0.4c0,0.1,0,0.3,0,0.6
			c0,0.6,0.1,1.1,0.1,1.7c0.1,0.6,0.1,1.2,0.3,2.1c0,0.3,0.1,0.5,0.1,0.7c0.1,0.2,0.2,0.4,0.4,0.6l1,1.4c0.1,0.1,0.2,0.2,0.3,0.3
			c0.1,0.1,0.3,0.1,0.4,0c0.1,0,0.2-0.1,0.5-0.2c0.2-0.1,0.4-0.2,0.5-0.3l0.3,0.4l-3.4,2.5l-0.3-0.4c0.1-0.1,0.2-0.2,0.4-0.4
			c0.2-0.2,0.3-0.3,0.3-0.4c0.1-0.1,0.1-0.3,0.1-0.4c0-0.1-0.1-0.2-0.2-0.4l-1.3-1.8c0-0.1-0.1-0.1-0.3-0.2
			c-0.2-0.1-0.4-0.2-0.6-0.3c-0.5-0.2-1-0.5-1.6-0.8c-0.6-0.3-1.1-0.5-1.5-0.7c-0.3-0.1-0.5-0.2-0.6-0.2c-0.2,0-0.3,0-0.5,0
			c-0.1,0-0.2,0-0.4,0.1c-0.1,0.1-0.2,0.1-0.3,0.2l-0.3-0.4l3.1-2.3l0.3,0.4c-0.3,0.3-0.6,0.5-0.7,0.6c-0.1,0.1-0.1,0.3-0.1,0.3
			c0,0,0.1,0,0.1,0.1c0.1,0,0.1,0.1,0.2,0.1c0.1,0.1,0.2,0.1,0.4,0.2c0.1,0.1,0.3,0.1,0.4,0.2c0.4,0.2,0.8,0.4,1.2,0.5
			c0.4,0.2,0.9,0.4,1.5,0.7c-0.1-1.3-0.2-2.2-0.3-2.9c-0.1-0.7-0.2-1.1-0.2-1.2c-0.1-0.1-0.1-0.1-0.2-0.1c-0.1,0-0.2,0-0.3,0.1
			c-0.1,0-0.2,0.1-0.4,0.2c-0.1,0.1-0.2,0.1-0.3,0.2L25.7,14l2.5-1.9L28.5,12.4z"/>
		<path class="st0" d="M40.7,8.1c0.5,0.3,1,0.6,1.4,1.1c0.4,0.5,0.7,1.1,0.9,1.7c0.2,0.7,0.3,1.3,0.3,2c0,0.6-0.2,1.2-0.4,1.7
			c-0.2,0.5-0.6,1-1,1.3c-0.4,0.4-0.9,0.6-1.5,0.8c-0.6,0.2-1.2,0.3-1.8,0.2c-0.6-0.1-1.1-0.2-1.6-0.5c-0.5-0.3-0.9-0.7-1.3-1.1
			c-0.4-0.5-0.7-1.1-0.9-1.7c-0.2-0.7-0.3-1.4-0.3-2c0-0.6,0.2-1.2,0.4-1.7c0.2-0.5,0.6-1,1-1.3c0.4-0.4,0.9-0.6,1.5-0.8
			c0.6-0.2,1.1-0.3,1.7-0.2C39.6,7.7,40.2,7.8,40.7,8.1z M41.8,14.5c0.1-0.4,0.1-0.9,0.1-1.4c0-0.5-0.2-1-0.4-1.6
			c-0.2-0.6-0.4-1.1-0.7-1.6c-0.3-0.5-0.6-0.8-0.9-1.1c-0.3-0.3-0.7-0.4-1.1-0.5c-0.4-0.1-0.8-0.1-1.2,0.1c-0.5,0.2-0.9,0.4-1.1,0.7
			c-0.3,0.3-0.4,0.7-0.5,1.2c-0.1,0.4-0.1,0.9,0,1.4c0.1,0.5,0.2,1,0.3,1.5c0.2,0.6,0.4,1.1,0.7,1.5c0.3,0.4,0.6,0.8,0.9,1.1
			c0.3,0.3,0.7,0.5,1.1,0.6c0.4,0.1,0.8,0.1,1.3-0.1c0.4-0.1,0.8-0.4,1.1-0.7C41.5,15.3,41.7,14.9,41.8,14.5z"/>
		<path class="st0" d="M51.5,7.9L51,8c-0.1-0.3-0.3-0.7-0.6-1c-0.3-0.4-0.6-0.5-0.9-0.6c-0.1,0-0.3,0-0.5,0c-0.2,0-0.4,0-0.6,0
			l-1.5,0.1l0.3,3.6l1-0.1c0.3,0,0.6-0.1,0.7-0.2c0.2-0.1,0.3-0.2,0.4-0.3c0.1-0.1,0.1-0.3,0.2-0.5c0.1-0.2,0.1-0.4,0.1-0.6l0.5,0
			l0.3,3.5l-0.5,0c0-0.2-0.1-0.4-0.2-0.6c-0.1-0.2-0.2-0.4-0.3-0.5c-0.1-0.1-0.3-0.2-0.5-0.3c-0.2,0-0.4-0.1-0.7,0l-1,0.1l0.3,3.1
			c0,0.1,0,0.3,0.1,0.4c0.1,0.1,0.2,0.2,0.3,0.2c0.1,0,0.2,0,0.4,0.1c0.2,0,0.4,0,0.5,0l0,0.4L45,15.2l0-0.4c0.1,0,0.3,0,0.5-0.1
			c0.2,0,0.3-0.1,0.4-0.1c0.1-0.1,0.2-0.2,0.3-0.3c0-0.1,0.1-0.2,0.1-0.4l-0.5-6.5c0-0.1,0-0.3-0.1-0.4c-0.1-0.1-0.2-0.2-0.3-0.2
			c-0.1,0-0.3-0.1-0.5-0.1c-0.2,0-0.3,0-0.5,0l0-0.4l7-0.6L51.5,7.9z"/>
		<path class="st0" d="M63.7,14.1l-0.8,2.5l-7.3-1.7l0.1-0.4c0.1,0,0.3,0,0.5,0.1c0.2,0,0.4,0,0.4,0c0.1,0,0.3-0.1,0.3-0.2
			c0.1-0.1,0.1-0.2,0.2-0.4l1.5-6.3c0-0.1,0-0.3,0-0.4c0-0.1-0.1-0.2-0.2-0.3c-0.1-0.1-0.2-0.2-0.4-0.2c-0.2-0.1-0.3-0.1-0.4-0.2
			l0.1-0.4l6.8,1.6l-0.5,2.1l-0.5-0.1c0-0.3-0.1-0.7-0.3-1.1C63,8.2,62.8,8,62.5,7.9c-0.1,0-0.3-0.1-0.4-0.1
			c-0.2-0.1-0.4-0.1-0.6-0.2l-1.4-0.3l-0.8,3.5l1,0.2c0.3,0.1,0.6,0.1,0.7,0.1c0.2,0,0.3-0.1,0.5-0.2c0.1-0.1,0.2-0.2,0.3-0.4
			c0.1-0.2,0.2-0.4,0.3-0.5l0.5,0.1l-0.8,3.4l-0.5-0.1c0-0.2,0-0.4,0-0.7c0-0.2-0.1-0.4-0.1-0.5c-0.1-0.2-0.2-0.3-0.4-0.4
			c-0.1-0.1-0.4-0.2-0.6-0.2l-1-0.2l-0.6,2.6c-0.1,0.3-0.1,0.5-0.1,0.6c0,0.2,0,0.3,0.1,0.4c0.1,0.1,0.2,0.2,0.4,0.3
			c0.2,0.1,0.4,0.1,0.8,0.2c0.1,0,0.3,0.1,0.5,0.1c0.2,0.1,0.4,0.1,0.6,0.1c0.2,0,0.3,0,0.5,0c0.2,0,0.3,0,0.4-0.1
			c0.2-0.2,0.5-0.4,0.8-0.8c0.3-0.4,0.5-0.6,0.6-0.8L63.7,14.1z"/>
		<path class="st0" d="M73.2,16.8c-0.4,0.7-0.8,1.2-1.3,1.6c-0.5,0.4-1.1,0.6-1.6,0.7c-0.6,0.1-1.2,0.1-1.8,0
			c-0.6-0.1-1.2-0.3-1.7-0.6l-3.3-1.7l0.2-0.4c0.1,0.1,0.3,0.1,0.4,0.2c0.2,0.1,0.3,0.1,0.4,0.1c0.1,0,0.3,0,0.4-0.1
			c0.1-0.1,0.2-0.2,0.3-0.3l3-5.8c0.1-0.1,0.1-0.3,0.1-0.4c0-0.1,0-0.2-0.1-0.4c-0.1-0.1-0.2-0.2-0.3-0.3c-0.1-0.1-0.2-0.2-0.3-0.2
			l0.2-0.4l3.5,1.8c0.5,0.2,0.9,0.6,1.3,1c0.4,0.4,0.7,0.8,0.9,1.2c0.3,0.6,0.4,1.2,0.4,1.9C73.8,15.4,73.6,16.1,73.2,16.8z
			 M71.9,16.1c0.3-0.5,0.5-1.1,0.5-1.6c0.1-0.5,0.1-1,0-1.5c-0.1-0.4-0.3-0.8-0.6-1.2c-0.3-0.4-0.7-0.7-1.1-0.9
			c-0.2-0.1-0.3-0.2-0.5-0.3c-0.2-0.1-0.3-0.2-0.4-0.2l-3.2,6.1c-0.2,0.3-0.2,0.6-0.1,0.9c0.1,0.2,0.4,0.5,0.8,0.7
			c0.5,0.2,0.9,0.4,1.4,0.4c0.4,0,0.9-0.1,1.2-0.3c0.4-0.2,0.8-0.5,1.1-0.8C71.3,17.1,71.6,16.7,71.9,16.1z"/>
		<path class="st0" d="M84.2,21c-0.1-0.1-0.2-0.2-0.4-0.3c-0.2-0.1-0.4-0.2-0.6-0.2c-0.2,0-0.4,0.1-0.6,0.2
			c-0.2,0.2-0.5,0.4-0.8,0.8l-2.6,2.9c-0.3,0.4-0.7,0.6-1.1,0.8c-0.4,0.1-0.8,0.2-1.2,0.1c-0.4-0.1-0.8-0.2-1.1-0.4
			c-0.3-0.2-0.6-0.4-0.9-0.6c-0.4-0.4-0.7-0.7-0.9-1.1c-0.2-0.4-0.3-0.8-0.4-1.1c0-0.4,0-0.7,0.1-1c0.1-0.3,0.3-0.6,0.5-0.9l3.6-3.9
			c0.1-0.1,0.2-0.2,0.2-0.3c0-0.1,0-0.2,0-0.4c0-0.1-0.1-0.2-0.2-0.4c-0.1-0.1-0.2-0.2-0.3-0.3l0.3-0.3l2.8,2.5l-0.3,0.3
			c-0.1-0.1-0.2-0.2-0.4-0.3c-0.2-0.1-0.3-0.2-0.4-0.2c-0.1-0.1-0.3-0.1-0.4,0c-0.1,0.1-0.2,0.1-0.3,0.2l-3.4,3.7
			c-0.2,0.2-0.3,0.4-0.5,0.6c-0.1,0.2-0.2,0.5-0.3,0.8c0,0.3,0,0.6,0.1,0.9c0.1,0.3,0.4,0.6,0.7,1c0.3,0.3,0.7,0.5,1,0.6
			c0.3,0.1,0.7,0.1,0.9,0.1c0.3-0.1,0.5-0.1,0.8-0.3c0.2-0.1,0.4-0.3,0.6-0.5l2.5-2.7c0.3-0.3,0.6-0.7,0.7-0.9
			c0.2-0.3,0.2-0.5,0.2-0.6c0-0.2-0.1-0.4-0.3-0.6c-0.1-0.2-0.3-0.4-0.4-0.5l0.3-0.3l2.7,2.5L84.2,21z"/>
		<path class="st0" d="M80.5,31c-0.3-0.4-0.5-0.9-0.6-1.5c-0.1-0.5-0.1-1.1,0-1.6c0.1-0.5,0.4-1.1,0.7-1.6c0.4-0.5,0.8-1,1.4-1.4
			c0.6-0.4,1.2-0.7,1.8-0.8c0.6-0.1,1.2-0.2,1.8-0.1c0.6,0.1,1.1,0.3,1.6,0.6c0.5,0.3,0.9,0.7,1.2,1.2c0.2,0.4,0.4,0.7,0.5,1.1
			c0.1,0.4,0.2,0.7,0.2,1.1l0.5,0l0.3,0.4l-2.6,1.8L87,30c0.2-0.2,0.4-0.5,0.7-0.8c0.2-0.3,0.4-0.6,0.5-0.9c0.1-0.3,0.2-0.7,0.2-1
			c0-0.3-0.1-0.6-0.3-0.9c-0.2-0.3-0.5-0.6-0.9-0.8c-0.3-0.2-0.7-0.3-1.2-0.3c-0.4,0-0.9,0.1-1.4,0.2c-0.5,0.2-1,0.4-1.6,0.8
			c-0.5,0.3-0.9,0.7-1.2,1.1c-0.3,0.4-0.6,0.8-0.7,1.2c-0.2,0.4-0.2,0.8-0.2,1.3c0,0.4,0.2,0.8,0.4,1.2c0.2,0.3,0.4,0.5,0.7,0.7
			c0.2,0.2,0.5,0.3,0.8,0.4c0.3,0.1,0.5,0.1,0.8,0.1c0.3,0,0.6,0,0.9-0.1l0.1,0.5c-0.9,0.2-1.7,0.1-2.4-0.1
			C81.5,32.2,81,31.7,80.5,31z"/>
		<path class="st0" d="M85.7,42.1l-1.3-3.5l0.4-0.2c0.1,0.3,0.3,0.5,0.4,0.7c0.1,0.2,0.2,0.3,0.3,0.2c0,0,0.1,0,0.1-0.1
			c0,0,0.1-0.1,0.1-0.1l1.6-1.4l-1.1-3c-0.3,0-0.6,0-0.8,0c-0.2,0-0.4,0-0.6,0c-0.2,0-0.3,0-0.5,0c-0.1,0-0.2,0-0.3,0.1
			c-0.2,0.1-0.2,0.2-0.2,0.5c0,0.3,0.1,0.6,0.2,0.9l-0.4,0.2l-1.2-3.2l0.4-0.2c0,0.1,0.1,0.2,0.2,0.4c0.1,0.1,0.2,0.2,0.3,0.3
			c0.2,0.1,0.3,0.2,0.5,0.2c0.1,0,0.3,0.1,0.6,0.1c1.2,0,2.6,0.1,4.1,0.1c1.5,0,2.9,0,4,0.1l0.2,0.5l-6.3,5.5
			c-0.1,0.1-0.2,0.2-0.3,0.3c-0.1,0.1-0.1,0.3-0.2,0.4c0,0.1,0,0.2,0,0.4c0,0.2,0,0.3,0.1,0.4L85.7,42.1z M87.9,37.5l2.8-2.5l-3.8,0
			L87.9,37.5z"/>
		<path class="st0" d="M93,48.5L93,48.1c0.1-0.1,0.3-0.2,0.5-0.3c0.2-0.1,0.4-0.3,0.5-0.4c0.2-0.2,0.3-0.3,0.5-0.5
			c0.1-0.2,0.2-0.3,0.2-0.5c0-0.1,0-0.3,0-0.5c0-0.2,0-0.4-0.1-0.6l0-0.4l-7.2,0.9c-0.1,0-0.3,0.1-0.4,0.1c-0.1,0.1-0.2,0.2-0.2,0.3
			c0,0.1,0,0.2-0.1,0.5c0,0.2,0,0.4,0,0.6l-0.4,0.1l-0.5-4.2l0.4-0.1c0,0.1,0.1,0.3,0.1,0.5c0.1,0.2,0.1,0.4,0.2,0.5
			c0.1,0.1,0.2,0.2,0.3,0.3c0.1,0.1,0.3,0.1,0.4,0l7.2-0.9l0-0.4c0-0.1,0-0.3-0.1-0.5c0-0.2-0.1-0.4-0.1-0.5c0-0.1-0.1-0.3-0.3-0.4
			c-0.2-0.1-0.4-0.2-0.6-0.3c-0.2-0.1-0.4-0.2-0.6-0.3c-0.2-0.1-0.4-0.1-0.5-0.1L92,40.7l2.4-0.3l1,7.8L93,48.5z"/>
		<path class="st0" d="M86.1,53.8l0.2-4l0.4,0c0,0.1,0,0.3,0,0.5c0,0.2,0,0.4,0.1,0.5c0,0.1,0.1,0.2,0.2,0.3
			c0.1,0.1,0.2,0.1,0.4,0.1l6.5,0.3c0.1,0,0.3,0,0.4-0.1c0.1,0,0.2-0.1,0.3-0.3c0.1-0.1,0.1-0.3,0.2-0.5c0.1-0.2,0.1-0.3,0.1-0.5
			l0.4,0l-0.2,4l-0.4,0c0-0.1,0-0.3,0-0.5c0-0.2,0-0.3-0.1-0.5c0-0.2-0.1-0.3-0.2-0.3c-0.1-0.1-0.2-0.1-0.4-0.1l-6.5-0.3
			c-0.1,0-0.3,0-0.4,0.1c-0.1,0.1-0.2,0.2-0.3,0.3c0,0.1-0.1,0.2-0.1,0.4c-0.1,0.2-0.1,0.4-0.1,0.5L86.1,53.8z"/>
		<path class="st0" d="M92.1,63.7c-0.5,0.3-1.1,0.5-1.7,0.5c-0.6,0.1-1.3,0-2-0.2c-0.7-0.2-1.3-0.5-1.8-0.8
			c-0.5-0.4-0.9-0.8-1.2-1.3c-0.3-0.5-0.5-1-0.6-1.6c-0.1-0.6,0-1.1,0.1-1.7c0.2-0.6,0.4-1.1,0.8-1.6c0.4-0.5,0.8-0.8,1.3-1.1
			c0.5-0.3,1.1-0.4,1.7-0.5c0.6-0.1,1.3,0,1.9,0.2c0.7,0.2,1.3,0.5,1.8,0.8c0.5,0.4,0.9,0.8,1.2,1.3c0.3,0.5,0.5,1,0.6,1.6
			c0.1,0.6,0,1.1-0.1,1.7c-0.1,0.6-0.4,1.1-0.8,1.6C93,63.1,92.6,63.5,92.1,63.7z M86.1,61.2c0.3,0.3,0.7,0.6,1.1,0.8
			c0.4,0.2,1,0.4,1.5,0.6c0.6,0.2,1.2,0.2,1.7,0.3c0.5,0,1,0,1.4-0.2c0.4-0.1,0.8-0.3,1-0.6c0.3-0.3,0.5-0.7,0.6-1.1
			c0.1-0.5,0.1-0.9,0-1.3c-0.1-0.4-0.4-0.8-0.7-1.1c-0.3-0.3-0.7-0.6-1.1-0.8c-0.5-0.2-1-0.4-1.5-0.5c-0.6-0.2-1.1-0.2-1.6-0.3
			c-0.5,0-1,0-1.4,0.2c-0.4,0.1-0.8,0.3-1.1,0.6c-0.3,0.3-0.5,0.7-0.6,1.1c-0.1,0.4-0.1,0.9,0,1.3C85.6,60.5,85.8,60.9,86.1,61.2z"
			/>
		<path class="st0" d="M86.7,75.9c0.1-0.1,0.1-0.3,0.2-0.5c0.1-0.2,0.1-0.4,0.1-0.6c0-0.2-0.1-0.4-0.4-0.6c-0.2-0.2-0.6-0.4-1-0.6
			l-5.7-3.3l0.3-0.5l9.1-1.1l-4-2.3c-0.5-0.3-0.8-0.4-1.1-0.5c-0.3-0.1-0.5-0.1-0.7,0c-0.1,0-0.3,0.2-0.5,0.4
			c-0.2,0.2-0.4,0.4-0.4,0.5l-0.4-0.2l1.8-3.2l0.4,0.2c-0.1,0.1-0.1,0.3-0.2,0.6c-0.1,0.3-0.1,0.5-0.1,0.5c0,0.2,0.1,0.4,0.3,0.5
			c0.2,0.2,0.5,0.4,1,0.7l3.9,2.2c0.2,0.1,0.4,0.2,0.6,0.2c0.2,0,0.4,0,0.5,0c0.2-0.1,0.4-0.2,0.6-0.4c0.2-0.2,0.4-0.3,0.5-0.5
			l0.4,0.2l-1.3,2.2l-8.5,1l3.7,2.1c0.5,0.3,0.8,0.4,1.1,0.5c0.3,0.1,0.5,0.1,0.6,0c0.1-0.1,0.3-0.2,0.5-0.4
			c0.2-0.2,0.3-0.4,0.4-0.5l0.4,0.2l-1.8,3.2L86.7,75.9z"/>
	</g>
	<g>
		<path class="st0" d="M34.3,80.9c0.2,0.1,0.3,0.3,0.5,0.6c0.1,0.2,0.2,0.3,0.1,0.4c0,0-0.1,0-0.3,0c-0.2-0.1-0.6-0.3-1.2-0.6
			c0,0-0.1-0.1-0.1-0.1l-0.8,0.9c0.2,0.1,0.4,0.2,0.6,0.4c0.4,0,0.7-0.1,1.1-0.1c0.4-0.1,0.8-0.3,1.1-0.7c0.1-0.2,0.3-0.2,0.4-0.1
			c0.1,0.1,0.2,0.2,0.3,0.4c0.2,0.5,0.3,0.8,0.2,0.9c0,0.1-0.1,0.1-0.3,0.1C35.6,83,35.3,83,35,83c-0.2,0-0.5,0.1-0.7,0.1
			c0.4,0.3,0.7,0.4,0.8,0.5c0.1,0.1,0.3,0.3,0.4,0.5c0.1,0.2,0.1,0.3,0.1,0.4c0,0.1-0.2,0-0.4-0.1c-0.5-0.4-1.1-0.8-1.8-1.2
			c-0.4,0-0.7,0-1.1,0.1c-0.4,0-0.8,0-1.2,0c0.1,0.1,0.2,0.1,0.3,0.2c0.3,0.2,0.7,0.3,1,0.5c0.1,0,0.2,0.1,0.2,0.1
			c0.1,0.1,0.3,0.3,0.6,0.7c0.2,0.3,0.3,0.6,0.2,0.7c0,0-0.1,0-0.3,0c-0.4-0.1-0.8-0.2-1.2-0.3l-0.7-0.1c-0.1,0-0.1,0-0.1,0
			c0,0.1,0,0.2,0,0.2c-0.1,0.1-0.2,0.3-0.3,0.4c0.3,0.2,0.7,0.3,1.1,0.5c0.4,0.2,0.6,0.3,0.7,0.3c0,0,0,0.1,0,0.1c0,0-0.1,0-0.2,0
			c-0.4-0.1-1-0.3-1.7-0.6c-0.3,0.4-0.6,0.8-0.8,1.1c-0.4,0.5-0.8,0.8-1.1,0.9c-0.3,0-0.5,0-0.7-0.1c-0.1,0-0.1-0.1-0.1-0.3
			c-0.1-0.6-0.2-1.1-0.3-1.5c0-0.1,0-0.1,0-0.2l0.1,0c0.1,0.1,0.2,0.2,0.3,0.4c0.2,0.2,0.3,0.4,0.4,0.4c0.1,0.1,0.1,0.1,0.2,0.1
			c0.1,0,0.3-0.1,0.5-0.3c0.2-0.2,0.4-0.4,0.7-0.8c0,0,0,0,0-0.1c0,0-0.1,0-0.1-0.1c-0.6-0.2-1.4-0.5-2.2-0.8
			c-0.1,0-0.2-0.1-0.3-0.1c-0.1-0.1-0.3-0.3-0.4-0.6c-0.1-0.3-0.1-0.4,0-0.5c0,0,0.1,0,0.2,0c0.2,0.2,0.5,0.3,0.7,0.4
			c0.6,0.3,1.5,0.7,2.5,1.2c0.1-0.2,0.2-0.3,0.2-0.5c0.1-0.2,0.1-0.3,0-0.4c0-0.1,0-0.1,0-0.1c0.1-0.1,0.1-0.1,0.2,0
			c0.1,0.1,0.2,0.2,0.3,0.4c0.4-0.1,0.7-0.1,1-0.2c0.1,0,0.1,0,0.2-0.1c0.1-0.1,0-0.2-0.1-0.3c0,0-0.1-0.1-0.3-0.1
			c-0.2-0.1-0.6-0.3-1-0.4c-0.1,0-0.2-0.1-0.2-0.1c0,0-0.1-0.1-0.2-0.2c-0.7-0.1-1.3-0.2-2-0.4c-1.3-0.3-2.2-0.7-2.6-1
			c-0.1-0.1-0.1-0.1-0.1-0.1c0,0,0.1,0,0.3,0.1c1.2,0.4,2.8,0.6,4.6,0.8c0.6,0,1.2,0.1,1.8,0.1c-0.7-0.4-1.5-0.8-2.3-1.3
			c-0.5-0.2-0.8-0.4-0.9-0.5c-0.1-0.1-0.3-0.3-0.6-0.7c-0.2-0.3-0.2-0.4-0.2-0.5c0,0,0.2,0,0.4,0.2c0.7,0.5,1.8,1.1,3.2,2l0.7-1
			c-0.3-0.2-0.6-0.4-0.7-0.5c-0.4-0.3-0.6-0.5-0.7-0.7C31,79.3,31,79.2,31,79.1c0,0,0.1,0,0.4,0.2c0.4,0.3,1,0.6,1.5,0.9l0.7-1
			c0.1-0.1,0.1-0.2,0.1-0.4c0-0.1,0-0.2,0-0.2c0.1-0.1,0.2-0.1,0.4,0c0.2,0.1,0.4,0.4,0.6,0.7c0.1,0.2,0.2,0.3,0.1,0.4
			c0,0.1-0.1,0.1-0.2,0.1c-0.1,0.1-0.2,0.2-0.3,0.3l-0.6,0.6c0.1,0.1,0.2,0.1,0.3,0.1C34.2,80.9,34.3,80.9,34.3,80.9z M39.7,83.1
			c0.1,0.1,0.2,0.2,0.3,0.4c0.2,0.5,0.3,0.8,0.2,0.9c-0.1,0.1-0.2,0.1-0.3,0.1c-0.2,0-0.4,0.1-0.6,0.2c-1.1,0.4-2,0.7-2.8,0.8
			c0.7,0.4,1.6,0.8,2.7,1.3c0.4,0.2,0.6,0.3,0.6,0.3c0.1,0.1,0.3,0.3,0.6,0.6c0.2,0.3,0.3,0.4,0.2,0.5c-0.1,0.1-0.2,0.1-0.4,0
			c-0.6-0.4-1.5-0.9-2.5-1.5c0.1,0.1,0.1,0.3,0.2,0.4c0.1,0.3,0.1,0.4,0,0.6c0,0.1-0.1,0.1-0.3,0.2c-0.3,0.2-0.5,0.3-0.7,0.5
			c-0.5,0.5-1.1,0.8-1.6,1c0.1,0.6,0.3,1.1,0.5,1.5c0.4,0.8,0.9,1.7,1.6,2.8c0.2,0.3,0.3,0.4,0.3,0.5c0,0-0.2,0-0.4-0.1
			c-0.4-0.2-0.9-0.5-1.6-1.1c-0.4-0.3-0.7-0.7-0.8-1c-0.2-0.5-0.3-1.2-0.3-2.3c-0.6,0.1-1.2,0-1.9-0.2c-0.7-0.2-1.4-0.6-2-1.1
			c-0.2-0.1-0.2-0.2-0.2-0.2c0,0,0.2,0,0.4,0.1c0.9,0.4,1.7,0.6,2.4,0.6c0.5,0,0.9,0,1.3-0.1c0-0.3,0-0.6,0-0.9
			c0-0.5-0.1-0.9-0.3-1.2c-0.1-0.1-0.1-0.2-0.1-0.3c0.1-0.1,0.2,0,0.4,0.1c0.3,0.3,0.5,0.7,0.6,1.2c0,0.3,0.1,0.6,0.1,0.9
			c0.1,0,0.1-0.1,0.2-0.1c0.5-0.3,1-0.8,1.5-1.4c0.1-0.1,0.2-0.2,0.2-0.4c0-0.1,0-0.1,0-0.2c-0.5-0.3-0.8-0.4-0.9-0.4
			c-0.1-0.1-0.3-0.2-0.4-0.4c-0.5,0.1-1,0.1-1.5,0c-0.5,0-0.8-0.1-0.9-0.2l-0.1,0c0,0,0.1,0,0.2,0c0.7-0.1,1.5-0.2,2.3-0.5
			c0.8-0.2,1.5-0.5,2.3-0.9c0.5-0.2,0.9-0.5,1.1-0.9C39.5,83,39.6,83,39.7,83.1z"/>
		<path class="st0" d="M56.8,87.1c-0.8,0.1-2,0.2-3.6,0.3c-0.5,0-1,0-1.5,0c0.2-0.1,0.3-0.3,0.4-0.4c0.3-0.2,0.5-0.4,0.5-0.5
			c0-0.1-0.1-0.3-0.4-0.5c-0.3-0.2-0.6-0.3-0.7-0.3c-0.2,0-0.3,0.1-0.3,0.3c-0.1,0.4-0.3,0.8-0.7,1.3c-0.7,0-1.3,0.1-1.9,0.1
			c-0.7,0.1-1.9,0.1-3.4,0.1c-0.3,0-0.4,0.1-0.4,0.1c0,0.1,0.2,0.2,0.6,0.3c0.4,0.1,0.7,0.2,0.9,0.2c0.1,0,0.4,0,0.7-0.1
			c1.1-0.2,2.2-0.3,3.2-0.3l0,0c-0.7,0.8-1.3,1.3-1.8,1.5c-0.2,0.1-0.3,0.2-0.3,0.3c0,0.1,0.1,0.3,0.2,0.5c0.1,0.2,0.3,0.3,0.4,0.3
			c0.2,0,0.5,0,0.9-0.2c0.4-0.1,1-0.2,1.6-0.2c0,0,1-0.1,3.1-0.3c0.1,0,0.2,0,0.2,0c0.4,0.4,0.8,0.6,1.1,0.8
			c0.2,0.1,0.3,0.1,0.4,0.1c0.1,0,0.2,0,0.3-0.1c0.1-0.1,0.1-0.2,0.1-0.3c0-0.2-0.1-0.4-0.2-0.6c-0.2-0.2-0.6-0.4-1.2-0.7
			c-0.5-0.2-1-0.3-1.5-0.5c-0.3-0.1-0.4-0.1-0.5-0.1c-0.1,0-0.1,0-0.1,0.1c0,0.1,0.1,0.2,0.3,0.3c0.2,0.1,0.5,0.4,0.9,0.7
			c-0.5,0-1.2,0.1-2.1,0.2c-1.2,0.1-2,0.1-2.2,0.1c-0.1,0-0.2,0-0.2-0.1c0-0.1,0.1-0.1,0.2-0.3c0.6-0.6,1.1-1,1.5-1.4
			c1.7-0.1,3.1-0.1,4.1-0.1l2.7,0.1c0.6,0,1,0,1-0.1c0-0.1-0.2-0.3-0.7-0.5c-0.5-0.2-0.8-0.2-0.9-0.2C57.4,87,57.2,87,56.8,87.1z
			 M48.2,91c0,0,0.1,0.1,0.2,0.2c0.1,0.1,0.2,0.3,0.3,0.5c0,0.3,0,0.6,0,0.9l0,0.6c0,0.8-0.2,1.5-0.4,2.1c-0.3,0.6-0.7,1.1-1.3,1.5
			c-0.1,0-0.2,0.1-0.2,0.1c0,0,0,0.1,0.1,0.1c0.2,0,0.6-0.1,1.1-0.4c0.6-0.3,1-0.8,1.3-1.4c0-0.1,0.1-0.2,0.1-0.2c0,0,0,0,0.1,0
			c0.3,0.2,0.4,0.3,0.6,0.3c0.2,0,0.5,0,0.8-0.1c0.4-0.2,0.9-0.4,1.5-0.6c0.5-0.2,0.9-0.3,1.3-0.5c0,0,0,0.1,0,0.1
			c0,1.1-0.1,1.7-0.2,1.9c-0.1,0.1-0.2,0.2-0.3,0.2c-0.1,0-0.4-0.1-1.1-0.3c-0.1,0-0.2,0-0.2,0c0,0-0.1,0-0.1,0.1
			c0,0,0.1,0.1,0.2,0.2c0.4,0.3,0.9,0.7,1.4,1.1c0.1,0.1,0.2,0.2,0.3,0.2c0.2,0,0.5-0.2,0.8-0.5c0.3-0.3,0.4-0.7,0.4-1.3
			c0-0.3,0-0.6-0.1-0.8c0-0.3-0.1-0.8,0-1.5c0-0.7,0.1-1.2,0.3-1.4c0.1-0.1,0.2-0.2,0.2-0.3c0-0.1-0.2-0.3-0.5-0.4
			c-0.5-0.2-0.8-0.3-0.9-0.3c0,0-0.2,0-0.4,0.1c-0.4,0.1-0.9,0.2-1.6,0.3c-0.7,0.1-1.4,0.1-2,0.1c-0.1,0-0.1-0.1-0.2-0.1
			c-0.4-0.2-0.7-0.3-1-0.3C48.4,90.9,48.2,90.9,48.2,91z M49.8,92.4c0.2,0.1,0.6,0.3,1,0.5c0.4,0.2,0.7,0.3,1,0.4
			c0.2,0.1,0.3,0.1,0.4,0.1c0.1,0,0.2,0,0.3-0.1c0.1-0.1,0.1-0.2,0.1-0.4c0-0.1-0.1-0.1-0.2-0.2c-0.2-0.1-0.6-0.2-1.1-0.3
			c-0.4-0.1-0.9-0.1-1.3-0.2c0,0-0.1,0-0.1,0c0-0.1,0.1-0.3,0.1-0.4c0,0,0-0.1,0-0.1c0,0,0.1,0,0.1,0c0.4-0.1,1.1-0.1,2.1-0.2
			c0.6,0,1,0,1.1,0c0.1,0,0.2,0,0.3,0.1c0,0.1,0.1,0.2,0.1,0.3c0,0.7,0,1.3,0,1.8c-0.7,0.2-1.4,0.4-2.3,0.5
			c-0.7,0.1-1.3,0.2-1.8,0.2C49.7,93.9,49.8,93.3,49.8,92.4z"/>
		<path class="st0" d="M66.9,83.6c-0.3,0.4-0.8,0.8-1.3,1.3c-0.8,0.7-1.5,1.4-2.2,1.9c-0.3,0.2-0.5,0.4-0.4,0.4c0,0.1,0.2,0.1,0.4,0
			c0.1,0,0.3-0.1,0.6-0.3c0,0,0.1,0.1,0.2,0.1c0.2,0.1,0.5,0.3,1,0.5c0.4,0.2,0.6,0.4,0.8,0.4c0,0,0,0,0,0c-1.2,1-2.1,1.8-2.8,2.3
			c-0.2,0.2-0.3,0.3-0.3,0.3c0.1,0.1,0.3,0.1,0.6,0c0.4-0.1,0.7-0.3,0.9-0.4c0.1-0.1,0.4-0.3,0.8-0.7c1.8-1.8,3.4-3.2,4.8-4.2
			c0.2-0.2,0.3-0.3,0.2-0.3c-0.1-0.1-0.2-0.1-0.5-0.1c-0.3,0.1-0.5,0.2-0.7,0.3c-0.1,0.1-0.4,0.3-1,0.8c-0.1,0.1-0.2,0.2-0.3,0.2
			c0-0.3,0.1-0.7,0.1-1.1c0-0.2,0-0.5,0-0.7c0-0.2,0.1-0.3,0-0.3c-0.1-0.1-0.3-0.1-0.6,0c-0.1,0-0.1,0-0.2,0
			c0.4-0.4,0.7-0.6,0.8-0.8c0.2-0.2,0.2-0.3,0.2-0.4c-0.1-0.1-0.2-0.1-0.4,0c-0.3,0.1-0.6,0.2-0.7,0.3C67,83.4,67,83.5,66.9,83.6z
			 M63.7,84.3c0.1,0.1,0.4,0.3,0.9,0.5c0.4,0.1,0.7,0.1,0.9,0c0.4-0.2,0.5-0.4,0.3-0.7c-0.1-0.1-0.2-0.2-0.4-0.3c-0.2,0-0.4,0-0.8,0
			c-0.4,0.1-0.6,0.2-0.8,0.4C63.7,84.2,63.7,84.2,63.7,84.3z M66.3,87.8c0-0.2,0-0.3-0.1-0.4c-0.1-0.2-0.3-0.3-0.4-0.4
			c-0.2-0.1-0.5-0.2-0.8-0.2c-0.3,0-0.5,0-0.8,0c0.4-0.3,1.2-0.9,2.3-1.9c0,0,0,0,0.1,0c0.1,0.1,0.2,0.1,0.2,0.2
			c0.1,0.2,0.2,0.4,0.3,0.7c0.1,0.3,0.2,0.7,0.3,1.1C67,87.2,66.7,87.5,66.3,87.8L66.3,87.8z M65.4,90.8l0.1,0c0.3,0,0.5,0,0.7,0.1
			c0.2,0.1,0.4,0.2,0.7,0.5l0.6,0.5c0.1,0.1,0.2,0.2,0.4,0.2c0.1,0,0.2,0,0.3,0c0.1,0,0.1-0.1,0.1-0.2c0-0.1,0-0.1,0-0.2
			c0,0,0.1-0.1,0.1-0.1c0.1-0.1,0.3-0.2,0.6-0.4l1.3-1.1c0.3-0.2,0.6-0.5,0.9-0.7c0.1-0.1,0.1-0.1,0.1-0.2c0-0.1-0.2-0.1-0.4,0
			c0,0,0,0,0,0l0-1.2c0-0.2,0-0.4,0-0.6c0.1-0.2,0.1-0.3,0-0.4c0-0.1-0.2-0.1-0.6,0c-0.5,0.1-0.8,0.2-0.9,0.3c0,0-0.1,0.1-0.3,0.3
			c-0.8,0.8-1.7,1.6-2.8,2.6c0,0-0.1,0-0.1,0.1c-0.2,0-0.4,0.1-0.5,0.3C65.4,90.6,65.3,90.7,65.4,90.8z M66.9,90.5
			c-0.1-0.1-0.1-0.1-0.2-0.2c0.1-0.1,0.1-0.1,0.2-0.2c0.3-0.3,0.7-0.7,1.4-1.3c0.4-0.3,0.6-0.6,0.8-0.6c0.2-0.1,0.3-0.1,0.3-0.1
			c0.1,0.1,0.2,0.5,0.5,1.2c0,0.1,0.1,0.2,0.1,0.2c-0.1,0.1-0.3,0.3-0.5,0.5c-0.5,0.4-1,0.9-1.6,1.3C67.7,91.1,67.4,90.8,66.9,90.5z
			 M71.6,79.5c-0.5,0.6-1.1,1.2-1.7,1.9c-0.1,0-0.1,0-0.2,0.1c-0.4,0.1-0.6,0.2-0.7,0.3c-0.1,0.1-0.2,0.2-0.2,0.3
			c0,0,0.1,0.1,0.2,0.1c0.2,0.1,0.4,0.3,0.6,0.6l3.5,5c0.5,0.8,1,1.4,1.3,1.8c0.2,0.2,0.4,0.2,0.5,0.2c0.1-0.1,0.1-0.3-0.1-0.7
			c-0.2-0.7-0.6-1.4-1.1-2.1l-2.7-4.1c-0.2-0.3-0.4-0.7-0.5-1c0-0.1,0-0.2-0.1-0.3c0.2-0.2,0.5-0.4,0.8-0.7c0.3-0.3,0.6-0.6,0.7-0.7
			c0.2-0.1,0.3-0.1,0.3,0c0.1,0.1,0.1,0.4,0.2,0.8c0.1,0.6,0.1,1,0.1,1.2c0,0.1,0,0.2,0,0.2c0,0.1,0.1,0.1,0.3,0.1
			c0.6,0,1.1,0.1,1.5,0.3c0.4,0.2,0.7,0.4,0.8,0.6c0.1,0.2,0,0.3-0.2,0.5c-0.2,0.1-0.7,0.4-1.5,0.8c0,0-0.1,0.1,0,0.1
			c0,0,0.1,0,0.4,0c1.2-0.2,1.9-0.2,2.3-0.2c0.2,0,0.3,0,0.4-0.1c0.1-0.1,0.2-0.3,0.2-0.6c0-0.3,0-0.7-0.2-0.9
			c-0.3-0.5-0.7-0.8-1.2-0.9c-0.6-0.2-1.4-0.2-2.1,0c-0.1,0-0.2,0-0.2,0c0,0,0.1-0.6,0.3-1.8c0-0.3,0.1-0.6,0.3-1.1
			c0-0.1,0-0.2,0-0.2c-0.1-0.1-0.2-0.1-0.5-0.1c-0.5,0.1-0.9,0.3-1.1,0.4C71.8,79.2,71.7,79.3,71.6,79.5z"/>
	</g>
	<path class="st2" d="M100,49.9c0,27-21.9,48.8-48.8,48.8c-27,0-48.8-21.9-48.8-48.8c0-27,21.9-48.8,48.8-48.8
		C78.1,1.1,100,23,100,49.9z"/>
</g>
</svg>
