<?xml version="1.0" encoding="utf-8"?>
<!-- Generator: Adobe Illustrator 25.4.8, SVG Export Plug-In . SVG Version: 6.00 Build 0)  -->
<svg version="1.1" id="圖層_1" xmlns="http://www.w3.org/2000/svg" xmlns:xlink="http://www.w3.org/1999/xlink" x="0px" y="0px"
	 viewBox="0 0 300 72.5" style="enable-background:new 0 0 300 72.5;" xml:space="preserve">
<style type="text/css">
	.st0{display:none;}
	.st1{display:inline;fill:#FFFFFF;}
	.st2{display:inline;}
	.st3{fill:#FFFFFF;}
</style>
<g>
	<g>
		<g>
			<g class="st0">
				<path class="st1" d="M11.5,32.3c0,0-0.1-0.1-0.1-0.1c0,0,0,0,0,0c0,0,0,0-0.1-0.1c0,0,0-0.1,0-0.1c0-0.1,0-0.2-0.1-0.3
					c-0.1-0.1-0.2-0.2-0.3-0.2c0,0,0,0,0,0c0,0,0,0,0,0c0-0.1,0-0.2-0.2-0.2c0,0-0.1,0-0.1,0c0,0,0-0.1,0-0.1c0-0.1,0-0.1-0.2-0.2
					c0,0-0.1-0.1-0.1-0.1c-0.1-0.1-0.2-0.2-0.3-0.2c0,0-0.1-0.1-0.1-0.1c0,0,0,0,0,0c0,0,0,0,0,0c0-0.1,0-0.1,0-0.1
					c0-0.1-0.1-0.2-0.1-0.3c0,0,0,0,0,0c0-0.1,0-0.1-0.1-0.2c0,0,0,0,0,0c0-0.1-0.1-0.2-0.1-0.3c0,0,0,0,0,0c0,0,0-0.1,0-0.1
					c0-0.1,0-0.2-0.1-0.3c0-0.1,0-0.2,0-0.2c0-0.1-0.1-0.1-0.2-0.2c0,0,0,0,0,0c0,0,0-0.1,0-0.1c0-0.2-0.1-0.3-0.3-0.3
					c0,0,0,0-0.1,0c0,0-0.1,0-0.1,0c0,0,0-0.1,0-0.1C8.6,28.1,8.6,28,8.5,28c0,0-0.1,0-0.1-0.1c0,0-0.1-0.1-0.2-0.1
					c0-0.1-0.1-0.1-0.2-0.1c0,0-0.1,0-0.2,0c-0.1-0.1-0.1-0.2-0.2-0.2c0,0-0.1,0-0.1,0c0,0,0,0-0.1,0c0,0,0,0,0,0
					c0-0.1-0.1-0.2-0.3-0.2c0-0.1,0-0.1-0.2-0.2c0,0-0.1,0-0.2,0c-0.1-0.1-0.1-0.1-0.1-0.1c-0.1-0.1,0-0.1-0.2-0.1c0,0-0.1,0-0.1,0
					c-0.1-0.1-0.2-0.1-0.3-0.1l-0.2,0l-0.1,0c-0.1,0-0.3,0-0.3,0.1l-0.1,0l-0.1,0c-0.1,0-0.1,0.1-0.2,0.2C5.1,27,5,27.1,5,27.2
					c0,0,0,0,0,0c-0.1,0-0.1,0.1-0.2,0.1c-0.1,0.1-0.1,0.2-0.2,0.3c-0.1,0-0.1,0.1-0.2,0.2c-0.2,0-0.3,0.2-0.4,0.4c0,0,0,0,0,0
					c0,0-0.1,0.1-0.1,0.1c0,0,0,0.1-0.1,0.1c-0.2,0-0.4,0.2-0.4,0.5c0,0,0,0,0,0.1l0,0l0,0c0,0.2,0.2,0.5,0.4,0.5l0,0l0.3,0
					c0.1,0,0.2,0,0.3-0.1c0,0,0,0,0,0c0,0,0,0,0,0c0,0,0,0-0.1,0.1c-0.1,0-0.2,0-0.3,0.1c0,0,0,0,0,0c-0.1,0-0.2,0.1-0.3,0.3
					c-0.1,0-0.2,0-0.2,0.1c0,0-0.3,0-0.3,0c-0.1,0-0.1,0-0.2,0.1c0,0-0.1,0-0.1,0c-0.2,0-0.3,0.1-0.3,0.3l-0.1,0.2c0,0,0,0.1,0,0.1
					c0,0.1,0,0.2,0.1,0.2c0,0.1-0.1,0.1-0.1,0.2c0,0.1,0,0.2,0,0.3l0-0.2l0,0l0,0.4c0,0.2,0.1,0.2,0.2,0.2c0,0.1,0.1,0.1,0.1,0.1
					c0,0.1,0,0.2,0,0.2c0.1,0.1,0.1,0.1,0.2,0.2c0,0.1,0.1,0.1,0.1,0.2c0,0,0,0,0.1,0.1c0,0.1,0.1,0.1,0.1,0.2c0,0.1,0,0.1,0,0.1
					c0,0.1,0,0.2,0.1,0.2c0,0.1,0,0.1,0,0.2c0,0.1-0.1,0.2-0.1,0.3c0,0.1,0,0.2,0.1,0.3c0.1,0.1,0.2,0.2,0.3,0.2h0.1
					c0.1,0,0.2,0,0.2-0.1c0.1,0.1,0.2,0.1,0.3,0.1c0,0,0.1,0.1,0.1,0.1c0.2,0.1,0.3,0.1,0.4,0.1c0,0,0,0,0,0
					c0.1,0.1,0.1,0.2,0.2,0.2c0,0,0.1,0,0.1,0C5.7,34.9,5.7,35,5.9,35c0,0,0.1,0,0.2,0c0,0.1,0.1,0.1,0.2,0.1c0,0,0.1,0,0.1,0
					c0.1,0.1,0.2,0.1,0.3,0.2c0,0.1,0.1,0.1,0.1,0.1c0,0,0.1,0,0.2,0c0.1,0.1,0.3,0.2,0.5,0.2c0,0,0,0,0,0c0,0.1,0.1,0.1,0.2,0.1
					c0,0,0.1,0,0.1,0c0.1,0.1,0.1,0.1,0.2,0.1c0,0,0,0,0,0c0.1,0,0.1,0.1,0.2,0.1l0.1,0c0.1,0,0.1,0,0.2,0c0,0,0,0,0,0
					c0.1,0,0.2,0,0.5-0.1c0.1,0,0.1-0.1,0.2-0.1c0,0,0.1-0.1,0.1-0.1c0,0,0.1,0,0.1,0c0.2,0,0.4,0,0.5-0.1c0,0-0.1,0-0.1,0
					c0.2,0,0.4-0.1,0.5-0.3c0,0,0-0.1,0-0.2c0.1-0.1,0.1-0.1,0.1-0.2c0,0,0,0,0-0.1c0,0,0,0,0,0c0.1,0,0.2-0.1,0.2-0.2
					c0,0,0.1-0.1,0.1-0.1c0,0,0,0,0,0c0.1,0,0.2,0,0.2-0.2c0,0,0-0.1,0-0.2c0.1-0.1,0.1-0.1,0.1-0.2c0,0,0.1-0.1,0.1-0.1
					c0,0,0,0,0,0c0,0,0,0,0,0c0,0,0.1-0.2,0.1-0.3c0.1-0.1,0.1-0.1,0.1-0.2c0.1-0.1,0.2-0.2,0.2-0.4v-0.1
					C11.7,32.5,11.6,32.4,11.5,32.3z"/>
				<g class="st2">
					<path class="st3" d="M17.5,23.3c0-0.1,0-0.1-0.1-0.2c0-0.1,0-0.3,0-0.3c0,0,0,0,0,0c0,0,0,0,0,0c0,0,0-0.1,0-0.1
						c0-0.1,0-0.2-0.1-0.3c0,0,0-0.1,0-0.1c0-0.1,0-0.1,0-0.2c0-0.1,0-0.2,0-0.2c0-0.1-0.1-0.1-0.1-0.2c0-0.1-0.1-0.3-0.1-0.3
						c0,0-0.1,0-0.1-0.1c0-0.1,0-0.1-0.1-0.2c0,0,0-0.3,0-0.3c0-0.1,0-0.2-0.1-0.3c0,0,0-0.4,0-0.4c0-0.1,0-0.1-0.1-0.2
						c0-0.1,0-0.1,0-0.1c0-0.1,0-0.1-0.1-0.2c0-0.1,0-0.2-0.1-0.2c0-0.1,0-0.2,0-0.2c0,0,0,0,0,0c0,0,0,0,0,0c0,0,0,0,0,0l-0.3-0.3
						c0,0,0,0,0,0c0-0.1-0.1-0.2-0.1-0.2c-0.1-0.1-0.1-0.1-0.3-0.1c-0.1-0.2-0.2-0.3-0.4-0.3c0,0,0-0.1-0.1-0.1l-0.1-0.1l-0.1,0
						c-0.1-0.1-0.3-0.1-0.5,0c0,0,0,0,0,0c-0.1,0-0.2,0-0.2,0c-0.1,0-0.3,0.1-0.3,0.3c0,0,0,0,0,0.1c-0.1,0-0.2,0.1-0.2,0.2
						c0,0-0.1,0-0.1,0c0,0,0,0.1-0.1,0.1c-0.1,0-0.1,0.1-0.2,0.1c-0.1,0.1-0.1,0.1-0.1,0.2c0,0,0,0.1-0.1,0.1c0,0-0.1,0.1-0.1,0.1
						l-0.1,0c0,0,0,0-0.1,0.1c-0.1,0-0.1,0.1-0.2,0.2c-0.1,0-0.1,0.1-0.1,0.1c-0.1,0.1-0.2,0.2-0.2,0.3c-0.1,0.1-0.1,0.2-0.1,0.3
						c0,0,0,0,0,0l0,0.1l0-0.1c0,0,0,0.1,0,0.1c0,0.1,0,0.2,0.1,0.3c0.1,0.1,0.1,0.1,0.2,0.2c0,0,0,0,0,0.1c0,0,0,0.1-0.1,0.1
						c-0.1,0-0.2,0.1-0.2,0.2c0,0,0,0,0,0c0,0-0.1,0-0.1,0c-0.1,0-0.1,0-0.2,0.1c0,0-0.1,0.2-0.2,0.3c-0.1,0.1-0.1,0.1-0.2,0.2
						c0,0,0,0,0,0c-0.1,0.1-0.1,0.1-0.1,0.3c0,0,0,0.1,0,0.1c0,0,0,0,0,0.1c-0.1,0-0.2,0.1-0.2,0.3c0,0,0,0.1,0,0.2c0,0,0,0,0,0
						c-0.1,0.1-0.1,0.1-0.1,0.3c0,0,0,0,0,0.1c-0.1,0-0.1,0.1-0.1,0.2c0,0,0,0.1,0,0.2c0,0,0,0,0,0.1c0,0.1-0.1,0.1-0.1,0.2l0,0.4
						c0,0,0,0,0,0c0,0,0,0,0,0c0,0,0,0-0.1,0.1c-0.1,0.1-0.2,0.1-0.2,0.2c0,0.1,0,0.2,0,0.2c0,0.1,0,0.1,0,0.2
						c-0.1,0.1-0.1,0.2-0.1,0.3v0.1c0,0.1,0,0.2,0.1,0.3c0,0,0,0.1,0,0.1c0,0,0,0,0,0.1c0,0,0,0.1,0,0.1c0,0-0.1,0.1-0.1,0.2
						c0,0.1,0,0.2,0,0.3c0,0.1,0,0.1,0,0.2c0,0.1-0.1,0.1-0.1,0.2c0,0,0,0.1,0,0.1c0,0.1,0,0.1,0,0.2c0,0,0,0,0,0.1c0,0,0,0.4,0,0.4
						c0,0.1,0,0.2,0,0.3c0,0,0,0,0,0.1c-0.1,0.1-0.1,0.2-0.1,0.3c0,0,0,0.2,0,0.2c0,0.1,0,0.2,0,0.2c-0.1,0.1-0.2,0.3-0.1,0.5
						c0,0,0-0.1,0-0.1c0,0.1,0,0.2,0.1,0.2c-0.1,0.1-0.1,0.2-0.1,0.4c0,0.1,0,0.1,0.1,0.2c0,0.1,0,0.3,0,0.3c0,0.1,0.1,0.2,0.1,0.3
						c0,0,0,0,0,0c0,0,0,0.1-0.1,0.1c-0.2,0.2-0.2,0.4-0.2,0.5l0,0l0,0c0,0.1,0,0.2,0,0.2c-0.1,0.1-0.1,0.3,0,0.3l0,0l0-0.1
						c0,0.1,0,0.2,0,0.3c0,0,0,0,0,0c0,0,0,0.1,0,0.1c0,0.1,0,0.2,0.1,0.2c0,0,0,0.1-0.1,0.1c0,0,0,0.1,0,0.1c0,0.1,0,0.1,0.1,0.2
						c0-0.1-0.1-0.1-0.1-0.1l0,0.2c0,0,0,0,0,0c0,0,0,0.1,0,0.1c0,0,0,0.1,0,0.1c0,0,0,0.1,0,0.1c0,0,0,0,0,0c0,0,0,0.1,0,0.1
						c-0.1,0.1-0.1,0.2-0.1,0.3v0.1c0,0,0,0.1,0,0.1c-0.1,0.1-0.1,0.2-0.1,0.3c0,0,0,0.1,0,0.1c0,0,0,0.1,0,0.1c0,0.1,0,0.1,0.1,0.2
						c-0.1,0.1-0.1,0.2-0.1,0.3V35c0,0.1,0,0.1,0,0.1c0,0,0,0,0,0c0,0,0,0.1,0,0.1c0,0,0,0,0,0.1c0,0,0,0,0,0v0.1
						c0,0.1,0,0.2,0.1,0.3c0,0,0,0,0,0.1l0,0.3l0,0.2c0,0,0,0.1,0,0.1c0,0.2,0.1,0.3,0.2,0.4c0,0-0.1,0.1-0.1,0.1
						c0,0.1-0.1,0.2-0.1,0.3c0,0.2,0.1,0.4,0.2,0.5c0,0,0,0.1,0,0.1c0,0,0,0,0,0c0,0.1,0,0.2,0.1,0.2c0,0,0,0.1-0.1,0.1c0,0,0,0,0,0
						c0,0.1-0.1,0.2-0.1,0.3c0,0.1,0,0.1,0,0.2c0,0,0,0,0,0.1c0,0,0,0,0,0c0,0,0,0,0,0c0,0.1,0,0.1,0.1,0.2c0,0.1-0.1,0.2-0.1,0.3
						c0,0,0,0.1,0,0.1c0,0.1,0,0.1,0.1,0.2c0,0.1,0,0.1,0,0.2l0,0l0,0c0,0.1,0,0.3,0.1,0.4c0.1,0.1,0.1,0.1,0.2,0.1
						c0,0.1,0,0.2,0,0.2c0,0,0,0.1,0,0.1c0,0,0,0,0,0.1l0,0.1c0,0,0,0.1,0.1,0.1c0,0,0,0.1,0,0.1c0,0,0,0,0,0c0,0.1,0,0.2,0.1,0.3
						c0.1,0.1,0.2,0.2,0.3,0.2c0,0,0,0.1,0,0.1c0,0,0,0.1,0,0.1c0,0,0,0,0,0c0,0.2,0.1,0.4,0.2,0.5c0.1,0.1,0.1,0.1,0.2,0.1
						c0,0,0.1,0,0.1,0c0,0,0.1,0,0.1,0l0.1,0c0.1,0,0.2,0,0.3-0.1c0.1-0.1,0.1-0.2,0.1-0.3c0,0,0,0,0-0.1c0,0,0,0,0,0c0,0,0,0,0-0.1
						c0,0,0.1,0,0.1-0.1c0.1-0.1,0.2-0.3,0.2-0.4c0,0,0,0,0,0l0,0.1c0,0,0,0,0,0c0-0.1,0-0.3,0-0.3c0,0,0-0.1,0-0.1
						c0.1,0,0.2-0.1,0.3-0.2c0,0,0.1,0,0.1,0c0,0,0,0,0,0c0,0.1,0.1,0.2,0.1,0.2c0.1,0.1,0.2,0.1,0.3,0.1c0,0,0,0.1,0,0.1
						c0.1,0.1,0.2,0.2,0.4,0.1c0,0,0.1,0,0.1-0.1c0,0,0,0,0,0c0.2,0,0.4-0.1,0.4-0.3c0,0,0-0.1,0-0.2c0,0,0.1-0.1,0.1-0.1
						c0-0.1,0-0.1,0-0.2c0,0,0,0,0,0c0-0.1,0.1-0.1,0.1-0.2c0,0,0,0,0,0c0,0,0-0.2,0-0.2c0,0,0,0,0,0c0.1-0.1,0.2-0.1,0.2-0.3
						c0,0,0-0.2,0-0.3c0-0.1,0-0.1,0-0.2c0.1,0,0.2-0.1,0.2-0.1c0.2-0.1,0.2-0.3,0.2-0.5c0,0,0,0,0,0c0.1,0,0.2-0.1,0.3-0.2
						c0-0.1,0.1-0.2,0.1-0.3c0,0,0-0.1,0-0.1c0-0.1,0-0.1,0.1-0.2c0,0,0,0,0,0c0,0,0-0.2,0-0.2c0.1-0.1,0.1-0.1,0.1-0.2
						c0-0.1,0-0.1,0-0.2c0,0,0-0.1,0-0.1c0,0,0,0,0,0c0,0,0-0.2,0-0.2c0-0.1,0.1-0.2,0.1-0.2v-0.1c0-0.1,0-0.2-0.1-0.2
						c0-0.1,0.1-0.1,0.1-0.2c0,0,0-0.4,0-0.6c0-0.1,0.1-0.1,0.1-0.2c0,0,0-0.1,0-0.1c0-0.1,0-0.2,0-0.3c0,0,0-0.1,0-0.1
						c0,0,0-1.3,0.1-1.5c0-0.1,0.1-0.1,0.1-0.2l0-0.6c0,0,0-0.1,0-0.3c0-0.1,0.1-0.1,0.1-0.2v-0.1c0,0,0,0,0,0c0,0,0,0,0,0
						c0,0,0-0.4,0-0.6c0-0.1,0.1-0.1,0.1-0.2c0,0,0-0.1,0-0.1c0,0,0,0,0-0.1l0-0.5c0,0,0-0.1,0-0.2c0.1-0.1,0.1-0.2,0.1-0.2l0-0.4
						c0,0,0,0,0-0.1C17,29,17,29,17,28.9c0,0,0-0.3,0-0.3c0-0.1,0-0.2,0-0.3c0,0,0,0,0,0c0-0.1,0.1-0.1,0.1-0.2l0-0.3c0,0,0,0,0,0
						c0-0.1,0.1-0.1,0.1-0.2c0-0.3,0-0.6,0-0.8c0,0,0-0.2,0-0.4c0-0.1,0.1-0.1,0.1-0.2c0,0,0-0.2,0-0.3c0-0.1,0.1-0.1,0.1-0.2l0-0.4
						c0,0,0-0.1,0-0.1c0-0.1,0.1-0.1,0.1-0.2l0-0.4c0-0.1,0-0.3,0-0.4C17.5,23.6,17.5,23.4,17.5,23.3z"/>
				</g>
				<g class="st2">
					<path class="st3" d="M28.7,17.7C28.8,17.6,28.8,17.6,28.7,17.7c0.1-0.1,0.1-0.2,0.1-0.2c0,0,0-0.1,0-0.1c0,0,0-0.1,0-0.1
						c0,0,0-0.1,0-0.1c0-0.1,0-0.1-0.1-0.2c0,0,0,0,0,0c0-0.1,0-0.2-0.1-0.2c0-0.1,0-0.2,0-0.2c-0.1-0.1-0.1-0.2-0.2-0.2
						c0-0.1,0-0.3-0.1-0.4c0,0,0,0,0,0c0-0.1,0-0.2-0.1-0.3c0,0,0-0.1,0-0.1c0-0.1,0-0.1,0-0.1c0,0,0-0.1,0-0.1c0,0,0,0,0,0l0,0
						c0-0.1,0-0.2-0.1-0.2c0,0,0-0.1,0-0.1c0-0.1-0.1-0.2-0.2-0.3c0-0.1-0.1-0.2-0.2-0.2c0,0,0,0-0.1,0c0,0-0.1-0.3-0.1-0.3
						c-0.1-0.1-0.1-0.1-0.2-0.1c0,0,0,0-0.1,0c0-0.1-0.1-0.2-0.2-0.2c0,0,0-0.1,0-0.1c0-0.2-0.1-0.4-0.3-0.5c-0.1,0-0.1,0-0.2,0
						c-0.1-0.1-0.2-0.2-0.4-0.2l-0.1,0l-0.2,0c-0.1,0-0.1,0-0.2,0.1c-0.1,0-0.2,0-0.3,0.1c-0.1,0.1-0.2,0.2-0.2,0.3
						c-0.1,0-0.1,0.1-0.1,0.2c-0.1,0.1-0.2,0.1-0.3,0.3l-0.2,0.1c0,0,0,0.1,0,0.2c-0.1,0-0.1,0-0.1,0.1c-0.1,0.1-0.2,0.3-0.2,0.5
						c0,0.1,0,0.2,0.1,0.3c0.1,0.2,0.4,0.4,0.7,0.3c0.1,0,0.1,0,0.2-0.1c0,0,0,0,0,0C25,15,25,15.1,24.9,15.2c0,0-0.1,0.1-0.1,0.1
						c0,0,0,0,0,0c0,0,0,0,0,0.1c-0.1,0-0.2,0-0.2,0c-0.1,0-0.1,0-0.2,0.1c-0.1,0-0.1,0-0.2,0c0,0-0.1,0.1-0.1,0.1
						c-0.1,0-0.3,0.1-0.3,0.2c-0.1,0-0.2,0.1-0.2,0.1c-0.1,0-0.1,0-0.1,0.1c0,0,0,0,0,0c-0.1,0-0.2,0-0.3,0.1
						c-0.1,0.1-0.1,0.1-0.1,0.2c0,0.1,0,0.1-0.1,0.2c-0.2,0-0.2,0.1-0.3,0.3c0,0,0,0.1,0,0.2c0,0.1-0.1,0.1-0.1,0.2c0,0,0,0.1,0,0.2
						c-0.1,0.1-0.1,0.1-0.1,0.3c0,0,0,0.1,0,0.1c0,0.1-0.1,0.1-0.1,0.2c0,0.1-0.1,0.1-0.1,0.2c0,0,0,0.1,0,0.3
						c0,0.1-0.1,0.1-0.1,0.2c0,0,0,0.1,0,0.2c0,0.1-0.1,0.1-0.1,0.2l0,0.3c-0.1,0.1-0.1,0.1-0.1,0.3c0,0,0,0.3,0,0.3c0,0,0,0,0,0.1
						c0,0.1-0.1,0.1-0.1,0.2l-0.1,0.5c0,0,0,0,0,0.1c0,0.1-0.1,0.1-0.1,0.2c0,0.1-0.1,0.1-0.1,0.2c0,0,0,0.1,0,0.2
						c0,0.1-0.1,0.1-0.1,0.2c0,0,0,0.2,0,0.3c-0.1,0.1-0.1,0.1-0.1,0.2c0,0,0,0.2,0,0.3c-0.1,0.1-0.1,0.1-0.2,0.3c0,0,0,0.1,0,0.1
						c0,0,0,0.1,0,0.1c0,0,0,0,0,0l0,0.4c0,0,0,0.1,0,0.2c-0.1,0.1-0.1,0.1-0.1,0.2c0,0,0,0.1,0,0.2C21,23.9,21,24,21,24.1
						c0,0.1,0,0.1,0,0.2c0,0.1,0,0.1,0,0.2c0,0.1,0,0.1,0,0.2c0,0,0,0,0,0.1c0,0,0,0.1-0.1,0.1c0,0.1-0.1,0.1-0.1,0.2
						c0,0,0,0.3,0,0.3c0,0.1-0.1,0.1-0.1,0.2c0,0,0,0.5,0,0.5c-0.1,0.1-0.1,0.1-0.1,0.2c0,0,0,0.2,0,0.3c0,0.1-0.1,0.1-0.1,0.2
						c0,0.1-0.1,0.1-0.1,0.2l0,0.3l0,0.1c0,0,0,0.1,0,0.1c0,0.1,0,0.1,0,0.2c0,0,0,0,0,0c0,0,0,0,0,0.1c0,0-0.1,0.3-0.1,0.4
						c-0.1,0.1-0.1,0.2-0.1,0.3c0,0,0,0,0,0c0,0.1-0.1,0.1-0.1,0.2l0,0.5c0,0,0,0.1,0,0.1c0,0.1,0,0.1,0,0.1c0,0-0.1,0.1-0.1,0.1
						c-0.1,0.1-0.1,0.2-0.1,0.4c0,0,0,0.1,0,0.1c0,0.1,0,0.2,0.1,0.2c-0.1,0-0.1,0-0.1,0s-0.1,0.4-0.1,0.4c0,0.1,0,0.1,0,0.2
						c0,0,0,0,0,0c0,0.1,0,0.1,0.1,0.2c0,0.2,0,0.3,0,0.3c0,0.1-0.1,0.1-0.1,0.2c0,0,0,0,0,0.1c-0.1,0.1-0.1,0.2-0.1,0.3
						c0,0,0,0.1,0,0.1c0,0,0,0,0,0c0,0,0,0.1,0,0.1c0,0.1-0.1,0.1-0.1,0.2c0,0,0,0.1,0,0.1c0,0.1,0,0.1,0,0.1c0,0,0,0.1,0,0.1v0.1
						c0,0,0,0,0,0.1c0,0,0,0,0,0c0,0.1-0.1,0.1-0.1,0.2l0,0.2l0,0.1c0,0,0,0.1,0,0.1c0,0,0,0.1,0,0.1c0,0,0,0,0,0c0,0,0,0,0,0
						c0,0,0,0,0,0c0,0,0,0,0,0c0,0,0,0,0,0c0,0.1,0,0.1,0,0.2c0,0,0,0,0,0c0,0,0,0,0,0c-0.1,0.1-0.2,0.1-0.2,0.2c0,0.1,0,0.1,0,0.2
						c0,0.1,0,0.2,0.1,0.3c0,0,0,0,0,0c0,0.1,0,0.1,0,0.2c0,0,0,0.1,0,0.1c0,0,0,0.1,0,0.1c-0.1,0.1-0.1,0.2-0.1,0.3c0,0,0,0,0,0
						c0,0.1-0.1,0.2-0.1,0.2c0,0.1,0,0.1,0,0.2c0,0,0,0,0,0.1c0,0-0.1,0.1-0.1,0.1c0,0,0,0,0,0c0,0,0,0,0,0c0,0,0,0,0,0.1
						c0,0.1,0,0.1,0,0.2c0,0,0,0.1,0,0.1c-0.1,0.1-0.1,0.2-0.1,0.3v0.1c0,0.1,0,0.1,0,0.2c0,0,0,0.1,0,0.1s0,0,0,0
						c-0.1,0.1-0.1,0.2-0.1,0.3c0,0,0,0,0,0c-0.1,0.1-0.2,0.2-0.2,0.3c0,0,0,0,0,0c0,0,0,0.3,0,0.3l0,0.1c0,0.1,0,0.1,0,0.2
						c0,0,0,0,0,0.1c0,0,0,0.1,0,0.1c0,0,0-0.1,0-0.2c0,0.1,0,0.2,0.1,0.2c0,0.1,0,0.1,0,0.2l0,0.2c0,0,0,0.1,0,0.1
						c-0.1,0.1-0.2,0.1-0.2,0.2c0,0,0,0.1,0,0.2c0,0.1,0,0.2,0.1,0.3c0,0,0,0,0,0c0,0,0,0,0,0c0,0.1-0.1,0.2-0.1,0.2l0,0
						c0,0,0,0,0,0c0,0,0,0.1,0,0.1c0,0,0,0.1,0,0.1c0,0.1-0.1,0.1-0.1,0.2l0,0.2c-0.1,0.1-0.2,0.2-0.2,0.4c0,0,0-0.1,0-0.1
						c0,0.1,0,0.2,0.1,0.3c0,0-0.1,0-0.1,0s-0.1,0.4-0.1,0.5c0,0,0,0,0,0c0,0.1,0,0.2,0.1,0.3l0,0.4c0,0,0,0,0,0
						c0,0.1-0.1,0.1-0.1,0.2c0,0,0,0,0,0c0,0.1,0,0.2,0.1,0.2c0,0,0,0.1,0,0.2c0,0,0,0.1,0,0.1c0,0,0,0.1,0,0.2
						c-0.1,0-0.1,0.1-0.2,0.1c-0.1,0.1-0.1,0.2-0.1,0.4c0,0,0-0.2,0-0.2c0,0.1,0,0.2,0.1,0.3c-0.1,0.1-0.2,0.2-0.2,0.4v0.1
						c0,0.1,0,0.2,0.1,0.2c0,0.1-0.1,0.2-0.1,0.2c0,0.2,0,0.4,0.2,0.5c0,0,0,0.1,0,0.1c0,0,0,0.1,0,0.1c0,0,0,0.1,0,0.1
						c0,0,0,0,0,0.1c0,0,0,0,0,0c0,0,0,0.1,0,0.1c0,0-0.1,0.1-0.1,0.2l0,0.2c0,0,0-0.1,0-0.1c0,0,0,0.1,0,0.1c0,0.1,0,0.1,0,0.2
						c-0.1,0-0.1,0.1-0.1,0.2l0,0.2c-0.1,0.1-0.1,0.1-0.1,0.2c-0.1,0.1-0.1,0.3-0.1,0.5c0,0.2,0.1,0.3,0.2,0.4c0,0,0,0,0,0.1v0.1
						c0,0.1,0,0.1,0.1,0.2c0,0.1,0,0.1-0.1,0.2c0,0.1,0,0.1,0,0.2c0,0.1,0,0.3,0,0.4c0,0.1,0,0.2,0,0.3c0,0,0,0,0,0
						c-0.1,0.1-0.1,0.2-0.2,0.3c0,0,0,0.1,0,0.1c0,0.1,0,0.2,0.1,0.3l0,0.2c0,0,0,0,0,0.1c0,0.1,0,0.2,0.1,0.2
						c0,0.1-0.1,0.1-0.1,0.2v0.1c0,0,0,0,0,0.1c0,0,0,0.1,0,0.1c0,0,0,0,0,0l0,0c0,0.1,0,0.1,0.1,0.2c0,0,0,0,0,0s0,0.2,0,0.2
						c0,0.1,0,0.1,0.1,0.2c0,0.1,0,0.2,0,0.2c0,0,0,0.3,0,0.3s0,0.2,0,0.2c0,0,0,0.1,0,0.1c0,0.1,0,0.1,0,0.2c0,0,0-0.1,0-0.1
						c0,0.1,0,0.2,0.1,0.3c0,0.1,0,0.1,0,0.2c0,0,0-0.1,0-0.1c0,0.2,0.1,0.4,0.2,0.5c0.1,0,0.1,0.1,0.2,0.1v0.1c0,0,0,0,0,0.1
						c0,0-0.1,0-0.1,0.1C18,54.2,18,54.4,18,54.6c0,0.1,0,0.2,0,0.2c0,0,0,0.1,0,0.1c0,0,0,0,0,0.1c0,0.2,0.1,0.3,0.1,0.4
						c0,0.1,0.1,0.2,0.2,0.2c-0.1,0-0.2,0.1-0.2,0.2c-0.1,0.1-0.1,0.3,0,0.5l0.1,0.1c0.1,0.2,0.2,0.3,0.4,0.3l0.1,0l0,0l-0.1,0
						c0.1,0,0.2,0,0.3,0c0.2,0,0.4-0.2,0.4-0.4c0,0,0-0.1,0-0.1c0,0,0,0,0,0c0,0,0,0,0,0c0,0,0-0.1,0-0.1c0,0,0,0,0,0
						c0,0,0.1,0,0.1,0c0.2-0.1,0.3-0.2,0.3-0.4l0-0.1c0-0.1,0-0.1,0-0.2c0,0,0,0,0,0c0-0.1,0.1-0.1,0.1-0.2v-0.1
						c0-0.1,0-0.2-0.1-0.2c0-0.2,0-0.3,0-0.5c0-0.1,0.1-0.1,0.1-0.2v-0.1c0-0.1,0-0.1-0.1-0.2c0-0.1,0.1-0.1,0.1-0.2
						c0,0,0-0.1,0-0.1c0,0,0-0.1,0-0.2c0,0,0-0.1,0-0.1c0,0,0,0,0,0c0,0,0-0.1,0-0.1c0,0,0,0,0,0l0-0.2c0,0,0,0,0,0c0,0,0,0,0-0.1
						c0,0,0,0,0-0.1c0,0,0-0.4,0-0.7c0-0.1,0.1-0.1,0.1-0.2v-0.1c0-0.1,0-0.1-0.1-0.2c0-0.1,0.1-0.1,0.1-0.2c0,0,0-0.1,0-0.1
						c0,0,0-0.1,0-0.2c0-0.1,0-0.1,0-0.2c0,0,0-0.1,0-0.1c0,0,0-0.1,0-0.1c0.1-0.1,0.1-0.1,0.1-0.2v-0.1c0.2,0,0.5-0.1,0.5-0.5
						c0,0,0,0,0,0c0,0,0,0,0,0c0,0,0,0,0,0c0,0,0,0,0,0c0,0,0,0.1,0,0.1c0,0,0,0.1,0,0.1c0,0,0,0.1,0,0.1c0,0.1,0,0.1,0.1,0.2
						c-0.1,0.1-0.1,0.1-0.1,0.2c0,0,0,0.1,0,0.1c0,0.1,0.1,0.3,0.2,0.4c0.1,0.1,0.3,0.2,0.6,0.1c0,0,0.1,0,0.1,0c0,0,0.1,0,0.1,0
						c0.1,0,0.2,0,0.3-0.1c0.1-0.1,0.2-0.2,0.2-0.4l0-0.2l0-0.2c0-0.1,0-0.3-0.1-0.4c0,0-0.1-0.1-0.1-0.1c0,0,0-0.1,0-0.2
						c0.2,0,0.4-0.2,0.4-0.5c0,0,0-0.1,0-0.1c0.1-0.1,0.1-0.2,0.1-0.3c0-0.1,0.1-0.1,0.1-0.2v0h0l0,0l-0.1,0v0
						c0.2,0,0.5-0.3,0.5-0.6l-0.1,0.3c0.2-0.2,0.1-0.5,0.1-0.5c-0.1-0.2-0.2-0.2-0.3-0.2c0,0,0,0,0,0c0,0,0-0.2,0-0.3
						c0-0.1,0.1-0.1,0.1-0.2c0,0,0,0,0,0c0-0.1,0.1-0.1,0.1-0.2c0,0,0-0.1,0-0.1c0,0,0,0,0,0c0,0,0-0.1,0.1-0.1l0.1-0.3c0,0,0,0,0,0
						c0.1-0.1,0.1-0.2,0.1-0.2c0,0,0,0,0-0.1c0-0.1,0-0.1,0-0.2c0.1-0.1,0.1-0.2,0.2-0.3c0-0.1,0-0.1,0-0.2c0-0.1,0-0.2-0.1-0.4
						c0.1-0.1,0.1-0.1,0.1-0.2c0,0,0.1-0.1,0.1-0.1c0-0.1,0-0.1,0-0.2c0,0,0,0,0-0.1c0.1-0.1,0.1-0.2,0.2-0.3c0,0,0,0,0-0.1
						c0,0,0,0,0.1-0.1c0-0.1,0-0.1,0-0.2c0,0,0,0,0-0.1c0-0.1,0.1-0.2,0.1-0.2c0-0.1,0-0.1,0-0.2c0,0,0,0,0,0c0,0,0,0,0,0v0
						c0-0.1,0.1-0.1,0.1-0.2l0-0.2l0-0.1c0,0,0,0,0-0.1c0,0,0,0,0,0c0,0,0,0,0-0.1c0-0.1,0-0.1,0-0.2c0,0,0,0,0,0c0,0,0,0,0,0
						c0,0,0,0,0,0c0,0,0,0,0,0c0,0,0.1-0.1,0.1-0.1c0,0,0,0.1,0,0.1c0.1-0.1,0.2-0.2,0.2-0.2c0,0,0,0,0,0c0,0,0,0,0,0c0,0,0,0,0,0
						c0,0,0,0,0,0c0.1,0,0.1-0.1,0.1-0.1l0.1-0.1l-0.2,0.1c0.2-0.1,0.3-0.3,0.3-0.5c0,0,0-0.1,0-0.1c0,0,0-0.1,0-0.2
						c0,0,0-0.1,0-0.1c0.1-0.1,0.1-0.2,0.1-0.3c0,0,0,0,0,0c0,0,0-0.1,0-0.1v-0.1c0,0,0,0,0,0c0,0,0,0,0,0v-0.1c0,0,0-0.1,0-0.1
						c0,0,0-0.1,0-0.1c0.1-0.1,0.1-0.1,0.1-0.3c0,0,0,0,0,0c0-0.1,0.1-0.1,0.1-0.2c0,0,0-0.2,0-0.3c0,0,0-0.1,0-0.1c0,0,0,0,0-0.1
						c0,0,0,0,0,0c0,0,0,0,0,0c0,0,0,0,0,0c0,0,0-0.2,0-0.2c0,0,0.1-0.1,0.1-0.1c0.1-0.1,0.1-0.1,0.1-0.2c0,0,0-0.1,0-0.3
						c0,0,0-0.1,0.1-0.1c0,0,0-0.1,0-0.2c0,0,0.1-0.1,0.1-0.1c0-0.1,0.1-0.1,0.1-0.2l0.1-0.5c0,0,0,0,0,0c0,0,0.1-0.1,0.1-0.2
						c0-0.1,0.1-0.1,0.1-0.2c0,0,0-0.1,0-0.1c0-0.1,0-0.2-0.1-0.3c0,0,0-0.1,0-0.1c0-0.1,0-0.2,0-0.3c0,0,0,0,0,0
						c0,0,0.1-0.1,0.1-0.2c0,0,0,0,0,0c0-0.1,0.1-0.1,0.1-0.3c0,0,0-0.1,0-0.1c0,0,0,0,0,0c0,0,0,0,0-0.1c0-0.1,0.1-0.1,0.1-0.2
						c0,0,0-0.1,0-0.2c0.1-0.1,0.1-0.1,0.1-0.2c0,0,0-0.1,0-0.1c0,0,0,0,0,0c0,0,0,0,0-0.1c0-0.1,0-0.2,0-0.3c0,0,0,0,0,0
						c0-0.1,0-0.1,0.1-0.2c0-0.1,0-0.1,0-0.2c0-0.2,0-0.4-0.1-0.6c0-0.1-0.1-0.2-0.2-0.2c0,0,0,0,0,0c0.1,0,0.1-0.1,0.1-0.1
						c0,0,0.1-0.1,0.1-0.1c0,0,0,0,0.1-0.1c0.1,0,0.2-0.1,0.3-0.2c0.1-0.1,0.1-0.2,0.1-0.3c0-0.1,0-0.1,0-0.1c0-0.1,0.1-0.1,0.1-0.2
						c0,0,0-0.4,0-0.4c0.1-0.1,0.1-0.1,0.1-0.2c0,0,0-0.1,0-0.2c0-0.1,0.1-0.1,0.1-0.2c0,0,0,0,0-0.1c0-0.1,0.1-0.1,0.1-0.2
						c0,0,0-0.1,0-0.1c0-0.1,0.1-0.1,0.1-0.2c0,0,0,0,0,0c0-0.1,0.1-0.1,0.1-0.2c0,0,0,0,0,0c0,0,0-0.1,0-0.1c0,0,0.1-0.1,0.1-0.1
						c0,0,0-0.1,0-0.2c0,0,0,0,0-0.1c0.1,0,0.2-0.1,0.2-0.2c0.1-0.1,0.1-0.2,0.1-0.3c0-0.1-0.1-0.3-0.2-0.4c0-0.1,0-0.2,0-0.2
						s0-0.1,0-0.1c0.1-0.1,0.1-0.1,0.1-0.2c0-0.1,0.1-0.1,0.1-0.2l0.1-0.6c0,0,0-0.1,0-0.1c0-0.1,0.1-0.1,0.1-0.2v0
						c0.1,0,0.1-0.1,0.1-0.1c0,0,0,0,0-0.1c0,0,0-0.1,0-0.1c0-0.1,0.1-0.1,0.1-0.2c0.1-0.1,0.1-0.2,0.2-0.3c0,0,0-0.1,0-0.1
						c0-0.1,0-0.2-0.1-0.3c0,0,0-0.1,0-0.1c0,0,0-0.1,0-0.1c0,0,0,0,0-0.1c0.1-0.1,0.1-0.1,0.1-0.3c0,0,0-0.2,0-0.3
						c0-0.1,0.1-0.1,0.1-0.2c0,0,0-0.3,0-0.3c0.1-0.1,0.1-0.1,0.1-0.3c0,0,0-0.3,0-0.3c0-0.1,0.1-0.1,0.1-0.2c0,0,0-0.1,0-0.1
						c0-0.1,0.1-0.1,0.1-0.2l0,0c0,0,0.1-0.1,0.1-0.2c0,0,0-0.2,0-0.3c0,0,0.1-0.1,0.1-0.2c0-0.1,0.1-0.1,0.1-0.2c0-0.1,0-0.1,0-0.1
						c0,0,0-0.1,0-0.1c0,0,0,0,0-0.1c0,0,0-0.1,0-0.2c0-0.1,0.1-0.1,0.1-0.2c0,0,0-0.3,0-0.3c0.1-0.1,0.1-0.1,0.1-0.2
						c0,0,0-0.1,0-0.1c0.1-0.1,0.1-0.1,0.1-0.2c0,0,0-0.1,0-0.1c0,0,0,0,0-0.1c0,0,0,0,0,0l0-0.4c0,0,0-0.1,0-0.1c0,0,0,0,0,0
						c0.1-0.1,0.1-0.1,0.1-0.2c0,0,0-0.1,0-0.1c0,0,0-0.1,0-0.1c0,0,0,0,0-0.1c0,0,0-0.1,0-0.2c0.1-0.1,0.1-0.1,0.1-0.2
						c0,0,0-0.2,0-0.3c0-0.1,0.1-0.1,0.1-0.2c0,0,0-0.1,0-0.1c0-0.1,0.1-0.1,0.1-0.2l0,0c0,0,0-0.1,0-0.1c0,0,0,0,0-0.1
						c0-0.1,0-0.1,0-0.2C28.8,17.8,28.8,17.8,28.7,17.7z"/>
				</g>
				<path class="st1" d="M38.8,34.9L38.8,34.9L38.8,34.9l0-0.3c0-0.1,0-0.1-0.1-0.2c0,0,0-0.1,0-0.1c0-0.1,0-0.2-0.1-0.2
					c0-0.1,0.1-0.1,0.1-0.2l0,0l0-0.2c0-0.1,0-0.2-0.1-0.3c0,0,0-0.1,0-0.1c0,0,0,0,0,0c0,0,0,0,0,0c0-0.1,0-0.2-0.1-0.3
					c0-0.1-0.1-0.2-0.2-0.3c0,0,0-0.1,0-0.1c0,0,0,0,0,0c0,0,0,0,0-0.1c0-0.1,0-0.1,0-0.2c0,0,0,0,0,0c0,0,0-0.1,0-0.1c0,0,0,0,0,0
					l0-0.1l0-0.1c0,0,0,0.1,0,0.1c0,0,0,0,0,0c0,0,0-0.1,0-0.1c0-0.1,0-0.2-0.1-0.3c0,0,0,0-0.1-0.1c0-0.1-0.1-0.2-0.2-0.3
					c0,0,0,0,0,0c0,0-0.1-0.1-0.1-0.1c0,0,0-0.1,0-0.1c0,0,0.1-0.1,0.1-0.1c0.1-0.1,0.1-0.2,0.1-0.3c0,0,0-0.1,0-0.1c0,0,0,0,0-0.1
					c0-0.1,0.1-0.2,0.1-0.3c0,0,0-0.1,0-0.1c0-0.1-0.1-0.2-0.1-0.2c0,0,0-0.1,0-0.1c0-0.1,0.1-0.1,0.1-0.1c0.1-0.1,0.1-0.2,0.1-0.3
					c0,0,0-0.1,0-0.1c0-0.1-0.1-0.2-0.2-0.3c0,0-0.1,0-0.1-0.1c0,0-0.1-0.1-0.1-0.1h0l-0.1,0c0,0,0,0-0.1,0c0-0.1-0.1-0.2-0.2-0.3
					c0,0-0.1,0-0.2,0c0,0,0,0,0,0c-0.1-0.1-0.1-0.1-0.3-0.1c0,0-0.1,0-0.2,0c0-0.1-0.1-0.1-0.2-0.1c0,0-0.1,0-0.2,0
					c-0.1,0-0.1-0.1-0.2-0.1c0,0,0,0,0,0c0,0-0.1-0.1-0.2-0.1c-0.1,0-0.3,0-0.4,0c0,0-0.1,0-0.1-0.1c-0.1,0-0.2,0-0.3,0.1
					c0,0,0,0-0.1,0c0,0-0.1-0.1-0.2-0.1c-0.1,0-0.3,0-0.4,0c-0.1-0.1-0.2-0.1-0.3-0.1c-0.1,0-0.1,0.1-0.2,0.1c-0.1,0-0.2,0-0.3,0
					l-0.3,0c-0.1,0-0.2,0-0.3,0.1c-0.1,0-0.3,0-0.3,0L32,28c-0.1,0-0.2,0-0.3,0.1c-0.1,0-0.1,0-0.1,0c-0.1,0.1-0.2,0.1-0.2,0.2
					c0,0-0.1,0-0.1,0c0,0,0,0-0.1,0c-0.1,0-0.1,0-0.2,0h-0.1c-0.2,0-0.3,0.1-0.4,0.2c-0.1,0.1-0.2,0.2-0.2,0.4c0,0,0,0,0,0
					c0,0,0,0,0,0c0,0-0.1,0-0.1,0c-0.1,0-0.3,0-0.4,0.2c-0.1,0-0.2,0-0.2,0c0,0-0.1,0-0.1,0c0,0-0.1,0-0.2,0C29,29,28.9,29,28.8,29
					c0,0-0.2,0-0.3,0c-0.1,0-0.1-0.1-0.2-0.1c0,0-0.1,0-0.2,0c-0.1,0-0.1-0.1-0.2-0.1c-0.1,0-0.1-0.1-0.2-0.1c0,0,0,0,0,0
					c-0.1,0-0.1-0.1-0.2-0.1c0,0-0.2,0-0.3,0c-0.1,0-0.2-0.1-0.2-0.1l-0.1,0h-0.1c-0.2,0-0.4,0.1-0.5,0.2c0,0,0,0,0,0
					c-0.1,0.1-0.2,0.2-0.2,0.4v0.1c0,0.1,0,0.1,0.1,0.2c0,0,0,0,0,0c0,0.1,0.1,0.2,0.2,0.3c0,0,0,0,0.1,0c-0.1,0.1-0.1,0.2-0.1,0.3
					l0,0.3c0,0,0,0.1,0,0.1c0,0-0.1,0.1-0.1,0.1c-0.1,0.1-0.1,0.3-0.1,0.4c0,0,0,0-0.1,0.1c-0.1,0-0.2,0.1-0.2,0.1
					c-0.1,0.1-0.1,0.1-0.1,0.3c-0.1,0-0.1,0-0.1,0c0,0,0,0-0.1,0c-0.1,0-0.3,0-0.3,0.1c-0.1,0-0.2,0.1-0.2,0.2
					c-0.1,0.1-0.1,0.1-0.2,0.2c0,0,0,0,0,0c-0.1,0-0.2,0.1-0.2,0.1c-0.1,0.1-0.2,0.2-0.2,0.3c0,0.1,0,0.2,0,0.4c0,0.1,0,0.3,0,0.4
					c0,0.1,0.1,0.2,0.2,0.2c0,0,0,0,0,0c0,0,0,0,0,0.1c0,0,0,0.1,0,0.2l0,0.3l0,0.1c0,0.1,0.1,0.3,0.1,0.4c0,0.2,0.3,0.4,0.5,0.4
					l0.1,0l0.3,0c0,0,0,0,0,0c0,0,0,0,0,0c0,0,0.1,0,0.1,0.1c0.1,0.1,0.1,0.1,0.3,0.2c0,0,0.1,0,0.2,0.1c0,0,0.1,0,0.1,0
					c0,0,0.1,0.1,0.1,0.1c0,0,0.1,0,0.1,0.1c0,0,0,0,0,0c0,0.1,0,0.1,0.1,0.1c0,0,0.1,0,0.1,0.1c0,0.2,0.1,0.3,0.3,0.3
					c0,0.1,0.1,0.1,0.1,0.1c0.1,0.1,0.1,0.1,0.2,0.1c0.1,0.1,0.1,0.1,0.2,0.1c0.1,0.1,0.1,0.1,0.1,0.1c0.1,0.1,0.1,0.1,0.2,0.1
					c0,0,0.1,0,0.1,0c0.1,0.1,0.1,0.1,0.1,0.1c0.1,0.1,0.1,0.1,0.1,0c0.1,0.1,0.1,0.1,0.2,0.2c0,0,0,0,0,0c0.1,0.1,0.1,0.2,0.3,0.2
					l0.4,0l0.1,0c0.1,0,0.1,0,0.2-0.1c0,0,0.4,0.1,0.4,0.1c0,0,0.1,0,0.1,0c0.1,0.1,0.2,0.1,0.4,0.1c0,0,0.2,0,0.3,0
					c0.1,0,0.1,0.1,0.2,0.1c0,0,0.1,0,0.1,0c0,0,0,0,0,0c0.1,0.1,0.2,0.2,0.4,0.2c0.3,0,0.5-0.1,0.6-0.2l0,0l0,0c0,0,0,0,0,0
					c0,0,0,0,0,0c0.1,0.1,0.1,0.2,0.2,0.2l0.4,0.1c0,0,0,0,0,0c0.1,0.1,0.1,0.1,0.2,0.1c0.1,0,0.2,0,0.2,0c0.1,0,0.2,0.1,0.3,0.1
					l0.4-0.1l0.1,0c0.1,0,0.1,0,0.2-0.1c0.1,0,0.2,0,0.2,0c0.1,0,0.1,0,0.1-0.1c0,0,0.1,0,0.1,0l0.1,0l-0.1,0c0.1,0,0.3,0,0.4,0
					c0.1,0,0.1-0.1,0.2-0.1c0.1,0,0.1-0.1,0.1-0.2c0.2,0,0.4-0.1,0.4-0.1c0.1,0,0.1-0.1,0.1-0.1c0.1,0,0.1,0,0.2,0
					c0,0,0.2-0.1,0.3-0.1c0.1,0,0.2-0.1,0.2-0.2c0.1,0,0.2,0,0.2,0c0.1,0,0.2,0,0.2-0.1c0.2,0,0.4,0,0.4,0c0.2,0,0.3-0.1,0.4-0.2
					c0.1-0.1,0.1-0.1,0.2-0.2c0,0,0.1,0,0.1-0.1c0.1,0,0.1,0,0.2,0c0.1,0,0.2-0.1,0.3-0.2c0.1-0.1,0.2-0.1,0.2-0.3c0,0,0-0.2,0-0.3
					c0,0,0-0.1,0.1-0.1c0.1,0,0.2-0.1,0.2-0.1c0.1-0.1,0.2-0.2,0.2-0.3C38.8,35,38.8,34.9,38.8,34.9z"/>
				<g class="st2">
					<path class="st3" d="M40.5,42.5h-3h0H37h-7.2v1.8c-0.2-0.4-0.5-0.8-0.9-1.1c-0.7-0.5-1.4-0.7-2.9-0.7h-4.1h-0.5v10.2h3.4
						c0,0,0-2.7,0-3.4c0.4,0,0.9,0,0.9,0c1.4,0,2.1-0.1,2.8-0.5c0.6-0.3,1-0.8,1.3-1.4v5.2h7.7h0.1H41V42.5H40.5z M25,46.7
						c0,0-0.1,0-0.2,0c0-0.5,0-1,0-1.4c0.2,0,0.5,0,0.5,0c1.2,0,1.2,0.3,1.2,0.7C26.5,46.4,26.5,46.7,25,46.7z M33.2,49.9
						c0-0.4,0-0.6,0-0.9c0.7,0,4,0,4,0v-2.8c0,0-3.3,0-4,0c0-0.3,0-0.5,0-0.8c0.7,0,4.2,0,4.3,0v4.5C37.1,49.9,33.9,49.9,33.2,49.9z
						"/>
					<path class="st3" d="M17.5,42.5v8l-3.6-8h-0.3h-3.3l-1,2.2v-2.2H8.9H0v2.8c0,0,2.3,0,3,0c0,0.8,0,7.3,0,7.3h2.9h0.5h3
						c0,0,0.5-1.4,0.7-1.8c0.5,0,3.2,0,3.7,0c0.2,0.4,0.8,1.8,0.8,1.8h2.9h1H21V42.5h-0.5H17.5z M6.4,45.4c0.5,0,2.1,0,2.7,0
						l-2.7,6.2C6.4,49.6,6.4,46,6.4,45.4z M11.2,48.2c0.2-0.6,0.4-1.1,0.8-1.9c0.3,0.8,0.5,1.4,0.8,1.9
						C12.2,48.2,11.8,48.2,11.2,48.2z"/>
				</g>
			</g>
			<g>
				<g>
					<path class="st3" d="M33.1,54.4h-1.9l0-0.1h2v-0.4c0.1,0,0.2,0,0.4,0.1c0,0,0.1,0,0.1,0.1c-0.1,0.1-0.1,0.1-0.1,0.2v0.1h1.3
						l0.3-0.3l0.4,0.3l-0.1,0.1h-1.9v0.4h0.9l0.3-0.3l0.4,0.3l-0.1,0.1h-3.2l0-0.1h1.5l0,0V54.4z M32.2,55.8
						C32.2,55.8,32.2,55.9,32.2,55.8c-0.1,0.1-0.1,0.1-0.1,0.1c-0.1,0-0.1,0-0.1,0c0,0,0,0,0-0.1V55l0.3,0.2h0h2.1l0.2-0.1l0.2,0.2
						c0,0,0,0,0,0.1c0,0,0,0.1-0.1,0.1c0,0-0.1,0-0.1,0.1v0.4c0,0,0,0-0.1,0c-0.1,0-0.1,0-0.2,0c0,0-0.1,0-0.1,0v-0.1L32.2,55.8
						L32.2,55.8L32.2,55.8z M34.2,55.6v-0.3h-2.1v0.3l0,0H34.2z M31.2,56.7c-0.1,0-0.1,0.1-0.2,0.1c0,0-0.1,0-0.1-0.1
						c-0.1-0.1,0-0.2,0.1-0.3c0.2-0.2,0.3-0.3,0.3-0.6h0.1c0,0,0,0.1,0,0.1H35l0.2-0.2l0.3,0.2c0.1,0,0.1,0.1,0.1,0.1
						c0,0.1-0.1,0.1-0.1,0.1c-0.1,0-0.1,0-0.1,0c-0.1,0.2-0.2,0.3-0.3,0.4l-0.1,0c0.1-0.2,0.1-0.4,0.2-0.5h-3.6l0,0
						C31.4,56.4,31.3,56.6,31.2,56.7z M33,57.8h-1.4l0-0.1H33v-0.3c-0.5,0-0.9,0.1-1.2,0.1c0,0,0,0,0,0.1c0,0.1,0,0.1-0.1,0.1
						c-0.1,0-0.1,0-0.1-0.1c0-0.1-0.1-0.2-0.1-0.4c0.3,0,0.5,0,0.8,0c0.1-0.2,0.2-0.3,0.3-0.5h-0.8l0-0.1H34l0.3-0.3l0.3,0.3
						l-0.1,0.1h-1.7c-0.1,0.2-0.3,0.4-0.4,0.5c0.5,0,1-0.1,1.6-0.2c-0.1-0.1-0.2-0.1-0.3-0.1l0-0.1c0.1,0,0.3,0,0.5,0.1
						c0.2,0.1,0.3,0.1,0.4,0.2c0,0,0.1,0.1,0.1,0.1c0,0.1,0,0.1,0,0.1c0,0-0.1,0-0.1,0c0,0-0.1,0-0.1,0c-0.1-0.1-0.2-0.2-0.2-0.2
						c-0.3,0.1-0.6,0.1-0.9,0.2v0.4h0.8l0.3-0.3l0.3,0.3l-0.1,0.1h-1.4v0.5h1.4L35,58l0.4,0.3l-0.1,0.1h-4.2l0-0.1h2l0,0V57.8z"/>
					<path class="st3" d="M37.4,55.5h-1.3l0-0.1h1.3v-1.4c0.1,0,0.2,0,0.3,0.1c0.1,0,0.1,0,0.1,0.1c0,0.1,0,0.1-0.1,0.1
						c-0.1,0-0.1,0.1-0.1,0.1v4.2c0,0,0,0.1-0.1,0.1c-0.1,0-0.1,0-0.2,0c0,0,0,0,0,0v-1.2c-0.2,0.1-0.5,0.3-1,0.5
						c-0.2,0.1-0.3,0.1-0.3,0.1c0,0.1,0,0.1-0.1,0.1c-0.1,0-0.1,0-0.1-0.1c0-0.1-0.1-0.2-0.2-0.4c0.5,0,1-0.2,1.6-0.5l0,0V55.5z
						 M40.1,54.6c0.1,0.1,0.2,0.1,0.3,0.2c0,0,0,0.1,0,0.1c0,0,0,0.1,0,0.1c0,0-0.1,0-0.1,0c0,0,0,0-0.1,0c-0.3,0.4-0.8,0.7-1.3,0.8
						v2.1c0,0.1,0,0.1,0,0.2c0,0,0.1,0.1,0.1,0.1c0.1,0,0.2,0,0.4,0c0.2,0,0.4,0,0.5,0c0,0,0.1,0,0.1-0.1c0.1,0,0.1-0.2,0.2-0.6
						l0.1,0c0,0.3,0,0.5,0,0.5c0.1,0,0.1,0.1,0.1,0.1c0,0.1-0.1,0.1-0.2,0.2c-0.1,0-0.4,0.1-0.8,0.1c-0.3,0-0.5,0-0.6,0
						c-0.1,0-0.1-0.1-0.2-0.1c0-0.1-0.1-0.2-0.1-0.3v-4.1l0.3,0.1c0.1,0,0.1,0,0.1,0.1c0,0,0,0.1-0.1,0.1c0,0,0,0,0,0v1.5l0,0
						C39.4,55.4,39.8,55.1,40.1,54.6z"/>
				</g>
				<g>
					<g>
						<path class="st3" d="M11.1,39.5c-0.1,0-0.1,0.2-0.1,0.3h0.1C11.1,39.6,11.2,39.6,11.1,39.5z"/>
						<path class="st3" d="M11.1,39.1C11.1,39.1,11.1,39.1,11.1,39.1c-0.1-0.1-0.2,0.1-0.1,0.2c0,0,0,0,0.1,0v0.1
							c0,0,0.1-0.1,0.1-0.1C11.1,39.3,11.2,39.2,11.1,39.1C11.1,39.1,11.1,39.3,11.1,39.1z"/>
						<path class="st3" d="M10.9,38.5c0,0,0.1,0.3,0.1,0.3c0.2,0,0.2-0.2,0.1-0.1c0,0,0-0.2,0-0.2C10.9,38.3,11,38.5,10.9,38.5
							C10.9,38.5,10.9,38.5,10.9,38.5z"/>
						<path class="st3" d="M10.9,35.4C10.8,35.4,10.8,35.4,10.9,35.4l-0.1,0.1h0.1c0-0.1,0.1-0.3-0.1-0.3
							C10.7,35.2,10.8,35.3,10.9,35.4C10.9,35.3,10.9,35.4,10.9,35.4z"/>
						<path class="st3" d="M11,31.8c0,0,0-0.2,0-0.2C10.9,31.5,11,31.7,11,31.8C11,31.8,11,31.8,11,31.8z"/>
						<path class="st3" d="M11,31c-0.1,0-0.1,0.1-0.1,0.2h0.1C11,31,11.1,31,11,31z"/>
						<path class="st3" d="M11,29.2h0.1c0-0.1-0.1-0.1-0.1-0.1c0.1-0.1,0.1-0.2,0.1-0.2c0,0,0,0-0.1,0.1C10.9,29,11.1,29,11,29.2z"
							/>
						<path class="st3" d="M11.2,28.9C11.2,28.9,11.2,28.8,11.2,28.9C11.2,28.8,11.2,28.8,11.2,28.9z"/>
						<path class="st3" d="M17,24.6c0-0.4,0-0.9,0-1.3c0,0,0,0-0.1,0c0-0.2,0-0.3,0-0.5c0,0,0,0-0.1,0v-0.1c0,0,0,0,0.1,0
							c0-0.1-0.1-0.1-0.1-0.1c0-0.2,0-0.4,0-0.6c0,0,0,0-0.1,0c-0.1-0.1,0-0.2-0.1-0.4c0,0-0.1-0.1-0.1-0.1v-0.1c0,0,0,0-0.1,0
							c0-0.1,0-0.3,0-0.5c0,0,0,0-0.1,0c0-0.3,0-0.4-0.1-0.6c0,0,0,0-0.1,0c0-0.1,0-0.2,0-0.3c0,0,0,0-0.1,0c0-0.1,0-0.1,0-0.2
							c0,0,0,0-0.1,0c0-0.1,0-0.2,0-0.3c0,0-0.3-0.2-0.3-0.2c0,0,0-0.1-0.1-0.1h-0.1c0,0,0,0,0,0.1c-0.1,0-0.2,0.1-0.2,0.1
							c0-0.1,0-0.3,0-0.4c0-0.1-0.2,0-0.2-0.1c0,0,0,0,0-0.1c-0.1,0-0.1-0.1-0.2-0.1c-0.2,0.1-0.1,0-0.3,0.1c0.1,0.1,0,0.1,0.1,0.2
							c0,0,0,0,0.1,0V19c0,0,0,0,0.1,0c0,0,0.1,0.1,0.1,0.1h0.1l0.1,0.1c0,0,0,0,0.1,0v0.1h-0.1c0,0-0.1-0.1-0.1-0.1
							c-0.1-0.1-0.3,0-0.4-0.1c0,0,0-0.3-0.1-0.3h-0.1c0,0,0,0,0,0.1l-0.2,0.1v0.1c-0.1,0-0.2,0-0.2,0v0.1c0,0,0,0-0.1,0
							c0,0,0,0,0,0.1c-0.2,0.1-0.2,0.2-0.4,0.3c0,0,0,0,0,0.1c0,0,0,0-0.1,0V20h-0.1c0,0,0,0,0,0.1c0,0-0.1,0.1-0.1,0.1
							c0,0,0,0,0,0.1c0-0.1,0.1,0.1,0.1,0.1c0,0-0.1,0.1-0.1,0.1c0,0.1,0,0.2,0,0.2c0.2,0,0.3,0,0.4-0.1c0,0.2,0,0.3-0.1,0.6
							c0,0,0,0-0.1,0c0,0.1,0,0.2,0,0.3c0,0,0,0-0.1,0c0,0.1,0,0.2-0.1,0.2c-0.1,0-0.2,0-0.2,0.1v0.1c-0.1,0.1-0.2,0-0.3,0.1
							c0,0,0,0,0,0.1h-0.1c0,0,0,0.2-0.1,0.3l-0.1,0.1v0.1c0,0,0,0-0.1,0v0.1c0,0,0,0-0.1,0c0,0.1,0,0.2,0,0.2c0,0,0,0-0.1,0v0.1
							c0,0,0,0-0.1,0c0,0,0,0,0,0.1c0,0,0,0-0.1,0c0,0.1,0,0.2,0,0.4c0,0,0,0-0.1,0v0.1c0,0,0,0-0.1,0c0,0.1,0,0.2,0,0.2l-0.1,0.1
							c0,0.1,0,0.3,0,0.4c0,0,0,0-0.1,0v0.1c0,0,0,0-0.1,0c-0.1,0.2,0,0.4-0.1,0.6c0,0-0.1,0-0.1,0.1c0,0-0.1,0.1-0.1,0.1
							c0,0,0,0-0.1,0c0,0.1,0.1,0.1,0.1,0.1c0,0,0,0.3-0.1,0.4c0,0,0,0-0.1,0c0,0,0,0,0,0.1c0.1,0.1,0,0.1,0.1,0.2c0,0,0,0,0.1,0
							c0,0.1,0,0.3,0,0.4c0,0,0,0-0.1,0c0,0.1,0,0.2,0,0.2c0,0,0,0-0.1,0c0,0.2,0,0.4,0,0.6c0,0,0,0-0.1,0c0,0.1,0.1,0.3,0.1,0.3
							c0,0,0,0-0.1,0c0,0.3,0.1,0.7,0,1c0,0,0,0-0.1,0c0,0,0,0.2,0,0.2c0.1,0,0.2,0,0.2,0.1c0,0.1,0,0-0.1,0.1c0,0,0,0,0,0.1
							c0,0,0,0,0.1,0c0,0-0.1,0.1-0.1,0.1c0.1,0,0.1,0,0.1,0.1c0,0.1,0,0-0.1,0.1c0,0,0,0-0.1,0c-0.1,0.2,0,0.4,0,0.6
							c-0.2,0-0.1-0.1-0.3,0c0,0,0,0,0,0.1c0,0,0,0,0.1,0c0,0.1,0,0.3,0,0.4c0.1,0,0.1-0.1,0.2-0.1v0.1c0,0,0,0,0.1,0v0.1
							c0,0-0.1,0.1-0.1,0.1c0,0.1,0,0.1,0.1,0.1c0,0,0,0.1-0.1,0.2c0,0,0,0-0.1,0c-0.1,0,0.1,0.1,0.1,0.1c0,0,0,0.5,0,0.5
							c-0.4,0-0.2,0.2-0.1,0.2c0,0.1,0,0-0.1,0.1c0,0,0,0,0,0.1c0,0,0,0,0.1,0c0,0.1,0,0.1,0,0.2c0,0-0.3,0-0.1,0.1c0,0,0,0,0.1,0
							v0.1c-0.1,0,0,0,0,0v0c0,0,0,0,0,0c0,0,0,0,0,0c0,0,0,0,0,0c0.1,0.1,0,0,0.1,0.1c-0.1,0.1,0,0-0.1,0.1c-0.1,0-0.2,0-0.2,0
							c0,0,0,0.2,0,0.2c0,0,0,0,0.1,0c0,0,0,0,0.1,0v0.1c0,0,0,0-0.1,0C10.9,33,10.9,33,10.9,33v0.1h0.1c0,0.1,0,0.2,0.1,0.3
							c-0.1,0.1,0,0-0.1,0.1c-0.1,0-0.2,0-0.2,0v0.1c0.1,0,0.1-0.1,0.4-0.1c-0.1,0.1,0,0.2-0.1,0.4H11c0,0.1,0,0.1,0,0.2
							c0,0,0,0-0.1,0c0,0,0-0.2,0-0.2c0,0-0.3,0.2-0.1,0.2c0,0,0,0.1,0,0.1c0,0,0.1,0,0.1,0.1c0,0.1,0,0.3,0,0.4h0.1v0.1
							c0,0,0,0-0.1,0c0,0,0,0-0.1,0V35c-0.1,0,0-0.2-0.2-0.1V35c0,0,0,0,0,0c0,0,0,0.1,0,0.1c0,0,0.1-0.1,0.1-0.1c0,0,0,0.2,0,0.2
							c0,0,0.1,0.1,0.1,0.1c0,0,0,0.1,0,0.1c0,0-0.1,0.1-0.1,0.1c0,0,0,0-0.1,0c0,0.1,0.1,0.3,0.1,0.4c0,0,0,0-0.1,0V36
							c-0.1,0-0.1-0.1-0.1-0.1c0,0.2,0,0.3-0.1,0.5c0.1,0,0.1-0.1,0.2-0.1l0.1,0.2c0,0,0,0,0.1,0c0.1,0-0.1,0.1-0.1,0.1
							c0,0.1,0.1,0.1,0.1,0.2c0,0,0,0-0.1,0c0,0,0,0.3,0,0.3c0,0-0.1,0-0.1-0.1c-0.1,0-0.1,0.4,0,0.4c0,0,0-0.2,0.1-0.1
							c0,0,0,0,0,0.1c0,0,0,0,0.1,0c0,0.1,0,0.2,0,0.3c0,0,0,0,0,0c-0.1,0,0,0.1-0.1,0.2h0.1c0,0,0-0.1,0-0.1c0,0,0,0,0.1,0
							c0,0.1,0,0.3,0,0.4c0,0,0,0-0.1,0c0,0,0,0,0,0.1c0.2,0.1-0.1,0.4,0.1,0.5c0,0,0,0,0,0.1c-0.1,0.1,0,0-0.1,0.1c0,0,0,0-0.1,0
							c0,0.1,0.1,0.1,0.1,0.1c0,0.1,0,0.3,0,0.4c0,0,0.1,0,0.1,0c0,0,0,0,0,0.1c0,0,0,0-0.1,0c0,0.1,0.1,0,0.1,0.1
							c-0.1,0-0.1-0.1-0.1,0.1c0,0,0,0,0.1,0c0,0.2,0,0.3,0.1,0.5c0,0,0,0,0.1,0v0.1c0,0,0,0,0.1,0c0,0.1,0,0-0.1,0.1
							c0.1,0.2,0,0.1,0.1,0.1v0.1c0,0,0,0,0.1,0c0,0.1,0,0.2,0,0.3c0,0.1,0.2,0,0.2,0.1c0.1,0.1,0,0.1,0.1,0.2l0.1,0.1
							c0,0.1-0.1,0.3,0,0.4c0.1,0,0.1,0,0.1,0.1c0,0,0.2,0,0.2,0v-0.1c0,0,0,0-0.1,0c0-0.1,0,0,0.1-0.1c0-0.1,0-0.2,0-0.3
							c0,0,0,0-0.1,0v-0.1c0,0,0,0-0.1,0c0-0.1,0-0.2,0-0.3c0.1,0,0.2,0,0.3,0.1c0.1,0.1,0,0.1,0.1,0.2c0,0,0.1,0.1,0.1,0.1
							c0-0.1,0-0.1,0-0.2c0,0,0,0-0.1,0v-0.1c0,0,0,0-0.1,0c0,0,0,0,0-0.1c0,0,0.1,0,0.1-0.1l-0.2-0.1v-0.1c0,0-0.1-0.1-0.1-0.1
							v-0.1c0.1,0,0.3,0,0.4,0c0,0,0.1,0.2,0.3,0.1c0,0,0,0,0-0.1c0,0,0.1-0.1,0.1-0.1v-0.1c0.1,0,0.2,0,0.4,0c0,0,0,0.1,0.1,0.1
							c0.1,0-0.1-0.1,0.1-0.1c0,0,0,0,0,0.1h0.1c0,0,0,0.1,0.1,0.1c0,0,0,0,0.1,0v0.1c0,0,0.2,0,0.2,0c0,0,0.1,0.1,0.1,0.1
							c0,0,0.2,0,0.2,0c0.1-0.1,0-0.1,0.1-0.3c0,0,0,0,0.1,0c0-0.1-0.1-0.1-0.1-0.2c0,0,0.1-0.1,0.1-0.1c0-0.1-0.1-0.4,0-0.5
							l0.2-0.1c0-0.1,0-0.3,0-0.4c0,0,0.1,0,0.1,0c0,0,0,0,0-0.1c-0.1,0-0.1,0.1-0.1-0.1c0,0,0,0,0.1,0c0,0,0-0.1-0.1-0.1
							c0.1-0.1,0,0,0.1-0.1v-0.1c0,0,0.3,0,0.3-0.1c0,0,0.1,0.1,0.1,0.1c0.1-0.1,0-0.3,0-0.4h0.1c0,0,0.1-0.1,0.1-0.1h0.1
							c0-0.1,0-0.3,0-0.4c0,0,0.1,0,0.1,0c0,0,0,0,0-0.1c0,0,0,0-0.1,0c0,0,0,0,0-0.1c0,0,0,0,0.1,0c0.1-0.2,0-0.2,0.1-0.4
							c0,0,0,0,0.1,0c0-0.1,0-0.2-0.1-0.2c0,0,0,0,0-0.1c0,0,0,0,0.1,0c0-0.1,0-0.3,0-0.4c0,0,0,0,0.1,0v-0.1c0,0,0,0-0.1,0
							c0-0.1,0-0.3,0-0.4c0,0,0,0,0.1,0c0-0.3,0-0.6,0-0.9c0,0,0,0,0.1,0c0-0.2-0.1-0.3-0.1-0.4c0,0,0,0,0.1,0
							c0-0.7,0.1-1.1,0.1-1.8c0,0,0,0,0.1,0c0-0.3,0-0.7,0-1c0,0,0,0,0.1,0v-0.1c0,0.1-0.1-0.1-0.1-0.1c0,0,0,0,0.1,0
							c0-0.3,0-0.6,0-0.9c0,0,0,0,0.1,0c0,0-0.1-0.1-0.1-0.2c0,0,0,0,0.1,0c0-0.4,0-0.6,0.1-0.9c0,0,0,0,0.1,0c0-0.2,0-0.3,0-0.5
							c0,0,0,0-0.1,0c0.1-0.1,0-0.1,0.1-0.1c0-0.3,0-0.6,0-0.9c0,0,0,0,0.1,0c0-0.3,0-0.3,0.1-0.6c0,0,0,0,0.1,0
							c0.1-0.5,0-0.9,0.1-1.4c0,0,0,0,0.1,0c0-0.2,0-0.4,0-0.6c0,0,0,0,0.1,0C17,25.1,16.9,24.9,17,24.6C17,24.6,17,24.6,17,24.6z"
							/>
						<path class="st3" d="M12.2,22.9C12.2,22.8,12.1,23,12.2,22.9L12.2,22.9z"/>
						<path class="st3" d="M11.1,31.8C11.1,31.8,11.1,31.8,11.1,31.8L11.1,31.8z"/>
						<path class="st3" d="M11,37.4C11,37.4,11,37.4,11,37.4L11,37.4z"/>
						<path class="st3" d="M11.2,28.7C11.2,28.7,11.2,28.7,11.2,28.7L11.2,28.7z"/>
						<path class="st3" d="M15,39C15,39,15,39,15,39L15,39z"/>
						<path class="st3" d="M10.9,34.3C10.7,34.3,10.9,34.5,10.9,34.3L10.9,34.3z"/>
						<path class="st3" d="M15.7,37.7C15.7,37.7,15.8,37.7,15.7,37.7L15.7,37.7z"/>
						<path class="st3" d="M10.9,29.7C10.9,29.7,10.9,29.7,10.9,29.7L10.9,29.7z"/>
					</g>
					<g>
						<path class="st3" d="M4.5,28.4C4.5,28.4,4.5,28.5,4.5,28.4L4.5,28.4c0.1,0,0.1-0.1,0.1-0.2C4.5,28.3,4.4,28.5,4.5,28.4z"/>
						<path class="st3" d="M4.4,28.7C4.4,28.7,4.4,28.7,4.4,28.7c0.1,0.1,0.2-0.1,0-0.1C4.3,28.6,4.3,28.7,4.4,28.7z"/>
						<path class="st3" d="M4.3,29.2C4.3,29.2,4.3,29.1,4.3,29.2c0-0.1,0.2-0.1,0.1-0.2c0,0,0-0.1-0.1-0.1c-0.1,0-0.2,0-0.3,0
							c-0.1,0,0,0.1-0.1,0.2C4.1,29.1,4.1,29.1,4.3,29.2z"/>
						<path class="st3" d="M4.2,33.7c-0.1,0,0,0.1,0,0.2h0.1C4.3,33.8,4.3,33.7,4.2,33.7z"/>
						<path class="st3" d="M5.2,27.8c0,0-0.1-0.1-0.1-0.1c-0.1,0-0.1,0.1-0.1,0.1H5.2z"/>
						<path class="st3" d="M10.9,32.6c0,0,0-0.2,0-0.2c0,0-0.1-0.1-0.1-0.1c0-0.1,0-0.3,0-0.4h-0.1c0,0,0,0,0-0.1
							c0,0-0.2-0.1-0.2-0.1v-0.1c-0.1-0.1-0.2,0-0.2-0.1c0,0,0-0.2,0-0.2L9.9,31c0,0,0,0,0-0.1H9.8c0,0,0,0,0-0.1H9.7c0,0,0,0,0-0.1
							c0,0-0.2-0.1-0.2-0.1c0-0.1,0-0.2,0-0.3c0,0,0,0-0.1,0c-0.1-0.2,0-0.1-0.1-0.3c0,0,0,0-0.1,0c0-0.1,0-0.1,0-0.2c0,0,0,0-0.1,0
							v-0.1c0,0,0,0-0.1,0c0-0.1,0-0.1,0-0.2c0,0,0,0-0.1,0c0-0.2,0-0.2-0.1-0.4L8.7,29c0-0.1,0-0.2,0-0.2c0,0,0,0-0.1,0
							c0,0,0,0,0-0.1c0,0-0.2,0-0.2-0.1c0,0-0.1-0.1-0.1-0.1H8.2c0,0,0,0,0-0.1H8.1c0,0-0.1-0.1-0.1-0.1H7.9c0,0-0.1-0.1-0.1-0.1
							c-0.1-0.1-0.2,0-0.3-0.1l-0.1-0.1c-0.1,0-0.2,0-0.2,0c0,0,0,0,0-0.1c-0.1,0-0.1,0-0.2-0.1c0,0,0,0,0-0.1c-0.1,0-0.2,0-0.2,0
							l-0.1-0.2c0,0-0.2,0-0.2,0l-0.2-0.3c-0.1,0-0.1,0-0.2,0c0,0,0,0,0-0.1c-0.1,0-0.2,0-0.4,0c0,0-0.1,0.1-0.1,0.1c0,0,0,0,0,0.1
							c0.2-0.1,0,0.2,0,0.2c-0.1,0-0.1,0.1-0.1-0.1H5.3c0,0.1,0,0.3,0,0.4c0,0-0.1,0.1-0.1,0.1c0,0,0,0,0,0.1C5,28,5,27.9,4.8,28
							c0,0,0.1,0.2,0.1,0.3c0,0,0.2,0,0.2,0c0,0,0,0,0-0.1c0.1,0,0.1,0.1,0.3,0.1c0,0,0-0.2,0-0.2c0,0-0.2-0.1-0.1-0.1
							c0.1-0.1,0.3,0,0.4-0.1c0,0,0,0,0,0.1h0.1c0,0,0,0,0,0.1C6,28,6.1,28.2,6.2,28.2c0,0,0,0,0,0.1c0,0,0,0,0,0.1
							c-0.1,0-0.3,0-0.4,0c0,0,0.1-0.3,0.1-0.4H5.7c0,0.1,0,0.4-0.1,0.5H5.5v0.1c0,0-0.2,0-0.2,0c0,0.2,0,0.3,0,0.5
							c0.1,0.1,0.2,0,0.1,0.1l-0.2,0.1c0,0,0,0.2,0,0.2c0,0,0,0,0,0c0,0,0,0,0,0.1H5c-0.1,0.1,0.1,0.2,0.1,0.2H4.9c0,0,0,0,0,0.1
							c0,0,0,0-0.1,0c0,0.1,0,0.2,0,0.3c-0.2,0-0.2,0-0.4-0.1c0,0,0,0,0,0.1H4.3v0.1c0,0,0.2,0-0.1,0.1c0,0,0,0,0,0.1
							c-0.1,0-0.1,0-0.2,0c0,0,0,0,0,0.1c-0.3,0.1-0.3,0-0.6,0.1c0,0,0,0,0,0.1c-0.1,0-0.1,0-0.2,0c0,0,0,0.1-0.1,0.2h0.1
							c0,0,0.1,0.1,0.1,0.1c0.1-0.1,0.1,0.1,0.1,0.1c-0.1,0-0.1,0.1-0.1,0.1c-0.1,0.1-0.1,0-0.2,0.1c0,0.1,0,0.2,0,0.3l0.2,0.1v0.1
							c0,0,0.1,0.1,0.1,0.1c0,0.1,0,0.2,0,0.2c0,0.1,0.2,0,0.2,0.1v0.1c0,0,0,0,0.1,0c0,0,0,0,0,0.1c0,0,0.1,0.1,0.1,0.1
							c0,0,0,0.2,0.1,0.2c0,0,0,0,0.1,0c0,0.1,0,0.2,0,0.2h0.1c0,0,0.1,0.4,0,0.2c0,0,0,0,0,0.1c0,0,0.2,0,0.2,0c0,0,0,0,0,0.1
							c0,0,0,0,0.1,0v0.1l0.1,0.1c0.1,0.1-0.1,0.2,0.1,0.2c0,0,0,0,0,0.1c0.1,0,0.2,0,0.3,0c0,0,0,0,0,0.1h0.1v0.1
							c0.1,0.1,0.3,0,0.4,0.1l0.1,0.2c0.1,0,0.2,0,0.2,0L6,34.5c0.2,0,0.4-0.1,0.5,0v0.1c0.1,0,0.2,0,0.2,0c0,0,0,0,0,0.1
							c0,0,0,0,0.1,0c0,0,0,0,0,0.1h0.1c0,0,0.1,0.1,0.1,0.1c0.1,0,0.2,0,0.2,0c0,0,0.1,0.2,0.1,0.1c0,0-0.1-0.2,0.1-0.1
							c0,0,0,0,0,0.1c0.1,0.1,0.2,0,0.3,0.1c0,0,0.1,0.1,0.1,0.1c0.1,0,0.1,0,0.2,0c0,0,0,0,0,0.1c0.1,0,0.1,0,0.2,0c0,0,0,0,0,0.1
							c0,0,0.1,0,0.1,0c0,0-0.1,0,0-0.1c0.1,0,0.2,0,0.2,0c0,0,0,0,0,0.1c0.1,0,0.2,0,0.3-0.1c0,0,0.1-0.2,0.2-0.2c0,0,0,0,0-0.1
							h0.1c0,0,0,0,0-0.1c0.1,0,0.1,0.1,0.1,0.1h0.1c0,0,0,0,0,0.1c0.2,0,0.2-0.1,0.4-0.1c0.1-0.1,0-0.2,0.1-0.4c0,0,0,0,0.1,0v-0.1
							c0,0,0,0,0.1,0v-0.1c0-0.1,0.2,0,0.2-0.1c0,0,0,0,0-0.1c0,0,0.1-0.1,0.1-0.1V34l0.2-0.1c0,0,0-0.2,0-0.2c0,0,0,0,0.1,0v-0.1
							c0,0,0.1,0,0.1-0.1c0.1-0.1,0.1-0.5,0.1-0.5h0.1v-0.1c0,0,0,0,0-0.1h0.1v-0.1C11.2,32.6,11,32.6,10.9,32.6z"/>
					</g>
					<g>
						<path class="st3" d="M20.3,30.8h0.1c0-0.1,0-0.2-0.1-0.2C20.3,30.6,20.3,30.7,20.3,30.8z"/>
						<path class="st3" d="M20.4,35.4c0,0,0-0.1,0.1-0.1c0,0,0,0,0.1,0c0-0.1,0-0.3-0.1-0.2c0,0,0,0-0.1,0c0,0,0,0.2,0,0.2
							C20.3,35.2,20.3,35.4,20.4,35.4z"/>
						<path class="st3" d="M20.2,35.7C20.3,35.7,20.2,35.8,20.2,35.7c0.1,0,0.3-0.4,0.1-0.3c0,0,0,0-0.1,0c0,0,0,0.2,0,0.2
							L20.2,35.7C20.2,35.7,20.2,35.8,20.2,35.7z"/>
						<path class="st3" d="M21.2,35.6C21.2,35.6,21.2,35.6,21.2,35.6C21.2,35.6,21.2,35.5,21.2,35.6c0-0.1,0-0.1,0-0.1
							C21.1,35.5,21.1,35.6,21.2,35.6z"/>
						<path class="st3" d="M21.5,35.5c-0.1,0-0.1,0.2-0.1,0.1c0,0,0,0,0,0c0,0,0.1,0,0.2,0C21.5,35.5,21.7,35.5,21.5,35.5z"/>
						<path class="st3" d="M20.3,36C20.3,36,20.3,36,20.3,36c0.1-0.1,0.1-0.1,0-0.1C20.2,35.9,20.2,36,20.3,36z"/>
						<path class="st3" d="M20.8,36.8c0,0,0-0.1,0.1-0.1c0,0-0.2,0-0.1-0.1C20.7,36.7,20.8,36.7,20.8,36.8
							C20.7,36.7,20.7,36.8,20.8,36.8z"/>
						<path class="st3" d="M21.1,36.8C21.1,36.8,21.1,36.8,21.1,36.8C21.1,36.8,21.1,36.8,21.1,36.8L21.1,36.8c0-0.1,0-0.1,0-0.1
							C21,36.7,21,36.8,21.1,36.8z"/>
						<path class="st3" d="M19.8,38.8h0.1c0-0.1,0-0.3,0-0.3c-0.1,0,0,0-0.1,0.1C19.7,38.6,19.8,38.8,19.8,38.8z"/>
						<path class="st3" d="M19.8,39v0.1c0,0,0.1,0,0.1,0.1v0.1c0,0,0.2,0,0.2,0c0-0.2,0-0.3,0-0.5c-0.1,0,0,0.1-0.1,0
							c0,0-0.1,0-0.1,0c0,0,0,0.2,0,0.2L19.8,39z"/>
						<path class="st3" d="M18.7,41.2c0,0,0.1-0.1,0.1-0.1C18.7,41,18.7,41.2,18.7,41.2z"/>
						<path class="st3" d="M19.5,41.3C19.6,41.3,19.5,41.3,19.5,41.3L19.5,41.3z"/>
						<path class="st3" d="M19.5,41.3C19.4,41.3,19.5,41.4,19.5,41.3C19.5,41.4,19.5,41.3,19.5,41.3C19.5,41.3,19.5,41.3,19.5,41.3z
							"/>
						<path class="st3" d="M20.7,41.5C20.7,41.5,20.7,41.5,20.7,41.5C20.9,41.4,20.3,41.6,20.7,41.5z"/>
						<path class="st3" d="M20.5,41.7c0,0,0,0.1,0.1,0.1c0-0.1,0,0,0.1-0.1c0,0,0-0.1,0-0.2c0,0,0,0-0.1,0
							C20.6,41.6,20.4,41.6,20.5,41.7z"/>
						<path class="st3" d="M18.7,41.9c0-0.1,0-0.2-0.1-0.2c-0.1,0,0,0.1-0.1,0.2H18.7z"/>
						<path class="st3" d="M19.5,42.2c0-0.1,0-0.1,0-0.2c0,0,0,0,0,0c-0.1,0,0,0-0.1,0c0,0,0,0,0,0C19.4,42.1,19.4,42.3,19.5,42.2
							C19.4,42.2,19.4,42.2,19.5,42.2C19.4,42.2,19.5,42.2,19.5,42.2z"/>
						<path class="st3" d="M19.3,42.4v0.1C19.5,42.5,19.5,42.4,19.3,42.4C19.2,42.3,19.2,42.4,19.3,42.4z"/>
						<path class="st3" d="M20.2,43.6C20.3,43.6,20.2,43.6,20.2,43.6L20.2,43.6z"/>
						<path class="st3" d="M20,43.7c0.1,0,0.1,0,0.2,0c0,0,0,0,0,0c0,0,0,0,0,0c0-0.1,0-0.1,0-0.2c0,0,0,0,0,0c0,0,0,0,0-0.1
							c0,0-0.1,0.1-0.2,0.1c0-0.2,0-0.3,0.1-0.5c-0.1,0-0.1,0-0.1-0.1c0,0,0.1,0,0.2,0v-0.1c-0.1,0-0.1,0-0.2,0.1c0,0,0,0,0-0.1
							c0-0.1-0.1,0.1-0.1,0.1c0.1-0.1,0,0,0.1,0.1c0-0.1,0.1,0.1,0,0.2h-0.1c0,0.2,0,0.4,0,0.6c0,0,0,0,0.1,0c0,0,0,0.1,0,0.1
							c0,0,0,0-0.1,0c0,0.1,0,0.1,0,0.2c0.1,0,0.2,0,0.3,0c0-0.1,0-0.1,0.1-0.2c0,0,0,0-0.1,0L20,43.7C20.1,43.7,20,43.8,20,43.7z"
							/>
						<path class="st3" d="M18.4,44.9h0.1c0,0,0,0,0,0.1c0,0,0,0,0,0c0,0.1,0,0.4,0,0.5c0,0,0,0,0.1,0c0,0,0,0.1,0,0.2
							c0,0-0.1,0-0.1-0.1c0,0,0,0,0,0.1c-0.1,0,0,0-0.1,0c0,0,0,0.1,0,0.2c0,0,0,0,0.1,0c0,0.1,0,0.1,0,0.2c0,0,0,0-0.1,0
							c0,0.1,0.1,0.1,0.1,0.1c0,0,0,0.1,0,0.2c0,0,0,0-0.1,0c0,0,0,0.1,0,0.1c0,0,0,0-0.1,0c0,0,0,0.1,0,0.2c0,0,0.2,0,0.2,0.1
							c0,0,0,0.1,0.1,0.1c0.1,0,0.1,0,0.2,0c0-0.1,0-0.1,0-0.2c0,0.1,0-0.1,0-0.1c0,0.1-0.1-0.1-0.1-0.1s0.1,0,0.1,0
							c0-0.1,0-0.1,0-0.2c0,0,0.1,0,0.2,0c0,0.1-0.1,0.2,0,0.2c0,0,0.1,0,0.2,0l0-0.1c0,0,0,0,0,0v-0.1c0,0,0,0-0.1,0
							c0,0-0.1-0.2-0.1-0.2l-0.1,0c0-0.1,0-0.2,0-0.3c0,0,0,0-0.1,0c0-0.2,0-0.2,0.1-0.4c0.1,0,0.1,0,0.1,0c0,0,0.1,0,0.2,0
							c0,0.1,0,0.4,0,0.4c0,0,0.1,0,0.1,0.1c0,0.1,0,0.3,0,0.3c0.1,0,0,0,0.1,0.1h0.1c0,0,0-0.2,0-0.2c0.1,0.1,0,0,0.1-0.1
							c0.1,0.1,0-0.1,0-0.1c-0.1,0-0.1,0-0.1-0.1v-0.1c0,0,0.1,0,0.1-0.1v-0.1c0,0-0.1,0-0.1,0c0,0,0,0,0,0v-0.1
							c0.2,0,0.1-0.1,0.1-0.1c0,0-0.1,0-0.1,0c0,0,0,0.1-0.2,0.1L19.1,45c0.1,0,0.1,0,0.1,0c0,0,0,0,0-0.1c-0.1,0-0.1,0-0.2,0V45
							c0,0-0.2,0-0.2,0c0,0,0,0,0,0c0-0.1,0,0,0.1-0.1c0,0,0-0.1,0-0.2c0,0,0,0-0.1,0c0-0.1,0-0.1,0-0.1l0.1-0.1c0-0.1,0-0.2,0-0.4
							c0,0,0,0,0,0c0-0.1,0-0.2,0-0.3c-0.1,0-0.1,0-0.2-0.1c0,0,0,0,0-0.1c0,0,0.2,0,0.2,0c0-0.1,0-0.2,0-0.3c0,0,0,0,0.1,0
							c0-0.1,0,0-0.1-0.1c0,0,0-0.1,0-0.1c0,0,0,0,0.1,0c0-0.1,0-0.3,0-0.4c0,0,0,0,0.1,0c0-0.1,0,0,0-0.1c0,0-0.1,0-0.2,0
							c0,0,0,0,0,0c0.1,0,0.1,0,0,0c0,0-0.2,0-0.2,0c0,0.1,0,0.2,0,0.3c0,0,0,0-0.1,0v0.1c0,0,0.1,0,0.1,0.1c0,0,0,0-0.1,0v0.1
							c0,0,0,0-0.1,0c0,0,0,0.1,0,0.2h0.1c0,0,0,0,0,0.1h-0.1c0,0,0,0.2,0,0.2c0,0,0.1,0,0.2,0c0,0,0,0,0,0c0,0-0.2,0.1-0.2,0.1
							c0,0.2,0,0.4,0,0.6h-0.1v-0.1c0,0,0,0-0.1,0c0-0.1,0,0-0.1-0.1h-0.1v0.1l0.1,0.1C18.4,44.7,18.4,44.8,18.4,44.9z"/>
						<path class="st3" d="M19,42.9C18.9,42.9,18.8,42.9,19,42.9L19,42.9z"/>
						<path class="st3" d="M19.5,43.6c-0.1,0,0,0,0,0.1C19.4,43.7,19.9,43.6,19.5,43.6z"/>
						<path class="st3" d="M20.1,43.8c-0.1,0-0.1,0.2,0,0.2C20.1,44,20.3,43.8,20.1,43.8z"/>
						<path class="st3" d="M18.4,44c0,0,0.4-0.1,0.1-0.1C18.3,43.9,18.4,43.9,18.4,44z"/>
						<path class="st3" d="M19.2,44.3C19.2,44.3,19.2,44.3,19.2,44.3c0.1,0.1,0.2-0.1,0-0.1C19.1,44.1,19.1,44.3,19.2,44.3z"/>
						<path class="st3" d="M19.4,44.2c-0.1,0-0.1,0.2-0.1,0.1c0,0,0,0,0,0h0.1C19.5,44.2,19.5,44.2,19.4,44.2z"/>
						<path class="st3" d="M19.3,44.6h-0.1c0-0.1,0-0.1,0-0.3c0,0,0,0-0.1,0c-0.1,0.1-0.1,0.2,0,0.4c0.2,0,0.1-0.1,0.3,0
							c0.1,0.1-0.1,0.1-0.1,0.1v0.1c0,0,0.2,0,0.2,0c0-0.1,0-0.3,0-0.4C19.3,44.5,19.4,44.6,19.3,44.6z"/>
						<path class="st3" d="M19.7,45.1c0-0.1,0-0.2-0.1-0.2c-0.1,0,0,0.1,0,0.2H19.7z"/>
						<path class="st3" d="M18.4,45.2C18.4,45.2,18.4,45.2,18.4,45.2C18.4,45.2,18.4,45.2,18.4,45.2c0.1-0.1,0-0.2,0-0.3
							C18.3,45,18.2,45.3,18.4,45.2z"/>
						<path class="st3" d="M19.8,45C19.7,45,19.8,45,19.8,45C19.8,45.1,20.3,45,19.8,45z"/>
						<path class="st3" d="M20.3,45c-0.1,0,0,0-0.1,0.1C20.2,45.1,20.6,45,20.3,45z"/>
						<path class="st3" d="M19.8,45.2c-0.2,0.1-0.1,0.2-0.2,0.3c0,0,0.1,0,0,0.1h0.1c0,0,0,0,0-0.1c0,0,0,0,0,0
							C19.8,45.4,19.9,45.1,19.8,45.2z"/>
						<path class="st3" d="M19.7,45.6c-0.1,0-0.1,0.2,0,0.2c0,0,0,0,0,0.1C19.8,45.9,19.9,45.6,19.7,45.6z"/>
						<path class="st3" d="M19.1,45.9c-0.1,0,0,0.1-0.1,0.1C19,46,19.2,45.9,19.1,45.9z"/>
						<path class="st3" d="M19.4,46.6c0,0,0-0.1,0.1-0.1c0,0,0,0-0.1,0c0,0,0.1-0.1,0-0.1c0-0.1,0-0.1,0-0.2c0,0,0,0,0,0
							c0,0,0,0,0,0c0,0,0,0-0.1,0c0,0,0,0.1,0,0.2c0,0,0,0,0,0l0,0.3C19.3,46.6,19.4,46.6,19.4,46.6z"/>
						<path class="st3" d="M19.1,46.5c0.1,0.1,0-0.1-0.1-0.1c-0.1,0,0,0.1,0,0.2C19,46.6,19.1,46.5,19.1,46.5
							C19.1,46.6,19.1,46.5,19.1,46.5z"/>
						<path class="st3" d="M19.8,46.8v-0.1c0,0-0.2,0-0.2,0l-0.1-0.2c-0.1,0,0,0,0,0.1c-0.1-0.1,0,0-0.1,0c0,0,0,0,0.1,0v0.1
							c0,0,0.1,0,0.2,0c0,0.1,0.1,0.3-0.1,0.3c0,0,0,0.2,0.1,0.1c0,0,0.1,0.1,0.1,0.1c0,0,0.1,0,0.1,0c0-0.1,0-0.2,0-0.3
							C19.7,46.9,19.8,46.8,19.8,46.8z"/>
						<path class="st3" d="M19.2,46.6c-0.1,0,0,0.1,0,0.1C19.2,46.7,19.3,46.7,19.2,46.6z"/>
						<path class="st3" d="M19.3,47C19.3,47,19.3,47.1,19.3,47c0,0.1,0,0.1,0,0.1C19.4,47.1,19.4,47,19.3,47z"/>
						<path class="st3" d="M19.2,47.2v-0.1C19.2,47.1,19.1,47.2,19.2,47.2z"/>
						<path class="st3" d="M19.8,47.6c0,0-0.1,0-0.2,0c0,0,0,0,0,0c-0.1-0.1,0.1-0.2-0.2-0.2c-0.1,0,0,0.1-0.1,0.2h0.1c0,0,0,0,0,0
							h-0.1c0,0,0,0.1,0,0.2c0.1,0,0.1,0,0.1-0.1c0.1,0,0.1,0,0.3,0.1C19.8,47.7,19.9,47.6,19.8,47.6z"/>
						<path class="st3" d="M19.3,47.6c-0.1,0-0.1,0-0.2,0c0,0,0,0,0,0v0.1c0,0,0,0,0,0l0.1,0.2C19.4,47.8,19.3,47.7,19.3,47.6z"/>
						<path class="st3" d="M22.1,47.9C22,47.9,22.1,47.9,22.1,47.9c0,0.1,0.1,0.1,0.1,0.1C22.1,47.9,22.3,47.9,22.1,47.9z"/>
						<path class="st3" d="M19.1,48c0,0,0,0.2,0,0.3c0,0,0.1,0,0.1,0c0.1,0-0.1-0.1,0.1,0c0-0.1,0-0.2,0-0.3c-0.1,0-0.1,0-0.1,0
							L19.1,48z"/>
						<path class="st3" d="M19.5,47.9C19.5,47.9,19.5,47.9,19.5,47.9C19.5,47.9,19.5,48,19.5,47.9L19.3,48c0,0,0,0.1,0,0.1
							c0,0,0,0,0,0c0,0,0,0,0,0.1c0,0,0.1-0.1,0.1-0.1v0.1h0.1c0,0,0.1,0.1,0.1,0.2c0,0,0.1,0,0.1,0c0-0.1,0-0.2,0-0.3
							c0,0-0.1,0-0.2,0c0,0,0-0.1,0-0.1H19.5z"/>
						<path class="st3" d="M19.2,48.6C19.2,48.6,19.2,48.5,19.2,48.6C19.1,48.5,19.1,48.7,19.2,48.6c-0.1,0.1-0.1,0.1-0.1,0.1
							C19.3,48.6,19.2,48.6,19.2,48.6z"/>
						<path class="st3" d="M19.2,48.7c-0.1,0,0,0-0.1,0.1c0,0,0,0,0,0c0,0,0,0.1,0,0.1h0.1c0,0,0,0,0-0.1
							C19.3,48.9,19.4,48.7,19.2,48.7z"/>
						<path class="st3" d="M19.5,49.2c-0.1,0,0,0.1,0,0.2h0.1C19.5,49.3,19.6,49.2,19.5,49.2z"/>
						<path class="st3" d="M19.5,49.5C19.3,49.5,19.6,49.5,19.5,49.5l-0.1,0c0.1,0-0.2,0.1,0.2,0.1C19.5,49.6,19.6,49.5,19.5,49.5z"
							/>
						<path class="st3" d="M19.6,49.6C19.5,49.6,19.6,49.7,19.6,49.6C19.6,49.7,20,49.6,19.6,49.6z"/>
						<path class="st3" d="M18.4,54.7C18.5,54.7,18.5,54.7,18.4,54.7c0.1,0.1,0.1,0.1,0.1,0.2h0.1c0,0,0-0.1,0-0.2c0,0,0,0,0,0
							c0,0,0,0,0,0c0,0,0,0,0,0c0,0,0,0,0-0.1c0.1,0,0,0,0,0c0,0,0,0,0.1,0c0,0,0,0,0-0.1c-0.1,0,0,0-0.2-0.1
							C18.5,54.3,18.4,54.6,18.4,54.7z"/>
						<path class="st3" d="M18.6,54.9C18.5,54.8,18.6,54.9,18.6,54.9c-0.2,0,0,0.3,0,0.3h0.1C18.6,55.1,18.7,54.8,18.6,54.9z"/>
						<path class="st3" d="M19,55.3c0,0,0-0.2,0-0.2C18.9,55.2,18.8,55.4,19,55.3z"/>
						<path class="st3" d="M18.7,55.9c-0.1,0-0.1,0-0.2,0c0,0,0,0-0.1,0c0,0,0,0.1,0.1,0.1c0,0,0.1,0,0.2,0
							C18.6,56,18.6,56,18.7,55.9C18.8,56,18.6,56,18.7,55.9z"/>
						<path class="st3" d="M18.3,53.2c-0.1-0.1-0.1,0.1-0.1,0.1C18.3,53.4,18.4,53.3,18.3,53.2z"/>
						<path class="st3" d="M18.3,52.8c-0.1-0.1-0.1,0.1-0.1,0.1C18.2,52.9,18.4,52.8,18.3,52.8z"/>
						<path class="st3" d="M20.9,50.5c-0.1,0-0.2,0.2,0,0.1C20.9,50.6,21.1,50.4,20.9,50.5z"/>
						<path class="st3" d="M21.2,50.1c0,0,0,0.2,0,0.2c0,0,0,0-0.1,0c0,0,0,0.5,0.1,0.2c0,0.1,0,0,0.1,0.1
							C21.3,50.5,21.3,50.3,21.2,50.1C21.3,50.1,21.2,50.1,21.2,50.1z"/>
						<path class="st3" d="M20.9,49.8c0,0-0.2,0.1,0,0.1v0.1C21.1,50.3,20.9,49.8,20.9,49.8z"/>
						<path class="st3" d="M19.5,48.9c-0.1,0-0.3,0.2,0,0.1v0.1C19.7,49.3,19.6,48.9,19.5,48.9z"/>
						<path class="st3" d="M18.1,47.8c0,0,0-0.3,0-0.3C18,47.5,18,47.9,18.1,47.8z"/>
						<path class="st3" d="M18.5,47.6C18.5,47.5,18.4,47.6,18.5,47.6L18.5,47.6z"/>
						<path class="st3" d="M19.3,50C19.3,50,19.2,50,19.3,50C19.2,50,19.2,50,19.3,50l-0.2,0.1L19,50.2h-0.1c0-0.5,0-0.9,0-1.4
							c0,0,0,0,0.1,0c0-0.1,0-0.3,0-0.4c0,0,0,0-0.1,0c0-0.2,0-0.4,0-0.6c0,0,0,0,0.1,0c0-0.3,0-0.4-0.1-0.7c0,0-0.1,0.1-0.1,0.1
							v0.1h-0.1c0,0.1,0,0.2,0,0.3c0,0,0,0-0.1,0c0,0,0,0,0,0.1c0,0-0.2-0.2-0.2-0.1v-0.1c-0.1,0,0,0.2-0.1,0.1
							c0,0.1,0.1,0.1,0.1,0.1c0.1,0.2,0,0.5,0,0.6c0,0,0,0-0.1,0v0.1c0,0,0,0,0.1,0c0,0.1,0,0.3,0,0.4c0,0,0,0-0.1,0
							c0,0.3,0.1,0.8,0,1.1c0,0-0.1,0-0.1,0.1h0.1c0,0.2,0,0.3-0.1,0.6c0,0,0,0,0.1,0c0,0.1,0,0.3,0,0.4c0,0,0,0-0.1,0
							c0,0,0,0,0,0.1c0.1,0,0.1,0,0.1,0.1c-0.1,0-0.1-0.1-0.1,0.1c0,0,0,0,0.1,0c0,0.1,0,0.3,0,0.4c0,0,0.1,0,0.1,0c0,0,0,0,0,0.1
							c0.2,0-0.1,0,0.1-0.1c0.3-0.1-0.1,0,0.1,0.1c0.1,0,0.1,0,0.2,0V52c0,0,0,0-0.1,0v0.1c0,0,0,0-0.1,0c0,0,0,0,0,0.1
							c0,0,0,0-0.1,0c0,0,0-0.2,0-0.2h-0.1c0,0.1,0.1,0.2-0.1,0.1c0,0.2,0,0.3,0,0.5c0,0,0,0,0.1,0c0,0.2,0.2-0.1,0.1-0.1
							c0,0,0.3,0,0.2,0.1c0,0,0.1,0.1,0.1,0.1c0,0,0,0,0,0.1c0,0,0,0,0.1,0c0,0-0.1,0.2-0.2,0.1c0,0,0,0.2,0,0.2c0,0,0,0,0.1,0
							c0,0.1,0,0.2,0,0.3l0.1,0.1c0,0.1,0,0.2,0,0.4c0,0,0,0-0.1,0v0.1c0,0,0,0,0.1,0c0,0.1,0,0.2,0,0.4c0,0,0,0-0.1,0
							c0,0,0,0,0,0.1c0.1,0.1,0.1,0.3,0.1,0.5c0,0,0,0,0.1,0c0.1,0-0.1,0-0.1,0.2c0.1,0,0.2,0,0.3,0c0,0-0.1-0.2,0.1-0.3
							c0,0,0,0,0-0.1c0,0,0,0-0.1,0c0-0.3,0-0.6,0-0.9c0,0,0,0,0.1,0c0,0,0,0,0-0.1c-0.1,0.1-0.2-0.4,0-0.4c0-0.1-0.2-0.3,0-0.4
							c0,0,0-0.2,0-0.2c0,0,0,0-0.1,0c0,0,0,0-0.1,0c0,0,0,0,0-0.1c0.1,0,0,0,0.1-0.1c0-0.3,0-0.6,0-0.9c0,0,0,0,0.1,0
							c0,0,0,0,0-0.1c-0.1,0.1-0.2-0.4,0-0.4c0-0.1-0.2-0.3,0-0.4c0,0-0.1-0.4-0.1-0.4c0,0,0,0,0.1,0v-0.1c0,0,0,0,0.1,0
							C19.3,50.1,19.2,50.1,19.3,50z"/>
						<path class="st3" d="M18.6,47c-0.1,0-0.1,0.2,0,0.2C18.6,47.3,18.8,47,18.6,47z"/>
						<path class="st3" d="M18.3,47.2C18.4,47.2,18.4,47.2,18.3,47.2c0.1-0.1,0-0.1,0.1-0.2L18.3,47c0,0.1,0,0.2,0,0.3
							c0,0,0,0,0.1,0V47.2z"/>
						<path class="st3" d="M20.4,43c-0.1-0.1-0.1,0.1-0.1,0.1C20.4,43.1,20.5,43,20.4,43z"/>
						<path class="st3" d="M19.2,43.2C19.2,43.2,19.3,43.2,19.2,43.2C19.3,43.1,19.3,43.1,19.2,43.2c0.2-0.1,0.2-0.1,0.4-0.1
							c0,0,0-0.3-0.1-0.2c0,0,0,0,0-0.1c0,0-0.1,0.1-0.1,0.1V43h-0.1C19.2,43,19.2,43.1,19.2,43.2z"/>
						<path class="st3" d="M20,42.7C20,42.7,20.1,42.7,20,42.7c0.1,0,0.1,0,0.1-0.1c0.1,0,0.1-0.1-0.1-0.1C20,42.5,20,42.5,20,42.7
							C20,42.6,20,42.6,20,42.7C19.9,42.5,19.9,42.7,20,42.7C19.9,42.7,20,42.7,20,42.7z"/>
						<path class="st3" d="M19.6,42.4c-0.1-0.1-0.1,0.3-0.1,0.4c0,0,0.1-0.1,0.1-0.1C19.6,42.7,19.5,42.4,19.6,42.4z"/>
						<path class="st3" d="M19.9,42.2v0.1c0,0,0,0,0.1,0c0-0.1,0.1-0.2,0.1-0.2C20,42.1,20,42.1,19.9,42.2c0.1-0.1,0.1-0.3,0.1-0.3
							c0,0-0.2,0-0.2,0c0,0-0.1,0-0.2,0.1c0,0.1,0,0.2,0,0.3c0.1,0,0.2,0.2,0.1-0.1C19.7,42.2,19.9,42.2,19.9,42.2z"/>
						<path class="st3" d="M19.3,41.9c0.1,0,0.1,0,0.2,0c-0.1-0.1,0.2-0.2-0.1-0.1C19.3,41.7,19.4,41.8,19.3,41.9z"/>
						<path class="st3" d="M20,41.7h0.1c0-0.2,0.1-0.2-0.1-0.3c0,0,0,0,0-0.1c-0.1-0.1,0,0.1-0.1,0.1C19.8,41.3,20,41.7,20,41.7z"/>
						<path class="st3" d="M21.2,40.4C21.2,40.3,21.2,40.3,21.2,40.4c-0.2-0.1-0.1-0.1-0.3-0.1c-0.1,0-0.1,0.1,0,0.1c0,0,0,0,0,0.1
							C21,40.4,21.1,40.4,21.2,40.4z"/>
						<path class="st3" d="M18.7,41.7C18.7,41.8,18.7,41.8,18.7,41.7C18.7,41.8,18.8,41.8,18.7,41.7c0.1,0.2,0.1,0.2,0.1,0.3
							c0.1,0,0.1-0.1,0.1,0.1c0,0-0.1,0.1-0.1,0.1c0,0.2,0,0.4,0,0.6c0,0-0.1,0-0.1,0c0,0,0,0,0,0.1c0.1,0,0.3,0,0.4,0
							c0-0.2,0-0.4,0-0.6c0,0,0,0,0.1,0c0-0.1,0-0.3,0-0.4c0,0,0,0-0.1,0c0,0,0-0.2,0-0.2c0,0,0,0,0.1,0c0-0.1,0-0.2,0-0.3
							c0,0,0,0,0.1,0c0-0.2-0.1-0.6,0.1-0.6c0,0,0,0,0-0.1c-0.1,0-0.1,0-0.1-0.1c0,0,0,0,0.1,0v-0.1c0,0,0,0-0.1,0c0,0,0,0,0-0.1
							c0,0,0,0,0.1,0c0-0.2,0-0.2,0.1-0.4c0,0,0,0-0.1,0c0,0,0,0,0,0.1c-0.1,0-0.2,0-0.3,0c0,0.1,0,0,0.1,0.1c0,0.1,0,0.2,0,0.3
							c0,0,0,0-0.1,0c0,0.1,0,0.1,0,0.2c0,0,0,0-0.1,0c0,0.1,0,0.1,0,0.2c0,0,0,0,0.1,0c0,0.1,0,0.3,0,0.4c0,0,0,0-0.1,0
							c0,0,0,0.2,0,0.2c0,0,0,0-0.1,0C18.7,41.6,18.9,41.7,18.7,41.7z"/>
						<path class="st3" d="M20.2,41C20.2,41.1,20.2,41.1,20.2,41C20.2,41.1,20.2,41.1,20.2,41z"/>
						<path class="st3" d="M20.4,39.9c-0.1,0-0.1,0-0.1-0.1c0,0,0,0,0.1,0c0-0.3,0.2-0.4-0.1-0.6c0,0,0,0-0.1,0c0,0.1,0,0.2-0.1,0.4
							H20c0,0,0-0.2-0.1-0.1c0,0.1,0,0.1,0,0.2c0,0,0.1,0.1,0.1,0.1v0.1c-0.2,0-0.2,0-0.4,0.1c0,0,0,0,0,0.1c0,0,0,0,0.1,0
							c0,0.1,0,0.2,0,0.2c0,0,0,0,0.1,0c0,0.2-0.1,0.1-0.1,0.2h-0.1v0.1c0,0,0,0-0.1,0c0-0.2-0.1,0-0.1,0c0,0.1,0,0,0.1,0.1
							c0,0,0,0,0,0.1c0,0,0,0-0.1,0c0,0.1,0,0.2,0,0.4c0.2,0,0.1-0.1,0.2-0.1c0,0,0,0,0,0.1h0.1c0,0,0,0,0-0.1c0.1,0,0.3,0,0.4,0
							c0,0,0,0,0.1,0c0-0.1,0-0.2,0-0.2c0,0,0,0,0.1,0c0,0,0,0,0-0.1c-0.1,0-0.1,0-0.3-0.1c0,0,0-0.3,0.1-0.2c0,0,0-0.2,0-0.2h0.1
							c0,0-0.1-0.2-0.1-0.2C20.2,40,20.5,39.9,20.4,39.9z"/>
						<path class="st3" d="M20.2,41.1C20.2,41.1,20.2,41.1,20.2,41.1C20.2,41.1,20.2,41.1,20.2,41.1C20.2,41.1,20.2,41.1,20.2,41.1z
							"/>
						<path class="st3" d="M19.7,40C19.7,40,19.7,40,19.7,40L19.7,40z"/>
						<path class="st3" d="M20.2,41.1C20,41.1,20.1,41.1,20.2,41.1L20.2,41.1z"/>
						<path class="st3" d="M20.9,39.2C20.9,39.2,20.9,39.2,20.9,39.2c0.1,0,0.1-0.2-0.1-0.1c0,0,0,0,0,0c0,0,0,0-0.1,0.1
							C20.6,39.3,20.8,39.2,20.9,39.2z"/>
						<path class="st3" d="M20.8,39.1C20.8,39.1,20.6,39.1,20.8,39.1L20.8,39.1z"/>
						<path class="st3" d="M20.4,38.9c-0.1-0.1-0.1,0.1-0.1,0.1C20.3,39.1,20.5,39,20.4,38.9z"/>
						<path class="st3" d="M20.4,38.7c-0.1,0-0.1,0.2,0,0.1C20.4,38.8,20.4,38.8,20.4,38.7C20.4,38.8,20.5,38.8,20.4,38.7
							C20.4,38.8,20.6,38.7,20.4,38.7z"/>
						<path class="st3" d="M21.4,38.5c-0.1,0-0.1,0.2,0,0.1C21.4,38.6,21.4,38.6,21.4,38.5C21.5,38.6,21.5,38.6,21.4,38.5
							C21.4,38.5,21.6,38.5,21.4,38.5z"/>
						<path class="st3" d="M21.5,38.1c-0.1,0-0.1,0.4,0,0.4C21.5,38.3,21.5,38.2,21.5,38.1C21.5,38.1,21.5,38.1,21.5,38.1z"/>
						<path class="st3" d="M21.6,37.4c-0.1,0-0.1,0.2,0,0.2C21.6,37.6,21.8,37.4,21.6,37.4z"/>
						<path class="st3" d="M20,37.8C20,37.8,19.9,37.8,20,37.8C19.9,37.8,19.9,37.8,20,37.8c0,0.1,0.1,0.1,0.1,0.1c0,0,0,0,0,0.1
							c0,0,0,0,0,0.1H20c0,0.2,0,0.4,0,0.6c0,0-0.1,0-0.1,0.1l0.1-0.1c0-0.1,0-0.1,0-0.2c0,0,0,0,0.1,0c0,0,0,0,0-0.1
							c0.2,0.1,0-0.1,0.1-0.1c0,0,0.1,0.2,0.2,0.1c0,0,0-0.2-0.1-0.3c-0.2,0-0.4,0,0.1-0.1c0.1,0,0.2,0,0.2,0c0,0,0,0,0-0.1
							c0.1,0,0.1,0.1,0.3,0.1c0-0.1,0-0.1,0-0.2c0,0,0,0,0.1,0v-0.1c0,0,0,0,0.1,0c0.1-0.2,0-0.2,0.1-0.3c0,0-0.1-0.1-0.1-0.2
							c0,0,0,0,0.1,0c0,0,0.1-0.2,0.1-0.2c-0.1,0.1-0.3,0-0.4,0.1v0.1h-0.1c-0.1,0,0,0.1-0.1,0.2c0,0,0,0-0.1,0c0,0-0.1,0.2-0.1,0.2
							c-0.1,0-0.2,0-0.3,0c0,0,0-0.2,0-0.2c0.1-0.1,0.1-0.1,0.2-0.1c0,0,0,0,0-0.1c0.1,0,0.2,0,0.2,0c-0.1-0.1-0.1-0.1-0.1-0.1
							c0,0,0,0,0-0.1c-0.1,0.1-0.1,0-0.2,0.1c0,0,0,0,0,0.1h-0.1c0,0.1,0,0.3-0.1,0.4H20C20,37.4,20,37.7,20,37.8z"/>
						<path class="st3" d="M20.4,38.1C20.4,38.1,20.4,38.1,20.4,38.1C20.7,38.1,21,38,20.4,38.1z"/>
						<path class="st3" d="M21.3,36.8C21.3,36.8,21.3,36.7,21.3,36.8c0.1-0.1,0.1-0.1,0.2-0.1c0,0,0-0.2,0-0.2c0,0,0,0-0.1,0
							c0,0,0,0,0,0.1c-0.1,0-0.1-0.1-0.1-0.1C21.2,36.5,21.1,36.8,21.3,36.8z"/>
						<path class="st3" d="M21.6,36.1c-0.1-0.1-0.1,0.1-0.1,0.1C21.5,36.3,21.7,36.2,21.6,36.1z"/>
						<path class="st3" d="M19,39.6c0.2-0.1,0,0.1,0,0.1c0,0,0,0,0.1,0c0,0,0.1,0.1,0.1,0.1h0.1c0-0.2,0-0.6,0.1-0.7
							c0.1,0-0.1-0.1-0.1-0.1c0,0,0,0,0.1,0c0-0.1,0,0-0.1-0.1v-0.1c0,0,0,0,0.1,0c0,0,0,0,0-0.1h0.1c0-0.1,0-0.2,0-0.4
							c0,0-0.1,0-0.1,0c0,0,0,0,0-0.1c0.1,0,0.1,0.1,0.1-0.1c0,0,0,0-0.1,0c0,0,0.1-0.2,0.1-0.1c0-0.1,0-0.1,0-0.2l0.1-0.1
							c0,0,0,0,0-0.1c0,0,0,0-0.1,0c0-0.3,0-0.3,0.1-0.6c0,0-0.2,0-0.1-0.1c0,0,0.2,0,0.2-0.1c-0.1-0.4-0.1-0.6,0-1
							c0,0-0.3,0.1-0.3,0.1c-0.1,0.2,0.1,0.2,0.1,0.4c0,0,0,0-0.1,0c0,0-0.1,0.1-0.1,0.1c0,0,0,0-0.1,0v0.1c0,0,0,0,0.1,0
							c-0.1,0.3,0,0.3-0.1,0.6c0,0,0,0-0.1,0c-0.1,0,0.1,0.1,0.1,0.1c0,0,0,0-0.1,0v0.1c-0.2,0.1-0.2,0-0.2,0.1c0,0.1,0,0.2,0,0.3
							h0.1c0.1,0-0.1,0.1-0.1,0.1h0.1c0,0,0,0,0,0.1c0,0-0.1,0-0.2,0c-0.1,0,0,0,0,0.1c0,0,0.1,0,0.2,0c0,0-0.1,0-0.1,0
							c-0.1,0.1-0.1,0.3-0.1,0.6c0.1,0,0.1-0.1,0.1,0.1c0,0,0,0-0.1,0c0,0.1,0,0.2-0.1,0.4h-0.1C18.9,39.5,19,39.5,19,39.6z"/>
						<path class="st3" d="M21.4,36.1C21.4,36.1,21.4,36.1,21.4,36.1C21.4,36.1,21.4,36.1,21.4,36.1c0.2,0.1,0.1,0,0.1-0.1
							c-0.1-0.1,0,0-0.1-0.1C21.2,35.8,21.4,36.1,21.4,36.1z"/>
						<path class="st3" d="M20.1,36.3c0,0,0,0.2,0,0.2c0,0,0,0,0.1,0L20.1,36.3l0.2,0.1c0,0.1,0,0.3,0,0.4c0.1-0.1,0,0,0.1-0.1v-0.1
							c0,0,0.2,0,0.2,0c0,0.2,0,0.4,0.1-0.1c0.1-0.2,0-0.2,0.1-0.4c-0.1-0.1-0.1,0.1-0.1-0.1c-0.1,0-0.1,0-0.2-0.1l-0.2,0.1
							c0,0.1,0,0.2,0,0.2C20.2,36.3,20.1,36.3,20.1,36.3z"/>
						<path class="st3" d="M19.9,35.9C19.9,35.9,19.9,35.9,19.9,35.9c0.1,0,0.1-0.1,0-0.1c0,0,0.1-0.2,0.1-0.2c0,0,0,0-0.1,0
							c0-0.1,0-0.2,0-0.3c0,0,0,0-0.1,0c0,0,0,0,0-0.1c0,0,0,0,0.1,0c0,0,0-0.2,0.1-0.1c0,0,0-0.3-0.1-0.1h-0.1c0,0,0,0,0-0.1
							c0,0,0,0-0.1,0c0,0.2,0.1,0.3-0.1,0.4c-0.1,0,0.1,0,0.1,0.2h-0.1c-0.1,0,0.1,0.2,0.1,0.1c0,0,0,0,0,0.1
							C19.7,35.9,19.8,35.8,19.9,35.9C20,35.9,19.9,35.9,19.9,35.9C19.9,35.9,19.9,35.9,19.9,35.9c-0.1-0.1-0.1,0.1-0.1,0.1
							C19.8,36.1,19.9,36,19.9,35.9z"/>
						<path class="st3" d="M21.7,35.7c-0.1-0.1-0.1,0.1-0.1,0.1C21.6,35.9,21.8,35.8,21.7,35.7z"/>
						<path class="st3" d="M20.8,32.8c0.1,0.1-0.1,0.3,0.1,0.2l0.1-0.3C20.9,32.8,20.9,32.8,20.8,32.8z"/>
						<path class="st3" d="M21,32.4C20.9,32.4,20.9,32.5,21,32.4c0,0.1,0,0.1,0,0.1C21.1,32.6,21.1,32.4,21,32.4z"/>
						<path class="st3" d="M25.6,13.5C25.6,13.5,25.6,13.5,25.6,13.5L25.6,13.5z"/>
						<path class="st3" d="M21.6,38.8c-0.1,0-0.2,0-0.3,0c0,0,0,0,0.1,0c0,0,0,0,0,0C21.4,38.9,21.5,38.9,21.6,38.8
							C21.6,38.8,21.6,38.8,21.6,38.8z"/>
						<path class="st3" d="M20.6,47.2C20.5,47.2,20.4,47.2,20.6,47.2L20.6,47.2z"/>
						<path class="st3" d="M28.2,18.1c0-0.1,0.1-0.1,0.1-0.1c0-0.1,0-0.2-0.1-0.3c0,0,0.1-0.1,0.1-0.1c0,0,0,0-0.1,0
							c0-0.1,0.1-0.2,0.1-0.4c0,0,0,0-0.1,0c0,0,0-0.2,0-0.2c0,0,0,0-0.1,0c0-0.1,0-0.2,0-0.3c0,0-0.2,0-0.2-0.1
							c-0.1-0.2,0-0.4-0.1-0.5l-0.1-0.1c0-0.1,0-0.1,0.1-0.1c0,0,0,0,0-0.1c-0.1-0.1-0.1-0.1-0.1-0.3c0,0,0,0-0.1,0
							c0-0.1,0-0.2,0-0.3c0.1,0,0.1,0.1,0.1-0.1c-0.1-0.1,0-0.1-0.1-0.2h-0.1c0,0,0,0,0,0.1c0,0-0.1,0-0.1,0c0.1,0,0.1,0,0-0.1h-0.1
							c0,0,0,0,0-0.1c0,0,0.2,0,0.2,0v-0.1l-0.2-0.1c0,0-0.1-0.3-0.1-0.3h-0.1L27,14.2c0,0-0.2,0-0.2-0.1c0,0,0.1-0.1,0.1-0.1h-0.1
							c0,0,0,0,0-0.1h-0.1c0-0.1-0.1-0.1-0.1-0.1c0.1-0.1,0.1-0.2,0.1-0.3c-0.1-0.1-0.2,0.1-0.3,0.1c0,0-0.1-0.2-0.1-0.3
							c-0.1,0-0.1,0-0.2,0c0,0,0,0-0.1,0c0,0,0,0,0,0.1c-0.1,0-0.3,0-0.4,0v0.1c0,0,0,0-0.1,0c0,0,0,0,0,0.1c0,0,0,0-0.1,0v0.1
							c0.1,0,0.2,0,0.3,0c0,0.1,0,0.3,0,0.4c0,0,0.1,0.1,0.1,0.1c0,0.1-0.1,0.1-0.1,0.1c0,0,0.1,0.1,0.1,0.1c0.1,0,0.1,0,0.2,0
							c0,0,0,0,0,0.1c0.1,0.1,0,0,0.1,0.1c0,0,0,0.2,0,0.2c-0.1,0-0.1,0-0.1,0.1c0,0,0,0,0,0.1c-0.1,0-0.2-0.1-0.3,0v0.1
							c0,0,0,0-0.1,0c0,0-0.1,0.1-0.1,0.1h-0.1v0.1h-0.1v0.1c0,0,0,0-0.1,0v0.1c0,0,0,0-0.1,0l-0.1,0.2c-0.1,0.1-0.2,0-0.4,0.1
							c0,0,0,0,0,0.1c-0.1,0-0.2,0-0.3,0c0,0,0,0.1-0.1,0.1h-0.1v0.1c-0.1,0.1-0.3,0-0.4,0.1l-0.1,0.2c-0.1,0-0.2,0-0.2,0
							c0,0,0,0,0,0.1c-0.2,0.1,0,0.3-0.1,0.4c0,0,0,0-0.1,0c0,0,0,0,0,0.1h-0.1c0,0.1,0,0.2,0,0.3c0,0,0,0-0.1,0
							c0,0.2,0,0.2-0.1,0.4c0,0,0,0-0.1,0c0,0.1,0,0.2,0,0.3c0,0,0,0-0.1,0c0,0.1,0,0.1,0,0.2c0,0,0,0-0.1,0c0,0.1,0,0.3,0,0.4
							c0,0,0,0-0.1,0c0,0.1,0,0.2,0,0.4c0,0,0,0-0.1,0c0,0.2,0,0.3-0.1,0.6c0,0,0,0-0.1,0c0,0.2,0,0.3,0,0.5c0,0,0,0-0.1,0v0.1
							c0,0,0,0-0.1,0c-0.1,0.3,0,0.4-0.1,0.7c0,0,0,0-0.1,0c0,0.1,0,0.1,0,0.2c0,0,0,0-0.1,0c0,0.1,0,0.2,0,0.4c0,0,0,0-0.1,0
							c0,0.2,0,0.3-0.1,0.5c0,0,0,0-0.1,0c-0.1,0.3,0,0.3-0.1,0.6h-0.1c0,0.1,0.1,0.1,0.1,0.2c0,0,0,0-0.1,0c0,0.4,0,0.5-0.1,0.9
							c0,0,0,0-0.1,0c0,0.1,0,0.3,0,0.4l-0.1,0.1c0,0.1,0,0.2,0.1,0.2c0,0,0,0,0,0.1c-0.1,0.1,0,0.3-0.1,0.5c0,0,0,0-0.1,0
							c0,0,0,0.2,0,0.2c0,0,0,0-0.1,0c0,0.2,0,0.3,0,0.5c0,0,0,0-0.1,0c0,0.3,0,0.5-0.1,0.8c0,0,0,0-0.1,0c0,0.1,0,0.3,0,0.4
							c0,0,0,0-0.1,0c0,0,0,0.2,0,0.2c0,0,0,0-0.1,0c0,0.1,0,0.2,0,0.4c0,0,0,0,0.1,0c0,0.2,0,0.1-0.1,0.2c0,0,0.2,0,0.1,0.1
							c0,0,0,0-0.1,0c0,0,0,0,0,0.1c0.1,0,0.1-0.1,0.1,0.1L20.9,28c-0.1,0.2,0,0.3-0.1,0.5c0,0,0,0-0.1,0c0,0.1,0,0.2,0,0.3
							c0,0,0,0-0.1,0c-0.1,0.3,0,0.6-0.1,0.9c0,0,0,0-0.1,0v0.1c0,0,0,0-0.1,0c0,0,0,0.2,0,0.2h0.1c0,0.1,0,0.4,0,0.5c0,0,0,0-0.1,0
							c0,0.2,0,0.2-0.1,0.4c0,0,0,0-0.1,0c0,0.1,0,0,0.1,0.1c0,0.3,0,0.4-0.1,0.8c0,0,0,0-0.1,0c0,0.1,0.1,0.1,0.1,0.2
							c0,0,0,0-0.1,0c0,0,0,0,0,0.1c0,0,0,0-0.1,0c-0.1,0.1,0.1,0.1,0.1,0.1c0,0,0,0,0,0.1c0,0,0,0-0.1,0c0,0.1,0,0.1,0,0.2
							c0,0,0,0-0.1,0v0.1c0,0,0,0-0.1,0c0,0.1,0,0,0.1,0.1c0,0.1,0,0.2-0.1,0.2c0,0,0,0,0,0.1c0,0,0.2,0.1,0.1,0.1c0,0,0,0-0.1,0
							c0,0,0,0,0,0.1c0.1,0,0.1,0,0.1,0.1H20c0,0.2,0,0.3-0.1,0.4c0,0,0,0,0,0c0,0,0,0,0,0.1c0.1,0.1,0,0,0.1,0.1c0,0,0,0,0,0.1
							c-0.1,0-0.2,0-0.2,0c0,0.1,0,0,0.1,0.1v0.1c0,0-0.1,0.1-0.1,0.1v0.1c0,0,0,0-0.1,0c0,0,0,0,0,0.1h-0.1
							c-0.1,0.2,0.1,0.1,0.1,0.3c0.1,0,0.1-0.1,0.3-0.1v0.1l0.1-0.1c0.1-0.2,0-0.7,0.1-0.7c0,0-0.1-0.1-0.1-0.2c0,0,0,0,0.1,0
							c0-0.1,0-0.2,0-0.3c0,0,0,0,0.1,0c0-0.1,0-0.1-0.1-0.1c0,0,0,0,0-0.1c0,0,0,0,0.1,0c0-0.2,0-0.3,0-0.5c0,0,0,0,0.1,0
							c0.1-0.2,0-0.2,0.1-0.4c0,0,0,0,0.1,0c0,0,0-0.2-0.1-0.1v-0.1c0,0,0.1,0,0.1-0.1c0-0.1,0-0.1,0-0.2c0,0,0,0-0.1,0
							c0,0,0,0,0-0.1c0,0,0,0-0.1,0c0.1,0.1-0.1,0.1-0.1,0.1v-0.1c0,0,0.2-0.1,0.3-0.1c0,0,0-0.2,0-0.2c0.2-0.1,0.2,0.1,0.4,0.1
							c0,0.1,0,0.3,0,0.4c0,0,0,0-0.1,0V32h-0.1c0,0.1,0,0.2,0,0.2c0,0,0.4,0.1,0.4,0.1c0,0,0.1,0.1,0.1,0.1v0.1c0,0,0,0-0.1,0v0.1
							c0,0,0,0-0.1,0c-0.1,0.2,0,0.2-0.1,0.4h-0.1c0,0.1,0.1,0.1,0.1,0.2c0,0-0.1,0.1-0.1,0.1c0,0.1,0,0.3,0,0.4c0,0-0.2,0-0.2,0
							c0,0.1,0,0.1-0.1,0.2c0,0,0,0-0.1,0v0.1c0,0,0.2,0,0.2,0v0.1c0.1,0,0.1,0,0.1,0.1c0,0,0-0.2,0.1-0.1c0,0,0,0.2,0,0.2
							c0,0.1-0.2,0-0.3,0.1c0.2,0-0.1,0.1-0.1,0.1v0.1c0,0,0,0,0,0v0.1h0.1c0,0,0,0,0.1,0c0,0.1,0,0.2,0,0.2c0,0,0,0-0.1,0
							c0,0.1,0,0.1-0.1,0.2c-0.1,0-0.2,0.4,0.1,0.2c0,0,0,0,0,0.1c-0.1,0-0.2,0-0.3,0c0,0.1-0.1,0.2,0.1,0.1c0,0.1,0,0.2,0.1,0.4
							c0,0,0,0,0.1,0c0-0.1,0-0.2,0-0.3c0,0,0,0,0.1,0c0-0.2,0-0.1,0.1-0.3c0,0,0.2,0,0.2,0c0.1-0.2,0-0.7,0.1-0.9h0.1
							c0,0,0-0.2,0-0.2c0,0,0,0,0.1,0c0-0.1,0,0-0.1-0.1c0,0,0-0.2,0-0.2c0.1,0,0.3,0,0.4,0c0,0.2,0,0.4,0,0.6c0,0,0,0-0.1,0
							c0,0.2,0,0.1-0.1,0.3c0,0,0,0-0.1,0c-0.1,0.1,0.2,0.1,0.1,0.1c-0.1,0-0.1,0-0.1,0.1c0,0,0,0,0.1,0v0.1c0,0,0.1,0.1,0.1,0.1
							h0.1c0,0,0,0,0-0.1c-0.2,0.1,0-0.4,0-0.4c0,0-0.1,0-0.1-0.1c0,0,0,0,0.1,0v-0.1c0,0,0,0,0.1,0c0.1-0.2,0-0.3,0.1-0.5
							c0.2,0,0.3,0,0.5,0c0,0.3,0,0.5-0.1,0.8c0,0,0,0-0.1,0v0.1h-0.1v0.1h0.1c0,0.2,0,0.1-0.1,0.3c0,0,0,0-0.1,0
							c0,0,0.1,0.1,0.1,0.2h-0.1c0,0,0,0,0,0.1c0.2,0.1,0,0.4,0.1,0.4c0,0,0,0-0.1,0c0,0.1,0,0.2,0,0.2c0,0,0,0-0.1,0
							c0,0.1,0.1,0.1,0.1,0.2c0,0,0,0-0.1,0c0,0.1,0,0.2,0,0.4c0,0,0,0-0.1,0c0,0.2,0,0.4,0,0.6c0,0,0,0-0.1,0c0,0.1,0,0.4,0,0.5
							h-0.1c0,0.1,0,0.2,0,0.3c0,0,0,0-0.1,0v0.1c0,0,0,0-0.1,0c0,0,0.1,0.1,0.1,0.2c0,0,0,0-0.1,0c0,0.1,0,0.2,0,0.2
							c0.2,0,0.3,0-0.1,0.1c-0.1,0-0.1,0-0.1-0.1c0,0-0.1,0-0.1,0c0,0,0,0-0.1,0.1v0.1c0.1,0,0.1,0.1,0.3,0.1c0,0,0.1,0,0.1,0
							c0,0.1,0,0.3,0,0.4c0,0,0,0-0.1,0c0,0.3,0,0.5,0,0.7c0,0,0,0-0.1,0c0,0,0,0,0,0.1h-0.1c0,0.1,0.1,0.1,0.1,0.1
							c0,0.1,0,0.2,0,0.2c0,0,0,0-0.1,0v0.1c0,0,0,0-0.1,0c-0.1,0.2,0,0.4,0,0.6c0,0,0,0-0.1,0c0,0,0.1,0.2,0.1,0.1
							c0,0.1,0.1,0.1-0.1,0.1c0,0,0,0,0,0.1c0,0.2,0.1,0.3,0.1,0.5c0,0,0,0-0.1,0c0,0.1,0,0.2,0,0.3h-0.1c0,0.1,0.1,0.3,0.1,0.4
							c0,0,0,0-0.1,0c0,0.2,0,0.3-0.1,0.5c0,0,0,0-0.1,0c0,0.1,0,0.2,0,0.4c0.1,0,0.1-0.1,0.1,0.1c0,0,0,0-0.1,0c0,0.1,0,0.2,0,0.2
							c0,0,0,0-0.1,0c0,0.1,0,0.2,0,0.4c0,0,0,0-0.1,0c0,0.2,0,0.5,0,0.7c0.1,0,0.1-0.1,0.1,0.1c0,0-0.1-0.1-0.1-0.1
							c0,0.1,0,0.2,0,0.3c0,0,0,0-0.1,0c0,0.2,0.1,0.1,0.1,0.3c0,0,0,0-0.1,0c0,0.1,0,0.3,0,0.4c0,0,0,0-0.1,0c0,0.1,0,0.3,0,0.4
							c0,0,0,0-0.1,0c0,0.2,0.1,0.1,0.1,0.3c0,0-0.1,0.1-0.1,0.1s0,0.2,0.1,0.1c0,0.1,0,0.2,0.1,0.2c0,0,0,0,0,0c0,0,0.1,0,0,0.1
							c0-0.1-0.1,0.1-0.1,0.1c0,0,0,0,0.1,0c0,0.2,0,0.3,0,0.5h-0.1c0,0.1,0,0.2,0,0.4h0.1v0.1c0-0.1-0.1,0.1-0.1,0.1c0,0,0,0,0.1,0
							v0.1c0,0,0,0,0.1,0v0.1c0,0,0,0-0.1,0c0,0.1,0,0.2,0,0.3c0,0,0,0,0.1,0c0,0.1,0,0.2-0.1,0.2c0,0,0,0,0,0.1
							c0,0,0.1,0.1,0.1,0.1c0,0,0,0,0,0.1c-0.2,0,0,0.1,0,0.1c0,0.1-0.1,0.1,0.1,0.1c0,0,0,0,0,0.1c0,0,0,0,0.1,0c0,0,0,0,0,0H21
							v-0.1c0,0,0,0,0.1,0c0-0.1,0-0.3,0-0.4c0,0,0,0,0.1,0V49c0,0,0.2,0,0.2,0c0,0,0,0,0,0.1c0,0,0,0,0.1,0V49c0,0-0.2,0-0.2,0
							c0-0.1,0.1-0.2,0.1-0.2c0,0,0.2,0,0.3-0.1c0,0,0-0.2,0-0.2c0,0,0,0,0.1,0v-0.1c0,0,0,0-0.1,0c0-0.1,0-0.1,0-0.2c0,0,0,0,0.1,0
							V48c0,0,0,0,0.1,0c0-0.1,0-0.2,0-0.2c0,0,0,0,0.1,0c0-0.1,0,0-0.1-0.1c0-0.1,0-0.2,0-0.4h0.1c0-0.2,0-0.3,0-0.5c0,0,0,0,0.1,0
							c0-0.1,0-0.2,0-0.2c0,0,0,0,0.1,0c0-0.2-0.1-0.2-0.1-0.4h0.1c0.1-0.2,0-0.3,0.1-0.4c0.1,0-0.1-0.3-0.1-0.3s0.1-0.1,0.1-0.1
							c0,0,0-0.2,0-0.2h0.1c0-0.2,0-0.3-0.1-0.4c0,0,0,0,0-0.1c0,0,0,0,0.1,0c0-0.1,0-0.2,0-0.3c0,0,0,0,0.1,0c0,0,0,0,0-0.1
							c0,0,0,0,0,0v-0.1c0,0,0,0,0.1,0c0-0.1,0-0.1-0.1-0.1c0,0,0,0,0-0.1c0.2-0.1,0-0.1,0.1-0.3h0.1c0,0,0-0.2,0-0.2c0,0,0,0,0.1,0
							c0-0.1-0.1-0.1-0.1-0.2c0,0,0,0,0.1,0c0-0.1,0.1-0.2,0.1-0.2c-0.1,0-0.1,0-0.1-0.1c0,0,0,0,0.1,0c0,0,0-0.2,0-0.2
							c0,0,0,0,0.1,0c0-0.1,0-0.2,0-0.3c0,0,0,0-0.1,0v-0.1c0,0,0,0,0.1,0c0-0.1-0.1-0.4-0.1-0.5c0,0,0.2,0,0.2,0
							c0-0.1,0.1-0.1,0.1-0.1c0-0.1,0-0.3,0-0.4h0.1c0.1,0-0.1,0.1,0.1,0.1c0,0,0.1-0.1,0.1-0.1c0-0.1,0-0.2-0.1-0.2c0,0,0,0,0-0.1
							c0.1,0,0.1-0.1,0.1-0.2c-0.1-0.2-0.1,0.2-0.1-0.1l0.2-0.1c0,0-0.2-0.2,0-0.1c0,0,0,0,0-0.1c0,0-0.1,0-0.1,0c0,0,0,0,0-0.1
							c0,0,0,0,0.1,0v-0.1c-0.1-0.1-0.2,0-0.1-0.1h0.1c0-0.2,0-0.2,0.1-0.4c0,0,0,0,0.1,0c0-0.1,0-0.1,0-0.2c0,0,0,0,0.1,0
							c0-0.1,0-0.2,0-0.4c0,0,0.1,0,0.1,0c0,0,0,0,0-0.1c-0.1,0-0.1,0.1-0.1-0.1c0,0,0,0,0.1,0c0-0.1,0-0.3,0-0.4c0,0,0,0,0.1,0
							c0,0,0,0,0-0.1c0,0,0,0,0.1,0v-0.1c0,0,0,0,0.1,0c0-0.1,0-0.3,0-0.4c0,0,0,0,0.1,0c0.1-0.1,0-0.2,0.1-0.4c0,0,0,0,0.1,0v-0.1
							c0,0,0,0,0.1,0c0.1-0.3,0-0.4,0.1-0.6c0,0,0,0,0.1,0v-0.1c0,0,0,0,0.1,0c0-0.1,0,0-0.1-0.1c0-0.3,0-0.6,0-0.9c0,0,0,0,0.1,0
							c0-0.1,0-0.1,0.1-0.1c0,0-0.1-0.1-0.1-0.2c0,0,0,0,0.1,0c0-0.1,0-0.2,0-0.3c0,0,0,0,0.1,0c0-0.1,0-0.3,0-0.4h0.1
							c0-0.1-0.1-0.1-0.1-0.2l0.1-0.1c0-0.1,0-0.2,0-0.4c0,0,0,0,0.1,0c0-0.2,0-0.4-0.1-0.6c0,0,0,0-0.1,0c0-0.1-0.1-0.1-0.1-0.1
							c0-0.1,0-0.4,0-0.4c0,0,0,0,0.1,0c0,0,0,0,0-0.1c0.2-0.1,0.2-0.3,0.4-0.4c0,0,0,0,0-0.1h0.1c0.1-0.1,0-0.4,0-0.5
							c0,0,0,0,0.1,0c0-0.3,0-0.4,0.1-0.6c0,0,0,0,0.1,0c0-0.1,0-0.3,0-0.4c0,0,0,0,0.1,0c0-0.1,0-0.2,0-0.3c0,0,0,0,0.1,0
							c0-0.1,0-0.2,0-0.4c0,0,0,0,0.1,0c0,0,0-0.2,0-0.2c0,0,0,0,0.1,0c0-0.1-0.1-0.1-0.1-0.2c0,0,0,0,0.1,0v-0.1c0,0,0,0,0.1,0
							c0-0.1,0,0-0.1-0.1c0,0,0-0.1,0-0.1c0,0,0,0,0.1,0c0-0.1,0-0.2,0-0.4l0.2-0.1c0,0,0,0,0,0c0.1,0.1,0.2,0.1-0.1-0.1
							c0,0,0,0-0.1,0v-0.1c0,0,0,0,0.1,0c0-0.3,0-0.5,0.1-0.7c0,0,0,0,0.1,0c0,0,0-0.2,0-0.2c0,0,0,0,0.1,0c0.1-0.4,0-0.6,0.1-0.9
							c0,0,0,0,0.1,0c0-0.2-0.1-0.2,0.1-0.2c0,0-0.1-0.1-0.1-0.2c0,0,0,0,0.1,0v-0.1c0,0,0,0,0.1,0c0-0.1,0-0.2,0-0.2h0.1
							c0-0.1-0.1-0.1-0.1-0.1c0,0,0,0,0-0.1c0,0,0,0,0.1,0c0-0.1,0-0.3,0-0.4c0,0,0,0,0.1,0c0.1-0.1,0-0.1,0.1-0.3c0,0,0,0,0.1,0
							c0-0.1,0-0.3,0-0.4c0,0,0,0,0.1,0c0.1-0.3,0-0.3,0.1-0.6c0,0,0,0,0.1,0c0-0.2,0-0.4,0-0.6c0,0,0,0,0.1,0c0-0.1,0-0.2,0-0.3
							c0,0,0,0,0.1,0c0-0.1,0-0.1,0-0.2c0,0,0,0,0.1,0c0.1-0.2,0-0.3,0.1-0.5c0,0,0,0,0.1,0v-0.1c0,0,0,0,0.1,0
							c0-0.2-0.1-0.1-0.1-0.3c0,0,0,0,0.1,0c0-0.1,0-0.3,0-0.4c0,0,0,0,0.1,0c0.1-0.3,0-0.3,0.1-0.6c0,0,0,0,0.1,0
							c0-0.1,0-0.2,0-0.3l0.1-0.1c0-0.1-0.1-0.1-0.1-0.1c0,0,0,0,0.1,0c0-0.4,0-0.5,0.1-0.9c0,0,0,0,0.1,0c0-0.2-0.1-0.1-0.1-0.3
							c0,0,0,0,0.1,0c0.1-0.2,0-0.2,0.1-0.4c0,0,0,0,0.1,0c0-0.1,0-0.3,0-0.4c0,0,0,0,0.1,0C28.3,18.4,28.2,18.3,28.2,18.1
							C28.3,18.2,28.3,18.2,28.2,18.1C28.3,18.1,28.3,18.2,28.2,18.1z M22.2,33.3c-0.2,0.1-0.1,0.3-0.1,0.3c0,0-0.2,0-0.2,0
							c0-0.2-0.1-0.2,0.1-0.3c0,0,0,0,0-0.1C22,33.3,22.1,33.3,22.2,33.3C22.2,33.3,22.2,33.3,22.2,33.3z M22.1,32.5
							C22,32.4,22.2,32.3,22.1,32.5c0-0.3-0.1-0.1,0-0.3c0,0,0,0,0.1,0c0,0,0,0,0-0.1c-0.3,0,0-0.1,0-0.1c0-0.1-0.1-0.1-0.1-0.1
							c0.1-0.1,0.2-0.1,0.1-0.2c0,0,0,0-0.1,0c0-0.1,0-0.1,0-0.2c0,0,0.1-0.1,0.1-0.1c0.1,0.1,0.1,0,0.3,0.1c0,0,0,0.2,0,0.2h-0.1
							c0,0,0,0.6,0.1,0.3V32h-0.1c0,0.1,0.1,0.2,0.1,0.4c0,0-0.1,0.1-0.1,0.1C22.2,32.5,22.2,32.5,22.1,32.5z M22.6,33.2
							C22.6,33.2,22.6,33.2,22.6,33.2C22.6,33.2,22.7,33.2,22.6,33.2c-0.1,0-0.2,0.2-0.1,0.2c0,0,0,0,0.1,0c0,0,0,0.3,0,0.3
							c0,0,0,0-0.1,0c0,0,0,0,0,0.1c0,0-0.3,0-0.2-0.1c-0.1,0.1,0-0.3,0-0.3c0,0,0,0,0.1,0c0-0.1,0-0.2,0-0.3c0,0,0,0,0.1,0
							c0-0.2,0-0.1,0.1-0.3h0.1c0,0,0,0,0,0.1C22.7,32.7,22.7,33.1,22.6,33.2z M22.9,29.6l-0.1,0.2c-0.3,0.1-0.2-0.2,0-0.3
							c0,0,0,0,0-0.1h0.1c0,0,0,0,0-0.1c0.2-0.1,0.1,0.2,0.1,0.2H22.9z"/>
						<path class="st3" d="M21.3,38.9C21.3,38.9,21.3,38.9,21.3,38.9C21.3,38.9,21.3,38.9,21.3,38.9z"/>
						<path class="st3" d="M24.9,14.6c0,0,0.2-0.5-0.1-0.3C24.7,14.2,24.6,14.6,24.9,14.6z"/>
						<path class="st3" d="M24.9,14.2h0.1c0-0.1,0.1-0.2-0.1-0.2C24.9,14,25,14.1,24.9,14.2z"/>
						<path class="st3" d="M25.3,14c0-0.1,0.1-0.3,0-0.2C25.2,13.8,25.1,14,25.3,14z"/>
					</g>
					<g>
						<path class="st3" d="M30.1,29.6c0,0-0.1-0.1-0.1-0.1c-0.1,0-0.1,0.1-0.1,0.1C29.9,29.6,30,29.6,30.1,29.6z"/>
						<path class="st3" d="M33.7,28.4C33.7,28.4,33.7,28.4,33.7,28.4C33.7,28.4,33.7,28.4,33.7,28.4z"/>
						<path class="st3" d="M34.9,28.5C34.9,28.5,34.9,28.5,34.9,28.5C34.9,28.5,34.9,28.5,34.9,28.5z"/>
						<path class="st3" d="M30.6,29.2C30.6,29.1,30.6,29.2,30.6,29.2L30.6,29.2z"/>
						<path class="st3" d="M38.3,34.7C38.3,34.7,38.3,34.7,38.3,34.7c-0.1-0.1-0.1-0.2-0.1-0.3c0,0,0,0-0.1,0c0-0.1,0-0.4,0-0.5
							c0,0,0,0,0.1,0c0,0,0-0.2,0-0.2c0,0,0,0-0.1,0v-0.1c0,0,0,0-0.1,0c-0.1-0.1,0-0.1-0.1-0.2c0.1,0.1,0.1-0.1,0.1-0.1
							c0,0,0,0-0.1,0v-0.1c0,0,0,0-0.1,0c0,0-0.1-0.2-0.1-0.2c0,0,0,0-0.1,0v-0.1c0,0,0,0-0.1,0c0-0.2,0.1-0.1,0.1-0.2
							c0,0,0,0-0.1,0c0,0,0,0-0.1,0v-0.1c-0.2-0.1,0.1-0.1,0.1-0.1c0.2-0.1-0.2-0.1,0.1-0.1c0-0.1,0-0.2,0-0.3h-0.1c0,0,0,0,0-0.1
							c-0.3-0.1,0.2,0.1-0.1-0.1h-0.1v-0.1c0,0-0.1-0.1-0.1-0.1c-0.1-0.1,0-0.5-0.1-0.4c0,0,0.1-0.2,0.1-0.2c0,0,0,0,0.1,0
							c0,0,0.1-0.1,0.1-0.1c0,0,0,0,0.1,0c-0.1-0.2-0.1-0.1-0.2-0.1c0.1-0.1,0-0.1,0.1-0.3c0.1,0,0.2,0.1,0.1-0.1c0,0,0,0-0.1,0
							v-0.1L37.2,30v-0.1c0,0,0,0-0.1,0c0-0.1,0-0.2,0-0.3c0.1,0.1,0,0,0.1,0.1c0,0,0.1-0.2,0.1-0.2c-0.1-0.1-0.2,0-0.2-0.1
							c0,0,0,0,0-0.1C37,29.2,37,29.1,36.8,29c0,0,0,0,0-0.1c0,0-0.2,0-0.2,0c0,0,0,0,0-0.1h-0.1c0,0,0,0,0-0.1c-0.1,0-0.3,0-0.4,0
							L36,28.7c-0.1,0-0.3,0-0.4,0c0,0,0,0,0-0.1c0,0-0.2,0-0.2,0c0,0,0,0,0-0.1c-0.2,0-0.4,0-0.6,0c0,0,0,0,0,0c0,0,0,0-0.1,0
							c-0.1,0-0.1,0-0.2,0c0,0-0.1,0-0.1,0c0,0,0,0,0,0c-0.1,0-0.1,0-0.2,0c0,0,0,0,0-0.1c-0.2,0-0.4,0-0.6,0c0,0,0,0,0,0
							c0,0,0,0-0.1,0c-0.2,0.1-0.6,0-0.9,0c0,0,0,0,0,0.1c-0.3,0-0.5,0-0.8,0c0,0,0,0,0,0.1c-0.1,0-0.2,0-0.2,0c0,0,0,0.1-0.1,0.2
							c0,0-0.2,0-0.2,0c-0.1,0,0.1,0.2,0,0.2c-0.2,0.1-0.4-0.1-0.5-0.1c0,0,0,0,0-0.1h-0.1c0,0,0,0,0,0.1c0,0-0.1,0.1-0.1,0.1v0.1
							c0,0,0,0-0.1,0c0,0,0,0,0,0.1c0,0,0.1,0,0.1,0.1c0,0.1-0.2,0-0.2,0.1c0,0,0,0.2,0,0.2l-0.1,0.1c0,0.1,0,0.1,0,0.2
							c0,0,0,0-0.1,0c0,0,0,0,0,0c-0.1,0-0.1,0-0.2,0c0,0,0,0,0-0.1h-0.1c0,0,0,0,0-0.1c-0.1,0-0.1,0-0.2,0l-0.1-0.1
							c-0.2,0-0.3,0-0.5,0c0,0,0,0,0-0.1c-0.2,0-0.3,0-0.4-0.1c0,0,0,0,0-0.1c-0.2,0-0.3,0-0.5,0c0,0,0,0,0-0.1c-0.1,0-0.2,0-0.4,0
							c0,0,0,0,0-0.1c-0.1,0-0.2,0-0.2,0c0,0,0,0,0-0.1c-0.1,0-0.1,0-0.2,0c0,0,0,0,0-0.1c-0.1,0-0.3,0-0.4,0c0,0,0,0,0-0.1
							c-0.1,0-0.2,0-0.4,0c0,0-0.1,0.2-0.1,0.2c0,0,0,0-0.1,0v0.1c0,0,0,0,0.1,0c0,0,0,0,0.1,0c0,0.1,0,0.1-0.1,0.2l0.3,0.2
							c0,0-0.1,0.4-0.1,0.5c0,0,0,0-0.1,0c0,0.1,0,0.2,0,0.4c0,0,0.1,0.1,0.1,0.1V31c0,0,0,0-0.1,0c0,0-0.1,0.1-0.1,0.1
							c0,0-0.2,0-0.2,0c-0.1,0.1,0,0.4-0.1,0.5h-0.1c0,0-0.1,0.1-0.1,0.1H26c0,0-0.1,0.4-0.1,0.4c-0.1,0.1-0.2,0-0.4,0.1l-0.1,0.1
							c-0.2,0-0.1-0.1-0.3-0.1c0,0,0,0,0,0.1c-0.1,0.1-0.2,0.2-0.3,0.3l-0.2,0.1c0,0.1,0,0.4,0,0.4l0.2,0.1v0.1c0,0,0,0,0.1,0
							c0,0.1,0,0.3,0,0.4c0,0,0,0-0.1,0c0,0.1,0,0.2,0,0.4c0.2,0,0.2,0,0.4,0.1c0,0,0,0,0,0.1c0,0-0.2,0-0.2,0v0.1
							c0.1,0,0.2,0,0.3,0c0,0,0,0,0-0.1c0.1,0,0.2,0,0.2,0c0,0,0,0,0,0.1c0,0,0.2,0,0.2,0c0,0,0,0,0,0.1c0.1,0,0.2,0,0.2,0v0.1
							c0,0,0.2,0,0.2,0c0,0,0,0,0,0.1c0.1,0,0.2,0,0.2,0c0,0,0,0,0,0.1h0.1c0,0,0,0,0,0.1h0.1c0.1,0.1,0,0.1,0.1,0.2l0.3,0.2v0.1
							h0.1c0,0,0,0.2,0.1,0.2h0.1c0,0,0.1,0.1,0.1,0.1h0.1c0,0,0.1,0.2,0.1,0.2h0.1c0,0,0,0,0,0.1c0,0,0,0,0.1,0
							c0,0,0.1,0.1,0.1,0.1h0.1l0.1,0.2h0.1l0.1,0.2c0.1,0,0.2,0,0.4,0c0,0,0,0,0-0.1c0.3,0,0.3,0.1,0.6,0.1c0,0,0,0,0-0.1
							c0.1,0,0.3,0,0.4,0c0.1,0,0,0,0.1,0.2c0.2,0,0.4,0,0.6,0c0,0,0,0,0,0.1c0.1,0,0.2,0,0.3,0l0.1,0.2c0.2,0,0.3-0.2,0.4-0.2
							c0,0,0,0,0-0.1c0.1,0,0.5,0,0.6,0.1l0.1,0.1c0.2,0.1,0.4,0,0.6,0.1l0.1,0.1c0.1,0,0.3,0,0.4,0c0,0,0,0,0,0.1
							c0.2,0,0.2,0,0.4-0.1c0,0,0,0,0-0.1c0.1,0,0.2,0,0.3,0c0,0,0-0.1,0.1-0.1c0,0,0-0.2,0-0.2c0,0,0,0,0.1,0c0,0,0,0,0,0.1
							c0.1,0,0,0,0.1,0.1c0.1,0,0.3,0,0.4,0c0,0,0,0,0-0.1c0,0,0,0,0.1,0c0-0.1,0-0.3,0-0.4c0.1,0,0.1,0.1,0.1,0.1
							c0,0,0.5-0.1,0.5-0.1l0.1-0.2c0.1,0,0.2,0,0.4,0c0,0,0,0,0,0.1c0.1,0,0.1-0.1,0.2-0.1c0,0,0-0.2,0-0.2c0.1-0.1,0.4,0,0.5,0
							c0,0,0,0,0-0.1c0.2,0,0.5,0,0.7,0c0,0,0,0,0-0.1c0,0,0,0,0,0c0-0.1,0-0.2,0-0.3c0,0,0.2,0,0.2,0c0,0,0,0,0-0.1c0,0,0,0,0.1,0
							v-0.1c0.2-0.1,0.2,0.1,0.4,0.1c0,0,0.1-0.1,0.1-0.1c0.1-0.2,0-0.2,0.1-0.4c0,0,0,0,0.1,0V35c0,0,0.3-0.1,0.3-0.1
							C38.3,34.9,38.3,34.8,38.3,34.7z"/>
					</g>
				</g>
				<g>
					<path class="st3" d="M6,52.2H3.4v-7.4h-3V43h8.4v1.9H6V52.2z"/>
					<path class="st3" d="M37,44.9h-4.3v1.7h4v1.9h-4v1.9h4.4v1.9h-6.8V43H37V44.9z"/>
					<path class="st3" d="M40.5,43v9.2H38V43H40.5z"/>
					<path class="st3" d="M20.5,43v9.2H18V43H20.5z"/>
					<path class="st3" d="M24.3,52.2h-2.5V43H26c1.4,0,2.1,0.2,2.7,0.6c0.6,0.5,1,1.3,1,2.3c0,1.2-0.5,2.2-1.3,2.6
						c-0.6,0.3-1.3,0.4-2.6,0.4h-1.4V52.2z M25,47.2c1.4,0,1.9-0.3,1.9-1.2c0-0.8-0.5-1.2-1.7-1.2h-0.9v2.4H25z"/>
					<path class="st3" d="M9.8,50.4l-0.7,1.8H6.6l4-9.2h3l4.1,9.2H15l-0.8-1.8H9.8z M12,45l-1.5,3.7h2.9L12,45z"/>
				</g>
			</g>
		</g>
		<g>
			<path class="st3" d="M56.7,50h-6.6v-1.3h6.6v-0.7l-7,0.3L49.5,47l3.9-0.1l1.3-1.3h-3.8v-1.3h13.4v1.3h-1.9l2.9,2.1l-0.9,1.1h0.3
				V50h-6.3v0.8h8.4v1.5H48.2v-1.5h8.5V50z M48.3,42.4c0-0.2,0.1-0.3,0.3-0.3h17.2l1.3,0.7c0,1.1-0.2,2.3-0.6,3.7L65,46.1
				c0.3-1.2,0.5-1.9,0.5-2.3c0-0.1-0.1-0.2-0.2-0.2H50.1c-0.1,0-0.1,0-0.1,0.1v2.5h-1.6V42.4z M56.7,35.8H49v-1.4h7.7v-0.9h1.6v0.9
				h7.7v1.4h-7.7v0.7h6.6v1.3H50.1v-1.3h6.6V35.8z M64.5,41.5H50.6c-0.1,0-0.2-0.1-0.2-0.2v-2.8c0-0.1,0.1-0.2,0.2-0.2h13.9
				c0.1,0,0.2,0.1,0.2,0.2v2.8C64.7,41.5,64.6,41.5,64.5,41.5z M52,39.6L52,39.6l0,0.7l0,0.1h11l0.1-0.1v-0.6L63,39.6H52z
				 M60.6,45.6h-4l-1.1,1.2l5.8-0.2l-1-0.6L60.6,45.6z M58.3,48.8h5.9L63,47.8L58.3,48V48.8z"/>
			<path class="st3" d="M74.6,39.5h-5.7v-1.9h5.7v-4.1h1.9v19h-1.9v-5.1c-1.5,1-3.1,2-4.9,3l-1.1-1.5c2.3-1.2,4.3-2.5,6-3.7V39.5z
				 M86.1,35.7l1.2,1.4c-1.6,1.6-3.8,3.4-6.5,5.1v7.4c0,0.4,0,0.7,0.1,0.9c0.2,0.2,0.5,0.3,1,0.3h2.3c0.6,0,1-0.2,1.2-0.5
				c0.3-0.5,0.5-1.7,0.7-3.8l1.8,0.5c-0.1,1.9-0.2,3.2-0.4,3.8c-0.1,0.4-0.3,0.7-0.5,1c-0.3,0.4-0.6,0.6-0.9,0.7
				c-0.3,0.1-0.7,0.1-1.3,0.1h-3.7c-0.5,0-0.9-0.1-1.3-0.3c-0.6-0.5-0.9-1.3-0.9-2.4V33.4h1.9v6.6C83,38.4,84.8,36.9,86.1,35.7z"/>
			<path class="st3" d="M92.6,41.5c-0.1,0-0.1,0-0.1,0.1v9.8h-1.9V40.2c0-0.3,0.1-0.4,0.4-0.4h7.1v-2.5h-8.5v-1.8h8.5v-1.9h1.9v1.9
				h8.5v1.8h-8.5v2.5h7.3c0.3,0,0.5,0.1,0.5,0.4v9.2c0,0.7-0.3,1.3-0.9,1.7c-0.9,0.6-2.6,0.7-4.9,0.2v-2.1c1.8,0.5,3,0.6,3.5,0.3
				c0.3-0.2,0.5-0.5,0.5-0.8v-7c0-0.1-0.1-0.1-0.2-0.1h-5.7v11.1h-1.9V41.5H92.6z"/>
			<path class="st3" d="M111.4,39.5h1.7v10.1l1.6-0.5V36h-3.9v-1.8h9.5V36h-3.9v5h2.6v1.8h-2.6v5.7l3.3-1.1l0.6,1.8l-9.4,3.1
				l-0.7-1.7l1.2-0.4V39.5z M121.9,41.2c-0.5,1.2-1,2.3-1.6,3.2l-1.6-0.7c0.5-0.8,0.9-1.6,1.3-2.3c1-2.1,1.5-4.8,1.5-8h1.8l-0.1,2.3
				h6.4v1.8h-1.2c-0.2,3.8-1.1,7.1-2.8,9.7c1.2,1.8,2.6,3.3,4.1,4.7l-1.7,1.1c-1.6-1.7-2.8-3.1-3.6-4.3c-1.2,1.4-2.9,2.8-5,4.2
				l-1.4-1.4c2.4-1.6,4.2-3,5.5-4.4C122.7,45.1,122.1,43.2,121.9,41.2z M126.7,37.5h-3.4c0,2.1,0.1,3.7,0.4,4.8l1,3.2
				c0.7-1.3,1.2-2.6,1.5-3.9C126.5,40.5,126.6,39.1,126.7,37.5z"/>
			<path class="st3" d="M135.8,45.7l-1.6-0.8c-0.1,2.8-0.5,5.2-1.3,7.2l-1.7-0.6c0.5-1.4,0.9-2.7,1-3.9c0.2-1.1,0.3-2.6,0.3-4.2v-8
				c0-0.3,0.2-0.5,0.5-0.5h7.6v-1.6h1.8v1.6h7.7v1.8h-15.5c-0.1,0-0.2,0.1-0.2,0.2V44v0.9c1.8-2.2,2.9-4.6,3.5-7.3l1.7,0.4
				c-0.4,1.6-0.9,3-1.4,4.1v10.6h-1.7v-7.7L135.8,45.7z M139.5,41.3v-1.7h7.1v-1.9h1.8v1.9h2v1.7h-2v9.3c0,0.8-0.3,1.4-0.9,1.8
				c-1,0.7-2.9,0.6-5.8-0.3l0.1-1.8l2.3,0.6c0.5,0.1,1,0.2,1.5,0.2c0.3,0,0.7-0.1,1-0.4c0.1-0.1,0.2-0.3,0.2-0.6v-8.9H139.5z
				 M141.1,42.2c1.1,1.5,2.2,3.4,3.3,5.8l-1.6,0.9c-1.2-2.5-2.3-4.4-3.3-5.7L141.1,42.2z"/>
		</g>
	</g>
	<g>
		<g>
			<path class="st3" d="M186,32.8c0,0,1.6-0.7,1.7,1.2c0.1,1.9-1,3.9-3,4.8c0,0-0.5,1.2,1,1.1c1.5-0.1,4.5-0.5,5-1.5
				c0.5-0.9,3.8,0.9,3.2,2.4c-0.6,1.5-5.6,0.4-8.2,1.6c-2.6,1.2-5.4-0.3-4.9-1.9c0,0-0.2-1.6,3-3.3c3.2-1.8,2.4-1.4,2.4-2
				C186.4,34.7,186,33.3,186,32.8z"/>
			<path class="st3" d="M180.6,45.2c0,0,1.7-0.9,3,1.3c1.3,2.2,2.4,5.1,1.6,5.9c-0.8,0.8-0.9,2.1-1.4,1.5
				C183.3,53.4,180.1,49.5,180.6,45.2z"/>
			<path class="st3" d="M184.9,46.7c0,0,0.8,0.6,1.5,0.3c0.7-0.4,3.4-2.8,5.2-2.2c1.8,0.5,2.2,2,0.6,2.9c-1.6,1-1.7,2-4.4,1.5
				c0,0-1.9,0.8-0.9,2.8c0,0,3.5,0.1,5.2,0.6c1.7,0.5,2.8-1,2.8-2c0,0-3.1-0.3-3.7-1c0,0,4.5-2.7,3.3-4.7c-1.2-2-4-1.1-5.7-0.5
				C187.2,44.9,184.2,45.9,184.9,46.7z"/>
			<path class="st3" d="M192.1,35.5c0,0,1,2.6,2.2,2.8c1.2,0.3,2.9-0.4,3-1c0.1-0.6-2.6-2.9-3.6-2.9
				C192.7,34.5,192.2,34.9,192.1,35.5z"/>
		</g>
		<g>
			<path class="st3" d="M202.2,39.2c0,0,0.7-0.1,1.3,0.6c0.6,0.7,1.3,2.4,1.3,3.9c0,1.5,0.3,3.4,0.3,3.4s1.4,1.2,0.7,1.8
				c-0.6,0.6-5.3,2.6-8,1.6c0,0-1.1-2,0.7-2.4l1.6-0.4l1-1l-0.1-1.5c0,0-4,0.5-4.2-0.5c-0.2-1.1,0.2-2,2.2-2l1.8,0l0.8-1.5l0-2
				L202.2,39.2z"/>
			<path class="st3" d="M210.1,38.4c0,0-1,4.7-1.5,5.8c-0.4,1.1-0.1,3.7-0.1,3.7s1.1,1.3,2,1.4c0.9,0.1,6.2,1,6-0.6
				c-0.2-1.6-1.7-2.4-2.8-2.6l-2.4-0.1l-0.6-7.7C210.7,38.3,210.5,38,210.1,38.4z"/>
			<path class="st3" d="M212.1,40c0,0,0.9,1.5,2.2,1.6c1.3,0.1,1.8-0.3,2.1-1.3c0.3-1.1-1.6-2-3.1-1.4C211.8,39.4,212.1,40,212.1,40
				z"/>
		</g>
		<g>
			<path class="st3" d="M224.4,30c0,0-0.4,3.4,2.4,3.3c2.8-0.1,3.5-1.2,1.7-2.6c0,0-1.8-0.4-2.8-0.4C224.5,30.2,225,29.6,224.4,30z"
				/>
			<path class="st3" d="M225.3,36.3c-3.3,2.1-4.5,1.3-4.5,1.3c-0.4-0.3-0.9-1-0.9-1c-0.8-0.2-1.5,0.4-1.5,0.4s1.2,1.4,2.3,1.7
				c1.1,0.3,5.5-2.1,5.5-2.1l-0.1,2.5l-2,1c-1.2,0.2-1.9,1.2-1.9,1.2l-2.4,5.2c-0.4,0.4,0,1.4,0,1.4c0.9-0.3,4.2-5.7,4.2-5.7
				l2.2-1.1l0,17.5l0.5-0.5c0,0,1.2-4.3,1.4-4.8c0.2-0.5,0.3-5.8,0.3-5.8l3.3-0.1c2.5-0.3,0.6-5.6,0.4-7.3c-0.2-1.7-4.6-1.5-4.6-1.5
				l0-2.5c4.7-1.7,5.5,0.2,5.5,0.2c1.2,0.1,1.9-0.7,1.9-0.7C234.5,33.6,228.7,34.2,225.3,36.3z M230.9,46.9
				c-1.1,0.3-2.6-0.7-2.6-0.7l0-5.3c0.4-0.3,2.2,0.2,2.2,0.2C231,42.3,232,46.6,230.9,46.9"/>
		</g>
		<g>
			<path class="st3" d="M241,42.5c0.3,0,1.1-1.1,1.1-1.1l2.7-0.4c0,0,1.9-1.5,3.4-1.3c1.5,0.3,4.8,0,3.2-1.9
				c-1.5-1.9-3.3-0.8-3.3-0.8s-1.7,0.4-1.9,0c-0.2-0.4,1.5-2.6,1.4-3.7c-0.2-1.2-0.8-1.6-0.8-1.6c-1.5,4.2-7.5,9.2-7.5,9.6
				C239.5,41.9,240.7,42.5,241,42.5z"/>
			<path class="st3" d="M260.4,54.2c-2.2-2.1-5.7-3.6-13.6-5.4c0,0,2-1.7,1.8-7.5c0,0-0.2-0.5-1-0.3c0,0,0.2,6.6-1.9,7.3
				c0,0-7.3-1.3-9.6,0.4c-2.3,1.7-1.5,4.1,2.4,5.4c3.9,1.3,7.6-3.1,7.6-3.1s3.9-0.3,10.9,4.4c0,0,1.6-0.1,2.2,0.9
				c0.6,1.1,1.1,1.9,1.7,1.9C260.9,58.2,262.6,56.3,260.4,54.2z M239.8,53.1c-2.9,0.1-3.7-1.9-3.7-1.9c-0.1-0.5,0.3-1.2,0.3-1.2
				c2.6-2.3,8,0,8,0C243.7,51.4,242.7,53,239.8,53.1z"/>
		</g>
		<g>
			<path class="st3" d="M255.2,45.3c0,0,0.3,1.9,3.7,1.3l0.6,0.5l0,3.2c0,0,0.4,0.5,0.8,0.6c0.4,0.1,1.5-0.9,1.5-0.9l0.1-6.1
				c0,0,1.8-1.4,1.7-2.4c-0.1-1-1.1-0.8-2.3,0.4c-1.2,1.2-1.8,1.2-2.4,1.3C258.4,43.4,254.8,43,255.2,45.3z"/>
			<path class="st3" d="M268.8,39.2c0,0,0.8,0,1,1.6c0.2,1.6,2.4,0.3,2.4-1.4c0.1-1.7-1.4-2.2-2.6-1.8
				C268.4,38.1,268.8,39.2,268.8,39.2z"/>
			<path class="st3" d="M268.2,42.4c0,0,0.7-0.3,0.7,0.6c0,0.9-0.3,2.9-0.7,3.8c-0.4,1,0.4,2.1,3,2.1c2.6,0,5.5,0.4,4.8-1.4
				c-0.7-1.9-1.5-3.5-1-4.4c0,0,0.6,2.3,2,3.3c1.4,1,2.8,2.9,0.8,4.1c-1.4,0.8-9.2-0.1-9.2-0.1s-2.8-1-1.2-4.5
				C267.5,45.9,268.4,43.8,268.2,42.4z"/>
		</g>
		<g>
			<path class="st3" d="M284.4,35.2c0,0,0.8,1.2,2.2,1.2c1.4,0.1,2.4-0.4,2.9-1c0.6-0.5,0.6,1.6,0.6,1.6s-2.9,1.8-4.7,1.7l-0.5-0.6
				l-0.7,0.1c0,0-2,8.4-4,10.6c-1.9,2.2-5.4,5.7-6.7,6.9c0,0,0.1,0.8,0.7,0.6c0.6-0.2,6.3-5.5,7-6.5c0.6-1,3.5-7.3,4-9.6
				c0,0,5.1-1,7.3-0.7c0,0,1.1-0.1,0.8-1.7l-1.3-0.8l0-2.6c0,0,1.4-1,1.5-1.9c0.1-0.9-1.7-0.4-1.9-0.2c-0.2,0.3-1.9,0.8-1.9,0.8
				S284.2,34.1,284.4,35.2z"/>
			<path class="st3" d="M284.6,44.6c0,0,0.8,1.2,3.2,0.5c2.4-0.6,5.8-2.5,7.2-2.2c1.4,0.3,2.6,2,2.7,4c0.1,2,0,5.3,0,5.3
				s-1.5,0.9-2.4,0c-0.9-0.9-1.5-1.3-1.5-1.3l-0.9-0.7l0.3-1c0,0,0.9-0.5,0.9-1c0-0.4-0.6-2.2-3.4-1.6c0,0-2.2,1.4-3.4,1.5
				c0,0,0,0.9,0.4,1.1c0.4,0.2,1.8,0.8,1.2,1.7c-0.6,0.9-1.4,0.1-1.4,0.1l-1.1-1c0,0-1.1-0.4-1.2,0.1c-0.2,0.4,0.7,3.8,1.6,4.3
				c1,0.4,2.1-0.9,2.8-1.2c0.7-0.4,5-0.5,5.6,0.1c0.6,0.5,1.2,2.4,1.8,2.5c0.6,0.1,3.2-2.2,2.7-4.4c-0.5-2.1-0.7-6.6-0.7-6.6
				s-0.5-3.2-5.1-2.3c0,0-3.2,1.1-3.7,1.2C289.7,43.6,284.1,43.8,284.6,44.6z"/>
		</g>
	</g>
	<g>
		<path class="st3" d="M172.7,29l1.3,0.7l-14.3,30.1l-1.3-0.7L172.7,29z"/>
	</g>
</g>
</svg>
