<?xml version="1.0" encoding="utf-8"?>
<!-- Generator: Adobe Illustrator 25.4.8, SVG Export Plug-In . SVG Version: 6.00 Build 0)  -->
<svg version="1.1" id="圖層_1" xmlns="http://www.w3.org/2000/svg" xmlns:xlink="http://www.w3.org/1999/xlink" x="0px" y="0px"
	 viewBox="0 0 300 64" style="enable-background:new 0 0 300 64;" xml:space="preserve">
<style type="text/css">
	.st0{fill:#FFFFFF;}
</style>
<g>
	<path id="XMLID_159_" class="st0" d="M40.1,32.5l-0.8,0.8c-0.5-1-0.9-1.8-1.2-2.3v10.3h-1v-9.9c-0.7,1.8-1.5,3.2-2.2,4.3l-0.7-0.9
		c1.2-1.6,2.1-3.7,2.9-6.3h-2.6v-1h2.7v-4.4h1v4.4h1.7v1h-1.7v1C39,30.6,39.6,31.6,40.1,32.5z M52,35.5h-5.4v1.9h5v1h-5v2.9h-1v-2.9
		h-5v-1h5v-1.9H40v-1h5.6v-5.7h-5.1v-0.9h11.3v0.9h-5.2v5.7H52V35.5z M45.6,26h-1.4v1.3h-1V26h-3v-0.9h3v-1.9h1v1.9h1.4V26z
		 M44.8,31.9h-1.6v1.9h-1.1v-1.9h-1.8V31h1.8v-1.3h1.1V31h1.6V31.9z M52,26h-2.9v1.3h-1V26h-1.4v-0.9h1.4v-1.9h1v1.9H52V26z
		 M52.1,31.9H50v1.9h-1v-1.9h-1.5V31H49v-1.3h1V31h2.1V31.9z"/>
	<path id="XMLID_166_" class="st0" d="M72.9,28.8l-0.6,0.9c-1-0.4-2-0.7-2.9-1.2V29h-5v2.4h8.2v0.9h-8.2v2.4h6.1v6.6h-1.1V40H58.9
		v1.3h-1.1v-6.4h5.6v-2.4h-8.3v-0.9h8.3v-2.4h-4.9v-0.7c-0.9,0.5-1.9,1-3,1.4L54.9,29c3.7-1.4,6.7-3.3,9-5.9l1,0.4
		c0,0.1-0.1,0.2-0.2,0.4C66.8,26,69.6,27.7,72.9,28.8z M69.5,39.1v-3.3H58.9v3.3H69.5z M68.6,28.2c-1.7-0.9-3.2-2.1-4.7-3.5
		c-1.5,1.4-3.1,2.6-4.9,3.5H68.6z"/>
	<path id="XMLID_170_" class="st0" d="M93.5,29.4l-0.6,1c-3.9-1.7-6.8-3.6-8.4-5.7c-1.6,2.2-4.5,4.1-8.5,5.6l-0.6-1
		c3.5-1.3,6.1-2.8,7.7-4.7h-2v-1.1H85C86.6,25.7,89.4,27.7,93.5,29.4z M93,40.8H75.9v-1h8v-4h-5.7v-1H84V31h-5.7v-1h12.4v1H85v3.8
		h5.6v1H85v4h8V40.8z"/>
	<path id="XMLID_173_" class="st0" d="M103.3,27.8c-0.2,0.1-0.6,0.2-1,0.3c-0.2,3.5-0.7,6.2-1.7,8.2c0.3,0.3,1,1,2,2.2l-0.6,0.8
		c-0.5-0.7-1.1-1.4-1.8-2c-0.8,1.4-1.9,2.7-3.2,4l-0.8-0.7c1.5-1.4,2.6-2.8,3.3-4c-0.6-0.6-1.5-1.3-2.6-2.3c0.5-1.7,0.9-3.5,1.2-5.5
		c-0.6,0.1-1.1,0.1-1.5,0.1l-0.2-1.1c0.8,0,1.5-0.1,1.9-0.2c0.3-1.8,0.4-3.3,0.5-4.5l1.1,0.1c-0.2,1.9-0.4,3.3-0.5,4.3
		c0.5,0,1.2-0.1,2.2-0.3l0.1-1.9h1c0,0.5,0,1-0.1,1.7c0.4,0,0.7-0.1,1-0.1v0.9H103.3z M101.3,28.3c-1,0.2-1.7,0.3-2.3,0.3
		c-0.4,2.4-0.7,4.2-1.1,5.3c0.6,0.5,1.2,1,1.9,1.6C100.6,33.5,101.1,31.1,101.3,28.3z M106.4,36.4c-1,1.8-2.2,3.3-3.5,4.3l-0.8-0.7
		c1.3-1,2.5-2.3,3.5-4.2L106.4,36.4z M114.2,34.7h-5.5v6.4h-1.1v-6.4h-5.2v-1.1h5.2v-1.5h-3.1v-6.2h-1.4v-1h1.4v-1.8h1.1v1.8h5.2
		v-1.8h1.1v1.8h2v1h-2v6.2h-3.2v1.5h5.5V34.7z M110.8,27.9v-2h-5.2v2H110.8z M110.8,31.1v-2.2h-5.2v2.2H110.8z M114.4,40.1l-0.8,0.8
		c-0.7-1.3-1.8-2.8-3.4-4.3l0.7-0.7C112.4,37.3,113.6,38.7,114.4,40.1z"/>
	<path id="XMLID_181_" class="st0" d="M123.3,39.7c0,0.4-0.1,0.8-0.3,1.1c-0.2,0.3-0.6,0.4-1.2,0.4H121l-0.3-1h1.3
		c0.1,0,0.1,0,0.2-0.1s0.1-0.1,0.1-0.2v-2.8c-1.2,0.7-2.1,1.1-2.8,1.4l-0.3-0.5c-0.4,1.4-0.8,2.5-1.4,3.3l-0.8-0.5
		c1-1.7,1.5-3.4,1.5-5.2v-4.1h4.8L123.3,39.7L123.3,39.7z M124.7,31.1h-1v-1.2h-5.5v1.2h-1v-2.2h1.1v-5.3h5.7v5.3h0.7
		C124.7,28.9,124.7,31.1,124.7,31.1z M123,26.2v-1.6h-3.8v4.3h1.3v-2.7C120.5,26.2,123,26.2,123,26.2z M122.3,35.9v-3.6h-2.8v1.2
		c0.7,0.2,1.5,0.5,2.5,0.9l-0.5,0.9c-0.4-0.2-1.1-0.5-2-0.8c0,1.2-0.1,2.2-0.2,3C120.3,37.1,121.3,36.5,122.3,35.9z M122.9,28.9
		v-1.8h-1.5v1.8H122.9z M134.9,40.8h-10.4v-1h3.2c-0.1-0.6-0.4-1.3-0.8-2.2h-1v-3.4h7.9v3.4h-1.2c-0.3,0.9-0.6,1.6-0.9,2.2h3.3v1
		H134.9z M134.8,33H125v-0.9h9.8V33z M134.3,30.7h-8.7v-5.9h2.6v-1.7h0.9v1.7h1.7v-1.7h0.9v1.7h2.6V30.7z M128.2,27.3v-1.6h-1.7v1.6
		H128.2z M128.2,29.8v-1.7h-1.7v1.7H128.2z M132.7,36.7v-1.6h-5.8v1.6H132.7z M131.4,37.7H128l0.8,2.2h1.7
		C130.9,39,131.2,38.3,131.4,37.7z M130.8,27.3v-1.6h-1.7v1.6H130.8z M130.8,29.8v-1.7h-1.7v1.7H130.8z M133.4,27.3v-1.6h-1.6v1.6
		H133.4z M133.4,29.8v-1.7h-1.6v1.7H133.4z"/>
	<path id="XMLID_198_" class="st0" d="M147.3,25.3h-4.1v1.3h3.4V30h-3.4v0.4c1.2,0.5,2.3,1,3,1.5l-0.5,0.9c-0.9-0.6-1.8-1.1-2.6-1.4
		v2.1h-1V31c-1.3,1.1-2.6,1.9-3.9,2.6l-0.7-0.9c1.5-0.7,3-1.6,4.3-2.8h-3.2v-3.4h3.6v-1.2h-4.4v-1h4.4v-1.1h1v1.1h4.1L147.3,25.3
		L147.3,25.3z M155.7,40.9h-18v-1h3.6v-3.3h1v3.3h3.9v-4.4h-8.1v-1h17.1v1h-7.9v1.6h7.1V38h-7.1v1.8h8.3L155.7,40.9L155.7,40.9z
		 M142.2,29.1v-1.5h-2.5v1.5H142.2z M145.6,29.1v-1.5h-2.3v1.5H145.6z M155.8,32.8l-0.6,1c-1.3-0.3-2.5-1-3.7-1.9
		c-1.4,0.9-2.8,1.5-4,1.9l-0.7-0.9c1.6-0.5,2.9-1,4-1.8c-0.7-0.8-1.2-1.6-1.4-2.4l0.9-0.5c0.4,0.9,0.8,1.6,1.3,2.2
		c1-1,1.6-2.3,1.8-4h-3.3c-0.7,1.2-1.5,2.1-2.4,2.8l-0.7-0.7c1.6-1.3,2.8-3.1,3.5-5.4l0.9,0.4c-0.1,0.6-0.4,1.2-0.8,2h4.9v1h-1.1
		c-0.3,2.2-1,3.7-2.1,4.7C153.4,31.9,154.5,32.4,155.8,32.8z"/>
	<path id="XMLID_204_" class="st0" d="M176.4,29.1l-0.7,0.9c-3.5-1.4-6.3-3.3-8.4-5.5c-1.9,1.9-4.7,3.7-8.4,5.5l-0.7-0.9
		c3.8-1.6,6.8-3.7,9-6.2l1,0.4c-0.1,0.2-0.2,0.3-0.3,0.5C170.2,26,173,27.7,176.4,29.1z M173.8,41.3h-1.1v-1.4h-10.8v1.4h-1.1v-8.2
		h13L173.8,41.3L173.8,41.3z M172.7,38.8v-4.7h-10.8v4.7H172.7z M172.7,30.2H162v-1.1h10.7V30.2z"/>
	<path id="XMLID_209_" class="st0" d="M185.7,39.7c0,0.8-0.4,1.2-1.1,1.4c-0.4,0.1-0.9,0.1-1.7,0l-0.5-1c0.6,0,1.1,0.1,1.6,0
		c0.4,0,0.5-0.2,0.5-0.6V33c-0.6,0.7-1.5,1.6-2.7,2.9l-0.6-0.6c-0.3,2.5-0.8,4.4-1.4,5.9l-0.9-0.7c1-2.3,1.5-5.1,1.5-8.6v-8.2h5.1
		v16H185.7z M184.6,31.5v-1.6l-0.6,0.5c-0.5-0.6-1.3-1.4-2.5-2.3V32c0,1,0,2-0.2,2.9C182.4,33.9,183.5,32.8,184.6,31.5z M184.6,24.6
		h-3v2.9l0.5-0.5c0.8,0.6,1.7,1.4,2.5,2.3V24.6z M197,40.2l-0.6,1c-1.9-0.6-3.6-1.4-5-2.5c-1.3,0.9-2.8,1.8-4.7,2.5l-0.7-1
		c1.7-0.5,3.3-1.2,4.7-2.2c-1.2-1.2-2.3-2.9-3.3-5.1h-0.7v-1.1h8.7v1.1c-0.6,2-1.6,3.7-3,5.1C193.7,39.1,195.2,39.8,197,40.2z
		 M196.8,30.5h-2.4c-0.4,0-0.7-0.1-0.9-0.4c-0.2-0.3-0.4-0.6-0.4-1v-4.4h-3.7v0.7c0,1.3-0.2,2.4-0.5,3.4c-0.4,1.1-0.9,1.9-1.7,2.5
		l-1-0.6c0.8-0.6,1.4-1.4,1.8-2.4c0.3-0.8,0.4-1.7,0.4-2.8v-1.9h5.9v5.3c0,0.1,0.1,0.3,0.2,0.4c0.1,0.1,0.2,0.2,0.3,0.2h2.1v1H196.8
		z M194.3,32.9h-5.7c0.8,1.9,1.8,3.4,3,4.4C192.7,36.3,193.6,34.8,194.3,32.9z"/>
	<path id="XMLID_216_" class="st0" d="M205.6,23.4c-0.2,0.6-0.6,1.4-1.1,2.3l-0.7,1.4v14h-1.1V28.9c-1,1.5-1.9,2.5-2.7,3.2l-0.5-1.1
		c1.9-1.7,3.5-4.4,5-8L205.6,23.4z M209.7,23.4c-1.2,3-2.6,5.3-4.2,6.8l-0.9-0.7c1.5-1.4,2.9-3.6,4-6.5L209.7,23.4z M216.1,30.7
		c0,0.6,0,1.2,0,1.8c0,1.8-0.1,3.4-0.3,4.9s-0.4,2.4-0.5,2.7c-0.2,0.3-0.5,0.6-0.9,0.8s-1.1,0.3-2,0.3c-0.4,0-0.8,0-1.2-0.1
		l-0.4-1.1c0.6,0.1,1.2,0.1,1.8,0.1c0.7,0,1.2-0.1,1.4-0.2c0.2-0.2,0.4-0.4,0.5-0.8c0.1-0.4,0.3-1.3,0.4-2.9
		c0.1-1.6,0.2-3.1,0.1-4.5h-4c-0.2,2-0.7,3.8-1.5,5.3s-2.2,2.9-4,4.2l-0.7-0.9c3.3-2.1,5.1-5,5.2-8.6h-4.1v-1H216.1z M217.9,29.4
		l-0.7,0.9c-1.6-1.2-2.9-3.1-4.1-5.8h-1.6v-1h2.3C214.8,26.2,216.2,28.2,217.9,29.4z"/>
	<path id="XMLID_221_" class="st0" d="M238.4,26.6h-10.2c-0.5,0.9-1,1.6-1.5,2.3h10.2v10.8c0,0.6-0.2,1-0.6,1.2
		c-0.4,0.2-1.3,0.3-2.7,0.3c-0.5,0-1.1,0-1.6-0.1l-0.5-1.1c0.6,0.1,1.3,0.1,2,0.1c1.1,0,1.8,0,2-0.1s0.3-0.3,0.3-0.5v-2.7h-10.2
		c-0.4,1.8-1.1,3.3-2.3,4.5l-1-0.6c1.7-1.5,2.6-4.2,2.6-8c0-0.4,0-0.9,0-1.5c-1.3,1.3-2.6,2.4-3.7,3.1l-0.8-0.8
		c2.9-1.9,5.1-4.2,6.7-6.9h-6.5v-1.1h7.1c0.4-0.7,0.8-1.5,1.2-2.4l1.1,0.3c-0.4,0.9-0.7,1.6-1,2.1h9.6v1.1H238.4z M235.7,35.8v-2.5
		h-9.9c0,1.1,0,1.9-0.1,2.5H235.7z M235.7,32.3v-2.4h-9.8v2.4H235.7z"/>
	<path id="XMLID_225_" class="st0" d="M245.8,29.4c1.2,1.8,1.8,3.4,1.8,4.9c0,0.9-0.2,1.5-0.7,2s-1.5,0.7-2.9,0.6l-0.4-1.1
		c0.3,0,0.7,0,1,0c0.8,0,1.3-0.1,1.5-0.4c0.3-0.2,0.4-0.7,0.4-1.3c0-1.5-0.6-3-1.9-4.5c0.4-1.2,1-2.8,1.6-5h-3.3v16.5h-1V23.6h5.3v1
		C247.1,25.8,246.6,27.4,245.8,29.4z M257.9,31.8h-7.5v8c1.1-0.3,2.2-0.7,3.4-1.2l0.1,1.1c-1.4,0.6-2.8,1.1-4.3,1.5l-0.5-1
		c0.1-0.2,0.2-0.4,0.2-0.6v-16h8.6V31.8z M256.8,27.1v-2.4h-6.4v2.4H256.8z M256.8,30.8v-2.6h-6.4v2.6H256.8z M259.5,40.4l-0.7,0.9
		c-3-1.9-4.9-4.5-5.8-7.7l1-0.4c0.2,0.9,0.6,1.8,1,2.6c1.3-0.8,2.3-1.7,3.2-2.7l0.8,0.7c-1.1,1.1-2.2,2-3.5,2.9
		C256.2,38.1,257.6,39.3,259.5,40.4z"/>
	<path id="XMLID_231_" class="st0" d="M268.9,23.5c-1.2,3.8-3.4,6.8-6.6,9.1l-0.8-0.8c3-2.1,5.1-4.9,6.3-8.6L268.9,23.5z
		 M278.3,40.8l-1,0.6c-0.4-1.1-0.9-1.9-1.3-2.6c-3.9,1-7.8,1.7-11.6,2l-0.3-1c2.1-2.5,4.1-6,6-10.6l1.1,0.5c-1.7,4.1-3.6,7.5-5.5,10
		c2.7-0.2,5.9-0.8,9.8-1.8c-0.6-1.1-1.5-2.4-2.5-3.8l1-0.6C275.9,36,277.3,38.5,278.3,40.8z M279.9,31.6l-0.7,0.9
		c-2.5-1.6-4.5-4.3-5.9-8h-1.4v-1.1h2.2C275.3,27.1,277.2,29.9,279.9,31.6z"/>
	<path id="XMLID_235_" class="st0" d="M299.5,39.7c0,0.5-0.1,0.9-0.4,1.2c-0.3,0.2-1.1,0.4-2.4,0.4c-0.6,0-1.3,0-2.2-0.1l-0.4-1.1
		c1.2,0.1,2.1,0.1,2.8,0.1c0.7,0,1.1,0,1.3-0.1c0.2-0.1,0.3-0.3,0.3-0.6v-15h-15.9v-1.1h17L299.5,39.7L299.5,39.7z M296.2,28.4
		h-13.1v-1h13.1V28.4z M294.8,37.3h-10.4V31h10.4V37.3z M293.6,36.3v-4.1h-8.1v4.1H293.6z"/>
	<g id="XMLID_1918_">
		<path id="XMLID_1921_" class="st0" d="M13.8,45.9c-6.5,0-12-4.6-13.4-10.7C0.1,33.8,0,32.4,0.1,31c0.2-2.9,1.2-5.5,3.1-7.8
			s4.3-3.9,7.2-4.7c1.5-0.4,3-0.6,4.5-0.4c3.3,0.2,6.2,1.5,8.7,3.8c1.2,1.2,2.2,2.5,3,4.1c0.1,0.2,0.1,0.3,0.1,0.5
			c-0.1,0.3-0.3,0.5-0.6,0.6c-0.3,0-0.6-0.1-0.7-0.4c-0.1-0.1-0.1-0.2-0.1-0.3c-1.9-3.5-4.7-5.7-8.6-6.6c-1.1-0.2-2.2-0.3-3.3-0.2
			C7.6,20,3.1,24.3,2,29.5c-1.7,6.5,2.5,13,9,14.6c1.3,0.3,2.6,0.4,3.9,0.3c4.6-0.4,8.4-3.2,10.2-6.9c0-0.1,0.1-0.1,0.1-0.2
			c0.2-0.3,0.6-0.4,0.9-0.3c0.3,0.2,0.5,0.5,0.4,0.9c-0.1,0.1-0.1,0.3-0.2,0.4c-2,3.8-5.1,6.2-9.3,7.2C16,45.8,14.9,45.9,13.8,45.9z
			"/>
		<path id="XMLID_1919_" class="st0" d="M13,32c-1.7-1.7-3.4-3.4-5-5c0,0.1,0,0.2,0,0.2c0,2.2,0,4.4,0,6.6c0,1.6,0,3.1,0,4.7
			c0,0.1,0,0.2,0,0.3c-0.1,0.3-0.4,0.4-0.7,0.4c-0.3,0-0.5-0.3-0.6-0.6c0-0.1,0-0.2,0-0.2c0-4.3,0-8.6,0-12.9c0-0.1,0-0.2,0-0.3
			c0.1-0.5,0.6-0.7,1-0.4c0.1,0,0.1,0.1,0.2,0.2c1.9,1.9,3.9,3.9,5.8,5.8c0.1,0.1,0.1,0.1,0.2,0.2c0.1-0.1,0.2-0.1,0.2-0.2
			c0.7-0.7,1.5-1.5,2.2-2.2c0.2-0.2,0.4-0.3,0.7-0.2c0.4,0.1,0.6,0.7,0.3,1c0,0.1-0.1,0.1-0.1,0.1c-0.7,0.7-1.4,1.4-2.1,2.1
			C15,31.7,15,31.7,15,31.7c1.7,1.7,3.3,3.3,5,5c0-0.1,0-0.2,0-0.2c0-3.7,0-7.4,0-11.1c0-0.1,0-0.2,0-0.3c0-0.3,0.3-0.6,0.6-0.6
			c0.3,0,0.6,0.3,0.6,0.6c0,0.1,0,0.1,0,0.2c0,4.3,0,8.6,0,12.8c0,0.1,0,0.2,0,0.2c0,0.3-0.2,0.4-0.4,0.5c-0.2,0.1-0.5,0-0.7-0.1
			c-0.1,0-0.1-0.1-0.2-0.2c-1.9-1.9-3.9-3.9-5.8-5.8c-0.1-0.1-0.1-0.1-0.2-0.2c-0.1,0.1-0.1,0.1-0.2,0.2c-0.7,0.7-1.4,1.4-2.2,2.2
			c-0.1,0.1-0.3,0.2-0.5,0.2c-0.3,0-0.5-0.1-0.6-0.3s-0.1-0.5,0.1-0.7c0-0.1,0.1-0.1,0.1-0.2c0.7-0.7,1.4-1.4,2.1-2.1
			C12.9,32.1,13,32.1,13,32z"/>
	</g>
</g>
</svg>
