<?xml version="1.0" encoding="utf-8"?>
<!-- Generator: Adobe Illustrator 25.4.8, SVG Export Plug-In . SVG Version: 6.00 Build 0)  -->
<svg version="1.1" id="圖層_1" xmlns="http://www.w3.org/2000/svg" xmlns:xlink="http://www.w3.org/1999/xlink" x="0px" y="0px"
	 viewBox="0 0 300 72.5" style="enable-background:new 0 0 300 72.5;" xml:space="preserve">
<style type="text/css">
	.st0{fill:#FFFFFF;}
</style>
<g>
	<g>
		<path class="st0" d="M37.1,7.7c0,2.3-1.8,4.2-4.2,4.2c-2.3,0-4.2-1.9-4.2-4.2c0-2.3,1.8-4.1,4.2-4.1C35.2,3.6,37.1,5.4,37.1,7.7"
			/>
		<path class="st0" d="M27.4,17.2c0,2.3-1.8,4.2-4.1,4.2c-2.3,0-4.1-1.9-4.1-4.2c0-2.3,1.9-4.1,4.1-4.1
			C25.6,13.1,27.4,14.9,27.4,17.2"/>
		<path class="st0" d="M46.3,17.2c0,2.3-1.8,4.2-4.1,4.2c-2.3,0-4.2-1.9-4.2-4.2c0-2.3,1.8-4.1,4.2-4.1
			C44.4,13.1,46.3,14.9,46.3,17.2"/>
		<path class="st0" d="M46.5,38.1c0,1.2-0.9,2.1-2.1,2.1h-4c-1.1,0-2.1-0.9-2.1-2.1v-4c0-1.2,1-2.2,2.1-2.2h4c1.2,0,2.1,0.9,2.1,2.2
			V38.1z"/>
		<path class="st0" d="M27.4,38.1c0,1.2-0.9,2.1-2.1,2.1h-3.9c-1.2,0-2.2-0.9-2.2-2.1v-4c0-1.2,1-2.2,2.2-2.2h3.9
			c1.2,0,2.1,0.9,2.1,2.2V38.1z"/>
		<path class="st0" d="M37.1,47.4c0,1.2-1,2.2-2.1,2.2h-4c-1.2,0-2.1-1-2.1-2.2v-3.9c0-1.2,1-2.2,2.1-2.2h4c1.2,0,2.1,1,2.1,2.2
			V47.4z"/>
		<path class="st0" d="M55.9,27.6c0,1.6-1.3,2.9-2.9,2.9h-2.6c-1.6,0-2.8-1.3-2.8-2.9v-2.5c0-1.6,1.2-2.9,2.8-2.9H53
			c1.6,0,2.9,1.3,2.9,2.9V27.6z"/>
		<path class="st0" d="M37.1,27.6c0,1.6-1.3,2.9-2.9,2.9h-2.5c-1.6,0-2.9-1.3-2.9-2.9v-2.5c0-1.6,1.2-2.9,2.9-2.9h2.5
			c1.6,0,2.9,1.3,2.9,2.9V27.6z"/>
		<path class="st0" d="M17.9,27.6c0,1.6-1.3,2.9-2.9,2.9h-2.5c-1.6,0-2.9-1.3-2.9-2.9v-2.5c0-1.6,1.3-2.9,2.9-2.9H15
			c1.6,0,2.9,1.3,2.9,2.9V27.6z"/>
		<rect x="28.8" y="60.7" class="st0" width="8.3" height="8.3"/>
		<rect x="38.5" y="51.1" class="st0" width="8.3" height="8.3"/>
		<rect x="19.4" y="51.1" class="st0" width="8.3" height="8.3"/>
		<rect x="47.6" y="41.6" class="st0" width="8.3" height="8.3"/>
		<rect x="10" y="41.6" class="st0" width="8.3" height="8.3"/>
		<rect x="57.2" y="31.7" class="st0" width="8.3" height="8.3"/>
		<rect y="31.7" class="st0" width="8.3" height="8.3"/>
	</g>
	<g>
		<path class="st0" d="M109.1,16v10.5h-2.6v-1.1h-4.8v6.6h-2.7v-6.6h-4.7v1.2h-2.5V16h7.3v-3.6h2.7V16H109.1z M99.1,23v-4.5h-4.7V23
			H99.1z M106.5,23v-4.5h-4.8V23H106.5z"/>
		<path class="st0" d="M122.7,26.4v1.1h7v2.1h-7v2.5h-2.5v-2.5h-7v-2.1h7v-1.1H112v-2.2h8.2v-4.8h-7.7v-2h18v2h-7.8v4.8h8.4v2.2
			H122.7z M116.6,15.8h-4.5v-2.2h4.5v-1.2h2.4v1.2h2.1v2.2H119V17h-2.4V15.8z M117.4,19.9v0.9h1.9v2.1h-1.9v1h-2.3v-1h-2.6v-2.1h2.6
			v-0.9H117.4z M123.8,15.8h-2v-2.2h2v-1.2h2.4v1.2h4.6v2.2h-4.6V17h-2.4V15.8z M125.5,23.9v-1.1h-2v-2.1h2v-0.8h2.3v0.8h2.5v2.1
			h-2.5v1.1H125.5z"/>
		<path class="st0" d="M145.2,24.9c0.9,2.6,2.3,4.4,3.5,4.4c0.5,0,0.7-0.9,0.8-3c0.6,0.5,1.5,1,2.2,1.2c-0.4,3.5-1.2,4.3-3.2,4.3
			c-2.7,0-4.9-2.9-6-6.9H137v3.9l5.2-1.2c0,0.7,0.1,1.8,0.3,2.4c-6.4,1.6-7.4,1.8-8.1,2.2c-0.2-0.6-0.7-1.7-1.1-2.2
			c0.5-0.3,1.1-0.9,1.1-1.8V13.3h15.3v6.8h-5.5c0.1,0.8,0.2,1.6,0.3,2.4h6.6v2.3H145.2z M137,15.7v2.2h10.1v-2.2H137z M141.9,22.6
			c-0.1-0.8-0.3-1.6-0.3-2.4H137v2.4H141.9z"/>
		<path class="st0" d="M172.5,13.3v18.8H170v-0.9H157v0.9h-2.4V13.3H172.5z M170,29V15.6h-2.6c0.7,0.3,1.3,0.8,1.7,1.2l-0.8,0.9h1
			v1.8h-3.8c0.1,1.2,0.2,2.3,0.4,3.2c0.4-0.8,0.7-1.7,1-2.6l1.9,0.4c-0.5,1.8-1.3,3.5-2.2,4.8c0.3,0.7,0.6,1.1,0.9,1.1
			c0.3,0.1,0.4-0.8,0.5-2c0.4,0.4,1.1,0.9,1.6,1.2c-0.3,2.6-1.4,3.4-2.8,2.8c-0.6-0.2-1.2-0.7-1.6-1.4c-0.7,0.7-1.4,1.3-2.2,1.8
			c-0.3-0.4-0.9-1.2-1.4-1.5c0.2-0.1,0.5-0.3,0.7-0.4c-1.7,0.3-3.3,0.5-4.7,0.7l-0.2-1.8c1.5-0.1,3.7-0.4,5.9-0.7l0,1.1
			c0.4-0.3,0.7-0.7,1.1-1.1c-0.4-1.5-0.7-3.4-0.9-5.5h-5.8v-1.8h5.7c0-0.6-0.1-1.2-0.1-1.8h2.1c0,0.6,0,1.2,0.1,1.8h2.3
			c-0.4-0.4-1.1-0.8-1.6-1.1l1-1H157V29H170z M163,24.3h-4.7v-4h4.7V24.3z M161.3,21.6h-1.4V23h1.4V21.6z"/>
		<path class="st0" d="M181.3,25.4c0-0.3-0.1-0.6-0.2-1c-4.4,0.7-5.1,0.9-5.6,1.2c-0.1-0.5-0.5-1.6-0.8-2.2c0.5-0.1,1-0.6,1.7-1.3
			c0.3-0.3,0.8-0.9,1.4-1.8c-1.7,0.2-2.2,0.3-2.5,0.5c-0.1-0.5-0.5-1.6-0.8-2.2c0.4-0.1,0.8-0.5,1.2-1.1c0.5-0.6,1.8-2.9,2.6-5.1
			l2.3,0.9c-0.8,1.7-1.9,3.6-3,5.1l1.5-0.1c0.5-0.8,1-1.7,1.4-2.5l2,1.3c-1.2,2-2.7,4.1-4.3,5.9l2.1-0.3c-0.2-0.5-0.4-1-0.5-1.5
			l1.8-0.7c0.6,1.4,1.2,3.2,1.5,4.3L181.3,25.4z M177.7,26.6c-0.1,1.9-0.5,3.9-0.9,5.2c-0.4-0.3-1.5-0.6-2-0.7
			c0.5-1.2,0.7-3.1,0.9-4.8L177.7,26.6z M180,26.1c0.3,1.5,0.5,3.3,0.6,4.5l-2,0.4c0-1.2-0.3-3.1-0.5-4.6L180,26.1z M182.2,25.4
			c0.4,1,0.8,2.3,1,3.1l-1.8,0.7c-0.1-0.9-0.5-2.2-0.9-3.2L182.2,25.4z M187.9,18c0,0.9-0.1,1.8-0.1,2.7h5.6c0,0,0,0.7,0,1
			c-0.3,5.9-0.5,8.2-1.2,9c-0.5,0.6-1,0.8-1.7,0.9c-0.6,0.1-1.7,0.1-2.7,0c-0.1-0.7-0.4-1.7-0.8-2.4c0.9,0.1,1.8,0.1,2.3,0.1
			c0.4,0,0.6-0.1,0.8-0.3c0.4-0.4,0.6-2.1,0.8-6.1h-3.3c-0.5,3.6-1.5,6.8-4.2,9.1c-0.4-0.6-1.1-1.4-1.7-1.8
			c3.4-2.8,3.6-7.4,3.7-12.4h-2.6v-2.4h4.7c-0.2-0.8-0.5-1.8-0.8-2.6l2.3-0.6c0.4,1,0.9,2.3,1.1,3.2h4.3V18H187.9z"/>
		<path class="st0" d="M198.1,26.5c-0.1,1.8-0.4,3.8-0.9,5.1c-0.4-0.2-1.1-0.4-1.5-0.5c0.5-1.3,0.7-3.1,0.8-4.8L198.1,26.5z
			 M201.3,25.4c0-0.3-0.1-0.6-0.2-1c-3.5,0.7-4.1,0.9-4.5,1.1c-0.1-0.4-0.4-1.3-0.7-1.9c0.5-0.1,0.9-0.6,1.5-1.4
			c0.3-0.3,0.8-1.1,1.3-2c-1.6,0.2-2,0.3-2.3,0.4c-0.1-0.4-0.4-1.4-0.7-2c0.4-0.1,0.7-0.5,1.1-1.1c0.4-0.6,1.5-2.9,2.1-5.1l2,0.8
			c-0.6,1.8-1.5,3.6-2.4,5.1l1.3-0.1c0.4-0.8,0.9-1.7,1.2-2.6l1.8,1c-1.1,2.2-2.4,4.4-3.9,6.2l1.7-0.3c-0.1-0.5-0.3-1-0.4-1.5
			l1.5-0.4c0.4,1.3,0.9,3.1,1.1,4.1L201.3,25.4z M200,26.1c0.3,1.4,0.5,3.2,0.5,4.4l-1.6,0.4c0-1.2-0.2-3-0.5-4.4L200,26.1z
			 M201.9,25.7c0.5,1.3,1,2.9,1.2,4l-1.5,0.5c-0.2-1.1-0.7-2.8-1.1-4L201.9,25.7z M215.2,21.8c-0.6,1.9-1.4,3.7-2.4,5.3
			c0.2,1.1,0.5,1.7,0.8,1.7c0.3,0,0.4-0.9,0.5-2.4c0.3,0.5,1.2,1.1,1.5,1.3c-0.5,3.1-1.4,3.9-2.1,3.8c-1,0-1.7-0.9-2.2-2.5
			c-0.9,1-2,2-3.1,2.7c-0.3-0.5-1-1.3-1.5-1.6c0.3-0.2,0.7-0.4,1-0.6h-0.4v-0.5h-2v1.5h-1.8v-9.2h5.8v6.9c0.5-0.5,1.1-1.1,1.5-1.7
			c-0.3-1.7-0.5-3.7-0.7-6h-7.7v-2h1.5c-0.1-0.7-0.3-1.5-0.5-2.1l1.2-0.3h-1.9v-1.9h2.3c-0.2-0.5-0.4-1-0.6-1.3l2-0.6
			c0.3,0.6,0.7,1.3,0.9,2h2.2v1.9h-1.9l1.7,0.4c-0.3,0.7-0.5,1.4-0.7,2h1.4c-0.1-1.9-0.1-4-0.2-6.1h2.1c0,2.1,0.1,4.2,0.1,6.1h3.2v2
			H212c0.1,1.2,0.2,2.4,0.3,3.3c0.4-0.8,0.8-1.7,1-2.7L215.2,21.8z M205,16.3c0.3,0.8,0.5,1.7,0.5,2.4h1.1c0.2-0.8,0.4-1.7,0.5-2.4
			H205z M205.2,23.1v1.3h2v-1.3H205.2z M207.2,27.4v-1.3h-2v1.3H207.2z M213.6,18.5c-0.3-1.1-1.1-2.8-1.7-4l1.8-0.8
			c0.8,1.2,1.5,2.9,1.9,3.9L213.6,18.5z"/>
		<path class="st0" d="M224.9,28.8c-1.4,1.2-4,2.3-6.1,2.8c-0.3-0.5-1-1.3-1.5-1.8c2.1-0.3,4.5-1,5.8-1.8L224.9,28.8z M236.1,25.2
			v2.1h-8.2v4.8h-2.5v-4.8h-8v-2.1h8v-0.9h-6.1v-1.8h6.1v-0.9h-7.1v-1.9h3.9c-0.2-0.5-0.5-1.1-0.8-1.5l1.4-0.3h-5.4v-2h2.9
			c-0.3-0.8-0.9-1.8-1.3-2.6l2.1-0.7c0.6,0.9,1.3,2.1,1.6,2.9l-1,0.4h1.9v-3.4h2.3v3.4h1.6v-3.4h2.4v3.4h1.9l-0.8-0.2
			c0.5-0.8,1.1-2.1,1.3-3l2.6,0.6c-0.6,1-1.2,1.9-1.7,2.7h2.7v2h-5.6l2,0.5c-0.5,0.5-0.9,1-1.3,1.3h4.1v1.9h-7.3v0.9h6.3v1.8h-6.3
			v0.9H236.1z M223.9,17.8c0.3,0.5,0.7,1.1,0.8,1.6l-1.1,0.3h5.7l-0.8-0.2c0.3-0.5,0.8-1.1,1.1-1.6H223.9z M230.5,27.8
			c1.7,0.6,4.2,1.7,5.5,2.4l-1.8,1.4c-1.2-0.7-3.7-1.8-5.5-2.5L230.5,27.8z"/>
		<path class="st0" d="M245.5,23c-0.8,0.3-1.7,0.6-2.5,0.9v5.3c0,1.2-0.2,1.8-0.9,2.2c-0.7,0.4-1.7,0.5-3.2,0.5
			c-0.1-0.7-0.4-1.6-0.7-2.3c0.8,0,1.7,0,2,0c0.3,0,0.4-0.1,0.4-0.4v-4.5c-0.7,0.3-1.4,0.5-2.1,0.7l-0.7-2.4
			c0.8-0.2,1.8-0.5,2.8-0.8v-3.5H238v-2.3h2.7v-4h2.4v4h2.2v2.3H243v2.7c0.7-0.2,1.4-0.5,2.1-0.7L245.5,23z M251.3,16.1
			c-0.5,1.6-1,3.3-1.7,4.9h7.2v10.9h-2.5v-1.1h-4.9v1.2h-2.4v-6.6c-0.5,0.6-1,1.2-1.5,1.7c-0.4-0.5-1.2-1.5-1.6-1.9
			c2.3-2.1,3.9-5.8,4.7-9h-3.2v-2.4h12.1v2.4H251.3z M254.3,23.4h-4.9v5.1h4.9V23.4z"/>
		<path class="st0" d="M277.6,27c-0.8,0.6-1.8,1.2-2.7,1.6c1,0.6,2.3,1,3.7,1.3c-0.5,0.5-1.1,1.4-1.5,2.1c-3.7-0.9-6-2.9-7.4-6h-2.1
			v3.3l3.5-0.7c-0.1,0.6-0.2,1.6-0.2,2.1c-4.6,1-5.3,1.2-5.8,1.5v0c-0.1-0.6-0.6-1.6-0.9-2c0.4-0.3,1.1-0.9,1.1-2V26h-1.7v-2.1h3.1
			v-1.5H264v-2.1h2.6v-1.5h-3.1v0.6c0,3.7-0.3,9.1-2.5,12.6c-0.5-0.4-1.6-1.1-2.2-1.3c2.1-3.2,2.3-8,2.3-11.3v-6.2h16.2v5.6h-2.8
			v1.5h3v2.1h-3v1.5h3.9V26h-2.2L277.6,27z M263.5,16.8h11.1v-1.4h-11.1V16.8z M268.9,20.4h3.1v-1.5h-3.1V20.4z M268.9,23.9h3.1
			v-1.5h-3.1V23.9z M272.1,26c0.3,0.5,0.7,1,1.2,1.4c0.7-0.4,1.5-0.9,2.1-1.4H272.1z"/>
		<path class="st0" d="M291.6,13c-0.1,0.1-0.2,0.3-0.3,0.4c1.9,1.7,5.4,3.1,8.7,3.8c-0.5,0.4-1.2,1.3-1.6,1.9
			c-0.4-0.1-0.9-0.3-1.3-0.4v5.4h-14.6v-5.3c-0.4,0.1-0.9,0.3-1.3,0.4c-0.3-0.5-0.9-1.5-1.3-1.9c3.9-0.9,7.6-2.7,9.5-5.1L291.6,13z
			 M296.4,18.5c-1-0.4-1.9-0.8-2.9-1.3v0.5h-7.4v-0.4c-0.8,0.4-1.7,0.8-2.5,1.2H296.4z M283.7,24.9H296V32h-2.6v-0.5h-7.3V32h-2.5
			V24.9z M286,22.6c-0.1-0.7-0.4-1.5-0.7-2.2L287,20h-2.4v2.7H286z M286.1,26.5v0.8h7.3v-0.8H286.1z M293.5,29.8V29h-7.3v0.8H293.5z
			 M288.7,20h-1.6c0.4,0.7,0.7,1.6,0.8,2.2l-1.3,0.4h2.1V20z M291.7,16.1c-0.6-0.4-1.2-0.9-1.8-1.4c-0.5,0.5-1.2,0.9-1.8,1.4H291.7z
			 M290.7,20v2.7h2l-1.3-0.4c0.3-0.6,0.6-1.6,0.8-2.3H290.7z M294.9,20h-2.2l1.6,0.4c-0.4,0.8-0.8,1.7-1.2,2.3h1.7V20z"/>
		<path class="st0" d="M94.7,54.8V43h-4.4v-1.6h10.5V43h-4.4v11.7H94.7z"/>
		<path class="st0" d="M106.7,53.6c-0.6,0.5-1.2,0.9-1.7,1.1c-0.6,0.2-1.2,0.3-1.8,0.3c-1.1,0-1.9-0.3-2.4-0.8s-0.9-1.2-0.9-2
			c0-0.5,0.1-0.9,0.3-1.3c0.2-0.4,0.5-0.7,0.8-0.9c0.3-0.2,0.7-0.4,1.2-0.5c0.3-0.1,0.8-0.2,1.5-0.2c1.3-0.2,2.3-0.3,2.9-0.6
			c0-0.2,0-0.4,0-0.4c0-0.7-0.2-1.1-0.5-1.4c-0.4-0.4-1-0.6-1.9-0.6c-0.8,0-1.3,0.1-1.7,0.4c-0.4,0.3-0.6,0.7-0.8,1.4l-1.6-0.2
			c0.1-0.7,0.4-1.2,0.7-1.7c0.3-0.4,0.8-0.7,1.4-1s1.4-0.3,2.2-0.3c0.8,0,1.5,0.1,2,0.3c0.5,0.2,0.9,0.4,1.1,0.7
			c0.2,0.3,0.4,0.7,0.5,1.1c0.1,0.3,0.1,0.8,0.1,1.5v2.2c0,1.5,0,2.5,0.1,2.9c0.1,0.4,0.2,0.8,0.4,1.2h-1.7
			C106.9,54.4,106.8,54,106.7,53.6z M106.6,49.9c-0.6,0.2-1.5,0.4-2.7,0.6c-0.7,0.1-1.1,0.2-1.4,0.3c-0.3,0.1-0.5,0.3-0.6,0.5
			c-0.2,0.2-0.2,0.5-0.2,0.8c0,0.4,0.2,0.8,0.5,1.1c0.3,0.3,0.8,0.4,1.4,0.4c0.6,0,1.2-0.1,1.7-0.4c0.5-0.3,0.9-0.7,1.1-1.1
			c0.2-0.4,0.3-0.9,0.3-1.6V49.9z"/>
		<path class="st0" d="M110.8,43.3v-1.9h1.6v1.9H110.8z M110.8,54.8v-9.6h1.6v9.6H110.8z"/>
		<path class="st0" d="M116.7,54.8l-2.9-9.6h1.7l1.5,5.6l0.6,2.1c0-0.1,0.2-0.8,0.5-2l1.5-5.6h1.7l1.4,5.6l0.5,1.8l0.6-1.9l1.7-5.6
			h1.6l-3,9.6h-1.7l-1.5-5.8l-0.4-1.6l-2,7.4H116.7z"/>
		<path class="st0" d="M134.6,53.6c-0.6,0.5-1.2,0.9-1.7,1.1c-0.6,0.2-1.2,0.3-1.8,0.3c-1.1,0-1.9-0.3-2.4-0.8
			c-0.6-0.5-0.9-1.2-0.9-2c0-0.5,0.1-0.9,0.3-1.3c0.2-0.4,0.5-0.7,0.8-0.9c0.3-0.2,0.7-0.4,1.2-0.5c0.3-0.1,0.8-0.2,1.5-0.2
			c1.3-0.2,2.3-0.3,2.9-0.6c0-0.2,0-0.4,0-0.4c0-0.7-0.2-1.1-0.5-1.4c-0.4-0.4-1-0.6-1.9-0.6c-0.8,0-1.3,0.1-1.7,0.4
			c-0.4,0.3-0.6,0.7-0.8,1.4l-1.6-0.2c0.1-0.7,0.4-1.2,0.7-1.7c0.3-0.4,0.8-0.7,1.4-1s1.4-0.3,2.2-0.3c0.8,0,1.5,0.1,2,0.3
			c0.5,0.2,0.9,0.4,1.1,0.7c0.2,0.3,0.4,0.7,0.5,1.1c0.1,0.3,0.1,0.8,0.1,1.5v2.2c0,1.5,0,2.5,0.1,2.9c0.1,0.4,0.2,0.8,0.4,1.2h-1.7
			C134.8,54.4,134.7,54,134.6,53.6z M134.5,49.9c-0.6,0.2-1.5,0.4-2.7,0.6c-0.7,0.1-1.1,0.2-1.4,0.3c-0.3,0.1-0.5,0.3-0.6,0.5
			c-0.2,0.2-0.2,0.5-0.2,0.8c0,0.4,0.2,0.8,0.5,1.1c0.3,0.3,0.8,0.4,1.4,0.4c0.6,0,1.2-0.1,1.7-0.4c0.5-0.3,0.9-0.7,1.1-1.1
			c0.2-0.4,0.3-0.9,0.3-1.6V49.9z"/>
		<path class="st0" d="M138.7,54.8v-9.6h1.5v1.4c0.7-1.1,1.7-1.6,3.1-1.6c0.6,0,1.1,0.1,1.6,0.3c0.5,0.2,0.9,0.5,1.1,0.8
			c0.2,0.3,0.4,0.7,0.5,1.2c0.1,0.3,0.1,0.8,0.1,1.6v5.9h-1.6v-5.9c0-0.7-0.1-1.2-0.2-1.5c-0.1-0.3-0.4-0.6-0.7-0.8
			c-0.3-0.2-0.7-0.3-1.1-0.3c-0.7,0-1.3,0.2-1.8,0.7c-0.5,0.4-0.8,1.3-0.8,2.5v5.3H138.7z"/>
		<path class="st0" d="M157.4,54.8V43H153v-1.6h10.5V43h-4.4v11.7H157.4z"/>
		<path class="st0" d="M169.7,51.7l1.7,0.2c-0.3,1-0.8,1.8-1.5,2.3s-1.6,0.8-2.8,0.8c-1.4,0-2.5-0.4-3.4-1.3
			c-0.8-0.9-1.2-2.1-1.2-3.7c0-1.6,0.4-2.9,1.3-3.8c0.8-0.9,1.9-1.3,3.2-1.3c1.3,0,2.3,0.4,3.2,1.3c0.8,0.9,1.2,2.1,1.2,3.7
			c0,0.1,0,0.2,0,0.4h-7.2c0.1,1.1,0.4,1.9,0.9,2.4c0.5,0.6,1.2,0.8,2,0.8c0.6,0,1.1-0.2,1.5-0.5S169.5,52.4,169.7,51.7z M164.4,49
			h5.4c-0.1-0.8-0.3-1.4-0.6-1.8c-0.5-0.6-1.2-0.9-2-0.9c-0.8,0-1.4,0.3-1.9,0.8C164.7,47.5,164.4,48.2,164.4,49z"/>
		<path class="st0" d="M172.4,54.8l3.5-5l-3.3-4.6h2l1.5,2.3c0.3,0.4,0.5,0.8,0.7,1.1c0.3-0.4,0.5-0.8,0.7-1.1l1.6-2.3h2l-3.3,4.5
			l3.6,5.1h-2l-2-3l-0.5-0.8l-2.5,3.8H172.4z"/>
		<path class="st0" d="M186.3,53.3l0.2,1.4c-0.5,0.1-0.9,0.1-1.2,0.1c-0.6,0-1.1-0.1-1.4-0.3c-0.3-0.2-0.6-0.4-0.7-0.7
			c-0.1-0.3-0.2-0.9-0.2-1.9v-5.5h-1.2v-1.3h1.2v-2.4l1.6-1v3.4h1.6v1.3h-1.6V52c0,0.5,0,0.8,0.1,0.9c0.1,0.1,0.2,0.2,0.3,0.3
			c0.1,0.1,0.3,0.1,0.6,0.1C185.8,53.4,186,53.3,186.3,53.3z"/>
		<path class="st0" d="M187.9,43.3v-1.9h1.6v1.9H187.9z M187.9,54.8v-9.6h1.6v9.6H187.9z"/>
		<path class="st0" d="M192,54.8V41.5h1.6v13.3H192z"/>
		<path class="st0" d="M202.8,51.7l1.7,0.2c-0.3,1-0.8,1.8-1.5,2.3s-1.6,0.8-2.8,0.8c-1.4,0-2.5-0.4-3.4-1.3
			c-0.8-0.9-1.2-2.1-1.2-3.7c0-1.6,0.4-2.9,1.3-3.8c0.8-0.9,1.9-1.3,3.2-1.3c1.3,0,2.3,0.4,3.2,1.3c0.8,0.9,1.2,2.1,1.2,3.7
			c0,0.1,0,0.2,0,0.4h-7.2c0.1,1.1,0.4,1.9,0.9,2.4c0.5,0.6,1.2,0.8,2,0.8c0.6,0,1.1-0.2,1.5-0.5S202.5,52.4,202.8,51.7z M197.4,49
			h5.4c-0.1-0.8-0.3-1.4-0.6-1.8c-0.5-0.6-1.2-0.9-2-0.9c-0.8,0-1.4,0.3-1.9,0.8C197.7,47.5,197.5,48.2,197.4,49z"/>
		<path class="st0" d="M212,54.8V41.5h9V43h-7.2v4.1h6.2v1.6h-6.2v6H212z"/>
		<path class="st0" d="M229.6,51.7l1.7,0.2c-0.3,1-0.8,1.8-1.5,2.3c-0.7,0.5-1.6,0.8-2.8,0.8c-1.4,0-2.5-0.4-3.4-1.3
			c-0.8-0.9-1.2-2.1-1.2-3.7c0-1.6,0.4-2.9,1.3-3.8c0.8-0.9,1.9-1.3,3.2-1.3c1.3,0,2.3,0.4,3.2,1.3c0.8,0.9,1.2,2.1,1.2,3.7
			c0,0.1,0,0.2,0,0.4h-7.2c0.1,1.1,0.4,1.9,0.9,2.4c0.5,0.6,1.2,0.8,2,0.8c0.6,0,1.1-0.2,1.5-0.5C229,52.9,229.4,52.4,229.6,51.7z
			 M224.3,49h5.4c-0.1-0.8-0.3-1.4-0.6-1.8c-0.5-0.6-1.2-0.9-2-0.9c-0.8,0-1.4,0.3-1.9,0.8C224.6,47.5,224.3,48.2,224.3,49z"/>
		<path class="st0" d="M239.6,54.8v-1.2c-0.6,1-1.5,1.4-2.7,1.4c-0.8,0-1.5-0.2-2.1-0.6c-0.6-0.4-1.1-1-1.5-1.8
			c-0.4-0.8-0.5-1.6-0.5-2.6c0-1,0.2-1.8,0.5-2.6c0.3-0.8,0.8-1.4,1.4-1.8c0.6-0.4,1.4-0.6,2.2-0.6c0.6,0,1.1,0.1,1.6,0.4
			c0.5,0.2,0.8,0.6,1.1,1v-4.8h1.6v13.3H239.6z M234.4,50c0,1.2,0.3,2.2,0.8,2.8c0.5,0.6,1.1,0.9,1.8,0.9c0.7,0,1.3-0.3,1.8-0.9
			c0.5-0.6,0.7-1.5,0.7-2.7c0-1.3-0.3-2.3-0.8-2.9c-0.5-0.6-1.1-0.9-1.9-0.9c-0.7,0-1.3,0.3-1.8,0.9C234.7,47.7,234.4,48.7,234.4,50
			z"/>
		<path class="st0" d="M250.3,51.7l1.7,0.2c-0.3,1-0.8,1.8-1.5,2.3s-1.6,0.8-2.8,0.8c-1.4,0-2.5-0.4-3.4-1.3
			c-0.8-0.9-1.2-2.1-1.2-3.7c0-1.6,0.4-2.9,1.3-3.8c0.8-0.9,1.9-1.3,3.2-1.3c1.3,0,2.3,0.4,3.2,1.3c0.8,0.9,1.2,2.1,1.2,3.7
			c0,0.1,0,0.2,0,0.4h-7.2c0.1,1.1,0.4,1.9,0.9,2.4c0.5,0.6,1.2,0.8,2,0.8c0.6,0,1.1-0.2,1.5-0.5S250,52.4,250.3,51.7z M244.9,49
			h5.4c-0.1-0.8-0.3-1.4-0.6-1.8c-0.5-0.6-1.2-0.9-2-0.9c-0.8,0-1.4,0.3-1.9,0.8C245.3,47.5,245,48.2,244.9,49z"/>
		<path class="st0" d="M254,54.8v-9.6h1.5v1.5c0.4-0.7,0.7-1.1,1-1.4c0.3-0.2,0.7-0.3,1-0.3c0.6,0,1.1,0.2,1.7,0.5l-0.6,1.5
			c-0.4-0.2-0.8-0.4-1.2-0.4c-0.4,0-0.7,0.1-1,0.3c-0.3,0.2-0.5,0.5-0.6,0.9c-0.2,0.6-0.3,1.2-0.3,1.9v5H254z"/>
		<path class="st0" d="M266.5,53.6c-0.6,0.5-1.2,0.9-1.7,1.1c-0.6,0.2-1.2,0.3-1.8,0.3c-1.1,0-1.9-0.3-2.4-0.8
			c-0.6-0.5-0.9-1.2-0.9-2c0-0.5,0.1-0.9,0.3-1.3c0.2-0.4,0.5-0.7,0.8-0.9c0.3-0.2,0.7-0.4,1.2-0.5c0.3-0.1,0.8-0.2,1.5-0.2
			c1.3-0.2,2.3-0.3,2.9-0.6c0-0.2,0-0.4,0-0.4c0-0.7-0.2-1.1-0.5-1.4c-0.4-0.4-1-0.6-1.9-0.6c-0.8,0-1.3,0.1-1.7,0.4
			c-0.4,0.3-0.6,0.7-0.8,1.4l-1.6-0.2c0.1-0.7,0.4-1.2,0.7-1.7c0.3-0.4,0.8-0.7,1.4-1c0.6-0.2,1.4-0.3,2.2-0.3c0.8,0,1.5,0.1,2,0.3
			c0.5,0.2,0.9,0.4,1.1,0.7c0.2,0.3,0.4,0.7,0.5,1.1c0.1,0.3,0.1,0.8,0.1,1.5v2.2c0,1.5,0,2.5,0.1,2.9c0.1,0.4,0.2,0.8,0.4,1.2h-1.7
			C266.7,54.4,266.6,54,266.5,53.6z M266.4,49.9c-0.6,0.2-1.5,0.4-2.7,0.6c-0.7,0.1-1.1,0.2-1.4,0.3c-0.3,0.1-0.5,0.3-0.6,0.5
			c-0.2,0.2-0.2,0.5-0.2,0.8c0,0.4,0.2,0.8,0.5,1.1s0.8,0.4,1.4,0.4c0.6,0,1.2-0.1,1.7-0.4c0.5-0.3,0.9-0.7,1.1-1.1
			c0.2-0.4,0.3-0.9,0.3-1.6V49.9z"/>
		<path class="st0" d="M274.1,53.3l0.2,1.4c-0.5,0.1-0.9,0.1-1.2,0.1c-0.6,0-1.1-0.1-1.4-0.3c-0.3-0.2-0.6-0.4-0.7-0.7
			c-0.1-0.3-0.2-0.9-0.2-1.9v-5.5h-1.2v-1.3h1.2v-2.4l1.6-1v3.4h1.6v1.3h-1.6V52c0,0.5,0,0.8,0.1,0.9c0.1,0.1,0.2,0.2,0.3,0.3
			c0.1,0.1,0.3,0.1,0.6,0.1C273.6,53.4,273.8,53.3,274.1,53.3z"/>
		<path class="st0" d="M275.7,43.3v-1.9h1.6v1.9H275.7z M275.7,54.8v-9.6h1.6v9.6H275.7z"/>
		<path class="st0" d="M279.2,49.9c0-1.8,0.5-3.1,1.5-4c0.8-0.7,1.8-1.1,3-1.1c1.3,0,2.4,0.4,3.2,1.3c0.8,0.9,1.3,2.1,1.3,3.6
			c0,1.2-0.2,2.2-0.6,2.9c-0.4,0.7-0.9,1.3-1.6,1.7c-0.7,0.4-1.5,0.6-2.3,0.6c-1.3,0-2.4-0.4-3.3-1.3
			C279.6,52.8,279.2,51.6,279.2,49.9z M280.9,49.9c0,1.2,0.3,2.2,0.8,2.8c0.5,0.6,1.2,0.9,2,0.9c0.8,0,1.5-0.3,2-0.9
			c0.5-0.6,0.8-1.6,0.8-2.8c0-1.2-0.3-2.1-0.8-2.7c-0.5-0.6-1.2-0.9-2-0.9c-0.8,0-1.5,0.3-2,0.9C281.2,47.8,280.9,48.7,280.9,49.9z"
			/>
		<path class="st0" d="M290.2,54.8v-9.6h1.5v1.4c0.7-1.1,1.7-1.6,3.1-1.6c0.6,0,1.1,0.1,1.6,0.3c0.5,0.2,0.9,0.5,1.1,0.8
			c0.2,0.3,0.4,0.7,0.5,1.2c0.1,0.3,0.1,0.8,0.1,1.6v5.9h-1.6v-5.9c0-0.7-0.1-1.2-0.2-1.5c-0.1-0.3-0.4-0.6-0.7-0.8
			c-0.3-0.2-0.7-0.3-1.1-0.3c-0.7,0-1.3,0.2-1.8,0.7c-0.5,0.4-0.8,1.3-0.8,2.5v5.3H290.2z"/>
	</g>
</g>
</svg>
