<?xml version="1.0" encoding="utf-8"?>
<!-- Generator: Adobe Illustrator 25.4.8, SVG Export Plug-In . SVG Version: 6.00 Build 0)  -->
<svg version="1.1" id="圖層_1" xmlns="http://www.w3.org/2000/svg" xmlns:xlink="http://www.w3.org/1999/xlink" x="0px" y="0px"
	 viewBox="0 0 300 100" style="enable-background:new 0 0 300 100;" xml:space="preserve">
<style type="text/css">
	.st0{fill:#FFFFFF;}
</style>
<g>
	<path class="st0" d="M23.9,57.8c0-0.8-0.6-1.5-1.4-1.7L7.3,52.1c-2.5-0.6-4.6-2.4-5.8-4.7c-0.1,0.8-0.2,1.7-0.2,2.6
		c0,3.4,1,6.6,3,9.6h17.9C23.1,59.6,23.9,58.7,23.9,57.8z"/>
	<path class="st0" d="M78.2,41.6H67.3l3.3-7.2H89c-8.6-7.3-23.2-12.1-39.7-12.1c-16.5,0-31,4.8-39.7,12.1h23.3l-3.3,7.2H11.4
		c-1,0-1.8,0.8-1.8,1.8c0,0.8,0.6,1.5,1.4,1.7l15.3,3.9c3.9,1,6.7,4.5,6.8,8.7c0,0.7-0.1,1.5-0.3,2.2c0,0.1,0,0.2-0.1,0.2
		c-1,3.8-4.5,6.6-8.6,6.6H11.1c8.8,6.6,22.6,10.9,38.2,10.9c15.6,0,29.4-4.3,38.2-10.9h-9.3V41.6z M51.4,41.6c-5,0-9,4-9,9
		c0,4.9,4,9,9,9h15.7l-3.3,7.2H50.9c-8.9,0-16.2-7.2-16.2-16.1c0-8.9,7.2-16.1,16.2-16.1h16.2l-3.3,7.2H51.4z M63,47.3l-3.1,6.6
		H47.6l3-6.6H63z"/>
	<path class="st0" d="M87.6,41.6v25c6.1-4.6,9.7-10.4,9.7-16.6c0-2.9-0.8-5.7-2.2-8.4H87.6z"/>
	<path class="st0" d="M227.2,35.1h19.2c-0.2-2.9-2.7-5.2-5.6-5.2h-40.1v5.2H221v1.7h-20.3v9.4h5.8v-5.5H221V42h-11.7v4h28.5
		c-0.1-2.3-1.7-4-3.5-4h-7v-1.4h13.7v5.5h5.6v-9.4h-19.3V35.1z"/>
	<rect x="268.1" y="45.2" class="st0" width="4.5" height="20.7"/>
	<rect x="252.8" y="45.2" class="st0" width="4.5" height="20.7"/>
	<rect x="106.7" y="63.7" class="st0" width="42.1" height="5.3"/>
	<rect x="107.8" y="31" class="st0" width="39.9" height="5.3"/>
	<path class="st0" d="M110.9,47.4v5.2h35.7c-0.2-2.9-2.7-5.2-5.6-5.2H110.9z"/>
	<polygon class="st0" points="189.7,40.6 184.5,40.6 180.6,63.8 168.6,63.8 164.5,40.6 159.3,40.6 163.4,63.8 153.2,63.8 
		153.2,69.1 195.6,69.1 195.6,63.8 185.8,63.8 	"/>
	<path class="st0" d="M190.7,32.8h-13.9v-4.9H171v4.9H154V38h41.8C195.5,35.1,193.6,32.8,190.7,32.8z"/>
	<path class="st0" d="M267.1,29.9h-15v5.2h20.6C272.5,32.2,270.1,29.9,267.1,29.9z"/>
	<path class="st0" d="M267.1,37.7h-15v5.2h8v25.3h5.2V42.9h7.4C272.5,40,270.1,37.7,267.1,37.7z"/>
	<path class="st0" d="M227.5,64.6c-0.3-0.3-0.2-0.8-0.2-0.8l0-0.9h14.3c2.3,0,4.2-1.9,4.2-4.2v-6.5c0-2.3-1.9-4.2-4.2-4.2h-36.2
		c-2.3,0-4.2,1.9-4.2,4.2v6.5c0,2.3,1.9,4.2,4.2,4.2h15.5l0,1.3c0.2,2.4,2.7,4.7,5.6,4.7h12.2h7.2v-4.1h-16.7
		C229.2,64.8,227.9,64.9,227.5,64.6z M227.3,51.4h12.4v2.3h-12.4V51.4z M227.3,57h12.4l0,2.2l-12.3,0V57z M207.5,51.4h13.3v2.3
		h-13.3V51.4z M220.9,59.3h-13.3V57h13.3V59.3z"/>
	<path class="st0" d="M294.3,63.2v-5.5l0,0c2.2-0.2,3.9-1.9,3.9-4.1V34.3c0-2.3-1.9-4.2-4.2-4.2h-14.9c-2.3,0-4.2,1.9-4.2,4.2v19.3
		c0,2.3,1.9,4.2,4.2,4.2h0.9l-5.1,10.4h5.7l5.2-10.4h3v10.4l8.4,0l1.5-4.9H294.3z M293.1,52.6h-12.9v-3.2h12.9V52.6z M293.1,45.3
		h-12.9v-3.2h12.9V45.3z M293.1,38.1h-12.9v-3.2h12.9V38.1z"/>
</g>
</svg>
