<?xml version="1.0" encoding="utf-8"?>
<!-- Generator: Adobe Illustrator 25.4.8, SVG Export Plug-In . SVG Version: 6.00 Build 0)  -->
<svg version="1.1" id="圖層_1" xmlns="http://www.w3.org/2000/svg" xmlns:xlink="http://www.w3.org/1999/xlink" x="0px" y="0px"
	 viewBox="0 0 300 113" style="enable-background:new 0 0 300 113;" xml:space="preserve">
<style type="text/css">
	.st0{fill:#FFFFFF;}
</style>
<g>
	<path class="st0" d="M1.2,20.5h26.2c0.2,0,0.1,0.8,0,0.8H22c0,0-1.5-0.1-1.1,0.8c0.1,0.2,18.5,50.6,18.5,50.6s0.3,0.9,0.6,1
		l16.4-50.6c0.2-0.5,0.8-1.6-0.3-1.6h-5.9c-0.1,0-0.1-0.8,0-0.8h14.1c0.1,0,0.1,0.8,0,0.8h-5.2c-1.4,0-1.4,0.4-1.7,1.2
		c-0.1,0.4-22.8,71-22.8,71s-0.1-0.3-0.2-0.6C24.9,65.2,10,26.6,8.8,22.5c-0.4-1.2-0.5-1.2-1.3-1.2c-0.3,0-6.1,0-6.3,0
		S1.1,20.5,1.2,20.5"/>
	<path class="st0" d="M69.5,56.1c0-20.2,3.9-36.7,18.2-36.7c15.4,0,18.4,17.2,18.4,36.7c0,20.2-2.9,37.7-18.3,37.6
		C71.3,93.7,69.5,77.3,69.5,56.1 M87.5,94.3c15.3,0.1,31.8-16.9,31.9-37.8c0-21.9-15.9-37.6-31.6-37.7
		c-16.1-0.2-31.6,17.5-31.6,37.7C56.2,77.3,70.8,94.2,87.5,94.3"/>
	<path class="st0" d="M162.7,63.1h6c0,0,1.1-0.1,1.1,0.4v17.1c0,13.2-13.1,13.3-16.8,12.9c-13.7-1.6-14-29.9-14.1-37.3
		c-0.2-20.2,3-37.8,16.8-37.1c16.4,0.8,20.7,24.3,20.9,25.4c0.5,0.2,0.6-0.3,0.6-0.3V18.6c0,0-0.1-0.2-0.4,0.1
		c-0.1,0.1-0.3,0.2-0.4,0.4c-7.3,7.4-10.9-0.3-21.4-0.7C142,18,125.9,36,125.7,56.8c-0.2,20.9,13.5,37,28.5,37.6c8.1,0.3,8-2,18-5.1
		c6.1-1.9,9,2.2,9.3,3.9c0.4,0.3,0.4-0.2,0.4-0.2V63.6c0-0.6,0.8-0.5,0.8-0.5h5.5c0.1,0,0.1-0.8,0-0.8h-25.5
		C162.5,62.3,162.5,63.1,162.7,63.1"/>
	<path class="st0" d="M297.2,20.5v26.3c0,0.1-0.5,0.2-0.5,0s0.5-25.6-23.1-25.6h-8.8c-0.5,0-0.8,0.1-0.8,0.5v32.9
		c0,0.3,0.3,0.5,0.8,0.5h3c14,0,12.9-14.1,12.9-14.3s0.5-0.1,0.5,0s0,29.6,0,29.7s-0.4,0.2-0.4,0s-0.3-14.7-13.4-14.7h-2.6
		c-0.5,0-0.8,0.2-0.8,0.5v35.4c0,0.2,0.3,0.5,0.8,0.5c2,0,7.1,0,8.5,0c25.4,0.1,25-27.2,25-27.3s0.6-0.1,0.6,0v28.2h-53.5
		c-0.2,0-0.1-0.8,0-0.8h5.3c0.5,0,0.8-0.2,0.8-0.5c0-6.1,0-69.6,0-70.1s-0.6-0.5-0.8-0.5s-11.8,0-11.8,0s-0.8,0-0.8,0.5
		c0,5,0,47.1,0,53.1l0,0c0,14.8-11.4,19.7-19.6,19.8l0,0c-9.7,0-27-1.6-27-23c0,0,0-48.7-0.1-49.4c0-1.1-1.4-1-1.4-1s-5.5,0-5.7,0
		s-0.1-0.8,0-0.8H211c0.1,0,0.1,0.8,0,0.8s-5.7,0-5.7,0s-1.8-0.1-1.8,1.1c0,1.6,0,54.4,0,56.2c0,8.2,4.7,15.5,14.8,15.3
		c7.9-0.1,18.9-4.8,18.8-19.1c0-0.7,0-47.8,0-53.1c0-0.4-0.8-0.5-0.8-0.5h-7.4c-0.2,0-0.1-0.7,0-0.7
		C229.3,20.5,297.2,20.5,297.2,20.5"/>
</g>
</svg>
