<?xml version="1.0" encoding="utf-8"?>
<!-- Generator: Adobe Illustrator 25.4.8, SVG Export Plug-In . SVG Version: 6.00 Build 0)  -->
<svg version="1.1" id="圖層_1" xmlns="http://www.w3.org/2000/svg" xmlns:xlink="http://www.w3.org/1999/xlink" x="0px" y="0px"
	 viewBox="0 0 191.2 118.4" style="enable-background:new 0 0 191.2 118.4;" xml:space="preserve">
<style type="text/css">
	.st0{fill:#FFFFFF;}
</style>
<g>
	<path class="st0" d="M84.8,44.5c-0.7,2.2-1.3,4.4-1.6,6.7c-0.2,1-0.3,2-0.4,3c-0.4,7.5,0.4,11,0.4,11c1.1,7.8,4.1,15.5,8.7,22.1
		c8.8,12.7,23.4,21.8,41.5,21.8c12,0,20.5-5.1,22-5.9l3.2,4.2h30.7l-13.6-19c0,0,9.2-12.1,9.3-27.8c0.1-30.9-21.6-51-51.8-51
		c-17.5,0-32.3,8.5-41.3,21C88.8,34.9,86.4,39.5,84.8,44.5z M156.9,65.9l-2.6-3.5h-31.2l12.7,18.3c-13.2,2.6-25.7-8.5-25.5-21.3
		c0.2-13.1,10.8-22.9,23.4-22.9C147.6,36.6,161.5,51.7,156.9,65.9z"/>
	<path class="st0" d="M91.8,30.6c-0.3-0.4-0.6-0.9-1-1.3c-7.4-10-20.4-20.1-40.6-20.1C26.5,9.2,8.2,25,2.1,44.4
		C2,44.7,2,44.9,1.9,45.2l0,0C0.7,49.5,0,54.2,0,58.8c0,4.5,0.6,8.9,1.7,13C5.5,86,15.4,97.8,28.5,103.9c0.1,0,0.2,0.1,0.3,0.1
		c0.1,0,0.1,0.1,0.2,0.1c6.6,3,14,4.7,21.8,4.7c16.7-0.1,31.4-8.3,40.5-20.8c0.2-0.3,0.4-0.5,0.6-0.8c1.7-2.5,3.2-5.1,4.5-7.9
		c2.9-6.3,4.5-13.3,4.5-20.6c0-2.6-0.2-5.2-0.6-7.7H54.1v23.5h12.7c0,0.6-6.5,6.9-16.3,6.9c-10.8,0-22.9-8.5-23.2-22.1
		C27,45.2,39.2,36,50.5,36.4c9.1,0.3,12.6,2.9,17.7,7.9c0,0,7.4,0,14.8,0c0.6,0,1.1,0,1.7,0c6.7,0,13,0,13.8,0
		c-0.2-0.9-0.5-1.8-0.9-2.9C96.5,38.4,94.6,34.6,91.8,30.6z"/>
</g>
</svg>
