<?xml version="1.0" encoding="utf-8"?>
<!-- Generator: Adobe Illustrator 25.4.8, SVG Export Plug-In . SVG Version: 6.00 Build 0)  -->
<svg version="1.1" id="圖層_1" xmlns="http://www.w3.org/2000/svg" xmlns:xlink="http://www.w3.org/1999/xlink" x="0px" y="0px"
	 viewBox="0 0 268.1 100" style="enable-background:new 0 0 268.1 100;" xml:space="preserve">
<style type="text/css">
	.st0{fill:#FFFFFF;}
</style>
<g>
	<path class="st0" d="M2.2,29.7L2.2,29.7c0.3-0.1,0.6,0,1,0c0.3,0.1,0.5,0.1,0.7,0.3C4,30.1,4,30.2,4,30.3c0,0.1,0,0.2-0.1,0.3H5
		c0.2-0.2,0.3-0.4,0.4-0.5c0.1-0.2,0.2-0.3,0.3-0.5h1.6c-0.2,0.2-0.4,0.4-0.7,0.6c-0.2,0.2-0.5,0.3-0.9,0.5h1.9v0.5H5.3v0.5h2.3v0.5
		H5.3v0.7h2.4v0.5H1.9v-0.5h2.3v-0.7H1.9v-0.5h2.3v-0.5H1.8v-0.5h1.2c0,0-0.1-0.1-0.1-0.1c0,0-0.1-0.1-0.1-0.2l-0.1-0.2
		C2.7,30,2.6,30,2.6,29.9C2.5,29.8,2.4,29.8,2.2,29.7 M1.7,34.2h2.4c0-0.1,0-0.1,0-0.2l0-0.3l0-0.2h1.2c0,0.1,0,0.2,0,0.3
		c0,0.1,0,0.2-0.1,0.4h2.5v0.5H5.4c0.2,0.2,0.4,0.4,0.7,0.6c0.2,0.1,0.4,0.3,0.7,0.4c0.2,0.1,0.5,0.2,0.6,0.2L7.7,36l0.1,0l0,0.1
		c-0.1,0-0.2,0.1-0.3,0.1c0,0-0.1,0.1-0.1,0.2c0,0.1-0.1,0.1-0.1,0.2c0,0.1,0,0.2,0.1,0.3l-0.1,0.1c-0.2-0.1-0.5-0.2-0.7-0.3
		c-0.3-0.1-0.5-0.3-0.8-0.6c-0.3-0.3-0.4-0.5-0.5-0.6c-0.1-0.2-0.2-0.4-0.3-0.6c-0.1,0.1-0.2,0.4-0.4,0.7c-0.2,0.4-0.7,0.7-1.5,1
		c-0.8,0.3-1.3,0.4-1.4,0.4l0-0.1c0.3-0.2,0.6-0.3,0.7-0.5c0.2-0.1,0.4-0.3,0.6-0.5c0.2-0.2,0.4-0.4,0.5-0.6
		c0.1-0.2,0.2-0.3,0.3-0.5l0.1-0.2H1.7V34.2z"/>
	<path class="st0" d="M15.4,36.4c0,0.1,0,0.2,0.1,0.3c0,0.1,0.1,0.1,0.2,0.2c0.1,0.1,0.4,0.1,1,0.1c0.5,0,0.8,0,0.9,0
		c0.1,0,0.2,0,0.3-0.1c0.1-0.1,0.2-0.2,0.3-0.3c0-0.1,0.1-0.1,0-0.2c0,0,0-0.1-0.1-0.1l-0.2-0.1c0,0-0.1-0.1-0.1-0.1
		c0,0,0-0.1,0-0.2c0-0.1,0-0.2,0-0.3c0-0.1,0-0.2,0-0.3l-0.1,0c-0.1,0.5-0.2,0.8-0.2,0.9c-0.1,0.1-0.1,0.2-0.1,0.2c0,0-0.1,0-0.2,0
		c-0.1,0-0.2,0-0.4,0c-0.3,0-0.4,0-0.4,0c0,0,0-0.1,0-0.2v-0.4c0.5,0,0.9-0.1,1-0.1c0.1,0,0.2-0.1,0.3-0.1L17,35.1l-0.3,0.2
		c0,0-0.2,0.1-0.5,0.2V35h-0.9V36.4z M15.4,30.3H18v-0.5h-2.6V30.3z M13.7,37.1L14,37c0.1,0,0.2-0.1,0.5-0.3
		c0.2-0.2,0.4-0.3,0.5-0.4c0.1-0.1,0.2-0.2,0.3-0.3l-0.1-0.1c-0.3,0.1-0.5,0.1-0.9,0.2v-0.3h0.8v-0.5h-0.8V35h-0.9V36
		c0,0.1,0,0.1,0,0.1c0,0-0.1,0-0.2,0.1L13.7,37.1z M12.3,30.3h2.8v-0.5h-2.8V30.3z M12.3,29.8 M16.4,34H17v0.4h-0.6V34z M15.5,34.5
		h-0.6V34h0.6V34.5z M14.9,33.2h0.6v0.4h-0.6V33.2z M13.4,33.2H14v0.4h-0.6V33.2z M12.4,34.2c0,0.1,0,0.4,0,0.6c0,0.3,0,0.5-0.1,0.7
		c0,0.2-0.1,0.5-0.1,0.7c-0.1,0.2-0.2,0.5-0.3,0.7l0.1,0.1c0.5-0.3,0.8-0.7,1-1c0.2-0.4,0.3-0.6,0.3-0.7c0-0.1,0.1-0.3,0.1-0.4H17
		v0.1h0.9v-1.2l0.3-0.3l-0.9-0.3l-0.3,0.3h-0.5v-0.4h1.7v-0.5h-2.3l0-0.1c0,0,0-0.1,0-0.1c0-0.1,0-0.1,0-0.2c0,0-0.1-0.1-0.1-0.1
		h0.5v-1h0.2l0,0.1c0.1,0.1,0.1,0.2,0.1,0.3c0,0.1,0,0.2,0,0.3c0,0.1,0,0.2,0,0.2c0,0.1,0.1,0.1,0.2,0.1c0.1,0,0.2,0,0.3-0.1
		c0.1-0.1,0.1-0.2,0.1-0.3c0-0.1-0.1-0.2-0.1-0.3c-0.1-0.1-0.2-0.1-0.2-0.2c-0.1,0-0.2-0.1-0.3-0.1h0.8v1h0.7V31l0.3-0.3l-0.8-0.3
		l-0.2,0.3h-1v-0.1h-0.7v1.5c-0.1,0-0.3-0.1-0.5-0.1V31l0.3-0.3l-0.7-0.2l-0.2,0.3h-1.1v-0.2h-0.7v1.7h0.7v-1h0.2l0,0l0.1,0.1
		c0,0,0.1,0.1,0.1,0.2l0.1,0.3c0,0.1,0,0.2,0.1,0.2c0,0,0.1,0.1,0.2,0.1c0.1,0,0.2,0,0.2-0.1c0.1-0.1,0.1-0.1,0.1-0.3
		c0-0.1-0.1-0.2-0.2-0.3c-0.1-0.1-0.2-0.2-0.3-0.2c-0.1,0-0.2-0.1-0.3-0.1h0.9v1l0.6,0l0.1,0.1c0,0,0,0.1,0,0.1c0,0.1,0,0.1,0,0.2
		c0,0,0,0,0,0.1h-1.6v-0.3h-1V34.2z M13.4,34H14v0.4h-0.6V34z"/>
	<path class="st0" d="M24.2,32.2h1.6v-1.1h-1.4v-0.5h1.4v-1h1v1h1.5v0.5h-1.5v1.1h1.7v0.5h-4.3V32.2z M25.8,36.2v-1.7h-1.4v-0.6
		l1.4,0v-1h1v1h1.4v0.6h-1.4v1.7l1.7,0v0.6h-4.3v-0.6H25.8z M22.4,32.2c0.1-0.1,0.1-0.2,0.2-0.3c0-0.1,0.1-0.3,0.2-0.6
		c0.1-0.3,0.2-0.5,0.3-0.8c0.1-0.2,0.1-0.4,0.1-0.5l0.1-0.4h1.2c-0.1,0.2-0.1,0.3-0.2,0.4c-0.1,0.1-0.1,0.3-0.2,0.4
		c-0.1,0.2-0.2,0.4-0.4,0.6H24v6h-1v-5.3c-0.1,0.1-0.1,0.1-0.1,0.1l-0.3,0.2L22.4,32.2L22.4,32.2z"/>
	<path class="st0" d="M32.7,37c0.1-0.2,0.2-0.4,0.4-0.6c0.2-0.3,0.4-0.8,0.7-1.5c0.3-0.7,0.5-1.3,0.7-1.8c0.1-0.5,0.2-0.8,0.3-1
		c0.1-0.2,0.1-0.6,0.2-1c0.1-0.4,0.1-0.8,0.2-1.1l0-0.5l1.2,0c0,0.1,0,0.2-0.1,0.3l-0.1,0.4l-0.1,0.4c0.1,0.5,0.3,1,0.5,1.5
		c0.2,0.5,0.4,0.9,0.6,1.4c0.2,0.4,0.4,0.7,0.5,0.9c0.1,0.2,0.2,0.4,0.4,0.6c0.2,0.2,0.3,0.4,0.4,0.6c0.1,0.1,0.3,0.3,0.5,0.5l0,0.1
		c-0.3,0-0.4,0.1-0.5,0.3c-0.1,0.1-0.1,0.3-0.1,0.3c0,0.1,0,0.1,0,0.2l0,0.2L38.3,37c-0.5-0.5-0.9-1.1-1.2-1.7
		c-0.3-0.6-0.5-1.1-0.6-1.4c-0.1-0.3-0.2-0.7-0.3-1c-0.1-0.3-0.1-0.6-0.1-0.8L36,31.4c-0.1,0.2-0.1,0.6-0.2,1
		c-0.1,0.4-0.3,0.9-0.6,1.6c-0.3,0.6-0.6,1.1-0.8,1.4c-0.2,0.3-0.4,0.5-0.5,0.7c-0.1,0.1-0.3,0.3-0.5,0.5
		C33.1,36.7,32.9,36.9,32.7,37L32.7,37z"/>
	<path class="st0" d="M97.1,39.4c3.1,0,5.7-2.3,5.7-5c0-2.8-2.5-5-5.7-5c-3.1,0-5.7,2.3-5.7,5C91.4,37.2,93.9,39.4,97.1,39.4"/>
	<path class="st0" d="M213.8,39.1c3.2,0,5.9-2.3,5.9-5.2c0-2.9-2.6-5.2-5.9-5.2s-5.9,2.3-5.9,5.2C207.9,36.7,210.5,39.1,213.8,39.1"
		/>
	<path class="st0" d="M70.9,66.2c0-0.2,0-0.3-0.2-0.2c-1.4,0.3-2-0.7-2.7-3.5c-1.3-5.7-1.8-8.3-2.2-10.2c-1.5-6.9-3.1-9.2-5.8-10.7
		c-3.6-2-9.6-2.2-13.7-0.2c0,0-0.2,0.1-0.1,0.2c0,0.8,0,3.7,0,4c0,0.2,0.2,0.1,0.2,0.1c3.3-1.2,8.3-2.1,9.1,5.2c0,0,0.1,0.4,0,0.4
		c-2.9,0.7-7.6,2.2-9.6,4.3c-4.5,4.7-2.6,12.2,2.4,14.1c2.8,1.1,8.4,1.9,12.5-1.9c2.6,2.5,4.6,2.5,6.2,2.5c0,0,3.6,0,3.8,0
		c0.1,0,0.1,0,0.1-0.4C70.9,69.6,70.8,67.5,70.9,66.2z M58.2,64.8c-5.7,3.6-7.7-7-2.2-9c0.2-0.1,0.4,0.1,0.4,0.1l2.2,8.4
		C58.6,64.5,58.4,64.7,58.2,64.8z"/>
	<path class="st0" d="M132.4,53.2c-0.6-7.8-5.7-13.2-12.3-13.4c-8.4-0.3-14,5.1-14.4,15c-0.3,6.2,3.3,11.9,7.3,14.1
		c4.7,2.6,10.8,2.1,15.5,0.3c0.9-0.4,0.9-0.6,0.9-1.1v-3.6c0-0.3,0.1-0.8-0.6-0.4c-0.7,0.4-2.7,1.4-4.4,1.5
		c-3.4,0.2-5.9-0.5-7.7-5.8c-0.3-0.8,0-0.7,0.2-0.8c0.2-0.1,15.4-4.8,15.4-4.8C132.5,54,132.5,53.5,132.4,53.2z M116.4,54.9
		c-0.5,0.1-0.6,0.1-0.7-0.6c-0.1-2.1,0-5.3,0.8-7.1c1.3-3,3.8-2.9,5.1-0.9c0.7,1.1,1.3,2.9,1.5,5.6c0.1,1.1-0.6,1-0.8,1.1
		C121.1,53.5,116.4,54.9,116.4,54.9z"/>
	<path class="st0" d="M40.6,68c0,1.4,0.3,1.9,0.4,2.1c0.1,0.2-0.2,0.2-0.2,0.2h-1.9h-8c0,0-0.2,0-0.1-0.2c0.1-0.4,0.4-1,0.4-2.1
		l0-1.4l0-13.4l0-2.5c0-0.9-0.5-3-2.6-3c-1.7,0-3.3,1.7-3.3,4.1c0,0,0,4.2,0,5l0,10c0,0,0,1.1,0,1.2c0,1.4,0.3,1.9,0.4,2.1
		c0.1,0.2-0.2,0.2-0.2,0.2l-1.9,0l-8,0c0,0-0.2,0-0.1-0.2c0.1-0.4,0.4-1,0.4-2.1c0-0.1,0-0.8,0-0.8l0-14v-2.5c0-0.9-0.5-3-2.6-3
		c-1.7,0-3.3,1.7-3.3,4.1c0,0,0,0.5,0,1.3c0,3.4,0,11.6,0,14.1l0,0.8c0,1.4,0.3,1.9,0.4,2.1c0.1,0.2-0.2,0.2-0.2,0.2H8.2h-8
		c0,0-0.2,0-0.1-0.2c0.1-0.4,0.4-1,0.4-2.1l0-0.9c0-3.5,0-18.8,0-20.3c0-0.9-0.3-1.6-0.4-1.9c-0.1-0.2,0.1-0.3,0.1-0.3
		s3.6-1.8,9.6-4.8c0.1,0,0.2,0,0.2,0.1c0,0.9,0,2,0,2.6c0,0.4,0,2.1,0,2.3c0,0.1,0.1,0.2,0.2,0.1c0.1-0.1,0.1-0.1,0.2-0.3
		c3.3-5.5,13.4-6.4,15,0.2c0,0.1,0.1,0.1,0.2,0c2-3,4-4.5,8.2-4.5c8.1,0,6.9,7.6,6.9,12.3l0,13.9L40.6,68z"/>
	<path class="st0" d="M82.9,68c0,1.4,0.3,1.9,0.4,2.1c0.1,0.2-0.2,0.2-0.2,0.2h-2.4h-8c0,0-0.2,0-0.1-0.2c0.1-0.4,0.4-1,0.4-2.1
		l0-0.8c0-3.5,0-18.4,0-19.8c0-0.8-0.5-2.3-0.6-2.5c-0.1-0.1,0.1-0.2,0.1-0.2s4.3-2.4,10.2-5.4c0.1,0,0.2,0,0.2,0.1
		c0,0.9,0,2.3,0,2.9c0,0.4,0,1.6,0,1.8c0,0.1,0.1,0.2,0.2,0.1c0.1-0.1,0.1-0.1,0.2-0.3c2.2-4.8,5.7-4.6,8.4-4.2
		c0.3,0.1,0.3,0.2,0.2,0.7c-0.2,0.9-1.4,6.3-1.5,6.7c-0.1,0.3-0.2,0.5-0.5,0.4c-3.4-0.8-7.1,0.4-7.1,5v0.7c0,3.4,0,11.6,0,14
		L82.9,68z"/>
	<path class="st0" d="M102.4,68c0,1.4,0.3,1.9,0.4,2.1c0.1,0.2-0.2,0.2-0.2,0.2h-2.4h-8c0,0-0.2,0-0.1-0.2c0.1-0.4,0.4-1,0.4-2.1
		l0-0.2c0-3.5,0-20.7,0-22.8c0-0.6,0-0.6,0.4-0.8c0.2-0.1,0.1-0.1,0.1-0.1s3.4-1.9,9.2-4.8c0.1,0,0.3,0,0.3,0.1c0,0.9,0,26,0,28.4
		L102.4,68z"/>
	<path class="st0" d="M162.6,65.1c-2.4,1.3-5.9,1.8-8.1-1.2c-2.1-3-3.2-5.6-3.2-9.8c0-9.7,6.1-10.9,10.7-8.1v-5
		c-2.6-1.5-6-1.7-8.6-1.4c-7.7,0.9-12.2,8-12.2,16.1c0,8.8,5.1,19.4,21.3,14.5V65.1z"/>
	<path class="st0" d="M175.4,66.9c0,0,0-38.3,0-38.1c0,0-7.2,3.7-10.9,5.6c0.4,0.3,1.2,1.8,1.2,6.7c0,5.3,0,10.6,0,12.3
		c0,3.5,0,10.3,0,15.6c0,0.6-0.3,1.4-0.3,1.5c0,0,10.9,0,10.8,0C176,70.4,175.4,66.9,175.4,66.9"/>
	<path class="st0" d="M206.2,67c0-0.5-0.1-0.6-0.5-0.6c-1.1,0-1.9-1.1-2.1-2.3c-0.3-1.5-3.1-15.7-3.1-15.7c-0.6-2.7-2.2-5.9-5.3-7.6
		c-3.6-2-9.8-2.2-13.8-0.3c0,0-0.2,0.1-0.2,0.2c0,0.8,0,3.9,0,4.2c0,0.2,0.2,0.1,0.2,0.1c3.2-1.3,8.9-2,9.4,5.8c0,0.1,0,0.1-0.2,0.1
		c-0.6,0.2-1,0.2-2.1,0.4c-2.3,0.4-4.9,1.3-7.1,3.2c-6.2,5.3-3.3,13.1,1.7,15.4c2.9,1.3,8.1,2.1,12.4-1.8c3,2.7,4.6,2.7,6.6,2.7
		c0,0,3.7,0,3.9,0c0.2,0,0.2-0.1,0.2-0.4C206.2,70.1,206.2,68.2,206.2,67z M193.5,65c-1.2,0.9-3.4,1.1-4.6-0.2
		c-1.2-1.5-1.8-3.3-1.3-5.5c0.4-1.3,1.6-3.7,3.7-4.1c0.1,0,0.1,0,0.1,0l2.3,9.4C193.8,64.8,193.7,64.9,193.5,65z"/>
	<path class="st0" d="M218.9,68v0.6c0,0.9,0.4,1.6,0.4,1.8c0,0,0,0,0,0h-2.8l-8.5,0c0,0,0,0,0,0c0.1-0.2,0.4-0.9,0.4-1.8
		c0-0.1,0-0.3,0-0.7c0-3.6,0-21.5,0-23.7c0-0.5,0.2-0.6,0.2-0.6s3.8-2.1,10-5.3c0.1,0,0.2,0,0.2,0.1C218.9,39.5,218.9,65.5,218.9,68
		"/>
	<path class="st0" d="M240.9,47.3c-2.4,0-3.1-0.2-4.3,0.3c-1.6,0.7-2.7,2.1-2.7,4.2v1.3c0,3.4,0,12.5,0,14.9c0,0.3,0,0.5,0,0.6
		c0,0.9,0.4,1.5,0.4,1.7c0,0,0,0,0,0h-2.7h-8.2c0,0,0,0,0,0c0.1-0.2,0.4-0.9,0.4-1.7v-0.6c0-3.5,0-19.8,0-21.3
		c-0.1-0.8-0.4-1.8-0.4-2c-0.1-0.1,0.1-0.2,0.1-0.2s4.2-2.1,10.2-5.2c0.1,0,0.2,0,0.2,0.1c0,0.9,0,2,0,2.7c0,0.4,0,1.7,0,1.8
		c0,0.1,0.1,0.2,0.2,0.1c0.1-0.1,0.1-0.1,0.2-0.3c2.4-4.9,6.4-4.3,8.4-4c0.3,0.1,0.3,0.2,0.2,0.7c-0.2,1-1.3,6.1-1.4,6.5
		C241.4,47.2,241.3,47.3,240.9,47.3"/>
	<path class="st0" d="M267.6,53.8C267,46,262,40.7,255.4,40.4c-8.4-0.3-14,5.1-14.4,15c-0.3,6.2,3.3,11.9,7.3,14.1
		c4.7,2.6,10.8,2.1,15.5,0.3c0.9-0.4,0.9-0.6,0.9-1.1V65c0-0.3,0.1-0.8-0.6-0.4c-0.7,0.4-2.7,1.4-4.4,1.5c-3.4,0.2-5.9-0.5-7.7-5.8
		c-0.3-0.8,0-0.7,0.2-0.8c0.2-0.1,15.4-4.7,15.4-4.7C267.6,54.7,267.6,54.2,267.6,53.8z M251.6,55.6c-0.5,0.1-0.6,0.1-0.7-0.6
		c-0.1-2.1,0-5.3,0.8-7.1c1.3-3,3.8-2.9,5.1-0.9c0.7,1.1,1.3,2.9,1.5,5.6c0.1,1.1-0.6,1-0.8,1.1C256.3,54.2,251.6,55.6,251.6,55.6z"
		/>
</g>
</svg>
