<?xml version="1.0" encoding="utf-8"?>
<!-- Generator: Adobe Illustrator 25.4.8, SVG Export Plug-In . SVG Version: 6.00 Build 0)  -->
<svg version="1.1" id="圖層_1" xmlns="http://www.w3.org/2000/svg" xmlns:xlink="http://www.w3.org/1999/xlink" x="0px" y="0px"
	 viewBox="0 0 252.5 127" style="enable-background:new 0 0 252.5 127;" xml:space="preserve">
<style type="text/css">
	.st0{fill:#FFFFFF;}
</style>
<g>
	<path class="st0" d="M38.5,86.5v26.7H0v-0.9h6.8V14.6H0v-0.9h37.7v26.6h-0.8c0-23.2-8.5-25-19-25l0,0v42.4v3.8
		c9.9,0,10.9-7.6,10.9-18.3h0.8v37.2h-0.8c0-10.7-1-18-10.9-18v6v39.9v3.3c10.5,0,19.7-2.4,19.7-25.1L38.5,86.5L38.5,86.5z"/>
	<path class="st0" d="M89.3,112.4c10.5,0,19.7-3.2,19.7-25.8h0.8v26.7H71.4v-0.9h6.8V14.6h-6.8v-0.9h24.7v0.9h-6.8v37.6
		C89.3,52.2,89.3,112.4,89.3,112.4z"/>
	<path class="st0" d="M160.6,112.4c10.5,0,19.7-3.2,19.7-25.8h0.8v26.7h-38.5v-0.9h6.8V14.6h-6.8v-0.9h24.7v0.9h-6.8v37.6v60.2
		C160.5,112.4,160.6,112.4,160.6,112.4z"/>
	<path class="st0" d="M252.5,86.5v26.7H214v-0.9h6.8V14.6H214v-0.9h37.7v26.6h-0.8c0-23.2-8.5-25-19-25l0,0v42.4v3.8
		c9.9,0,10.9-7.6,10.9-18.3h0.8v37.2h-0.8c0-10.7-1-18-10.9-18v6v39.9v3.3c10.5,0,19.7-2.4,19.7-25.1L252.5,86.5L252.5,86.5z"/>
</g>
</svg>
