<?xml version="1.0" encoding="utf-8"?>
<!-- Generator: Adobe Illustrator 25.4.8, SVG Export Plug-In . SVG Version: 6.00 Build 0)  -->
<svg version="1.1" id="圖層_1" xmlns="http://www.w3.org/2000/svg" xmlns:xlink="http://www.w3.org/1999/xlink" x="0px" y="0px"
	 viewBox="0 0 268.1 100" style="enable-background:new 0 0 268.1 100;" xml:space="preserve">
<style type="text/css">
	.st0{fill:#FFFFFF;}
</style>
<g>
	<g>
		<path class="st0" d="M182.2,79.8c-0.5,2.2-0.6,2.4-1.1,2.4h-5.9v0.4h13.4v-0.4h-6.2c-0.4,0-0.3-0.3,0.2-2.3l4.1-16.6h16.4l5,18.9
			h-6.7v0.4h22.4v-0.4h-7l-18.5-66.5h-0.1L182.2,79.8z M194.7,31.5l8.3,31.4h-16.1L194.7,31.5z"/>
		<path class="st0" d="M48.1,79.8c-0.5,2.2-0.6,2.4-1.1,2.4h-5.9v0.4h13.4v-0.4h-6.2c-0.4,0-0.3-0.3,0.2-2.3l4.1-16.6H69l5,18.9
			h-6.6v0.4h22.4v-0.4h-7L64.2,15.7h-0.1L48.1,79.8z M60.6,31.5l8.3,31.4H52.8L60.6,31.5z"/>
		<path class="st0" d="M102.4,81.8c-0.1,0.1,0,0.3,0.3,0.3h14.7c4.5,0,10.4-6.9,10.4-29.2v-2.3h0.4v31.9H93.1l26.6-64.3
			c0.1-0.1,0-0.3-0.3-0.3h-15.6c-4.1,0-10,7.7-10,29.2v2.3h-0.4V17.5H129L102.4,81.8z"/>
		<path class="st0" d="M138.2,79.8c-0.5,2.2-0.6,2.4-1.1,2.4h-5.9v0.4h13.4v-0.4h-6.2c-0.4,0-0.3-0.3,0.2-2.3l4.1-16.6h16.4l5,18.9
			h-6.7v0.4h22.4v-0.4h-7l-18.5-66.5h-0.1L138.2,79.8z M150.6,31.5l8.3,31.4h-16.1L150.6,31.5z"/>
		<path class="st0" d="M166.7,24.6C166.7,24.7,166.7,24.7,166.7,24.6h1v0.1h-3.2v-0.1h0.8h0.1v-3.2h-3.1v3.2c0,0,0,0,0.1,0h0.8v0.1
			H160v-0.1h0.9h0.1v-6.3c0,0,0,0-0.1,0H160v-0.1h3.2v0.1h-0.8h-0.1v3h3.1v-3c0,0,0,0-0.1,0h-0.8v-0.1h3.2v0.1h-0.9h-0.1L166.7,24.6
			L166.7,24.6z"/>
		<path class="st0" d="M175.6,21.9c-0.3,0-0.5-0.1-0.5-0.4c0-0.2,0.1-0.2,0.1-0.3c0-0.2-0.1-0.2-0.3-0.2s-0.5,0.1-0.7,0.7v3
			c0,0,0,0,0.1,0h0.6v0.1h-2.3v-0.1h0.6h0.1V21c0,0,0,0-0.1,0h-0.6v-0.1h1.6l0,0v0.6c0.2-0.5,0.5-0.7,1-0.7s0.9,0.3,0.9,0.7
			C176.1,21.7,175.9,21.9,175.6,21.9"/>
		<path class="st0" d="M184.1,24.9c0.7,0,1.3-0.4,1.7-0.9l-0.1-0.1c-0.4,0.5-0.9,0.8-1.6,0.8c-0.3,0-0.5-0.1-0.7-0.2
			c-0.3-0.3-0.4-0.6-0.4-1.7c0-0.1,0-0.1,0-0.2h2.9l0,0c0-0.8-0.5-1.9-1.8-1.9c-1.2,0-2.1,0.9-2.1,2.1
			C181.9,24,182.8,24.9,184.1,24.9 M184.6,21.1c0.2,0.2,0.3,0.6,0.3,1.4H183c0-0.8,0.1-1.1,0.4-1.4c0.2-0.2,0.4-0.2,0.7-0.2
			C184.3,20.9,184.4,20.9,184.6,21.1"/>
		<path class="st0" d="M169.7,24.7c0.5,0,0.8-0.4,0.8-0.7v-1.4c-0.2,0.1-0.6,0.1-0.9,0.2c-0.3,0.1-0.7,0.2-0.7,1.1
			C168.9,24.6,169.4,24.7,169.7,24.7 M168.5,21.5c0-0.3,0.4-0.8,1.2-0.8c1.2,0,1.8,0.5,1.8,1.7v1.9c0,0.2,0.1,0.3,0.3,0.3
			s0.3-0.2,0.4-0.2l0.1,0.1c-0.1,0.2-0.4,0.4-0.8,0.4c-0.4,0-0.8-0.3-0.9-0.6c-0.1,0.4-0.5,0.6-1.1,0.6c-0.9,0-1.5-0.3-1.5-1
			c0-1,1.1-1.2,1.5-1.2c0.6,0,1.1-0.1,1.1-0.3v-0.6c0-0.7-0.3-1-0.8-1c-0.3,0-0.4,0.1-0.4,0.4c0,0.2,0.1,0.2,0.1,0.4
			c0,0.2-0.1,0.3-0.5,0.3C168.6,22,168.5,21.7,168.5,21.5"/>
		<path class="st0" d="M179.8,21.1c-0.2-0.2-0.4-0.2-0.7-0.2s-0.7,0.2-0.9,0.5v2.8c0.1,0.3,0.5,0.6,0.9,0.6c0.3,0,0.5-0.1,0.7-0.2
			c0.3-0.3,0.5-0.7,0.5-1.7C180.3,21.9,180.1,21.4,179.8,21.1 M181.2,22.8c0,1-0.9,2.1-2.1,2.1c-0.4,0-0.7-0.2-0.9-0.5v3.1
			c0,0,0,0,0.1,0h0.6v0.1h-2.3v-0.1h0.6h0.1V21c0,0,0,0-0.1,0h-0.6v-0.1h1.6l0,0v0.4c0.2-0.2,0.5-0.5,0.9-0.5
			C180.4,20.7,181.2,21.8,181.2,22.8"/>
		<path class="st0" d="M193.5,20.8c0.1,0,0.2,0,0.2-0.1h0.2v1h-0.2c0-0.6-0.5-0.9-1-0.9s-0.8,0.2-0.8,0.6c0,0.5,0.3,0.7,1.1,0.9
			c0.8,0.2,1.3,0.6,1.3,1.2c0,0.8-0.6,1.3-1.6,1.3c-0.6,0-0.8-0.3-1.2-0.3c-0.2,0-0.3,0.1-0.3,0.2H191l0.1-1.3h0.2
			c0,0.7,0.6,1.2,1.4,1.2c0.6,0,0.9-0.3,0.9-0.8s-0.4-0.7-1.1-0.9c-0.7-0.2-1.2-0.5-1.2-1.1c0-0.7,0.7-1.2,1.4-1.2
			C193.1,20.7,193.2,20.8,193.5,20.8"/>
		<path class="st0" d="M190.6,19.4c0-0.3,0.2-0.5,0.5-0.5s0.5,0.2,0.5,0.5c0,0.5-0.4,1-1,1.4l-0.1-0.1c0.4-0.2,0.7-0.6,0.9-1
			c-0.1,0.1-0.2,0.1-0.3,0.1C190.8,19.9,190.6,19.7,190.6,19.4"/>
		<path class="st0" d="M189.3,21.9c-0.3,0-0.5-0.1-0.5-0.4c0-0.2,0.1-0.2,0.1-0.3c0-0.2-0.1-0.2-0.3-0.2s-0.5,0.1-0.7,0.7v3
			c0,0,0,0,0.1,0h0.6v0.1h-2.3v-0.1h0.6h0.1V21c0,0,0,0-0.1,0h-0.6v-0.1h1.6l0,0v0.6c0.2-0.5,0.5-0.7,1-0.7s0.9,0.3,0.9,0.7
			C189.8,21.7,189.6,21.9,189.3,21.9"/>
		<path class="st0" d="M236.4,49.4h5.1c4.5,0,11.2,2,11.2,10.2v14.8c0,6.1,3.2,9.9,9,9.9c6,0,5.9-6.3,5.9-10.8v-4.8h-0.4v4.8
			c0,5.1-0.6,9.6-3.5,9.6c-2.6,0-3.2-1.7-3.2-8.7V59.6c0-6.9-5.4-9.4-13.8-10.4c10.4-1.3,14.3-8.1,14.3-15.7c0-11.2-5-16-17.9-16
			h-20.5v0.4h5.4c0.4,0,0.6,0.1,0.6,0.3v63.6c0,0.2-0.2,0.3-0.6,0.3h-5.4v0.4h18.8v-0.4H237c-0.4,0-0.6-0.1-0.6-0.3V49.4z
			 M236.4,17.9h5.5c8.5,0,10.9,6.7,10.9,15.5c0,8.3-2.4,15.5-10.9,15.5h-5.5V17.9z"/>
		<path class="st0" d="M18.1,17.9c8.5,0,12,6.7,12,15.5c0,8.3-3.5,14.9-12,14.9h-3.9V17.9H18.1z M0.5,17.5v0.4h5.4
			c0.4,0,0.6,0.1,0.6,0.3v63.6c0,0.2-0.2,0.3-0.6,0.3H0.5v0.4h20.1c12.9,0,19.8-5.6,19.8-16.8c0-7.8-4.1-15.7-16.9-17.3
			c10.9-1.1,14.7-8.1,14.7-15.1c0-10.1-5.9-16-18.8-16L0.5,17.5z M18.1,48.8c9.6,0,13.4,6.8,13.4,17c0,8.8-3.4,16.4-11.4,16.4h-5.3
			c-0.4,0-0.6-0.1-0.6-0.3v-33L18.1,48.8z"/>
	</g>
</g>
</svg>
