<?xml version="1.0" encoding="utf-8"?>
<!-- Generator: Adobe Illustrator 25.4.8, SVG Export Plug-In . SVG Version: 6.00 Build 0)  -->
<svg version="1.1" id="圖層_1" xmlns="http://www.w3.org/2000/svg" xmlns:xlink="http://www.w3.org/1999/xlink" x="0px" y="0px"
	 viewBox="0 0 268.1 100" style="enable-background:new 0 0 268.1 100;" xml:space="preserve">
<style type="text/css">
	.st0{fill:#FFFFFF;}
</style>
<g>
	<g>
		<path class="st0" d="M12.1,44.9c0-6-0.8-8.2-2.4-8.2C8.4,36.7,7,37.6,7,49.9C7,61.7,7.7,63,9.8,63c2.2,0,2.7-3.3,2.8-8.5l5.6,0.3
			c0,6.3-0.9,13.8-8.6,13.8c-7,0-9.4-6.9-9.4-18.7c0-13.7,4.1-18.7,9.4-18.7c7.6,0,8.5,7,8.5,13.5L12.1,44.9z"/>
		<path class="st0" d="M24.6,53.9c0,7.8,0.9,9.4,2.4,9.4c1.5,0,2.4-1.6,2.4-9.4v-7.6c0-7.8-0.9-9.4-2.4-9.4c-1.5,0-2.4,1.6-2.4,9.4
			V53.9z M27,31.4c5.8,0,9.6,4.5,9.6,18.7c0,14.2-3.8,18.7-9.6,18.7c-5.8,0-9.6-4.5-9.6-18.7C17.4,35.9,21.2,31.4,27,31.4"/>
		<path class="st0" d="M41.8,57.7c0,2,0,5.6,2.8,5.6c2.2,0,2.9-2,2.9-3.5c0-6.4-11.9-7.9-11.9-18.5c0-5.4,2.9-9.8,8.5-9.8
			c5.9,0,8.2,4.5,8.3,11h-5.9c0-2,0-5.4-2.6-5.4c-1.6,0-2.5,1.3-2.5,3.3c0,6.1,11.9,8.2,11.9,18.7c0,5.5-3.1,9.9-9.1,9.9
			c-7,0-8.4-6.2-8.4-11.1H41.8z"/>
	</g>
	<polygon class="st0" points="52.1,31.4 60.9,31.4 63.8,50.5 63.9,50.5 67,31.4 75.5,31.4 75.5,68.8 69.7,68.8 69.7,41.4 69.6,41.4 
		65.1,68.8 61.5,68.8 57.1,41.4 57,41.4 57,68.8 52.1,68.8 	"/>
	<g>
		<path class="st0" d="M220.7,44.9c0-6-0.8-8.2-2.4-8.2c-1.4,0-2.7,0.9-2.7,13.1c0,11.8,0.7,13.1,2.7,13.1c2.2,0,2.7-3.3,2.8-8.5
			l5.6,0.3c0,6.3-0.9,13.8-8.6,13.8c-7,0-9.4-6.9-9.4-18.7c0-13.7,4.1-18.7,9.4-18.7c7.6,0,8.5,7,8.5,13.5L220.7,44.9z"/>
		<path class="st0" d="M233.2,53.9c0,7.8,0.9,9.4,2.4,9.4c1.5,0,2.4-1.6,2.4-9.4v-7.6c0-7.8-0.9-9.4-2.4-9.4c-1.5,0-2.4,1.6-2.4,9.4
			V53.9z M235.6,31.4c5.8,0,9.6,4.5,9.6,18.7c0,14.2-3.8,18.7-9.6,18.7c-5.8,0-9.6-4.5-9.6-18.7C226,35.9,229.8,31.4,235.6,31.4"/>
	</g>
	<polygon class="st0" points="244.6,31.4 253.3,31.4 256.3,50.5 256.4,50.5 259.5,31.4 268,31.4 268,68.8 262.1,68.8 262.1,41.4 
		262,41.4 257.6,68.8 253.9,68.8 249.5,41.4 249.4,41.4 249.4,68.8 244.6,68.8 	"/>
	<g>
		<path class="st0" d="M82.6,53.9c0,7.8,0.9,9.4,2.4,9.4c1.5,0,2.4-1.6,2.4-9.4v-7.6c0-7.8-0.9-9.4-2.4-9.4c-1.5,0-2.4,1.6-2.4,9.4
			V53.9z M85,31.3c5.8,0,9.6,4.5,9.6,18.8c0,14.3-3.8,18.8-9.6,18.8c-5.8,0-9.6-4.5-9.6-18.8C75.4,35.8,79.2,31.3,85,31.3"/>
		<path class="st0" d="M101.1,48.3h0.6c2.7,0,4.1-1.1,4.1-5.6c0-5.4-2-5.6-4.2-5.6h-0.5V48.3z M94.4,31.4h6.6
			c7.4,0,11.3,3.1,11.3,11.2c0,6.7-2.5,11.2-8.7,11.2H101v15h-6.6V31.4z"/>
		<path class="st0" d="M117.7,53.9c0,7.8,0.9,9.4,2.4,9.4c1.5,0,2.4-1.6,2.4-9.4v-7.6c0-7.8-0.9-9.4-2.4-9.4c-1.5,0-2.4,1.6-2.4,9.4
			V53.9z M120.1,31.3c5.8,0,9.6,4.5,9.6,18.8c0,14.3-3.8,18.8-9.6,18.8c-5.8,0-9.6-4.5-9.6-18.8C110.5,35.8,114.3,31.3,120.1,31.3"
			/>
	</g>
	<polygon class="st0" points="129.6,31.4 136.1,31.4 136.1,63 144.5,63 144.5,68.8 129.6,68.8 	"/>
	<rect x="145.6" y="31.4" class="st0" width="6.6" height="37.4"/>
	<polygon class="st0" points="158.8,37.2 153.2,37.2 153.2,31.4 171.1,31.4 171.1,37.2 165.4,37.2 165.4,68.8 158.8,68.8 	"/>
	<path class="st0" d="M176.5,37.2h-0.1L174.3,55h4.1L176.5,37.2z M172.3,31.4h9.5l4.5,37.4h-6.3l-1-8.3h-5.3l-0.9,8.3h-5.5
		L172.3,31.4z"/>
	<polygon class="st0" points="185.7,31.4 192.1,31.4 198.1,51.1 198.2,51.1 198.2,31.4 203.5,31.4 203.5,68.8 198.4,68.8 
		191.4,46.1 191.2,46.1 191.2,68.8 185.7,68.8 	"/>
	<rect x="72.9" y="44.2" class="st0" width="5.5" height="11.8"/>
	<rect x="91.6" y="44.2" class="st0" width="5.5" height="11.8"/>
	<rect x="126.6" y="44.2" class="st0" width="5.5" height="11.8"/>
	<rect x="204.7" y="62" class="st0" width="6.5" height="6.8"/>
</g>
</svg>
