<?xml version="1.0" encoding="utf-8"?>
<!-- Generator: Adobe Illustrator 25.4.8, SVG Export Plug-In . SVG Version: 6.00 Build 0)  -->
<svg version="1.1" id="圖層_1" xmlns="http://www.w3.org/2000/svg" xmlns:xlink="http://www.w3.org/1999/xlink" x="0px" y="0px"
	 viewBox="0 0 101.3 100" style="enable-background:new 0 0 101.3 100;" xml:space="preserve">
<style type="text/css">
	.st0{fill:#FFFFFF;}
</style>
<g>
	<path class="st0" d="M64.7,22.4H72c0-10.7-1.1-13.2-5.7-13.2c-4.3,0-6.7,2.3-6.7,14.2c0,10.6,1.5,13.9,6.6,13.9l0.1,0
		c2.1,0,3.3-0.3,4.1-1.1c1.1-1.1,1.5-3.3,1.4-7.7h-1.7c0,5.9-0.3,6.5-2.6,6.5c-1.3,0-2.1-0.3-2.4-1.7c-0.3-1.4-0.3-3.9-0.3-8.5
		L64.7,22.4z M64.7,20.7l0-0.1c0.1-8.7,0.2-9.3,1.6-9.3c0.6,0,0.9,0.2,1.1,1.2c0.1,1,0.1,2.8,0.1,6.3l0,1.9H64.7z"/>
	<path class="st0" d="M97.3,21.3c-1.6-2.6-3.2-5-3.2-7.6c0-1.7,0.6-2.4,2-2.4c1.9,0,2.2,0.9,2.5,3.5l0.3,2.5h1.8V9.5h-1.4
		c0,0.5-0.2,1.3-0.5,1.3c-0.1,0-0.1,0-0.1-0.1c-0.3-0.3-1.4-1.5-3.6-1.5c-2.5,0-5.5,1-5.5,5.7c0,3.7,2,6.8,3.9,9.9
		c1.7,2.6,3.2,5.1,3.2,7.6c0,2.4-0.6,2.8-2.3,2.8c-1.8,0-2.2-1-2.5-4.3l-0.2-2.2h-1.9V37h1.6c0.1-0.7,0.4-1.3,0.7-1.3
		c0.1,0,0.1,0,0.2,0.1l0.1,0.1c0.6,0.7,1.3,1.5,3.9,1.5c3.2,0,5.1-2,5.1-5.5C101.3,27.6,99.2,24.2,97.3,21.3"/>
	<path class="st0" d="M28.1,9.2c-5.7,0-6.7,4.5-6.7,14s1,14,6.7,14c5.7,0,6.7-4.5,6.7-14S33.8,9.2,28.1,9.2 M28.1,35.2
		c-1.4,0-1.4-0.7-1.4-11.9c0-11.3,0-12,1.4-12c1.4,0,1.4,0.7,1.4,12C29.5,34.5,29.5,35.2,28.1,35.2"/>
	<path class="st0" d="M87.4,34.3V13.8c0-3.5-0.9-4.5-4-4.5c-2.2,0-3.3,0.7-4,2.6l-0.3,0.7V9.2l-6.7,0.5v1.6H73
		c0.6,0,0.9,0.5,0.9,1.5v21.3c0,0.8-0.1,1.2-0.9,1.2h-0.2V37h6.9v-1.6h-0.2c-0.6,0-0.6-0.3-0.6-0.8V15.6c0-2.3,0-3.2,1.6-3.2
		c1.2,0,1.2,0.5,1.2,2.4v19.6c0,0.6-0.2,1-0.7,1H81V37h7.3v-1.6h-0.2C87.5,35.4,87.4,35,87.4,34.3"/>
	<path class="st0" d="M57.9,34.3V13.8c0-3.2-0.5-4.5-3.9-4.5c-2.1,0-3.3,0.8-4.1,2.6l-0.2,0.4l-0.1-0.4c-0.4-1.9-1.4-2.6-3.8-2.6
		c-2.1,0-3.2,0.7-4,2.6l-0.3,0.6V9.2l-6.2,0.5v1.6h0.2c0.6,0,0.9,0.5,0.9,1.5v21.3c0,0.8-0.1,1.2-0.9,1.2h-0.2V37h6.9v-1.6h-0.2
		c-0.5,0-0.6-0.3-0.6-0.8V15.4c0-1.1,0-1.8,0.2-2.3c0.2-0.5,0.6-0.7,1.4-0.7c1.1,0,1.1,0.5,1.1,2.4v19.6c0,0.7-0.2,1-0.7,1h-0.2V37
		h7.1v-1.6c-0.6,0-0.8-0.3-0.8-1.1V15.6c0-2.3,0-3.2,1.6-3.2c1.1,0,1.1,0.5,1.1,2.4v19.6c0,0.7-0.2,1-0.7,1h-0.1V37h7.3v-1.6h-0.2
		C58,35.4,57.9,35,57.9,34.3"/>
	<path class="st0" d="M22.7,2.2h0.2V0.6h-5.1v1.6H18c0.3,0,0.6,0.1,0.8,0.3c0.3,0.3,0.4,0.9,0.4,1.8l-2,20.9L14.8,4.3
		c-0.1-0.9,0-1.5,0.2-1.8c0.2-0.2,0.5-0.3,0.9-0.3V0.6H8.7v1.6h0.2c0.8,0,0.8,0.4,1,1.9l0,0.2l0.6,5L8.6,26.5L6.5,4.3
		c-0.1-1-0.1-1.5,0.2-1.8c0.2-0.2,0.5-0.3,0.8-0.3V0.6H0.1v1.6h0.2c0.9,0,1,0.4,1.2,2.1L4.9,37h4.6l2-17.9L13.6,37h4.6l3.3-32.7
		C21.7,2.7,22,2.2,22.7,2.2"/>
	<path class="st0" d="M92.8,2.1c-0.6-0.9-1.6-1.5-2.5-1.5c-0.5,0-1,0.2-1.4,0.5c-0.7,0.6-1,1.3-0.9,2.1c0.2,1.1,1.2,2.2,2.7,2.9
		l0.2,0.1l-0.1,0.1c-0.4,0.5-1.2,1.3-2.1,2.2c-0.3,0.3-0.5,0.5-0.8,0.7l1,1C93.2,7.1,94.4,4.6,92.8,2.1"/>
	<path class="st0" d="M31.8,63c0-10.5-1.3-13.2-6-13.2c-4.2,0-6.7,2.3-6.7,14.2c0,10.6,1.5,13.9,6.6,13.9l0.1,0
		c2.1,0,3.3-0.3,4.1-1.1c1.1-1.1,1.4-3.2,1.3-7.7h-1.7c0,5.8-0.2,6.5-2.5,6.5c-2.7,0-2.7-1.1-2.7-11.7v-1H31.8z M24.3,61.3l0-0.1
		c0.1-8.8,0.2-9.3,1.6-9.3c0.3,0,0.5,0,0.7,0.2c0.4,0.4,0.4,1.6,0.4,6c0,0.9,0,1.9,0,3v0.1H24.3z"/>
	<path class="st0" d="M62.5,43.1h-1.7c-1.3,6-2.5,7-4.5,7H56v1.8h1.3v20.1c0,4.5,0.7,6,4.9,6c2.9,0,3.7-1,3.7-4.5v-4.5h-1.6v4.7
		c0,1.6-0.1,2-0.9,2c-0.8,0-0.9-0.4-0.9-1.8V51.9h3.4v-1.8h-3.4V43.1z"/>
	<path class="st0" d="M45.8,75.4c-0.6,0-0.6-0.3-0.6-1.9V55.3c0-4-1.5-5.5-5.4-5.5c-1.8,0-4.2,0.3-5.5,1.7c-0.7,0.7-1,1.7-1,2.9
		c0.1,1,0.4,3.2,2.3,3.2c0,0,0.1,0,0.1,0c1.5-0.1,2.3-0.8,2.3-2.2c0-0.9-0.7-2.4-1.8-3.2L36,52.1l0.2-0.1c0.6-0.3,1.3-0.4,2.2-0.4
		c1.5,0,1.6,1.3,1.6,2.8v5.2l-0.1,0c-6.1,2.1-7.4,2.8-7.4,10.6c0,5.3,1.2,7.6,4,7.6c2.5,0,3.4-1.3,3.8-2.6l0.2-0.4l0.1,0.4
		c0.4,2,0.9,2.6,3.7,2.6c1.2,0,2-0.3,2.5-0.8c0.8-0.9,1-2.5,1-4.7h-1.3C46.5,75,46.4,75.4,45.8,75.4 M40,72.6c0,1.6-0.2,2.3-1.3,2.3
		c-1.3,0-1.3-1.3-1.3-5c0-6.8,0-7.7,2.3-9l0.2-0.1V72.6z"/>
	<path class="st0" d="M81.8,76c-0.6,0-0.7-0.3-0.7-1.1V54.4c0-3.5-0.9-4.5-4-4.5c-2.2,0-3.3,0.7-4.1,2.6l-0.2,0.6V40.6l-6.6,0.5v1.6
		h0.6c0.6,0,0.9,0.4,0.9,1.4v30.5c0,0.8-0.1,1.2-0.9,1.2h-0.1v1.6h6.9V76h-0.1c-0.6,0-0.6-0.3-0.6-0.8V56.2c0-2.2,0-3.2,1.6-3.2
		c1.2,0,1.2,0.5,1.2,2.4V75c0,0.7-0.2,1-0.6,1h-0.2v1.6H82V76H81.8z"/>
	<path class="st0" d="M54.4,74.9V40.6l-6.7,0.5v1.6h0.7c0.6,0,0.8,0.3,0.8,1.1V75c0,0.7,0,1-0.5,1h-0.2v1.6h7.2V76h-0.4
		C54.5,76,54.4,75.5,54.4,74.9"/>
	<path class="st0" d="M17.5,73.9v-29c0-1.6,0.1-2.1,1.1-2.1h0.6v-1.6h-8.7v1.6h0.6c0.9,0,1.1,0.4,1.1,2.1v12.8h-5V44.9
		c0-1.7,0.2-2.1,1.2-2.1h0.5v-1.6H0v1.6h0.7c0.9,0,1.1,0.4,1.1,2.1v29.9c0,0.9-0.3,1.2-1.1,1.2H0v1.6h8.8V76H8.3
		c-0.9,0-1.2-0.5-1.2-2.1V59.6h5v14.3c0,1.6-0.2,2.1-1.1,2.1h-0.6v1.6h8.7V76h-0.6C17.7,76,17.5,75.5,17.5,73.9"/>
	<polygon class="st0" points="4.2,99.4 4.2,86.7 0.1,86.7 0.1,84.4 10.9,84.4 10.9,86.7 6.9,86.7 6.9,99.4 	"/>
	<path class="st0" d="M20.3,95.7h-4.8l-1.1,3.7h-2.6l4.5-15h3.2l4.5,15h-2.7L20.3,95.7z M16.1,93.6h3.6l-1.8-6.3h0L16.1,93.6z"/>
	<rect x="25.9" y="84.4" class="st0" width="2.7" height="15"/>
	<polygon class="st0" points="39.7,84.4 41.8,95.3 41.9,95.3 44,84.4 46.6,84.4 43.4,99.4 40.7,99.4 38.5,88.8 38.4,88.8 36.3,99.4 
		33.6,99.4 30.4,84.4 33,84.4 35.1,95.3 35.2,95.3 37.3,84.4 	"/>
	<path class="st0" d="M55.8,95.7H51L50,99.4h-2.6l4.5-15H55l4.5,15h-2.7L55.8,95.7z M51.6,93.6h3.6l-1.8-6.3h0L51.6,93.6z"/>
	<polygon class="st0" points="69.5,84.4 72.1,84.4 72.1,99.4 69.7,99.4 64,89.1 63.9,89.1 63.9,99.4 61.4,99.4 61.4,84.4 64,84.4 
		69.5,94.4 69.5,94.4 	"/>
</g>
</svg>
