<?xml version="1.0" encoding="utf-8"?>
<!-- Generator: Adobe Illustrator 25.4.8, SVG Export Plug-In . SVG Version: 6.00 Build 0)  -->
<svg version="1.1" id="圖層_1" xmlns="http://www.w3.org/2000/svg" xmlns:xlink="http://www.w3.org/1999/xlink" x="0px" y="0px"
	 viewBox="0 0 124.5 100" style="enable-background:new 0 0 124.5 100;" xml:space="preserve">
<style type="text/css">
	.st0{fill:#FFFFFF;}
</style>
<g>
	<path class="st0" d="M46.1,61.8V93c0,1.2-0.3,2-0.6,2.4c-0.3,0.4-0.8,0.7-1.7,0.7c-0.1,0-0.1,0-0.2,0c-0.8,0-1.2-0.2-1.5-0.6
		c-0.4-0.4-0.6-1.2-0.6-2.5c0-2.5,0-5,0-7.6c0-2.5,0-5.1,0-7.6c0-2.5,0-5,0-7.6c0-2.5,0-5.1,0-7.6v-0.9H38V94c0,0.7,0.1,1.4,0.3,2.1
		c0.2,0.7,0.6,1.3,1.1,2c0.5,0.6,1,1.1,1.6,1.4c0.6,0.3,1.2,0.5,1.9,0.5c0.3,0,0.5,0,0.6,0c0.1,0,0.1,0,0.1,0c0,0,0,0,0,0
		c0.3,0,0.5,0,0.8,0c0,0,0,0,0,0c0.7,0,1.3-0.2,1.9-0.5c0.6-0.3,1.1-0.8,1.6-1.4c0.5-0.6,0.9-1.2,1.1-1.9c0.3-0.7,0.4-1.4,0.4-2.1
		c0-2.7,0-5.3,0-8c0-2.6,0-5.2,0-7.6c0-2.5,0-5.1,0-7.7c0-2.6,0-5.3,0-8v-0.9H46.1z"/>
	<path class="st0" d="M97.6,65.6c-0.3-0.7-0.6-1.3-1.1-1.9c-0.5-0.6-1-1.1-1.7-1.5c-0.6-0.3-1.3-0.5-2-0.5c-0.2,0-0.4,0-0.5,0
		c-0.1,0-0.2,0-0.3,0c-0.1,0-0.2,0-0.3,0c-0.1,0-0.3,0-0.5,0c-0.7,0-1.4,0.2-2,0.5c-0.6,0.3-1.2,0.9-1.7,1.5
		c-0.5,0.6-0.9,1.2-1.1,1.9c-0.2,0.7-0.4,1.4-0.4,2.1c0,2,0,4,0,6.2c0,2.2,0,4.5,0,6.9c0,2.4,0,4.7,0,6.9c0,2.2,0,4.3,0,6.2
		c0,0.7,0.1,1.4,0.4,2.1c0.2,0.7,0.6,1.3,1,1.9c0.5,0.6,0.9,1.1,1.4,1.4c0.4,0.3,0.9,0.5,1.5,0.5c0.2,0,0.5,0,0.7,0
		c0.2,0,0.4,0,0.6,0c0.2,0,0.5,0,0.6,0c0.2,0,0.4,0,0.6,0c0,0,0,0,0,0c0.7,0,1.4-0.2,2-0.5c0.6-0.3,1.2-0.8,1.7-1.4
		c0.5-0.6,0.9-1.2,1.1-1.9c0.3-0.7,0.4-1.4,0.4-2.1c0-0.8,0-1.7,0-2.6c0-1,0-2,0-3.2c0-1.2,0-2.4,0-3.6c0-1.2,0-2.5,0-3.7
		c0-1.2,0-2.5,0-3.7c0-1.2,0-2.4,0-3.6c0-1.2,0-2.3,0-3.2c0-1,0-1.8,0-2.6C98,67,97.9,66.3,97.6,65.6z M89.6,86.9c0-2,0-4.1,0-6.1
		c0-2,0-4.1,0-6.1c0-2,0-4.1,0-6.1c0-1.2,0.3-2.1,0.6-2.5c0.4-0.4,0.9-0.7,1.8-0.7c0.9,0,1.4,0.2,1.8,0.7c0.4,0.4,0.6,1.3,0.6,2.5
		c0,0.7,0,1.5,0,2.4c0,0.9,0,1.9,0,3c0,1.1,0,2.2,0,3.4c0,1.2,0,2.3,0,3.6c0,1.2,0,2.3,0,3.5c0,1.1,0,2.3,0,3.4c0,1.1,0,2.1,0,3
		c0,0.9,0,1.6,0,2.3c0,1.2-0.3,2-0.6,2.5c-0.4,0.4-0.9,0.7-1.8,0.7c-0.1,0-0.1,0-0.2,0c-0.8,0-1.3-0.2-1.6-0.6
		c-0.4-0.4-0.6-1.3-0.6-2.5C89.6,91,89.6,89,89.6,86.9z M89.3,98.7L89.3,98.7L89.3,98.7L89.3,98.7z"/>
	<path class="st0" d="M10.1,65.1c-0.1-0.8-0.4-1.6-0.7-2.4c-0.3-0.8-0.6-1.5-1-2c-0.3-0.6-0.7-1-1.1-1.3c0.4-0.8,0.7-1.7,0.9-2.7
		c0.2-1,0.3-2,0.3-3.1c0-1.2,0-2.1,0-2.7c0,0,0,0,0,0c0,0,0,0,0,0c0,0,0-0.1,0-0.1c0-0.1,0-0.3,0-0.4c0-0.2,0-0.4,0-0.6
		c0-0.9,0-1.8,0-2.7c0-1.1-0.1-2.1-0.3-3.1c-0.2-1-0.5-1.9-1-2.8c-0.5-0.9-0.9-1.6-1.4-2c-0.5-0.5-1-0.7-1.6-0.7L0,38.2
		c0,1.6,0,2.9,0,4.1c0,1.2,0,2.2,0,3c0,0.8,0,1.5,0,2.2c0,0.7,0,1.4,0,2c0,0.6,0,1.2,0,1.8c0,0.6,0,1.2,0,1.9c0,0.6,0,1.4,0,2.3
		c0,0.9,0,2,0,3.2c0,3.4,0,6.9,0,10.3c0,3.4,0,6.9,0,10.3c0,3.4,0,6.9,0,10.3c0,3.4,0,6.8,0,10.2c0,0,0,0,0,0c0.4,0,0.9,0,1.4,0
		c0.5,0,1,0,1.6,0c0.3,0,0.7,0,1,0c0.2,0,0.4,0,0.6,0c0.5,0,1,0,1.4,0c0.5,0,1.1-0.2,1.6-0.6c0.5-0.4,1-1.1,1.4-2
		c0.5-0.9,0.8-1.9,1-2.9c0.2-1,0.3-2,0.3-3.1c0-2.6,0-4.9,0-6.9c0-2,0-3.7,0-5.1c0-1.4,0-3.1,0-5.1c0-2,0-4.3,0-6.9
		C10.3,66.7,10.3,65.8,10.1,65.1z M6,43.3c0.6,1.1,0.8,2.9,0.8,5.2c0,0.2,0,0.3,0,0.5c0,0,0,0,0,0c0,0.1,0,0.2,0,0.5
		c0,0,0,0.1,0,0.1c0,0.2,0,0.5,0,0.8c0,0.2,0,0.4,0,0.6c0,0.1,0,0.1,0,0.2c0,0.1,0,0.3,0,0.5c0,0,0,0,0,0c0,0.1,0,0.2,0,0.3
		c0,2.3-0.3,4-0.8,5.2c-0.5,1-1.2,1.5-2.1,1.7V41.7C4.9,41.8,5.6,42.4,6,43.3z M8.6,75.1c0,1.8,0,3.2,0,4.4c0,1.2,0,2.7,0,4.4
		c0,1.7,0,3.7,0,5.8c0,2.2-0.3,3.9-0.9,5.1c-0.6,1.1-1.4,1.7-2.6,1.7c-0.3,0-0.6,0-0.8,0c-0.1,0-0.2,0-0.3,0V62.3h1.2
		c1.2,0,2,0.6,2.6,1.7c0.6,1.1,0.9,2.9,0.9,5.2C8.6,71.4,8.6,73.4,8.6,75.1z"/>
	<polygon class="st0" points="23.3,63.9 23.3,61.8 17,61.8 17,61.8 13.1,61.8 13.1,100 17,100 17,100 23.3,100 23.3,97.9 17,97.9 
		17,76.7 20,76.7 20,74.5 17,74.5 17,63.9 	"/>
	<path class="st0" d="M59.1,61.8c-0.7,0-1.4,0-2,0c-0.7,0-1.4,0-2,0c-0.3,0-0.7,0-1,0c-0.3,0-0.7,0-1,0c-0.3,0-0.7,0-1,0
		c-0.3,0-0.7,0-1,0v2.1h2.1V100H57V63.9h2.1V61.8z"/>
	<path class="st0" d="M110.4,65.2c-0.2-0.6-0.6-1.2-1-1.8c-0.4-0.6-0.9-1-1.4-1.3c-0.5-0.3-1-0.4-1.5-0.4h-5.8c0,1,0,2.3,0,3.7
		c0,1.4,0,3,0,4.7c0,1.7,0,3.5,0,5.3c0,1.8,0,3.6,0,5.5c0,1.9,0,3.7,0,5.5c0,1.8,0,3.6,0,5.3c0,1.7,0,3.3,0,4.7c0,1.4,0,2.6,0,3.7
		c0.4,0,0.9,0,1.3,0c0.5,0,1,0,1.6,0c0.6,0,1.1,0,1.6,0c0.5,0,0.9,0,1.4,0c0.5,0,1-0.1,1.5-0.4c0.5-0.3,1-0.7,1.4-1.2
		c0.4-0.6,0.8-1.1,1-1.8c0.2-0.6,0.3-1.3,0.3-1.9c0-0.8,0-1.7,0-2.7c0-1,0-2.1,0-3.4c0-1.2,0-2.5,0-3.8c0-1.3,0-2.6,0-3.9
		c0-1.3,0-2.6,0-3.9c0-1.3,0-2.5,0-3.8c0-1.2,0-2.4,0-3.4c0-1,0-1.9,0-2.7C110.8,66.5,110.7,65.8,110.4,65.2z M109.1,70.6
		c0,0.9,0,2,0,3.1c0,1.2,0,2.3,0,3.6c0,1.2,0,2.5,0,3.7c0,1.2,0,2.4,0,3.6c0,1.2,0,2.4,0,3.5c0,1.2,0,2.2,0,3.1c0,0.9,0,1.7,0,2.4
		c0,1.4-0.3,2.4-0.8,3.1c-0.6,0.7-1.4,1.1-2.5,1.1c-0.3,0-0.5,0-0.8,0c-0.1,0-0.2,0-0.2,0v-34h1.1c1.1,0,2,0.4,2.5,1.1
		c0.6,0.7,0.8,1.8,0.8,3.2C109.1,68.8,109.1,69.6,109.1,70.6z"/>
	<polygon class="st0" points="124.5,63.8 124.5,61.7 116.1,61.7 114.4,61.7 114.4,61.7 113.9,61.7 113.9,100 117.8,100 117.8,100 
		124.5,100 124.5,97.8 117.8,97.8 117.8,76.6 121.1,76.6 121.1,74.5 117.8,74.5 117.8,63.8 	"/>
	<polygon class="st0" points="82.9,38.2 81.2,38.2 76,52.7 73.1,44.6 73.1,44.6 73.1,44.6 70.8,38.2 69.1,38.2 69.1,99.9 70.8,99.9 
		70.8,99.9 73.1,99.9 73.1,50.7 76,58.8 79,50.7 79,100 82.9,100 82.9,99.9 82.9,99.9 	"/>
	<g>
		<g>
			<path class="st0" d="M61,100h4.2V7.8H61V100z M63.1,5.9c1.6,0,2.9-1.3,2.9-2.9C66,1.3,64.7,0,63.1,0c-1.6,0-2.9,1.3-2.9,2.9
				C60.1,4.6,61.4,5.9,63.1,5.9z"/>
		</g>
	</g>
	<path class="st0" d="M30.9,61.7l-5.8,7.1V100l3.5-0.1V78h4.6v21.9l3.5,0V68.7L30.9,61.7z M33.1,76h-4.6v-6l2.3-2.8l2.3,2.8V76z"/>
</g>
</svg>
