<?xml version="1.0" encoding="utf-8"?>
<!-- Generator: Adobe Illustrator 25.4.8, SVG Export Plug-In . SVG Version: 6.00 Build 0)  -->
<svg version="1.1" id="圖層_1" xmlns="http://www.w3.org/2000/svg" xmlns:xlink="http://www.w3.org/1999/xlink" x="0px" y="0px"
	 viewBox="0 0 268.1 124" style="enable-background:new 0 0 268.1 124;" xml:space="preserve">
<style type="text/css">
	.st0{fill:#FFFFFF;}
</style>
<g>
	<g>
		<g>
			<g>
				<g>
					<g>
						<g>
							<g>
								<path class="st0" d="M109.2,63c-1.2-2.9-2.9-5.4-5.1-7.5s-4.8-3.7-7.9-4.8S89.7,49,85.9,49h-0.1c-3.8,0-7.3,0.6-10.3,1.7
									c-3.1,1.1-5.7,2.7-7.9,4.8c-2.2,2.1-3.9,4.6-5.1,7.5c-1.2,2.9-1.8,6.2-1.8,9.7v3.9c0,3.5,0.6,6.8,1.8,9.7
									c1.2,2.9,2.9,5.4,5.1,7.5s4.8,3.7,7.9,4.8c3.1,1.1,6.5,1.7,10.3,1.7h0.1c3.8,0,7.2-0.6,10.3-1.7c3.1-1.1,5.7-2.7,7.9-4.8
									c2.2-2.1,3.9-4.6,5.1-7.5s1.8-6.2,1.8-9.7v-3.9C111,69.1,110.4,65.9,109.2,63z M98.5,76.6c0,3.5-1.2,6.5-3.6,8.9
									s-5.4,3.6-8.9,3.6h-0.1c-3.5,0-6.5-1.2-8.9-3.6s-3.6-5.4-3.6-8.9v-3.9c0-3.5,1.2-6.5,3.6-8.9c2.4-2.4,5.4-3.6,8.9-3.6H86
									c3.5,0,6.5,1.2,8.9,3.6s3.6,5.4,3.6,8.9V76.6z"/>
							</g>
							<path class="st0" d="M23.2,49.3h-5.7c-0.9,0-1.4-0.5-1.4-1.4V35.5c0-0.9,0.5-1.4,1.4-1.4h23.9c0.9,0,1.4-0.5,1.4-1.4v-8.4
								c0-0.9-0.5-1.4-1.4-1.4H5c-0.9,0-1.4,0.5-1.4,1.4v33.8c0,0.9,0.5,1.4,1.4,1.4h18.2c3.4,0,6.4,1.2,8.8,3.6
								c2.5,2.4,3.7,5.4,3.7,8.9v4.4c0,3.5-1.2,6.5-3.7,8.9s-5.4,3.6-8.8,3.6h-0.1c-1.6,0-2.9-0.2-4-0.6s-2.1-1-2.9-1.7
								c-0.8-0.7-1.6-1.6-2.3-2.5s-1.5-1.9-2.3-3.1c-0.5-0.6-0.9-1-1.3-1c-0.1,0-0.3,0.1-0.7,0.3l-8.8,4.5c-0.6,0.3-0.8,0.6-0.8,1
								c0,1.1,0.6,2.6,1.9,4.4s3.3,3.8,6,5.9c1.6,1.2,3.7,2.2,6.3,2.9c2.6,0.7,5.6,1.1,8.9,1.1h0.1c7.8,0,13.9-2.2,18.4-6.7
								s6.7-10.5,6.7-18.1v-2.6c0-7.6-2.2-13.6-6.7-18.1C37.1,50.3,31,49.3,23.2,49.3z"/>
						</g>
						<g>
							<path class="st0" d="M166.9,55.5c-2.2-2.1-4.8-3.7-7.9-4.8c-3.1-1.1-6.5-1.7-10.3-1.7h-0.1c-3.8,0-7.3,0.6-10.3,1.7
								c-3.1,1.1-5.7,2.7-7.9,4.8s-3.9,4.6-5.1,7.5s-1.8,6.2-1.8,9.7v3.9c0,3.5,0.6,6.8,1.8,9.7c1.2,2.9,2.9,5.4,5.1,7.5
								s4.8,3.7,7.9,4.8c3.1,1.1,6.5,1.7,10.3,1.7h0.1c3.8,0,7.3-0.6,10.3-1.7c3.1-1.1,5.7-2.7,7.9-4.8c2.2-2.1,3.9-4.6,5.1-7.5
								c1.2-2.9,1.8-6.2,1.8-9.7v-3.9c0-3.5-0.6-6.8-1.8-9.7C170.8,60,169.1,57.5,166.9,55.5z M161.3,76.6c0,3.5-1.2,6.5-3.6,8.9
								c-2.4,2.4-5.4,3.6-8.9,3.6h-0.1c-3.5,0-6.5-1.2-8.9-3.6s-3.6-5.4-3.6-8.9v-3.9c0-3.5,1.2-6.5,3.6-8.9
								c2.4-2.4,5.4-3.6,8.9-3.6h0.1c3.5,0,6.5,1.2,8.9,3.6s3.6,5.4,3.6,8.9V76.6z"/>
						</g>
					</g>
				</g>
			</g>
			<g>
				<g>
					<path class="st0" d="M266.8,91l-4.8,0.3c-0.6,0-1,0.5-1,1.1v8c0,0.7-0.6,1.3-1.3,1.3h-6.8c-0.7,0-1.3-0.6-1.3-1.3v-6.7
						c0-0.8-0.7-1.4-1.4-1.3c-9.8,0.8-16.6,1.6-24.1,2.3c-0.7,0.1-1.3-0.4-1.4-1.1l-0.7-4.2c-0.1-0.6-0.6-1.1-1.3-1.1h-9.8
						c-0.7,0-1.3,0.6-1.3,1.3v11.2c0,0.7-0.6,1.3-1.3,1.3h-6.4c-0.7,0-1.3-0.6-1.3-1.3V89.5c0-0.7-0.6-1.3-1.3-1.3h-11.6
						c-0.7,0-1.3-0.6-1.3-1.3v-6.3c0-0.7,0.6-1.3,1.3-1.3h11.6c0.7,0,1.3-0.6,1.3-1.3v-2.4c0-0.7-0.6-1.3-1.3-1.3h-7.9
						c-0.7,0-1.3-0.6-1.3-1.3V44.5c0-0.7,0.6-1.3,1.3-1.3h8.8c0.2,0,0.4-0.2,0.4-0.4v-3.7c0-0.2-0.2-0.4-0.4-0.4h-11.6
						c-0.7,0-1.3-0.6-1.3-1.3v-6.1c0-0.7,0.6-1.3,1.3-1.3h10.8c0.7,0,1.3-0.6,1.3-1.3v-5.6c0-0.7,0.6-1.3,1.3-1.3h6.5
						c0.7,0,1.3,0.6,1.3,1.3v5.6c0,0.7,0.6,1.3,1.3,1.3h10.4c0.7,0,1.3,0.6,1.3,1.3v6.1c0,0.7-0.6,1.3-1.3,1.3h-11.3
						c-0.2,0-0.4,0.2-0.4,0.4v3.7c0,0.2,0.2,0.4,0.4,0.4h9.5c0.7,0,1.3,0.6,1.3,1.3V73c0,0.7-0.6,1.3-1.3,1.3H213
						c-0.7,0-1.3,0.6-1.3,1.3V78c0,0.7,0.6,1.3,1.3,1.3h11.6c0.7,0,1.3,0.6,1.3,1.3v3.8c0,0.7,0.6,1.3,1.3,1.2l5.1-0.2
						c0.7,0,1.3-0.6,1.3-1.3V56.7c0-0.7-0.6-1.3-1.3-1.3h-3.7c-0.7,0-1.3-0.6-1.3-1.3v-5.5c0-0.7,0.6-1.3,1.3-1.3h38.3
						c0.7,0,1.3,0.6,1.3,1.3v5.5c0,0.7-0.6,1.2-1.2,1.2h-4.7c-0.6,0-1.1,0.5-1.1,1.1v25.1c0,0.7,0.6,1.2,1.3,1.2l4.4-0.2
						c0.9,0,1.6,0.6,1.6,1.5v5.5C268.1,90.3,267.5,90.9,266.8,91z M200.7,55.4h1.5c0.7,0,1.3-0.6,1.3-1.3v-2.4
						c0-0.7-0.6-1.3-1.3-1.3h-1.5c-0.7,0-1.3,0.6-1.3,1.3v2.4C199.4,54.8,200,55.4,200.7,55.4z M200.7,67.1h1.5
						c0.7,0,1.3-0.6,1.3-1.3v-2.4c0-0.7-0.6-1.3-1.3-1.3h-1.5c-0.7,0-1.3,0.6-1.3,1.3v2.4C199.4,66.5,200,67.1,200.7,67.1z
						 M213.8,50.3h-2c-0.7,0-1.3,0.6-1.3,1.3V54c0,0.7,0.6,1.3,1.3,1.3h2c0.7,0,1.3-0.6,1.3-1.3v-2.4
						C215.1,50.9,214.5,50.3,213.8,50.3z M213.8,62.1h-2c-0.7,0-1.3,0.6-1.3,1.3v2.4c0,0.7,0.6,1.3,1.3,1.3h2c0.7,0,1.3-0.6,1.3-1.3
						v-2.4C215.1,62.6,214.5,62.1,213.8,62.1z M259.9,44.1h-24c-0.7,0-1.3-0.6-1.3-1.3V25.5c0-0.7,0.6-1.3,1.3-1.3h24
						c0.7,0,1.3,0.6,1.3,1.3v17.3C261.2,43.5,260.6,44.1,259.9,44.1z M251,31.4h-6.4c-0.7,0-1.3,0.6-1.3,1.3v2.9
						c0,0.7,0.6,1.3,1.3,1.3h6.4c0.7,0,1.3-0.6,1.3-1.3v-2.9C252.3,32,251.7,31.4,251,31.4z M243.4,55.4c-0.2,0-0.4,0.2-0.4,0.4v3.7
						c0,0.2,0.2,0.4,0.4,0.4h7.7c0.2,0,0.4-0.2,0.4-0.4v-3.7c0-0.2-0.2-0.4-0.4-0.4H243.4z M242.9,71.3c0,0.2,0.2,0.4,0.4,0.4h7.7
						c0.2,0,0.4-0.2,0.4-0.4v-3.9c0-0.2-0.2-0.4-0.4-0.4h-7.7c-0.2,0-0.4,0.2-0.4,0.4V71.3z M242.9,83.2c0,0.8,0.6,1.4,1.4,1.3
						c4.2-0.3,6.8-0.8,6.8-0.8c0.2,0,0.4-0.3,0.4-0.5v-3.9c0-0.2-0.2-0.4-0.4-0.4h-6.9c-0.7,0-1.3,0.6-1.3,1.3V83.2z"/>
				</g>
			</g>
		</g>
	</g>
	<g>
		<path class="st0" d="M73.2,25.7h-3.1v1.2c0.2-0.1,0.4-0.1,0.7-0.1c0.4,0,0.8,0.1,1.1,0.2c0.3,0.1,0.6,0.3,0.9,0.5
			c0.2,0.2,0.4,0.5,0.6,0.8c0.1,0.3,0.2,0.7,0.2,1.1s-0.1,0.8-0.2,1.2c-0.2,0.3-0.4,0.6-0.6,0.9c-0.3,0.2-0.6,0.4-0.9,0.5
			c-0.4,0.1-0.8,0.2-1.2,0.2c-0.7,0-1.2-0.2-1.7-0.5s-0.8-0.8-0.9-1.5l1.7-0.4c0,0.3,0.2,0.5,0.4,0.7c0.2,0.2,0.4,0.3,0.7,0.3
			c0.4,0,0.6-0.1,0.8-0.3c0.2-0.2,0.3-0.5,0.3-0.8s-0.1-0.5-0.2-0.6c-0.1-0.2-0.2-0.3-0.4-0.4c-0.2-0.1-0.4-0.2-0.6-0.2
			s-0.4-0.1-0.6-0.1c-0.3,0-0.5,0-0.8,0.1s-0.5,0.1-0.8,0.2l0.1-4.3h4.7v1.3H73.2z"/>
		<path class="st0" d="M75,28.1c0-0.5,0-0.9,0.1-1.4s0.2-0.9,0.5-1.3c0.2-0.4,0.5-0.7,0.9-1c0.4-0.2,0.9-0.4,1.4-0.4
			c0.6,0,1.1,0.1,1.4,0.4c0.4,0.2,0.7,0.6,0.9,1c0.2,0.4,0.4,0.8,0.5,1.3s0.1,1,0.1,1.4s0,0.9-0.1,1.4s-0.2,0.9-0.5,1.3
			c-0.2,0.4-0.5,0.7-0.9,1c-0.4,0.2-0.9,0.4-1.4,0.4c-0.6,0-1.1-0.1-1.4-0.4c-0.4-0.2-0.7-0.6-0.9-1c-0.2-0.4-0.4-0.8-0.5-1.3
			C75.1,29.1,75,28.6,75,28.1z M76.7,28.1c0,0.2,0,0.5,0,0.7c0,0.3,0.1,0.6,0.1,0.8c0.1,0.3,0.2,0.5,0.4,0.7
			c0.2,0.2,0.4,0.3,0.7,0.3c0.3,0,0.5-0.1,0.7-0.3c0.2-0.2,0.3-0.4,0.4-0.7c0.1-0.3,0.1-0.5,0.2-0.8c0-0.3,0-0.5,0-0.7s0-0.5,0-0.7
			c0-0.3-0.1-0.6-0.2-0.8c-0.1-0.3-0.2-0.5-0.4-0.7c-0.2-0.2-0.4-0.3-0.7-0.3c-0.3,0-0.5,0.1-0.7,0.3c-0.2,0.2-0.3,0.4-0.4,0.7
			c-0.1,0.3-0.1,0.5-0.1,0.8C76.7,27.7,76.7,27.9,76.7,28.1z"/>
		<path class="st0" d="M82.4,28.1c0-0.5,0-0.9,0.1-1.4s0.2-0.9,0.5-1.3c0.2-0.4,0.5-0.7,0.9-1c0.4-0.2,0.9-0.4,1.4-0.4
			c0.6,0,1.1,0.1,1.4,0.4c0.4,0.2,0.7,0.6,0.9,1c0.2,0.4,0.4,0.8,0.5,1.3s0.1,1,0.1,1.4s0,0.9-0.1,1.4s-0.2,0.9-0.5,1.3
			c-0.2,0.4-0.5,0.7-0.9,1c-0.4,0.2-0.9,0.4-1.4,0.4c-0.6,0-1.1-0.1-1.4-0.4c-0.4-0.2-0.7-0.6-0.9-1c-0.2-0.4-0.4-0.8-0.5-1.3
			C82.4,29.1,82.4,28.6,82.4,28.1z M84.1,28.1c0,0.2,0,0.5,0,0.7c0,0.3,0.1,0.6,0.1,0.8c0.1,0.3,0.2,0.5,0.4,0.7
			c0.2,0.2,0.4,0.3,0.7,0.3c0.3,0,0.5-0.1,0.7-0.3c0.2-0.2,0.3-0.4,0.4-0.7c0.1-0.3,0.1-0.5,0.2-0.8c0-0.3,0-0.5,0-0.7s0-0.5,0-0.7
			c0-0.3-0.1-0.6-0.2-0.8c-0.1-0.3-0.2-0.5-0.4-0.7c-0.2-0.2-0.4-0.3-0.7-0.3c-0.3,0-0.5,0.1-0.7,0.3c-0.2,0.2-0.3,0.4-0.4,0.7
			c-0.1,0.3-0.1,0.5-0.1,0.8C84.1,27.7,84.1,27.9,84.1,28.1z"/>
		<path class="st0" d="M93.7,28h-1.5v1.8c0,0.1,0,0.3,0,0.4s0,0.2,0.1,0.3c0.1,0.1,0.1,0.2,0.2,0.2s0.2,0.1,0.4,0.1
			c0.1,0,0.2,0,0.3,0c0.1,0,0.3-0.1,0.3-0.1v1.4c-0.2,0.1-0.4,0.1-0.6,0.1s-0.4,0-0.6,0c-0.3,0-0.5,0-0.8-0.1
			c-0.2-0.1-0.4-0.2-0.6-0.3c-0.2-0.1-0.3-0.3-0.4-0.5s-0.1-0.5-0.1-0.8v-2.6h-1.1v-1.3h1.1V25h1.7v1.6h1.5L93.7,28L93.7,28z"/>
		<path class="st0" d="M95.2,25c0-0.3,0.1-0.5,0.3-0.7c0.2-0.2,0.4-0.3,0.7-0.3c0.3,0,0.5,0.1,0.7,0.3c0.2,0.2,0.3,0.4,0.3,0.7
			c0,0.3-0.1,0.5-0.3,0.7c-0.2,0.2-0.4,0.3-0.7,0.3c-0.3,0-0.5-0.1-0.7-0.3C95.3,25.5,95.2,25.3,95.2,25z M95.3,26.7H97v5.4h-1.7
			V26.7z"/>
		<path class="st0" d="M98.9,26.7h1.6v0.7l0,0c0.1-0.1,0.1-0.2,0.2-0.3s0.2-0.2,0.3-0.3c0.1-0.1,0.3-0.1,0.5-0.2s0.4-0.1,0.6-0.1
			c0.4,0,0.7,0.1,1,0.2c0.3,0.2,0.5,0.4,0.7,0.7c0.2-0.3,0.4-0.6,0.7-0.7c0.3-0.1,0.6-0.2,1-0.2s0.7,0.1,0.9,0.2
			c0.2,0.1,0.4,0.3,0.6,0.5c0.1,0.2,0.2,0.5,0.3,0.7c0.1,0.3,0.1,0.6,0.1,0.9V32h-1.7v-3.1c0-0.3-0.1-0.5-0.2-0.6
			c-0.1-0.2-0.3-0.3-0.6-0.3c-0.2,0-0.4,0-0.5,0.1s-0.2,0.1-0.3,0.3c-0.1,0.1-0.1,0.2-0.2,0.4c0,0.1,0,0.3,0,0.5v2.8h-1.7v-2.8
			c0-0.1,0-0.2,0-0.4c0-0.1,0-0.3-0.1-0.4c0-0.1-0.1-0.2-0.2-0.3c-0.1-0.1-0.2-0.1-0.4-0.1c-0.2,0-0.4,0-0.5,0.1s-0.2,0.2-0.3,0.3
			c-0.1,0.1-0.1,0.3-0.1,0.4c0,0.2,0,0.3,0,0.5v2.7h-1.7C98.9,32.1,98.9,26.7,98.9,26.7z"/>
		<path class="st0" d="M114.4,31.1c-0.3,0.3-0.6,0.6-1,0.8c-0.4,0.2-0.8,0.3-1.3,0.3c-0.4,0-0.8-0.1-1.2-0.2c-0.4-0.1-0.7-0.3-1-0.6
			c-0.3-0.2-0.5-0.5-0.6-0.9c-0.2-0.3-0.2-0.7-0.2-1.2s0.1-0.8,0.2-1.2c0.2-0.3,0.4-0.6,0.6-0.9c0.3-0.2,0.6-0.4,1-0.6
			c0.4-0.1,0.8-0.2,1.2-0.2c0.4,0,0.7,0.1,1,0.2c0.3,0.1,0.6,0.3,0.8,0.6c0.2,0.2,0.4,0.5,0.5,0.9c0.1,0.3,0.2,0.7,0.2,1.2v0.5h-3.9
			c0.1,0.3,0.2,0.6,0.4,0.8c0.2,0.2,0.5,0.3,0.8,0.3s0.5-0.1,0.7-0.2s0.4-0.3,0.5-0.5L114.4,31.1z M112.9,28.8
			c0-0.3-0.1-0.5-0.3-0.7c-0.2-0.2-0.4-0.3-0.7-0.3c-0.2,0-0.3,0-0.5,0.1c-0.1,0.1-0.3,0.1-0.4,0.2s-0.2,0.2-0.2,0.3
			c-0.1,0.1-0.1,0.2-0.1,0.4C110.7,28.8,112.9,28.8,112.9,28.8z"/>
		<path class="st0" d="M119.3,28.3c-0.2-0.3-0.6-0.5-1-0.5c-0.1,0-0.3,0-0.4,0.1s-0.2,0.2-0.2,0.3c0,0.1,0.1,0.2,0.2,0.3
			c0.1,0.1,0.3,0.1,0.5,0.2c0.2,0,0.4,0.1,0.7,0.2c0.2,0.1,0.5,0.1,0.7,0.3c0.2,0.1,0.4,0.3,0.5,0.5s0.2,0.5,0.2,0.8
			s-0.1,0.6-0.2,0.9c-0.2,0.2-0.3,0.4-0.6,0.5c-0.2,0.1-0.5,0.2-0.8,0.3s-0.6,0.1-0.9,0.1c-0.4,0-0.8-0.1-1.1-0.2
			c-0.4-0.1-0.7-0.3-1-0.6l1-1.1c0.2,0.2,0.3,0.3,0.5,0.4s0.4,0.1,0.7,0.1c0.2,0,0.4,0,0.5-0.1c0.2-0.1,0.2-0.2,0.2-0.3
			c0-0.1-0.1-0.2-0.2-0.3c-0.1-0.1-0.3-0.1-0.5-0.2c-0.2,0-0.4-0.1-0.7-0.2c-0.2-0.1-0.5-0.1-0.7-0.2s-0.4-0.3-0.5-0.5
			s-0.2-0.5-0.2-0.8s0.1-0.6,0.2-0.8c0.1-0.2,0.3-0.4,0.5-0.6c0.2-0.1,0.5-0.3,0.7-0.3c0.3-0.1,0.6-0.1,0.8-0.1
			c0.4,0,0.7,0.1,1.1,0.2s0.7,0.3,0.9,0.6L119.3,28.3z"/>
		<path class="st0" d="M122.1,31.1c0-0.1,0-0.3,0.1-0.4s0.1-0.2,0.2-0.3c0.1-0.1,0.2-0.2,0.3-0.2c0.1-0.1,0.3-0.1,0.4-0.1
			s0.3,0,0.4,0.1s0.2,0.1,0.3,0.2c0.1,0.1,0.2,0.2,0.2,0.3c0.1,0.1,0.1,0.3,0.1,0.4s0,0.3-0.1,0.4s-0.1,0.2-0.2,0.3
			c-0.1,0.1-0.2,0.2-0.3,0.2c-0.1,0.1-0.3,0.1-0.4,0.1s-0.3,0-0.4-0.1c-0.1-0.1-0.2-0.1-0.3-0.2c-0.1-0.1-0.2-0.2-0.2-0.3
			S122.1,31.3,122.1,31.1z"/>
		<path class="st0" d="M131.2,32.1h-1.6v-0.7l0,0c-0.1,0.1-0.1,0.2-0.2,0.3c-0.1,0.1-0.2,0.2-0.3,0.3c-0.1,0.1-0.3,0.1-0.5,0.2
			c-0.2,0.1-0.4,0.1-0.6,0.1c-0.4,0-0.8-0.1-1-0.2c-0.3-0.1-0.5-0.3-0.6-0.5s-0.2-0.5-0.3-0.8c0-0.3-0.1-0.6-0.1-1v-3h1.7v2.6
			c0,0.2,0,0.3,0,0.5s0,0.3,0.1,0.5c0.1,0.1,0.1,0.3,0.3,0.3c0.1,0.1,0.3,0.1,0.5,0.1s0.4,0,0.5-0.1s0.2-0.2,0.3-0.3
			c0.1-0.1,0.1-0.3,0.1-0.4c0-0.2,0-0.3,0-0.5v-2.7h1.7V32.1z"/>
		<path class="st0" d="M138.7,32.1h-1.5v-0.7l0,0c-0.1,0.1-0.2,0.2-0.3,0.3c-0.1,0.1-0.2,0.2-0.4,0.3c-0.1,0.1-0.3,0.1-0.5,0.2
			c-0.2,0.1-0.4,0.1-0.5,0.1c-0.4,0-0.8-0.1-1.1-0.2c-0.3-0.1-0.6-0.3-0.8-0.6c-0.2-0.2-0.4-0.5-0.5-0.9c-0.1-0.3-0.2-0.7-0.2-1.1
			s0.1-0.7,0.2-1.1c0.1-0.3,0.3-0.6,0.5-0.9s0.5-0.5,0.8-0.6c0.3-0.2,0.6-0.2,1-0.2c0.3,0,0.7,0.1,1,0.2c0.3,0.1,0.5,0.3,0.7,0.5
			l0,0v-3.6h1.7L138.7,32.1L138.7,32.1z M137.2,29.4c0-0.4-0.1-0.7-0.4-1c-0.2-0.3-0.6-0.4-1-0.4s-0.7,0.1-1,0.4
			c-0.2,0.3-0.3,0.6-0.3,1s0.1,0.7,0.3,1s0.6,0.4,1,0.4s0.7-0.1,1-0.4C137.1,30.1,137.2,29.8,137.2,29.4z"/>
		<path class="st0" d="M140.7,26.7h1.6v0.7l0,0c0.1-0.1,0.1-0.2,0.2-0.3c0.1-0.1,0.2-0.2,0.3-0.3s0.3-0.1,0.5-0.2s0.4-0.1,0.6-0.1
			c0.4,0,0.8,0.1,1,0.2c0.3,0.1,0.5,0.3,0.6,0.5c0.1,0.2,0.2,0.5,0.3,0.8s0.1,0.6,0.1,1v3h-1.7v-2.6c0-0.2,0-0.3,0-0.5
			s0-0.3-0.1-0.5c-0.1-0.1-0.1-0.3-0.3-0.3c-0.1-0.1-0.3-0.1-0.5-0.1s-0.4,0-0.5,0.1s-0.2,0.2-0.3,0.3c-0.1,0.1-0.1,0.3-0.1,0.4
			c0,0.2,0,0.3,0,0.5V32h-1.7L140.7,26.7L140.7,26.7z"/>
		<path class="st0" d="M147.8,31.1c0-0.1,0-0.3,0.1-0.4s0.1-0.2,0.2-0.3c0.1-0.1,0.2-0.2,0.3-0.2c0.1-0.1,0.3-0.1,0.4-0.1
			c0.1,0,0.3,0,0.4,0.1c0.1,0.1,0.2,0.1,0.3,0.2s0.2,0.2,0.2,0.3c0.1,0.1,0.1,0.3,0.1,0.4s0,0.3-0.1,0.4s-0.1,0.2-0.2,0.3
			c-0.1,0.1-0.2,0.2-0.3,0.2c-0.1,0.1-0.3,0.1-0.4,0.1c-0.1,0-0.3,0-0.4-0.1c-0.1-0.1-0.2-0.1-0.3-0.2s-0.2-0.2-0.2-0.3
			C147.8,31.4,147.8,31.3,147.8,31.1z"/>
		<path class="st0" d="M155.2,28.4c-0.1-0.1-0.2-0.2-0.3-0.3c-0.1-0.1-0.3-0.1-0.5-0.1c-0.4,0-0.7,0.1-1,0.4c-0.2,0.3-0.3,0.6-0.3,1
			s0.1,0.7,0.3,1s0.6,0.4,1,0.4c0.2,0,0.3,0,0.5-0.1c0.1-0.1,0.2-0.2,0.3-0.3l1.1,1.2c-0.3,0.3-0.6,0.5-0.9,0.6
			c-0.4,0.1-0.7,0.2-1,0.2c-0.4,0-0.8-0.1-1.2-0.2c-0.4-0.1-0.7-0.3-1-0.6c-0.3-0.2-0.5-0.5-0.6-0.9c-0.2-0.3-0.2-0.7-0.2-1.2
			s0.1-0.8,0.2-1.2c0.2-0.3,0.4-0.6,0.6-0.9c0.3-0.2,0.6-0.4,1-0.6c0.4-0.1,0.8-0.2,1.2-0.2c0.3,0,0.7,0.1,1,0.2
			c0.4,0.1,0.7,0.3,0.9,0.6L155.2,28.4z"/>
		<path class="st0" d="M157.2,29.4c0-0.4,0.1-0.8,0.2-1.2c0.2-0.3,0.4-0.6,0.6-0.9c0.3-0.2,0.6-0.4,1-0.6c0.4-0.1,0.8-0.2,1.2-0.2
			s0.8,0.1,1.2,0.2c0.4,0.1,0.7,0.3,1,0.6c0.3,0.2,0.5,0.5,0.6,0.9c0.2,0.3,0.2,0.7,0.2,1.2s-0.1,0.8-0.2,1.2
			c-0.2,0.3-0.4,0.6-0.6,0.9c-0.3,0.2-0.6,0.4-1,0.6c-0.4,0.1-0.8,0.2-1.2,0.2s-0.8-0.1-1.2-0.2c-0.4-0.1-0.7-0.3-1-0.6
			c-0.3-0.2-0.5-0.5-0.6-0.9C157.3,30.2,157.2,29.8,157.2,29.4z M158.9,29.4c0,0.4,0.1,0.7,0.3,1s0.6,0.4,1,0.4s0.7-0.1,1-0.4
			c0.2-0.3,0.4-0.6,0.4-1s-0.1-0.7-0.4-1c-0.2-0.3-0.6-0.4-1-0.4s-0.7,0.1-1,0.4C159,28.6,158.9,29,158.9,29.4z"/>
		<path class="st0" d="M164.9,26.7h1.6v0.7l0,0c0.1-0.1,0.1-0.2,0.2-0.3c0.1-0.1,0.2-0.2,0.3-0.3s0.3-0.1,0.5-0.2s0.4-0.1,0.6-0.1
			c0.4,0,0.7,0.1,1,0.2c0.3,0.2,0.5,0.4,0.7,0.7c0.2-0.3,0.4-0.6,0.7-0.7c0.3-0.1,0.6-0.2,1-0.2s0.7,0.1,0.9,0.2s0.4,0.3,0.6,0.5
			c0.1,0.2,0.2,0.5,0.3,0.7c0.1,0.3,0.1,0.6,0.1,0.9V32h-1.7v-3.1c0-0.3-0.1-0.5-0.2-0.6c-0.1-0.2-0.3-0.3-0.6-0.3
			c-0.2,0-0.4,0-0.5,0.1s-0.2,0.1-0.3,0.3c-0.1,0.1-0.1,0.2-0.2,0.4c0,0.1,0,0.3,0,0.5v2.8h-1.7v-2.8c0-0.1,0-0.2,0-0.4
			c0-0.1,0-0.3-0.1-0.4c0-0.1-0.1-0.2-0.2-0.3c-0.1-0.1-0.2-0.1-0.4-0.1s-0.4,0-0.5,0.1s-0.2,0.2-0.3,0.3c-0.1,0.1-0.1,0.3-0.1,0.4
			c0,0.2,0,0.3,0,0.5v2.7h-1.7L164.9,26.7L164.9,26.7z"/>
	</g>
</g>
</svg>
