<?xml version="1.0" encoding="utf-8"?>
<!-- Generator: Adobe Illustrator 25.4.8, SVG Export Plug-In . SVG Version: 6.00 Build 0)  -->
<svg version="1.1" id="圖層_1" xmlns="http://www.w3.org/2000/svg" xmlns:xlink="http://www.w3.org/1999/xlink" x="0px" y="0px"
	 viewBox="0 0 159.3 100" style="enable-background:new 0 0 159.3 100;" xml:space="preserve">
<style type="text/css">
	.st0{fill:#FFFFFF;}
</style>
<g>
	<g>
		<rect x="26.8" y="22.1" class="st0" width="32.8" height="7.5"/>
		<path class="st0" d="M34.4,16c0.8-0.6,2-1.8,3.6-3.8L41.3,8h14.3v8.8h4V0h-0.8h-3.2H35l-4,5.8c-0.9,1.3-1.6,2.1-2,2.6
			c-0.5,0.5-0.9,0.8-1.4,0.9c-0.5,0.1-1,0.2-1.7,0.2v7.3h5.4C32.6,16.8,33.6,16.6,34.4,16z"/>
		<path class="st0" d="M114.6,29.6h17.3l4-5.8c0.9-1.3,1.6-2.1,2-2.6c0.5-0.5,0.9-0.8,1.4-0.9c0.5-0.1,1-0.2,1.7-0.2v-7.3h-5.4
			c-1.3,0-2.3,0.3-3.1,0.9c-0.8,0.6-2,1.8-3.6,3.8l-3.3,4.2h-11.1h-4.8l4.3-8.8h-4.4l-6.4,13v3.8h4H114.6z"/>
		<path class="st0" d="M133.4,71.2c0,0.9-0.2,1.5-0.5,1.8c-0.3,0.3-0.9,0.5-1.7,0.5h-20.4V42.9h0h3.2h19.3v5.4l7.6-1.7V35.1h-26.9
			h-3.2h-7.5v7.8h0v30.7L99,81.1h4.4H134c2.5,0,4.2-0.5,5.1-1.6c0.9-1.1,1.4-2.2,1.6-3.3c0.2-1.1,0.3-2.2,0.3-3.3v-8.1l-7.6,1.7
			V71.2z"/>
		<path class="st0" d="M34.4,35h-7.6v3.4l0,0v4.4v30.7l0,0v7.6h0l7.6-7.8V42.8h0h17.7l7.6-7.8L34.4,35L34.4,35z M34.4,42.8
			L34.4,42.8L34.4,42.8L34.4,42.8L34.4,42.8z"/>
		<polygon class="st0" points="120.6,64.2 120.6,53.4 118,54 118,58.1 116.3,58.5 116.3,54.3 113.8,54.9 113.8,65.6 116.3,65.1 
			116.3,60.6 118,60.3 118,64.8 		"/>
		<path class="st0" d="M124.9,58.2c-0.2,0.1-0.4,0.2-0.6,0.4c-0.2,0.1-0.5,0.2-0.7,0.4c-0.2,0.1-0.5,0.3-0.7,0.5
			c-0.2,0.2-0.5,0.4-0.6,0.6c-0.2,0.3-0.3,0.5-0.5,0.9c-0.1,0.3-0.2,0.7-0.2,1.2c0,0.6,0.2,1.1,0.6,1.4c0.4,0.3,0.9,0.4,1.5,0.3
			c0.5-0.1,0.8-0.3,1.1-0.5c0.3-0.2,0.6-0.5,0.9-0.9l0.2,0.7l2.2-0.5c0-0.1-0.1-0.3-0.1-0.4c0-0.1-0.1-0.3-0.1-0.4v-4.9
			c0-0.4-0.1-0.8-0.2-1.1c-0.1-0.3-0.3-0.5-0.5-0.7c-0.2-0.1-0.6-0.2-0.9-0.2c-0.4,0-0.9,0-1.4,0.2c-0.5,0.1-0.9,0.2-1.3,0.4
			c-0.4,0.2-0.7,0.4-1,0.7c-0.3,0.3-0.5,0.6-0.6,1c-0.1,0.4-0.2,0.8-0.2,1.3l2.3-0.5c0-0.2,0-0.3,0-0.5c0-0.2,0.1-0.3,0.1-0.4
			c0.1-0.1,0.1-0.2,0.3-0.3c0.1-0.1,0.3-0.2,0.5-0.2c0.2,0,0.4,0,0.5,0.1c0.1,0.1,0.2,0.3,0.2,0.5c0,0.2-0.1,0.4-0.2,0.6
			C125.2,58,125.1,58.1,124.9,58.2z M125.5,60.5c0,0.1,0,0.3,0,0.4c0,0.1-0.1,0.3-0.1,0.4c-0.1,0.1-0.1,0.3-0.3,0.4
			c-0.1,0.1-0.2,0.2-0.4,0.2c-0.3,0.1-0.5,0-0.6-0.1c-0.1-0.1-0.2-0.3-0.2-0.6c0-0.3,0.1-0.5,0.2-0.7c0.1-0.2,0.2-0.3,0.4-0.5
			c0.1-0.1,0.3-0.3,0.5-0.4c0.2-0.1,0.4-0.3,0.6-0.4V60.5z"/>
		<path class="st0" d="M134.9,61.2v-6.5c0-0.3,0-0.5-0.1-0.7c-0.1-0.2-0.2-0.4-0.4-0.5c-0.2-0.1-0.4-0.2-0.6-0.3c-0.2,0-0.5,0-0.8,0
			c-0.3,0.1-0.6,0.2-0.9,0.4c-0.3,0.2-0.6,0.5-0.8,0.9l0,0v-3.4l-2.3,0.5v10.8l2.3-0.5v-5.6c0-0.2,0-0.4,0.1-0.6
			c0.1-0.2,0.3-0.3,0.5-0.4c0.3-0.1,0.4,0,0.5,0.1c0.1,0.1,0.1,0.3,0.1,0.5v5.7L134.9,61.2z"/>
		<path class="st0" d="M142.2,58.8v-4.9c0-0.4-0.1-0.8-0.2-1.1c-0.1-0.3-0.3-0.5-0.5-0.7c-0.2-0.1-0.6-0.2-0.9-0.2
			c-0.4,0-0.9,0-1.4,0.2c-0.5,0.1-0.9,0.2-1.3,0.4c-0.4,0.2-0.7,0.4-1,0.7c-0.3,0.3-0.5,0.6-0.6,1c-0.1,0.4-0.2,0.8-0.2,1.3l2.3-0.5
			c0-0.2,0-0.3,0-0.5c0-0.2,0.1-0.3,0.1-0.4c0.1-0.1,0.1-0.2,0.3-0.3c0.1-0.1,0.3-0.2,0.5-0.2c0.2,0,0.4,0,0.5,0.1
			c0.1,0.1,0.2,0.3,0.2,0.5s-0.1,0.4-0.2,0.6c-0.1,0.2-0.3,0.3-0.5,0.4c-0.2,0.1-0.4,0.2-0.6,0.4c-0.2,0.1-0.5,0.2-0.7,0.4
			c-0.3,0.1-0.5,0.3-0.7,0.5c-0.2,0.2-0.5,0.4-0.6,0.6c-0.2,0.2-0.3,0.5-0.5,0.9c-0.1,0.3-0.2,0.7-0.2,1.2c0,0.6,0.2,1.1,0.6,1.4
			c0.4,0.3,0.9,0.4,1.5,0.3c0.5-0.1,0.8-0.3,1.1-0.5c0.3-0.2,0.6-0.5,0.9-0.9l0.2,0.7l2.2-0.5c0-0.1-0.1-0.3-0.1-0.4
			C142.2,59.1,142.2,59,142.2,58.8z M139.9,57.5c0,0.1,0,0.3,0,0.4c0,0.1-0.1,0.3-0.1,0.4c-0.1,0.1-0.1,0.3-0.3,0.4
			c-0.1,0.1-0.2,0.2-0.4,0.2c-0.3,0.1-0.5,0-0.6-0.1c-0.1-0.1-0.2-0.3-0.2-0.6c0-0.3,0.1-0.5,0.2-0.7c0.1-0.2,0.2-0.3,0.4-0.5
			c0.1-0.1,0.3-0.3,0.5-0.4c0.2-0.1,0.4-0.3,0.6-0.4V57.5z"/>
		<polygon class="st0" points="149.6,47.4 143.1,48.7 143.1,50.9 145.1,50.5 145.1,59.1 147.6,58.6 147.6,49.9 149.6,49.5 		"/>
		<path class="st0" d="M155.5,56v-4.9c0-0.4-0.1-0.8-0.2-1.1c-0.1-0.3-0.3-0.5-0.5-0.7c-0.2-0.1-0.6-0.2-0.9-0.2
			c-0.4,0-0.9,0-1.4,0.2c-0.5,0.1-0.9,0.2-1.3,0.4c-0.4,0.2-0.7,0.4-1,0.7c-0.3,0.3-0.5,0.6-0.6,1c-0.1,0.4-0.2,0.8-0.2,1.3l2.3-0.5
			c0-0.2,0-0.3,0-0.5c0-0.2,0.1-0.3,0.1-0.4c0.1-0.1,0.1-0.2,0.3-0.3c0.1-0.1,0.3-0.2,0.5-0.2c0.2,0,0.4,0,0.5,0.1
			c0.1,0.1,0.2,0.3,0.2,0.5c0,0.2-0.1,0.4-0.2,0.6c-0.1,0.2-0.3,0.3-0.5,0.4c-0.2,0.1-0.4,0.2-0.6,0.4c-0.2,0.1-0.5,0.2-0.7,0.4
			c-0.3,0.1-0.5,0.3-0.7,0.5c-0.2,0.2-0.5,0.4-0.6,0.6c-0.2,0.3-0.3,0.5-0.5,0.9c-0.1,0.3-0.2,0.7-0.2,1.2c0,0.6,0.2,1.1,0.6,1.4
			c0.4,0.3,0.9,0.4,1.5,0.3c0.5-0.1,0.8-0.3,1.1-0.5c0.3-0.2,0.6-0.5,0.9-0.9l0.2,0.7l2.2-0.5c0-0.1-0.1-0.3-0.1-0.4
			C155.5,56.3,155.5,56.2,155.5,56z M153.2,54.8c0,0.1,0,0.3,0,0.4c0,0.1-0.1,0.3-0.1,0.4c-0.1,0.1-0.1,0.3-0.3,0.4
			c-0.1,0.1-0.2,0.2-0.4,0.2c-0.3,0.1-0.5,0-0.6-0.1c-0.1-0.1-0.2-0.3-0.2-0.6c0-0.3,0.1-0.5,0.2-0.7c0.1-0.2,0.2-0.3,0.4-0.5
			c0.1-0.1,0.3-0.3,0.5-0.4c0.2-0.1,0.4-0.3,0.6-0.4V54.8z"/>
		<polygon class="st0" points="156.9,56.6 159.2,56.1 159.2,48.1 156.9,48.6 		"/>
		<polygon class="st0" points="156.9,45.8 156.9,47.8 159.2,47.3 159.2,45.4 		"/>
		<path class="st0" d="M0,9.5V13v4.4v42v7.6h15.5c2.5,0,4.2-0.5,5.1-1.6c0.9-1.1,1.4-2.2,1.6-3.3c0.2-1.1,0.3-2.2,0.3-3.3V9.5H7.5H0
			z M14.9,17.3v39.6c0,0.9-0.2,1.5-0.5,1.8c-0.3,0.3-0.9,0.5-1.7,0.5H7.6V23.4h0v-6.1H14.9z"/>
	</g>
	<g>
		<rect x="64.6" y="47.1" class="st0" width="31.7" height="7.5"/>
		<path class="st0" d="M72,41.6c0.8-0.6,2-1.8,3.6-3.8l3.3-4.2h13.3v8.8h4V25.6h-0.8h-3.2H72.6l-4,5.8c-0.9,1.3-1.6,2.1-2,2.6
			c-0.5,0.5-0.9,0.8-1.4,0.9c-0.5,0.1-1,0.2-1.7,0.2v7.3h5.4C70.2,42.4,71.2,42.1,72,41.6z"/>
		<path class="st0" d="M100,62.1l-3.1-3.2c-2,1.9-3.5,2.4-3.5,2.4c-7,3-14.5,1.7-18.9,0.3c-1.9-0.6-3.5-1.3-4.5-1.5
			c-5.4-1.5-5.4,1.2-5.4,1.2v2.5v4.9v0.9v0v1.6v1.9v18.6v7.6h24.7c2.5,0,4.2-0.5,5.1-1.6c0.9-1.1,1.4-2.2,1.6-3.3
			c0.2-1.1,0.3-2.2,0.3-3.3V71.7h0v-6.1C99,63.9,100,62.1,100,62.1z M79.6,68.1c1.4,0.2,2.9,0.3,4.5,0.3c0.3,0,0.7,0,1,0v7.4h-5.5
			V68.1z M88.7,89.3c0,0.9-0.2,1.5-0.5,1.8c-0.3,0.3-0.9,0.5-1.7,0.5H72.2V71.1v-1.5v-3.2c1.3,0.4,2.8,0.8,4.5,1.2v8.2v1.5v1h12
			V89.3z M92.2,75.8h-5.3v-7.5c1.6-0.1,3.3-0.4,5-0.9c0.1,0,0.2-0.1,0.4-0.1V75.8z"/>
		<path class="st0" d="M52.1,42.8v28.3c0,0.9-0.2,1.5-0.5,1.8c-0.3,0.3-0.9,0.5-1.7,0.5H34.4v0l-7.6,7.8v0h25.9
			c2.5,0,4.2-0.5,5.1-1.6c0.9-1.1,1.4-2.2,1.6-3.3c0.2-1.2,0.3-2.2,0.3-3.3V35h0L52.1,42.8z"/>
	</g>
</g>
</svg>
