<?xml version="1.0" encoding="utf-8"?>
<!-- Generator: Adobe Illustrator 25.4.8, SVG Export Plug-In . SVG Version: 6.00 Build 0)  -->
<svg version="1.1" id="圖層_1" xmlns="http://www.w3.org/2000/svg" xmlns:xlink="http://www.w3.org/1999/xlink" x="0px" y="0px"
	 viewBox="0 0 268.1 100" style="enable-background:new 0 0 268.1 100;" xml:space="preserve">
<style type="text/css">
	.st0{fill:#FFFFFF;}
</style>
<g>
	<g>
		<g>
			<path class="st0" d="M11,78.6c-0.9,0.5-2.1,1-4.5,1c-3.9,0-6.5-3-6.5-6.6c0-3.6,2.6-6.6,6.5-6.6c2.5,0,3.7,0.6,4.3,1L10.1,69
				c-0.4-0.2-1.5-0.8-3.5-0.8c-2.3,0-4.3,2.1-4.3,4.9c0,2.8,2.1,4.9,4.4,4.9c2,0,2.9-0.5,3.5-0.8L11,78.6z M18,79.5v-5.5
				c0-0.8-0.3-1.4-1.4-1.4c-0.9,0-1.7,0.6-2.1,0.8v6.2h-2V67.3l2-0.6V72c0.4-0.3,1.2-1.1,3-1.1c1.6,0,2.5,1,2.5,2.6v6H18z
				 M56.6,79.5v-5.5c0-0.8-0.3-1.4-1.4-1.4c-0.9,0-1.7,0.6-2.1,0.8v6.2h-2V67.3l2-0.6V72c0.4-0.3,1.2-1.1,3-1.1c1.6,0,2.5,1,2.5,2.6
				v6H56.6z M37.3,79.5v-5.5c0-0.8-0.3-1.4-1.3-1.4c-0.9,0-1.7,0.6-2.1,0.8v6.2h-2v-7.8l1.9-0.5l0.1,0.9c0.4-0.3,1.3-1.1,3-1.1
				c1.6,0,2.6,1,2.6,2.6v6H37.3z M44.1,76.3c-0.5,0-1.4,0.1-1.4,0.8c0,0.7,0.9,0.8,1.4,0.8h2.4c1.8,0,3.2,1.1,2.9,2.9
				c-0.2,1.9-2.4,3.2-4.4,3.2c-2.2,0-4.6-0.5-4.6-2.4c0-1.3,1-2,1.5-2.2c-0.4-0.2-1-0.7-1-1.8c0-1,0.8-1.9,1.5-2.1
				c-0.4-0.3-1-0.8-1-1.9c0-1.3,1-2.7,3.2-2.7c0.9,0,1.3,0.1,1.7,0.2h3.2v1.1h-1.8c0.2,0.2,0.6,0.7,0.6,1.4c0,1.8-1.6,2.7-3.3,2.7
				H44.1z M42.2,81.4c0,0.9,1.5,1.3,2.7,1.3c1.3,0,2.6-0.8,2.7-1.7c0.2-1-0.5-1.4-1.4-1.4h-2.7C43.1,79.9,42.2,80.6,42.2,81.4z
				 M43.3,73.6c0,0.8,0.6,1.4,1.5,1.4c1,0,1.5-0.6,1.5-1.4c0-0.7-0.5-1.5-1.5-1.5C43.9,72.1,43.3,72.9,43.3,73.6z M64.1,71.1H66
				l1.8,5.5l1.9-5.5h1.7l-3.2,8.5h-1.1l-1.5-4.3L64,79.6h-1.1l-3-8.5h2l1.9,5.7l1.3-3.3L64.1,71.1z M74.6,79.6
				c-1.6,0-2.6-0.9-2.6-2.3c0-1.4,1.1-2.7,3.2-2.8l1.8-0.1v-0.7c0-0.7-0.2-1.5-1.5-1.5c-1.1,0-1.9,0.4-2.3,0.5l-0.5-1.1
				c0.5-0.2,1.7-0.8,3.4-0.8c1.9,0,2.9,1,2.9,2.5v4.8c0,0.4,0.2,1.1,0.3,1.3h-2.1c-0.1-0.2-0.2-0.6-0.2-0.7
				C76.6,79,75.8,79.6,74.6,79.6z M77,75.6l-1.2,0.1c-1.1,0.1-2,0.5-2,1.4c0,0.8,0.7,1.1,1.4,1.1c0.7,0,1.4-0.5,1.7-0.7V75.6z
				 M24.2,71.1v5.5c0,0.8,0.3,1.4,1.3,1.4c0.9,0,1.7-0.5,2-0.8v-6.1h2v7.8l-1.9,0.5l-0.1-0.9c-0.4,0.3-1.4,1.1-2.9,1.1
				c-1.6,0-2.4-1-2.4-2.6v-6H24.2z M81.9,66.8h10.3v1.6h-4v11H86v-11h-4V66.8z M95,78.2c1.3,0,1.9-0.3,2.3-0.4l0.5,1.1
				c-0.5,0.2-1.3,0.7-3.4,0.7c-2.6,0-4.2-1.6-4.2-4.3c0-2.5,1.8-4.4,4-4.4c2,0,3.8,1.4,3.8,4.6h-5.7C92.4,77.2,93.3,78.2,95,78.2z
				 M94.2,72.3c-1.1,0-1.7,0.9-1.8,1.9H96C95.9,73,95.2,72.3,94.2,72.3z M99.8,67.3l2.1-0.5v12.7h-2.1V67.3z M108.4,78.2
				c1.3,0,1.9-0.3,2.3-0.4l0.5,1.1c-0.5,0.2-1.3,0.7-3.4,0.7c-2.6,0-4.2-1.6-4.2-4.3c0-2.5,1.8-4.4,4.1-4.4c2,0,3.8,1.4,3.8,4.6
				h-5.7C105.8,77.2,106.7,78.2,108.4,78.2z M107.6,72.3c-1.1,0-1.6,0.9-1.8,1.9h3.5C109.2,73,108.6,72.3,107.6,72.3z M117.2,70.9
				c1.6,0,2.4,0.3,2.8,0.5l-0.4,1.3c-0.4-0.2-1-0.4-2.1-0.4c-1.1,0-2.5,1-2.5,3c0,1.9,1.4,3,2.5,3c1.2,0,1.7-0.2,2.2-0.4l0.5,1.2
				c-0.4,0.2-1.2,0.5-2.9,0.5c-2.7,0-4.4-1.8-4.4-4.4C112.7,72.6,114.9,70.9,117.2,70.9z M129.9,75.3c0,2.7-2,4.4-4.6,4.4
				c-2.5,0-4.5-1.7-4.5-4.4c0-2.7,2-4.4,4.5-4.4C127.9,70.9,129.9,72.6,129.9,75.3z M123,75.3c0,1.7,0.9,3,2.4,3
				c1.3,0,2.3-1.3,2.3-3c0-1.7-1-3-2.3-3C123.8,72.2,123,73.5,123,75.3z M143.7,79.5h-2v-5.5c0-0.8-0.3-1.5-1.2-1.5
				c-0.7,0-1.4,0.5-1.8,0.8v6.2h-2v-5.5c0-0.8-0.3-1.5-1.2-1.5c-0.7,0-1.4,0.5-1.8,0.8v6.2h-2v-7.8l1.9-0.5l0.1,0.9
				c0.4-0.4,1.4-1.1,2.6-1.1c1.1,0,1.7,0.4,2.2,1.1c0.4-0.4,1.4-1.1,2.8-1.1c1.7,0,2.5,1.1,2.5,2.5V79.5z"/>
			<g>
				<path class="st0" d="M120.4,28.7c0.5,0.1,0.7,0.4,0.9,0.6c0.2,0.3,0.3,0.8,0.2,1.2c-0.5,2.5-1.1,4.7-1.8,6.4V57
					c0,0.5-0.1,0.8-0.4,1.1c-0.3,0.3-0.6,0.4-1,0.4c-0.4,0-0.8-0.1-1-0.4c-0.3-0.3-0.4-0.7-0.4-1.2c0,0,0-13.8,0-14.5
					c-0.7,1.1-1.2,1.2-1.5,1.2c-0.3,0-0.7,0-1-0.3c-0.3-0.2-0.5-0.7-0.5-1c0-0.3,0.1-0.8,0.4-1.2c2.4-3.5,3.9-7.3,4.5-11.3
					c0.1-0.5,0.3-0.9,0.6-1.1C119.5,28.8,120,28.6,120.4,28.7z M125.2,47.7h16.4c0.7,0,1.2,0.2,1.6,0.6c0.4,0.4,0.6,0.8,0.6,1.3v6.3
					c0,0.6-0.3,1.1-0.7,1.6c-0.4,0.4-0.9,0.7-1.5,0.7h-16.4c-0.6,0-1-0.2-1.4-0.7c-0.4-0.5-0.5-1-0.5-1.6v-6.3c0-0.5,0.2-1,0.6-1.4
					C124.2,47.9,124.7,47.7,125.2,47.7z M127.1,50.5c-0.4,0-0.6,0.1-0.7,0.2c-0.1,0.1-0.2,0.3-0.2,0.6c0,0,0,3.1,0,3.1
					c0,0.3,0.1,0.5,0.2,0.7c0.2,0.2,0.4,0.2,0.7,0.2h12.8c0.4,0,0.6-0.1,0.8-0.2c0.1-0.1,0.2-0.4,0.2-0.7v-3c0-0.3-0.1-0.5-0.2-0.7
					c-0.2-0.2-0.4-0.3-0.7-0.3H127.1z M125.1,42.9c-0.4,0-0.8,0.2-1,0.4c-0.3,0.3-0.4,0.7-0.4,1c0,0.3,0.1,0.8,0.4,1
					c0.3,0.3,0.6,0.4,1,0.4h17c0.5,0,0.8-0.2,1-0.4c0.2-0.3,0.4-0.7,0.4-1c0-0.4-0.1-0.8-0.4-1c-0.2-0.2-0.6-0.4-1-0.4H125.1z
					 M125.1,38.5c-0.5,0-0.8,0.1-1,0.4c-0.2,0.3-0.4,0.7-0.4,1c0,0.4,0.1,0.8,0.4,1c0.3,0.3,0.6,0.4,1,0.4h17c0.4,0,0.8-0.2,1-0.4
					c0.2-0.2,0.4-0.6,0.4-1c0-0.4-0.1-0.7-0.4-1c-0.2-0.3-0.6-0.4-1-0.4H125.1z M123,33.9c-0.5,0-0.8,0.1-1.1,0.4
					c-0.2,0.2-0.4,0.7-0.4,1c0,0.4,0.1,0.8,0.4,1c0.3,0.3,0.5,0.4,1.1,0.4h21.2c0.5,0,0.8-0.2,1-0.4c0.2-0.3,0.4-0.7,0.4-1
					c0-0.3-0.1-0.8-0.4-1c-0.2-0.2-0.6-0.4-1-0.4H123z M125.1,29.5c-0.5,0-0.8,0.2-1,0.4c-0.2,0.2-0.4,0.5-0.4,1
					c0,0.5,0.1,0.8,0.4,1c0.2,0.2,0.6,0.4,1,0.4h17c0.5,0,0.8-0.2,1-0.4c0.3-0.3,0.4-0.6,0.4-1c0-0.5-0.1-0.8-0.4-1
					c-0.2-0.2-0.5-0.4-1-0.4H125.1z"/>
				<path class="st0" d="M69.4,31.8c0,0.3-0.1,0.7-0.4,0.9c-0.3,0.3-0.6,0.4-1,0.4h-6.7v0.1c0,0.5-0.1,0.9-0.4,1.1
					c-0.3,0.3-0.6,0.4-1.1,0.4c-0.4,0-0.8-0.1-1.1-0.4c-0.3-0.3-0.4-0.7-0.4-1.1v-0.1H50v0.1c0,0.5-0.1,0.9-0.4,1.1
					c-0.3,0.3-0.6,0.4-1,0.4c-0.4,0-0.8-0.2-1.1-0.4c-0.3-0.3-0.4-0.7-0.4-1.1v-0.1h-6.7c-0.4,0-0.8-0.1-1-0.4
					c-0.2-0.2-0.4-0.6-0.4-1c0-0.3,0.1-0.7,0.4-1c0.2-0.2,0.6-0.4,1-0.4h6.7v-0.7c0-0.5,0.1-0.9,0.4-1.1c0.3-0.3,0.6-0.4,1.1-0.4
					c0.4,0,0.8,0.2,1,0.4c0.3,0.3,0.4,0.7,0.4,1.1v0.7h8.4v-0.7c0-0.5,0.1-0.9,0.4-1.1c0.3-0.3,0.6-0.4,1.1-0.4
					c0.4,0,0.8,0.2,1.1,0.4c0.3,0.3,0.4,0.7,0.4,1.1v0.7h6.7c0.4,0,0.7,0.2,1,0.4C69.3,31,69.4,31.4,69.4,31.8z M48.2,43.7v2.7h4.6
					v-2.7H48.2z M55.7,38.2V41h4.6v-2.9H55.7z M60.3,44.1v-0.4h-4.6v2.7h11.5c0.4,0,0.7,0.1,1,0.4c0.3,0.3,0.4,0.7,0.4,1
					c0,0.3-0.1,0.7-0.4,0.9c-0.3,0.3-0.6,0.4-1,0.4H55.7v2.2h12.4c0.4,0,0.7,0.1,1,0.4c0.2,0.2,0.4,0.6,0.4,1c0,0.3-0.2,0.7-0.4,1
					c-0.2,0.3-0.6,0.4-1,0.4H55.7v3c0,0.5-0.1,0.9-0.4,1.1c-0.3,0.3-0.6,0.4-1.1,0.4c-0.4,0-0.8-0.2-1.1-0.4
					c-0.3-0.3-0.4-0.7-0.4-1.1v-3H40.4c-0.4,0-0.7-0.1-1-0.4c-0.2-0.2-0.4-0.7-0.4-1c0-0.3,0.1-0.7,0.4-1c0.2-0.2,0.6-0.4,1-0.4
					h12.4v-2.2H41.2c-0.4,0-0.8-0.1-1-0.4c-0.3-0.2-0.3-0.7-0.3-1c0-0.3,0.1-0.7,0.4-1c0.2-0.2,0.6-0.4,1-0.4h4v-2.7h-5.7
					c-0.4,0-0.7-0.1-1-0.4c-0.2-0.3-0.4-0.6-0.4-1c0-0.3,0.1-0.7,0.4-1c0.2-0.3,0.6-0.4,1-0.4h5.7v-0.3c0-0.5,0.1-0.9,0.4-1.1
					c0.3-0.3,0.6-0.4,1.1-0.4c0.4,0,0.8,0.2,1.1,0.4c0.3,0.3,0.4,0.7,0.4,1.1l0,0.3h4.6v-2.9H41.2c-0.4,0-0.8-0.2-1-0.4
					c-0.3-0.2-0.4-0.7-0.4-1c0-0.2,0.1-0.7,0.4-0.9c0.2-0.2,0.6-0.4,1-0.4h26c0.4,0,0.7,0.1,1,0.3c0.2,0.2,0.4,0.7,0.4,1
					c0,0.3-0.1,0.7-0.4,0.9c-0.2,0.3-0.6,0.4-1,0.4h-4V41h5.7c0.4,0,0.7,0.1,0.9,0.3c0.3,0.3,0.4,0.6,0.4,1c0,0.4-0.1,0.7-0.4,0.9
					c-0.3,0.3-0.5,0.4-1,0.4h-5.7l0,0.4c0,0.4-0.1,0.8-0.4,1.1c-0.3,0.3-0.6,0.4-1.1,0.4c-0.4,0-0.8-0.2-1.1-0.4
					C60.4,44.9,60.3,44.5,60.3,44.1L60.3,44.1z"/>
				<path class="st0" d="M14.1,28.6c-0.3,0.3-0.4,0.7-0.4,1.2V32H2.9c-0.8,0-1.5,0.3-2,0.8c-0.6,0.6-0.8,1.2-0.8,2
					c0,0,0,15.5,0,15.5c0,0.7,0.3,1.4,0.9,2c0.6,0.5,1.3,0.8,2,0.8h10.8v3.7c0,0.6,0.2,1.1,0.4,1.3c0.2,0.2,0.6,0.4,1.2,0.4
					c0.5,0,0.9-0.2,1.1-0.4c0.2-0.2,0.5-0.7,0.5-1.3v-3.7h10.8c0.8,0,1.6-0.4,2-0.9c0.4-0.4,0.8-1.3,0.8-2V34.9c0-0.8-0.3-1.4-0.7-2
					c-0.5-0.6-1.2-0.9-2.1-0.9H16.9v-2.3c0-0.5-0.2-0.9-0.4-1.2c-0.3-0.3-0.8-0.4-1.2-0.4C14.8,28.2,14.4,28.3,14.1,28.6z M3.4,49.8
					c-0.2-0.2-0.3-0.4-0.3-0.6v-13c0-0.3,0.1-0.5,0.3-0.7c0.2-0.2,0.4-0.3,0.7-0.3h9.6v14.9H4.1C3.8,50.1,3.6,50,3.4,49.8z
					 M26.4,35.1c0.3,0,0.5,0.1,0.7,0.3c0.2,0.2,0.3,0.4,0.3,0.7v13c0,0.3-0.2,0.5-0.3,0.6c-0.1,0.1-0.3,0.3-0.6,0.3h-9.7V35.1H26.4z
					"/>
				<path class="st0" d="M87,37c0.3,0,0.5,0.1,0.7,0.3c0.2,0.2,0.3,0.4,0.3,0.7c0,0.3-0.1,0.5-0.3,0.7c-0.2,0.2-0.4,0.3-0.7,0.3
					h-5.2c-0.3,0-0.6-0.1-0.8-0.3c-0.2-0.2-0.3-0.4-0.3-0.7c0-0.3,0.1-0.5,0.3-0.7c0.2-0.2,0.4-0.3,0.8-0.3H87z M88.8,40.2
					c0.3,0,0.5,0.1,0.7,0.3c0.2,0.2,0.3,0.4,0.3,0.7c0,0.3-0.1,0.5-0.3,0.7c-0.2,0.2-0.4,0.3-0.7,0.3h-5.2c-0.3,0-0.6-0.1-0.8-0.3
					c-0.2-0.2-0.3-0.4-0.3-0.7c0-0.3,0.1-0.5,0.3-0.7c0.2-0.2,0.4-0.3,0.8-0.3H88.8z M101,37c0.3,0,0.6,0.1,0.7,0.3
					c0.2,0.2,0.3,0.4,0.3,0.7c0,0.3-0.1,0.5-0.3,0.7c-0.2,0.2-0.4,0.3-0.7,0.3h-5.2c-0.3,0-0.6-0.1-0.8-0.3
					c-0.2-0.2-0.3-0.4-0.3-0.7c0-0.3,0.1-0.5,0.3-0.7c0.2-0.2,0.4-0.3,0.8-0.3H101z M102.8,40.2c0.3,0,0.6,0.1,0.7,0.3
					c0.2,0.2,0.3,0.4,0.3,0.7c0,0.3-0.1,0.5-0.3,0.7c-0.2,0.2-0.4,0.3-0.7,0.3h-5.2c-0.3,0-0.6-0.1-0.8-0.3
					c-0.2-0.2-0.3-0.4-0.3-0.7c0-0.3,0.1-0.5,0.3-0.7c0.2-0.2,0.4-0.3,0.8-0.3H102.8z M81.9,46.5c0-0.2,0.1-0.4,0.2-0.5
					c0.1-0.1,0.3-0.2,0.6-0.2h8.1v1.7h-8.9C81.9,47.5,81.9,46.5,81.9,46.5z M90.8,49.8v1.7h-8.1c-0.3,0-0.5-0.1-0.6-0.2
					c-0.1-0.1-0.2-0.3-0.2-0.5v-1H90.8z M101.9,45.7c0.3,0,0.5,0.1,0.6,0.2c0.1,0.1,0.2,0.3,0.2,0.6v0.9h-8.9v-1.7H101.9z
					 M102.6,49.8c0,0,0,0.8,0,1c0,0.2-0.1,0.4-0.2,0.6c-0.1,0.1-0.3,0.2-0.6,0.2h-8.1v-1.7H102.6z M105.4,55.7c0,0-9.5,0-10.3,0
					c-0.4,0-0.8-0.1-1.1-0.3c-0.3-0.3-0.2-0.8-0.2-1.5c0.1,0,9.7,0,9.7,0c0.5,0,1-0.2,1.4-0.6c0.4-0.4,0.6-0.9,0.6-1.4v-6.7
					c0-0.5-0.2-0.9-0.5-1.2c-0.4-0.3-0.9-0.5-1.5-0.5H80.8c-0.5,0-0.9,0.2-1.2,0.5c-0.3,0.4-0.5,0.8-0.5,1.2v6.7
					c0,0.5,0.1,1,0.5,1.4c0.3,0.4,0.7,0.6,1.2,0.6h10c0,0,0,1,0,1.1c0,1.2,0.6,2.1,1.2,2.5c0.6,0.5,1.4,0.7,2.1,0.7
					c1,0,11.3,0,11.3,0c0.7,0,1.2-0.6,1.2-1.2C106.6,56.2,106.1,55.7,105.4,55.7z M104.5,35.9c0.2,0,0.4,0.1,0.5,0.2
					c0.1,0.1,0.2,0.3,0.2,0.5v4.3c0,0.5,0.2,0.9,0.5,1.2c0.2,0.3,0.6,0.4,1,0.4c0.3,0,0.8-0.2,1-0.4c0.2-0.2,0.4-0.7,0.4-1.1v-5.2
					c0-0.6-0.2-1.2-0.7-1.6c-0.4-0.4-1-0.7-1.6-0.7h-12v-1.5H104c0.4,0,0.7-0.2,0.9-0.4c0.2-0.2,0.3-0.6,0.3-0.9
					c0-0.3-0.1-0.7-0.3-0.9c-0.2-0.2-0.5-0.3-0.9-0.3H80.6c-0.4,0-0.7,0.1-0.9,0.3c-0.2,0.2-0.4,0.5-0.4,0.9c0,0.4,0.1,0.7,0.4,0.9
					c0.2,0.2,0.5,0.3,0.9,0.3h10.2v1.5h-12c-0.6,0-1.2,0.3-1.6,0.7c-0.4,0.4-0.7,1-0.7,1.6v5.2c0,0.4,0.2,0.9,0.4,1.1
					c0.2,0.2,0.7,0.4,1,0.4c0.3,0,0.7-0.1,1-0.4c0.3-0.2,0.5-0.7,0.5-1.2v-4.3c0-0.2,0.1-0.4,0.2-0.5c0.1-0.1,0.3-0.2,0.5-0.2h10.8
					v5.3c0,0.5,0.2,0.9,0.4,1.1c0.2,0.2,0.7,0.4,1,0.4c0.4,0,0.8-0.2,1-0.4c0.2-0.3,0.4-0.6,0.4-1.1v-5.3H104.5z"/>
			</g>
		</g>
	</g>
	<g>
		<path class="st0" d="M235.8,43c-2.7-1.2-5.4-2.1-7.9-2.6c-2.5-0.5-5.1-0.8-7.7-0.7c-7.5,0-14.1,1.9-19.6,5.6
			c-3.7,2.5-6.6,5.6-8.7,9.2c-0.8-1.3-1.9-2.3-3.3-3.2c-1.6-1-3.5-1.7-5.8-2.2c-2.3-0.5-4.8-0.7-7.7-0.7h-3l2.6-10.2h21.9l2.3-8.8
			h-31.3l-6.9,26.6h10.6c2.2,0,4.1,0.2,5.5,0.5c1.5,0.3,2.6,0.7,3.4,1.3c0.8,0.5,1.4,1.2,1.7,1.9c0.3,0.8,0.4,1.6,0.4,2.4
			c-0.1,1.3-0.4,2.6-1,3.8c-0.6,1.2-1.6,2.3-2.8,3.3c-1.2,1-2.8,1.7-4.7,2.3c-1.9,0.6-4.2,0.9-6.8,0.9c-2.2,0-4.2-0.1-6.2-0.3
			c-1.9-0.2-3.6-0.5-5.1-0.9l-2.1,8.2c0.8,0.1,1.6,0.2,2.6,0.4c1,0.1,2,0.2,3.1,0.3c1.1,0.1,2.1,0.1,3.1,0.2c1,0.1,2,0.1,2.8,0.1
			c4.5,0,8.5-0.5,12-1.5c3.5-1,6.4-2.4,8.7-4.2c1.2-0.9,2.2-1.9,3.1-2.9c0.5,1.5,1.3,2.8,2.4,3.8c1.6,1.7,3.8,3,6.6,3.8
			c2.7,0.8,5.9,1.2,9.5,1.2c2.8,0,5.8-0.4,9-1.1c3.1-0.7,6.1-1.6,8.8-2.6c0.6-0.2,1-0.6,1.2-1.1l4.9-15.9c0.2-0.7-0.3-1.2-1-1.2
			l-17.5,0.1c-0.8,0-1.6,0.6-1.8,1.2l-1.3,4.3c-0.2,0.7,0.3,1.2,1.1,1.2l10.3-0.1l-2.2,7.1c-1.2,0.3-2.6,0.7-4.1,0.9
			c-1.9,0.3-3.7,0.5-5.5,0.5c-4.8,0-8.1-1.1-10-3.5c-2-2.4-2.3-5.9-0.9-10.3c1.3-4.2,3.7-7.6,7-10c3.3-2.4,7.2-3.6,11.7-3.7
			c0,0,8.3-0.7,14.9,4.8c1.7,1,2.2-0.4,2.2-0.4l2.1-6.6C236.4,43.6,236.2,43.2,235.8,43z"/>
		<g>
			<path class="st0" d="M215.8,30.6c4.5-4.3,9.3-3.8,15-2.9c9.3-3.6,12.1-9.9,13.2-11.7c-12.4,14.5-23.1,4.3-30.8,13.4
				c0,0-12,4-13.3,13.8c0.2-0.6,0.5-1.2,0.8-1.8C204.8,31.5,215.8,30.6,215.8,30.6z"/>
			<path class="st0" d="M230.8,27.7c9.3-3.6,12.1-9.9,13.2-11.7c-12.4,14.5-23.1,4.3-30.8,13.4c0,0-12,4-13.3,13.8
				c0.2-0.6,0.5-1.2,0.8-1.8C207.5,35,222,32.8,230.8,27.7z"/>
			<path class="st0" d="M215.8,30.6c0,0-10.9,0.8-15,10.8c4.3-8.8,15.7-9.9,26.1-12.4c1.5-0.4,2.8-0.8,4-1.3
				C225.1,26.9,220.2,26.3,215.8,30.6z"/>
			<path class="st0" d="M235.9,32.5c0.1,0,0.3,0,0.5,0c10.2-0.4,17.1-3.3,23.6-10.1c-12.3,8.2-21.6,6.5-29.2,5.4
				c-1.2,0.5-2.5,0.9-4,1.3c-10.3,2.5-21.7,3.6-26.1,12.4c-0.2,0.4-0.6,1.3-0.7,1.8c0.1-0.1,0.5-0.7,0.6-0.8
				c7-9.6,16.8-9.6,16.8-9.6c8.1-3.8,13.2-2.3,18.5-0.3L235.9,32.5z"/>
			<path class="st0" d="M200.4,42.9c12.3-11.5,20.4-10.1,34.5-10.4c0.3,0,0.6,0,0.9,0c-5.3-2-10.3-3.6-18.5,0.3
				c0,0-10.2,0-17.2,10.2c0,0.1-0.1,0.2-0.1,0.2C200.1,43.1,200.3,43,200.4,42.9z"/>
			<path class="st0" d="M235.8,32.5c-0.3,0-0.6,0-0.9,0c-14.1,0.3-22.2-1.1-34.5,10.4c18.3-11.6,29.7-6.3,42.5-4.6
				c15.3,2,22.2-5.5,24.7-7.1C250.8,39,243,35.3,235.8,32.5z"/>
		</g>
	</g>
</g>
</svg>
