<?xml version="1.0" encoding="utf-8"?>
<!-- Generator: Adobe Illustrator 26.2.1, SVG Export Plug-In . SVG Version: 6.00 Build 0)  -->
<svg version="1.1" id="圖層_1" xmlns="http://www.w3.org/2000/svg" xmlns:xlink="http://www.w3.org/1999/xlink" x="0px" y="0px"
	 viewBox="0 0 268.1 84.6" style="enable-background:new 0 0 268.1 84.6;" xml:space="preserve">
<style type="text/css">
	.st0{fill:#FFFFFF;}
</style>
<g>
	<path class="st0" d="M102.4,44.7h-7.4l-1-0.4v-1l0.8-0.7l1.5-0.2l1-0.5l0.4-0.9l0.2-1l-0.2-1h-2.4l-0.3-0.7l-0.7-1l-1.5-0.7
		l-1.6,0.5l-0.7,1.8l-4.7-0.1l-0.1-2l1,0.1l1.7-0.1l1.8-0.2l1.2-0.7l0.5-1l-0.3-1.1l0.2-0.5l0.7-0.5l0.9-1.3h1l2.7-0.2l1.1-1.1
		l0.5-1.6l-1.5-0.8l-3.2-0.5l0.1-1.9l0.1-1.3L92.9,23H91l-1,1.6l-0.6,2.8l-2.9,0.1l-1.6,0.1l-1.3,1.7l0.2,1.2l1.6,0.7
		c0,0,2.8-0.2,3.1-0.2c0.3,0,1.1,0.6,1.1,0.6l0.3,1.4l-0.7,0.7l-2.7,0.1l-1.9-0.2L83,32.9l-0.9,0.7l-5.4-0.2l0.1-0.7l0.7-0.8
		l0.8-0.9h1.3l1-0.3l0.7-1l0.3-1.1l-1.2-1l-1.4-0.1l-1.3-0.6l-0.2-1.4l-0.7-1.2l-1-1l-1.5-0.1l-1.1,1.1l-0.1,2.5L72.1,27
		c0,0-1.5,0.1-1.8,0.2c-0.3,0.1-1.3,1-1.3,1l-0.6,1l0.2,1.4l1.4,0.8h1.6l1.7-0.2l0.4,0.5l1,0.8l0.9,0.4c0,0-0.2,0.7-0.5,0.8
		c-0.3,0.1-0.9,0.9-0.9,0.9l0.2,2.1l-1.2-0.1l-1.3,0.6l-0.6,1.7l-1.6,0.5l-1.2,2.9l1.3,0.8h2.5L72,44.6l-3,0.3l-2.6,0.6
		c0,0-1.6,0.6-2.2,1.9c-0.6,1.3,0,1.8,0,1.8l1.7,1.7l2.7,0.5l1.7-1.7l2.8-0.8c0,0,5-0.9,5.3-0.9c0.3,0,2.6,0.3,2.6,0.3l0.2,1.4
		l-1.4,0.3h-2.5c0,0-1.6,0-1.9,0c-0.3,0-1.6,1.2-1.6,1.2L73.7,53l1.5,0.7h6l0.2,5.3l0.1,1.6l0.2,1.1l1.1,0.4H84l1-1.2l0.4-1.3l0.1-2
		l-0.1-2.2l0.3-2l1.1-0.1c0,0,1.7,0.3,2.1,0.3c0.4,0,1.6,0.3,1.6,0.3l1.6-0.1l1-1.3l-0.3-1.7l-1.5-0.4l-2-0.3L86,50l-0.1-1.5H87h2.6
		l2.4,0.3l1.9,0.5l1.9,0.6l2,0.7l1.8-0.2l1.5-0.8l1.3-1.5l0.5-1.7L102.4,44.7z M77.6,36.7l1.3,0.2l2,0.2l0.3,1.1l-0.4,0.7h-1.4
		L77.6,39l-1.2-0.4l-0.1-1.5L77.6,36.7z M81,44.6c0,0-0.7,0.1-1.2,0.2c-0.5,0.1-1.8,0-1.8,0l-1.5-0.1l-0.1-1.3l0.4-0.9l1.7-0.3
		l1.7-0.3l0.8,0.6l0.4,1.2L81,44.6z M90.1,43.7l-0.6,1h-0.8h-2.1l-0.7-0.2l-0.2-1l0.2-1l1.2-0.1l2.5-0.1l0.6,0.6L90.1,43.7z"/>
	<path class="st0" d="M142.4,33.3l3.7,1c0,0,3.2,0.9,3.7,1c0.5,0.1,1.7,0.3,2.2,0.2c0.5-0.1,1.6-1,1.6-1l2.5-3.3l-0.6-1h-2.8
		l-6.1-0.2l-6.8-0.3v-2.3c0,0-1.5-1.7-2.6-1.8c-1.1-0.1-3.1,0-3.1,0l-0.7,1l-0.1,2.8c0,0-11.6-0.8-12.7-0.4c-1.1,0.4-3,2.4-3,2.4
		l0.4,2l0.9,1.1l1.5,1l1.2-0.6c0,0,1.6-1.1,2-1c0.4,0.1,3.8-0.4,3.8-0.4L130,33h2.9l1.3,0.5l0.3,2l-0.7,0.8l-1.1-0.2
		c0,0-0.5-0.4-0.8-0.5c-0.3-0.1-1-0.2-1-0.2l-1.9,1.1l-1.4,0.5l-1.5-0.5l-1.6-0.2L123,37l-0.9,1.1l0.1,6.3l1.3,11.9l1,1l1.4-0.5
		l1.1-0.6l0.1-4.5l6.8,0.1l0.4,3.5l0.2,2.2l0.6,2c0,0,0.9-0.1,1.2-0.1c0.3,0,1.5-0.4,1.5-0.4l0.5-1.6l0.4-2l0.2-3.6l6.4-0.2l1.5-1.1
		l0.1,2c0,0-0.3,2-0.2,2.5c0.1,0.5-0.3,2.3-0.3,2.3s0.7,1.3,1,1.3c0.3,0,2.6-0.8,2.6-0.8l0.8-2.3l0.7-3.4l1.2-12.9l-1.6-1.7
		l-2.3-0.1h-4.1l-2-1.1H141l-2.3-0.3l-0.1-1.1l1-1.8L142.4,33.3z M126.8,43.2l-0.1-1.2l0.1-0.7l0.1-0.8l1.7-0.3l1.1,0.7l1.1,1.5
		l-1.1,0.2l-1.4,0.1l-1.1,0.6L126.8,43.2z M134.1,48.3c0,0-1.4,0.3-1.7,0.4c-0.3,0.1-2.9,0.2-2.9,0.2l-2,0.1l-0.4-0.7v-1.4l0.1-0.7
		l2.6,0.2h2.4h1.9V48.3z M142.8,41.4l1-1.2l1.4,0.1l1.7,0.3l0.2,1.3l-0.1,1.3l-1.1,0.1l-2.6-0.2l-1.1-0.5L142.8,41.4z M141.8,46.6
		l2.3,0.1l1.7-0.2l1.3-0.6l0.1,1.4l-0.3,1.8l-1.4-0.7l-6.3-0.2l-0.2-1.7l0.9-0.2L141.8,46.6z M139,39.7l-0.1,1.1l-0.8,1.3l-0.8,0.8
		l-1,0.1l-1.3-0.2l-0.6-1.6l-0.3-1.6l1.1-0.1l1.2-0.1h1.8L139,39.7z"/>
	<g>
		<path class="st0" d="M212.3,55c-5.5-3.3-10.2-10.1-10.2-10.1l-0.2-1.3l0.9-0.1l1.8-0.3l1.6-1.3c0,0,1.1-12.9,0.9-13.2
			c-0.2-0.3-0.6-0.9-1.4-1.2c-0.8-0.3-2.1,0.5-2.1,0.5l-5.4-0.1c0,0-2.3-0.3-2.8-0.5c-0.5-0.2-1.8-0.3-1.8-0.3l-2.1,2.2l-0.3,2.5
			l-3.1-2.5l-0.8-1.1l-0.6-1.4l-0.9-0.8l-2,0.2l-1.6,1.7l-1.6,3.5l-1.6,1.7l-3.4,2.4l-2.5,1.1l-0.1,0.9l0.6,1.7l1.4,0.8l2.1-0.2
			l1.4-0.7l3.7,0.2v1.2l-3.2,0.4l-1.3,1l-0.2,1v1.1l1.2,0.5l3.4-0.1v3.1c0,0-1,0.1-1.3,0.1c-0.3,0-1.1-0.3-1.1-0.3l-0.9-0.3
			l-1.3,1.2l-0.7,1.2l0.8,1.3l1.2,1l1.5-1.1l1.3-1.2l0.8-0.7v3.4l-0.8,0.5h-1.4l-2-0.1l-1.1,0.1l-1.1,1.2l-0.4,1.1l0.5,1.6l1.1,1
			l1.5-0.1l1.4-0.8l2-0.8l7.7-0.2l0.5,0.7l0.4,1.4l0.8,0.8h1.1l5.8-3.5l1.7-1.5l0.3-0.8l-0.9-1.1l-1.2-0.1l-1,0.8l-1.5-0.1l-0.1-1.7
			l1.2-0.3l1.2-0.7l1.2-0.7h0.8l0.9,2.6l1.1,1.7l1,1.8l1.2,1.5l1,1.3l1.5,0.6h1.6l1.5-0.3l1.5-1.3l0.9-0.7L212.3,55z M190.5,52.5
			l-4.4-0.2l0.4-2.3l2.3,0.5l1.4-0.4l0.5-1.4l-0.1-1.3c0,0-1.4-0.3-1.7-0.3c-0.3,0-2.1-0.2-2.1-0.2v-1.3l0.4-0.9l1.5-0.1l1.3-0.3
			l0.7-1.2l-0.6-1.5l-2.9-0.2l0.2-2l1.7-0.2l0.9-0.4l0.3-1l-0.7-1.3c0,0-1.3-0.2-1.6-0.2c-0.3,0-2-0.1-2-0.1l-2.2-0.1l-1.6-0.3l1-1
			l1.5-1.4l1.4-0.5h1.1l1.1,1.1l1.4,1.2l0.9-0.2l0.9-0.4l0.3,18H190.5z M196.1,31.1l6-0.1l0.4,1l-0.2,1.4l-1.5,0.1l-4.4-0.2
			l-0.6-1.1L196.1,31.1z M198.5,44l-2.2,3l-0.8,0.1l-0.1-3.6l0.5-0.3h2.7L198.5,44z M200.9,39.7l-3.9-0.3l-0.9-0.5l0.1-1.6h5.5
			l0.4,1.7L200.9,39.7z"/>
		<g>
			<polygon class="st0" points="229.8,30.4 229.8,31.9 231.6,33.1 235.2,33.1 238.9,32.6 242.4,31.4 243.3,29.9 243.2,27.7 
				241.7,25.9 240.5,25.8 239.6,27 238.2,28.1 232.3,30 			"/>
			<polygon class="st0" points="249.4,26.8 248,28.3 248.4,30.2 250.1,31.2 253.2,31.4 258.1,31.7 261.1,31.5 262.7,30.4 
				262.7,28.5 260.9,27.5 255.4,27 			"/>
			<path class="st0" d="M229.7,36.6l-1.3,1.1l0.2,2.1l1.3,1.4l1.7-0.1c0,0,1.2-0.5,1.5-0.6c0.3-0.1,1.9-0.6,1.9-0.6l2.3,0.1l0.5,1.9
				V46l-0.6,2.9l-1.4,2.1l-1.7,0.9h-3.8l-1.3,1l-0.3,1.4c0,0,0.3,1.3,0.6,1.3c0.3,0,3,0.2,3,0.2l2.8-0.3l2.1-0.7l2-1.3l2-2.1
				l1.1-3.3l0.3-4.6l0.4-3.6l0.7-0.7l-0.3-2.6l-1.8-0.7l-2.6,0.2l-1.8,0.4l-2.9-0.2L229.7,36.6z"/>
			<path class="st0" d="M248.1,35.2c0,0-1.4,0.6-1.5,0.9c-0.1,0.3-0.4,2-0.4,2l0.6,1.4l1,0.4l1.6-0.1l1.3,0.1l0.7,5.6
				c0,0,0.1,2.9,0.2,3.5c0.1,0.6,0.3,3.8,0.3,3.8l0.3,3l0.2,2.2l1.1,0.8l1.4-0.1l1.4-0.8l0.5-1.2l0.2-4.9l-0.5-5.8l-0.3-5.5h1.6
				l1.6,0.8l1.9,0.8l2,0.1l2.2-0.9l0.8-1.5l1.1-2l0.1-1.8L248.1,35.2z"/>
		</g>
	</g>
	<path class="st0" d="M26.4,19.5L26.4,19.5c-0.3,0-0.5,0.2-0.5,0.5l0,17.3h0c0,0,0,0,0,0c0,0.1,0,0.1-0.1,0.1v0l-5,2.9
		c-0.1,0-0.1,0-0.2,0c-0.3,0-0.5-0.2-0.5-0.5V39l0,0l-0.4-10.1c0-0.1-0.1-0.1-0.1-0.1c-0.1,0-0.1,0.1-0.1,0.1l0,0l-0.5,10.8l0,0
		l-0.4-10.1c0-0.1-0.1-0.1-0.1-0.1c-0.1,0-0.1,0.1-0.1,0.2l0,0l0,0l-0.5,10.7l0,0l-0.4-10.1c0-0.1-0.1-0.1-0.1-0.1
		c-0.1,0-0.1,0.1-0.1,0.1l0,0c0,0,0,0,0,0l0,0l-0.5,10.7l0,0L16.2,31l0,0c0-0.1-0.1-0.1-0.1-0.1c-0.1,0-0.1,0.1-0.1,0.1l-0.5,10.6
		L15,31.7h0c0,0,0,0,0,0c0-0.1-0.1-0.1-0.1-0.1c-0.1,0-0.1,0.1-0.1,0.1l-0.5,10.8l0,0v13.9c0,0,0,0,0,0c0,0.3-0.2,0.5-0.5,0.5
		c-0.1,0-0.2,0-0.3-0.1c-4.6-3.1-7.7-8.4-7.7-14.4c0-8.5,6.1-15.5,14.1-17.1c0.2-0.1,0.3-0.2,0.3-0.4V20l0,0c0-0.3-0.2-0.5-0.5-0.5
		c0,0,0,0-0.1,0C8.5,21.2,0,30.8,0,42.3c0,11.6,8.5,21.1,19.6,22.8c0,0,0,0,0,0c0.3,0,0.5-0.2,0.5-0.5l0-17l0,0l0,0v0
		c0-0.1,0-0.1,0.1-0.1v0l5-2.9c0.1,0,0.1,0,0.2,0c0.3,0,0.5,0.2,0.5,0.5v0c0,0,0,0,0,0h0v0.4l0,0l0.4,10.1c0,0.1,0.1,0.1,0.1,0.1
		c0.1,0,0.1-0.1,0.1-0.1l0,0l0.5-10.8l0,0L27.4,55c0,0.1,0.1,0.1,0.1,0.1c0.1,0,0.1-0.1,0.1-0.1l0,0l0.5-10.7l0,0l0.4,10.1
		c0,0.1,0.1,0.1,0.1,0.1c0.1,0,0.1-0.1,0.1-0.1l0,0v0l0,0l0.5-10.7l0,0l0.4,10.1l0,0c0,0.1,0.1,0.1,0.1,0.1c0.1,0,0.1-0.1,0.1-0.1
		L30.6,43l0.4,9.9h0v0c0,0.1,0.1,0.1,0.1,0.1c0.1,0,0.1-0.1,0.1-0.1l0.5-10.8l0,0v-14c0-0.3,0.2-0.5,0.5-0.5c0.1,0,0.2,0,0.3,0.1
		c4.7,3.1,7.9,8.5,7.9,14.5c0,8.5-6.1,15.6-14.2,17.1c-0.2,0-0.4,0.2-0.4,0.5v0c0,0,0,0,0,0h0v4.7c0,0.3,0.2,0.5,0.5,0.5
		c0,0,0,0,0,0c11.2-1.6,19.8-11.2,19.8-22.9C46.2,30.7,37.6,21.1,26.4,19.5z"/>
</g>
</svg>
