<?xml version="1.0" encoding="utf-8"?>
<!-- Generator: Adobe Illustrator 25.4.8, SVG Export Plug-In . SVG Version: 6.00 Build 0)  -->
<svg version="1.1" id="圖層_1" xmlns="http://www.w3.org/2000/svg" xmlns:xlink="http://www.w3.org/1999/xlink" x="0px" y="0px"
	 viewBox="0 0 226.2 100" style="enable-background:new 0 0 226.2 100;" xml:space="preserve">
<style type="text/css">
	.st0{fill:#FFFFFF;}
</style>
<g>
	<g>
		<path class="st0" d="M142,59.4c-2.4,0-4,1.8-4,4.1c0,2.3,1.6,4,4,4c2.4,0,4-1.7,4-4C146.1,61.1,144.5,59.4,142,59.4z"/>
		<path class="st0" d="M33.5,59.5h-3.1v0.1v3.6h3.2c1.3,0,1.8-1,1.8-1.8C35.4,60.5,34.8,59.5,33.5,59.5z"/>
		<path class="st0" d="M16.8,59.8h-3.1v3.8h3.1c1.3,0,2-0.9,2-1.9S18.1,59.8,16.8,59.8z"/>
		<path class="st0" d="M50.6,59.4c-2.4,0-4,1.8-4,4.1c0,2.3,1.6,4,4,4c2.4,0,4-1.7,4-4C54.6,61.1,53,59.4,50.6,59.4z"/>
		<path class="st0" d="M113.1,51.6H0v11.7v11.8h113.1h113.1V63.3V51.6H113.1z M16.9,66.2h-3.2v3.5H11V57.2c2,0,3.9,0,5.9,0
			c3.2,0,4.8,2.1,4.8,4.5C21.7,64.2,20.1,66.2,16.9,66.2z M35.6,69.7l-3.2-4.1h-2v4.1h-2.8V57.2c2,0,3.9,0,5.9,0c3,0,4.6,2,4.6,4.2
			c0,1.6-0.5,3.1-2.9,3.9l3.4,4.1v0.3H35.6z M50.6,70c-4,0-6.8-2.5-6.8-6.6c0-4.1,2.8-6.6,6.8-6.6s6.8,2.5,6.8,6.6
			C57.4,67.5,54.6,70,50.6,70z M72.7,59.8h-6.3v3h5.9v2.5h-5.9v4.5h-2.8v-0.1V57.2h9.1V59.8z M88.5,69.7L88.5,69.7h-9.6
			c0-4.2,0-8.3,0-12.5h9.3v2.6h-6.5v2.4h6.2v2.4h-6.2v2.5h6.8V69.7z M99.2,70.1c-2.2,0-4.4-0.8-5.5-2.6l1.7-1.7
			c1,1.2,2.6,1.8,3.8,1.8c1.5,0,2.5-0.6,2.5-1.5c0-1.1-0.8-1.5-2.5-1.7c-2.6-0.3-5-0.9-5-3.9c0-2.5,2.4-3.8,5-3.8
			c1.9,0,3.4,0.4,4.7,1.9l-1.8,1.6c-0.7-0.7-1.9-1.1-2.9-1.1c-1.2,0-2.2,0.5-2.2,1.4c0,1.1,1.1,1.4,2.7,1.5c2.5,0.2,4.8,1.2,4.8,4.1
			C104.5,68.9,101.9,70.1,99.2,70.1z M115,70.1c-2.2,0-4.4-0.8-5.5-2.6l1.7-1.7c1,1.2,2.6,1.8,3.8,1.8c1.5,0,2.5-0.6,2.5-1.5
			c0-1.1-0.8-1.5-2.5-1.7c-2.6-0.3-5-0.9-5-3.9c0-2.5,2.4-3.8,5-3.8c1.9,0,3.4,0.4,4.7,1.9l-1.8,1.6c-0.7-0.7-1.9-1.1-2.9-1.1
			c-1.2,0-2.2,0.5-2.2,1.4c0,1.1,1.1,1.4,2.7,1.5c2.5,0.2,4.8,1.2,4.8,4.1C120.3,68.9,117.7,70.1,115,70.1z M129.1,69.7h-2.8V57.2
			h2.8V69.7z M142,70c-4,0-6.8-2.5-6.8-6.6c0-4.1,2.8-6.6,6.8-6.6s6.8,2.5,6.8,6.6C148.8,67.5,146,70,142,70z M166.3,69.7h-2.4
			l-6.2-8l0.1,4.1v3.9H155V57.2h2.4l6.3,8.1l-0.2-3.9v-4.2h2.8V69.7z M184.5,69.7h-2.4l-6.2-8l0.1,4.1v3.9h-2.8V57.2h2.4l6.3,8.1
			l-0.2-3.9v-4.2h2.8V69.7z M201.1,69.7H201h-9.5c0-4.2,0-8.3,0-12.5h9.3v2.6h-6.5v2.4h6.2v2.4h-6.2v2.5h6.8V69.7z M216.4,69.8h-9
			V57.2h2.7v10h6.3V69.8z"/>
	</g>
	<g>
		<g>
			<path class="st0" d="M141.8,84.4l-2.1,1.3c-0.6-1-1.9-1.6-3.5-1.6c-1.5,0-2.6,0.5-2.6,1.2c0,0.9,1.2,1.2,2.8,1.4l1.7,0.3
				c2,0.4,3.9,1,3.9,3.2c0,2.8-3.1,3.7-5.9,3.7c-2.2,0-4.5-0.8-5.8-2.4l2.2-1.3c1,1.2,2.4,1.7,4.1,1.7c1.2,0,2.9-0.4,2.9-1.4
				c0-0.9-1-1.1-2.8-1.5l-1.5-0.3c-2.1-0.4-4-1.1-4-3.1c0-2.4,2.7-3.5,5.2-3.5C138.6,82.1,140.4,82.8,141.8,84.4"/>
			<rect x="124.5" y="82.4" class="st0" width="2.5" height="11.2"/>
			<path class="st0" d="M118.1,89.1l3,4.5h-2.9l-2.6-4.1h-2.4v4.1h-2.5V82.4h5.6c2.9,0,4.5,1.4,4.5,3.4
				C120.7,88.3,118.7,88.9,118.1,89.1 M115.9,87.6c1.3,0,2.2-0.6,2.2-1.7c0-1-0.8-1.7-2.6-1.7h-2.4v3.4
				C113.1,87.6,115.9,87.6,115.9,87.6z"/>
			<path class="st0" d="M103,82.4l4.5,11.2h-2.7l-0.8-2.2h-5l-0.8,2.2h-2.7l4.5-11.2H103z M103.4,89.6l-1.8-5.1l0,0l-1.9,5.1H103.4z
				"/>
			<path class="st0" d="M93.4,86.2c0,2.2-1.9,3.7-4.5,3.7h-3v3.8h-2.5V82.4h5.3C91.9,82.4,93.4,84,93.4,86.2 M88.4,88.1
				c1.6,0,2.4-0.8,2.4-1.9c0-1.5-1-2-2.5-2h-2.4v3.9H88.4z"/>
		</g>
	</g>
	<g>
		<polygon class="st0" points="123.1,44.3 152.3,44.3 152.3,40.7 128.1,40.7 128.1,29.3 146.2,29.3 146.2,25.7 128.1,25.7 
			128.1,15.2 152.3,15.2 152.3,11.6 123.1,11.6 		"/>
		<polygon class="st0" points="138.2,6.4 134.3,10.8 146.7,6.4 		"/>
		<polygon class="st0" points="201.3,40.7 201.3,11.6 196.7,11.6 196.7,44.3 226.2,44.3 226.2,40.7 		"/>
		<path class="st0" d="M171.2,11.6l-16.6,32.6h5.6l4.3-8.4h19.9l4.3,8.4h5.6l-16.6-32.6C177.7,11.6,171.2,11.6,171.2,11.6z
			 M166.5,31.8l7.8-15.6l7.9,15.6H166.5z"/>
		<path class="st0" d="M107.2,30.6c7.5-2,8.2-7.6,8.2-9.6c-0.4-5.8-4.4-9.4-11.4-9.4H83.4v32.6h4.7V30.6h13.4l9.9,13.7h5.9
			C117.2,44.3,110.1,35.1,107.2,30.6 M103.3,26.7H88.1V15.5h15.8c3.6,0,5.7,1.7,6.4,3.8c0.5,1.5,0.2,3.4-0.6,4.7
			C108.3,26.3,105.8,26.7,103.3,26.7"/>
		<path class="st0" d="M55.2,6.1c-13.2,0-22.3,9.3-22.3,20.6c0,11.9,10,20.3,22.3,20.3s22.3-8.3,22.3-20.3
			C77.5,15.4,68.3,6.1,55.2,6.1 M55,43c-9.2,0-16.7-7.4-16.7-16.2c0-8.9,7.2-16.6,17.1-16.6c9.6,0,16.7,7.7,16.7,16.6
			C72.1,35.6,64.2,43,55,43"/>
		<polygon class="st0" points="21.1,23.2 24.5,23.2 30.6,11.6 25.7,11.6 		"/>
		<polygon class="st0" points="4.6,40.7 4.6,11.6 0,11.6 0,44.3 29.5,44.3 29.5,40.7 		"/>
	</g>
</g>
</svg>
