<?xml version="1.0" encoding="utf-8"?>
<!-- Generator: Adobe Illustrator 25.4.8, SVG Export Plug-In . SVG Version: 6.00 Build 0)  -->
<svg version="1.1" id="圖層_1" xmlns="http://www.w3.org/2000/svg" xmlns:xlink="http://www.w3.org/1999/xlink" x="0px" y="0px"
	 viewBox="0 0 106.5 100" style="enable-background:new 0 0 106.5 100;" xml:space="preserve">
<style type="text/css">
	.st0{fill:#FFFFFF;}
	.st1{fill:none;}
</style>
<g>
	<g>
		<path class="st0" d="M100.1,2.6H99V2h2.8v0.6h-1.1v2.9h-0.7V2.6z M102.5,2h1l1,2.7h0l1-2.7h1v3.5h-0.7V2.6h0l-1,2.9h-0.5l-1-2.9h0
			v2.9h-0.7V2z"/>
	</g>
	<g>
		<polygon class="st0" points="28.6,77 23.3,92.8 15.8,76.6 8.3,92.8 3,77 0.2,77 7.9,100 15.7,83.1 23.6,100 31.4,77 		"/>
		<path class="st0" d="M40.8,76.5L30.7,99.3h2.9l2.9-6.5H45l2.9,6.5h2.9L40.8,76.5z M43.9,90.2h-6.2l3.1-7.1L43.9,90.2z"/>
		<polygon class="st0" points="50,77 50,79.7 55.6,79.7 55.6,99.3 58.4,99.3 58.4,79.7 63.9,79.7 63.9,77 		"/>
		<polygon class="st0" points="68.8,77 68.8,99.3 80.5,99.3 80.5,96.6 71.6,96.6 71.6,88.5 80.2,88.5 80.2,85.9 71.6,85.9 
			71.6,79.7 80.5,79.7 80.5,77 		"/>
		<path class="st0" d="M97.9,99.3h-3.3L88,90v9.3h-2.8V77h3.4c1.7,0,3.6,0,5.3,1.2c1.6,1.1,2.5,2.9,2.5,5.1c0,1.8-0.6,3.3-1.7,4.4
			c-1,1-2.3,1.5-3.9,1.7L97.9,99.3z M91.7,80.1c-1-0.4-2.2-0.4-3.4-0.4H88v7.1h1c1.3,0,2.4-0.1,3.3-0.8c0.8-0.7,1.3-1.7,1.3-2.8
			C93.6,81.8,92.9,80.6,91.7,80.1z"/>
	</g>
	<g>
		<path class="st0" d="M76.5,1.2c0-0.2-0.1-0.4-0.2-0.6l-0.1-0.1c-0.1-0.1-0.3-0.3-0.4-0.3l-0.2-0.1C75.5,0,75.4,0,75.3,0L61.7,0
			c-0.2,0-0.4,0.1-0.6,0.2L61,0.3c-0.1,0.1-0.2,0.2-0.2,0.3l-0.1,0.1c-0.1,0.2-0.1,0.3-0.1,0.5v0.9c0,0.2,0,0.3,0.1,0.5l0.1,0.1
			c0.1,0.2,0.3,0.4,0.5,0.5l0.2,0.1c0.1,0,0.2,0.1,0.3,0.1l0.7,0.1L63,3.5l0.4,0.2l0,57.8c0-0.1,0,0.4-0.1,0.5l-0.1,0.5L63,63
			l-0.3,0.4l-0.1,0.1l-0.2,0.1l-0.2,0.1L62,63.8l-0.3,0.1l-0.4,0l-0.6,0l-0.1,0l-0.4-0.2l-0.1-0.1L60,63.4l-0.1-0.1l-0.2-0.5
			l-0.2-0.7l-0.1-1c0,0.1,0-1.1,0-1.1c0,0,0-11.6,0-11.6c0,0.1,0.1-1,0.1-1c0,0,0.1-0.6,0.1-0.7l0.2-1l0.3-0.7
			c0,0.1,0.1-0.3,0.1-0.3c0.1-0.1,0.1-0.3,0.1-0.5v-0.2c0-0.2-0.1-0.4-0.2-0.5l-0.1-0.1c-0.1-0.2-0.2-0.3-0.4-0.4l-1-0.5
			c-0.1-0.1-0.3-0.1-0.4-0.1h-0.2c-0.2,0-0.4,0.1-0.6,0.2l-0.1,0.1c-0.1,0-0.1,0.1-0.1,0.1l-7.8,7.5c-0.1,0.1-0.1,0.2-0.2,0.2
			L49,50.6c-0.1,0.2-0.1,0.3-0.1,0.5l0,8.3c0,0,0,1.1,0,1.2l0.2,1.5c0,0,0,0.1,0,0.1l0.2,1c0,0.1,0.3,1,0.3,1c0,0,0,0.1,0,0.1
			l0.4,0.9c0,0,0,0.1,0.1,0.1l0.5,0.8c0,0,0,0.1,0.1,0.1l0.6,0.7c0,0,0,0.1,0.1,0.1l0.7,0.7c0,0,0.1,0.1,0.1,0.1l0.8,0.6
			c0,0,0.1,0.1,0.1,0.1L54,69c0,0,0.1,0,0.1,0.1l1,0.4c0.1,0,1.2,0.4,1.2,0.4c0,0,0.1,0,0.1,0l1.2,0.3c0.1,0,1.4,0.2,1.4,0.2
			c0.1,0,1.5,0.1,1.5,0.1c0.1,0,1.8,0,1.8,0c0.1,0,1.8-0.2,1.8-0.2c0,0,0.1,0,0.1,0l1.5-0.3c0,0,0.1,0,0.1,0l1.3-0.4
			c0,0,0.1,0,0.1,0l1.2-0.6c0.1,0,0.6-0.4,0.6-0.4c0,0,0.1,0,0.1-0.1l0.9-0.7c0,0,0.1,0,0.1-0.1l0.8-0.7c0,0,0.1-0.1,0.1-0.1
			l0.7-0.8c0,0,0-0.1,0.1-0.1l0.5-0.8c0-0.1,0.5-0.9,0.5-0.9c0,0,0-0.1,0-0.1l0.3-0.8c0-0.1,0.3-0.9,0.3-0.9c0-0.1,0.2-0.8,0.2-0.8
			c0-0.1,0.2-1.4,0.2-1.4c0,0,0-0.1,0-0.1l0-56.4l0.3-0.1l0.8-0.2l0.8-0.1c0.1,0,0.2,0,0.3-0.1C76,3,76.3,2.8,76.4,2.6l0.1-0.2
			c0-0.1,0.1-0.3,0.1-0.4L76.5,1.2z"/>
		<g>
			<path class="st0" d="M27.2,23.1c-0.2,0.2-0.4,0.3-0.7,0.3C26.8,23.4,27.1,23.3,27.2,23.1c0.1-0.2,0.2-0.3,0.2-0.4c0,0,0,0,0,0
				c0,0,0-0.1,0-0.1C27.5,22.7,27.4,22.9,27.2,23.1z"/>
			<path class="st0" d="M27.4,22.2c0,0,0,0.1,0,0.1C27.5,22.3,27.5,22.2,27.4,22.2z"/>
			<path class="st0" d="M27.5,22.5c0,0,0-0.1,0-0.1C27.5,22.4,27.5,22.5,27.5,22.5z"/>
			<path class="st0" d="M27.5,22.6C27.5,22.6,27.5,22.6,27.5,22.6C27.5,22.6,27.5,22.6,27.5,22.6z"/>
			<path class="st0" d="M27.3,23.1c-0.2,0.2-0.4,0.3-0.7,0.4C26.8,23.4,27,23.3,27.3,23.1c0.1-0.1,0.2-0.3,0.2-0.5c0,0,0,0.1,0,0.1
				c0,0,0-0.1,0-0.1c0-0.1,0-0.1,0-0.2L25,1.1c0-0.2-0.1-0.3-0.1-0.4l-0.1-0.1c-0.1-0.2-0.3-0.3-0.5-0.4l-0.2-0.1
				C24,0,23.9,0,23.8,0L1.2,0C0.9,0,0.7,0.1,0.5,0.3L0.4,0.3c0,0-0.1,0.1-0.1,0.1L0.2,0.6C0.1,0.7,0,1,0,1.2L0,2c0,0,0,0.1,0,0.1
				l0,0.1c0,0.2,0.1,0.3,0.2,0.5l0.1,0.1c0.1,0.2,0.3,0.3,0.5,0.4l0.2,0.1c0.1,0,0.2,0.1,0.3,0.1l0.7,0.1l0.5,0.1l0.4,0.2v62.6l0,0
				l-0.5,0.2l-0.8,0.2c0.1,0-0.5,0.1-0.5,0.1c-0.2,0-0.4,0.1-0.5,0.2l-0.1,0.1c-0.1,0-0.1,0.1-0.2,0.2l-0.1,0.1
				C0.1,67.4,0,67.6,0,67.8v1c0,0.3,0.1,0.5,0.3,0.7l0.1,0.1c0,0,0.1,0.1,0.1,0.1l0.1,0.1C0.7,69.9,0.9,70,1.2,70h13.7
				c0.2,0,0.4-0.1,0.6-0.2l0.1-0.1c0.1-0.1,0.1-0.1,0.2-0.2c0.1-0.2,0.3-0.5,0.3-0.7v-1c0-0.2-0.1-0.4-0.2-0.6l-0.1-0.1
				c-0.1-0.2-0.2-0.3-0.4-0.4l-0.2-0.1c-0.1,0-0.2-0.1-0.2-0.1l-1.2-0.2l-0.6-0.2V38.4l0.8,0c0,0,0.3,0,0.4,0.1l0.3,0.1l0.1,0
				l0.3,0.2l0.3,0.4l0.2,0.3c0-0.1,0.6,1.4,0.6,1.4c0,0,0.5,1.2,0.5,1.2c0,0,0.1,0.4,0.1,0.4c0,0,0,0.1,0.1,0.1l0.3,0.6
				c0,0,0.2,0.6,0.2,0.6c0,0,1.9,4.8,1.9,4.8c0,0.1,0.1,0.1,0.1,0.2l0.1,0.1c0.1,0.2,0.3,0.3,0.5,0.4l0.2,0.1
				c0.1,0.1,0.3,0.1,0.4,0.1l0.8,0c0.2,0,0.4-0.1,0.6-0.2c0.1-0.1,0.2-0.2,0.3-0.3l0.1-0.1c0.1-0.2,0.2-0.4,0.2-0.6V23
				c0-0.2-0.1-0.5-0.2-0.7c0,0-0.1-0.1-0.1-0.2l-0.1-0.1c-0.2-0.2-0.4-0.3-0.7-0.3h-0.9c-0.3,0-0.5,0.1-0.7,0.3l-0.1,0.2
				c-0.1,0.1-0.2,0.2-0.2,0.3l-2,4.8c0,0-0.7,1.5-0.7,1.5c0-0.1-0.4,0.8-0.5,1l-0.5,0.7l-0.2,0.2c0,0-0.1,0.1-0.1,0.1l-0.3,0.2
				l-0.3,0.1l-0.5,0.1l-1.1,0V6.8l1.3,0l0.6,0.1L15.5,7l0.4,0.2l0.3,0.2c0,0,0.1,0.1,0.2,0.2l0.3,0.3L17.3,9c0-0.1,0.8,1.3,0.8,1.3
				c0,0,0.8,1.6,0.8,1.6c0,0,1.6,3.2,1.6,3.2c0,0,0.9,2,1.1,2.4c0,0,0,0,0,0.1l2.3,5.4c0,0.1,0.1,0.2,0.2,0.3c0,0,0.1,0.2,0.2,0.2
				l0.1,0.1c0.2,0.2,0.4,0.2,0.7,0.2h1.3c0.2,0,0.5-0.1,0.7-0.3l0.1-0.1C27.1,23.3,27.2,23.2,27.3,23.1l0.1-0.2
				c0-0.1,0.1-0.1,0.1-0.2C27.4,22.8,27.4,22.9,27.3,23.1z M27.5,22.5c0,0,0-0.1,0-0.1C27.5,22.4,27.5,22.5,27.5,22.5z M27.5,22.3
				c0-0.1,0-0.1,0-0.1C27.5,22.2,27.5,22.3,27.5,22.3z"/>
		</g>
		<path class="st0" d="M46.6,67.3L46.6,67.3c-0.2-0.2-0.3-0.4-0.5-0.5L46,66.7c-0.1,0-0.1-0.1-0.2-0.1l-1.2-0.2L44,66.2V3.6l0,0
			l0.5-0.2L45,3.3c-0.1,0,0.7-0.1,0.7-0.1c0.1,0,0.2,0,0.3-0.1c0.2-0.1,0.5-0.4,0.6-0.6l0.1-0.2c0-0.1,0.1-0.2,0.1-0.4l0-0.8
			c0-0.2-0.1-0.4-0.2-0.5l-0.1-0.1c-0.1-0.1-0.1-0.2-0.2-0.2l-0.1-0.1C46.1,0.1,45.9,0,45.6,0H32c-0.2,0-0.4,0.1-0.6,0.2l-0.1,0.1
			c-0.1,0.1-0.2,0.2-0.3,0.4l-0.1,0.2c-0.1,0.1-0.1,0.3-0.1,0.4V2c0,0.1,0,0.3,0.1,0.4L31,2.6c0.1,0.3,0.3,0.4,0.6,0.5l0.2,0.1
			c0.1,0,0.2,0.1,0.3,0.1l0.7,0.1l0.5,0.1l0.4,0.2v62.6l-0.1,0L33,66.4l-0.7,0.2c0,0-0.5,0.1-0.5,0.1c-0.2,0-0.3,0.1-0.4,0.2
			l-0.1,0.1c-0.1,0.1-0.2,0.1-0.2,0.2L31,67.2c-0.1,0.2-0.2,0.4-0.2,0.6v1c0,0.2,0.1,0.5,0.2,0.7l0.1,0.1c0.1,0.1,0.2,0.2,0.4,0.3
			l0.2,0.1C31.8,70,32,70,32.1,70l13.5,0c0.2,0,0.5-0.1,0.6-0.2l0.1-0.1c0.1-0.1,0.3-0.3,0.3-0.4l0.1-0.2c0-0.1,0.1-0.3,0.1-0.4
			l0-0.9C46.8,67.6,46.8,67.4,46.6,67.3z"/>
		<path class="st0" d="M97,67.2c-0.1-0.2-0.3-0.3-0.4-0.4l-0.2-0.1c-0.1,0-0.2-0.1-0.2-0.1L95,66.4l-0.6-0.2V3.6l0.5-0.2l0.5-0.1
			c-0.1,0,0.7-0.1,0.7-0.1c0.1,0,0.2,0,0.3-0.1l0.1,0C96.8,3,97,2.8,97.1,2.5l0.1-0.2c0-0.1,0.1-0.3,0.1-0.4l0-0.8
			c0-0.2-0.1-0.4-0.1-0.5L97,0.6c-0.1-0.1-0.2-0.2-0.3-0.3l-0.1-0.1C96.5,0.1,96.3,0,96,0H82.4c-0.2,0-0.4,0.1-0.6,0.2l-0.1,0.1
			c-0.1,0.1-0.1,0.1-0.2,0.2l-0.1,0.1c-0.1,0.2-0.2,0.4-0.2,0.6l0,0.8c0,0.1,0,0.2,0,0.3l0,0.1c0,0.1,0.1,0.2,0.1,0.3l0.1,0.1
			c0.1,0.2,0.3,0.3,0.5,0.4l0.2,0.1c0.1,0,0.2,0.1,0.3,0.1l0.7,0.1l0.5,0.1L84,3.6v62.6l0,0l-0.5,0.2l-0.7,0.2c0,0-0.5,0.1-0.5,0.1
			c-0.2,0-0.3,0.1-0.4,0.2l-0.1,0.1c-0.1,0.1-0.2,0.1-0.2,0.2l-0.1,0.1c-0.1,0.2-0.2,0.4-0.2,0.6v1c0,0.2,0.1,0.5,0.3,0.7l0.1,0.1
			c0,0,0.1,0.1,0.1,0.1l0.1,0.1c0.2,0.1,0.4,0.2,0.6,0.2H96c0.2,0,0.4-0.1,0.6-0.2l0.1-0.1c0.1-0.1,0.2-0.1,0.2-0.2
			c0.1-0.2,0.2-0.5,0.2-0.7v-1C97.2,67.6,97.2,67.4,97,67.2L97,67.2z"/>
	</g>
</g>
<rect class="st1" width="82.7" height="82.7"/>
</svg>
