<?xml version="1.0" encoding="utf-8"?>
<!-- Generator: Adobe Illustrator 25.4.8, SVG Export Plug-In . SVG Version: 6.00 Build 0)  -->
<svg version="1.1" id="圖層_1" xmlns="http://www.w3.org/2000/svg" xmlns:xlink="http://www.w3.org/1999/xlink" x="0px" y="0px"
	 viewBox="0 0 268.1 100" style="enable-background:new 0 0 268.1 100;" xml:space="preserve">
<style type="text/css">
	.st0{fill:#FFFFFF;}
</style>
<g>
	<g>
		<g>
			<path class="st0" d="M128.7,70.7c-0.1-0.1-0.3-0.2-0.5-0.3c0.5,0,0.8-0.2,1.1-0.5c0.3-0.3,0.4-0.6,0.4-1c0-0.3-0.1-0.5-0.3-0.8
				c-0.2-0.2-0.4-0.4-0.7-0.5c-0.3-0.1-0.7-0.2-1.4-0.2h-1.8v5.4h0.9v-2.3h0.5c0.3,0,0.5,0.1,0.7,0.2c0.2,0.2,0.5,0.6,0.9,1.3
				l0.5,0.9h1.1l-0.7-1.1C129.1,71.3,128.9,70.9,128.7,70.7z M127.5,69.8h-1.1v-1.6h1c0.4,0,0.7,0,0.9,0.1c0.2,0.1,0.3,0.2,0.4,0.3
				c0.1,0.1,0.1,0.3,0.1,0.4c0,0.2-0.1,0.4-0.3,0.6C128.4,69.7,128,69.8,127.5,69.8z"/>
			<path class="st0" d="M131.9,67.6c-0.4-0.8-1.1-1.4-1.9-1.9c-0.8-0.4-1.6-0.6-2.5-0.6c-0.8,0-1.7,0.2-2.5,0.7
				c-0.8,0.4-1.4,1-1.9,1.8c-0.4,0.8-0.7,1.6-0.7,2.5c0,0.9,0.2,1.7,0.7,2.5c0.5,0.8,1.1,1.4,1.9,1.9c0.8,0.4,1.6,0.7,2.5,0.7
				c0.9,0,1.7-0.2,2.5-0.7c0.8-0.5,1.4-1.1,1.8-1.9c0.4-0.8,0.7-1.6,0.7-2.5C132.5,69.2,132.3,68.4,131.9,67.6z M131.2,72.1
				c-0.4,0.7-0.9,1.2-1.5,1.5c-0.7,0.4-1.4,0.6-2.1,0.6c-0.7,0-1.4-0.2-2.1-0.6c-0.7-0.4-1.2-0.9-1.6-1.5c-0.4-0.7-0.6-1.4-0.6-2.1
				c0-0.7,0.2-1.4,0.6-2.1c0.4-0.7,0.9-1.2,1.6-1.6c0.7-0.4,1.3-0.5,2-0.5c0.7,0,1.4,0.2,2.1,0.5c0.7,0.4,1.2,0.9,1.6,1.6
				c0.4,0.7,0.6,1.4,0.6,2.1C131.7,70.8,131.5,71.5,131.2,72.1z"/>
		</g>
		<path class="st0" d="M66.8,48.7h-1.9l-4.1,7.9h6c2.9,0,5.3,2.4,5.3,5.3c0,2.9-2.4,5.3-5.3,5.3l-22.6,0c-2.2,0-3.9,1.8-3.9,3.9v3
			c0,0.5,0.4,0.9,0.9,0.9h3c0,0,22.6,0,22.6,0l0,0c0,0,5.6,0.2,9.3-3.7c0,0,0,0,0,0c2.4-2.4,3.9-5.7,3.9-9.3
			C80,54.7,74.8,48.7,66.8,48.7z"/>
		<path class="st0" d="M37.9,34.9L37.9,34.9H20.1C9,34.9,0,43.9,0,55c0,10.3,7.7,18.8,17.7,19.9l0,0c0,0,0.1,0,0.4,0
			C18.7,75,19.3,75,20,75c1.6,0.1,9.2,0,9.2,0c0.3,0,0.5,0,0.5,0c1.4,0,2.6-0.7,3.3-1.8l3.4-4.5l0-0.1c0.1-0.1,0.1-0.3,0.1-0.5
			c0-0.5-0.4-1-0.9-1c0,0,0,0-0.1,0l-14.3,0L18,66.9C11.8,65.8,8,61,8,55c0-6.7,5.4-12.1,12.1-12.1c0,0,11.5,0,11.5,0h0
			c1.3,0,2.4-0.6,3.2-1.6l3.8-5l0,0c0.1-0.2,0.2-0.4,0.2-0.6C38.8,35.3,38.4,34.9,37.9,34.9z"/>
		<path class="st0" d="M78.6,34.9c0,0-23.4,0-23.5,0c-0.1,0-0.1,0-0.2,0h0l0,0c-7.2,0.1-13,6-13,13.2c0,7.3,5.9,13.2,13.2,13.2h1
			l4.1-7.9h-2.2c-3.1,0-3.7-0.2-3.7-0.2c-2.6-0.6-4.3-2.5-4.3-5.1c0-2.9,2.3-5.1,5.2-5.1h17.8c0,0,0,0,0.1,0c1.4,0,2.7-0.8,3.4-1.9
			l0,0l3.1-4.7c0.1-0.1,0.2-0.3,0.2-0.5C79.5,35.3,79.1,34.9,78.6,34.9z"/>
		<path class="st0" d="M121.7,24.9c-4,0-7.2,3.2-7.2,7.2v2.7c0,0-12.1,0-12.2,0c-11.1,0-20,9.2-20,20.2c0,11.1,9,20,20,20
			c0,0,0.2,0,0.2,0c11.1,0,20-9,20-20V24.9H121.7z M102.5,67.1c0,0-0.2,0-0.2,0c-6.6,0-12-5.4-12-12c0-6.6,5.4-12.2,12-12.2
			c0,0,12.2,0,12.2,0v12.9c0,0,0,0.6-0.1,0.9c0,0,0,0.1,0,0.1C113.6,62.6,108.6,67.1,102.5,67.1z"/>
	</g>
	<g>
		<path class="st0" d="M204,48L204,48c0-0.5,0-1.1-0.1-1.7l0-0.1c0-0.2-0.1-0.4-0.1-0.6c0-0.2-0.1-0.3-0.1-0.5l0,0
			c-0.8-3.8-3.1-7.3-6.3-9.4c-1.3-0.9-2.8-1.6-4.4-2c-0.8-0.2-1.6-0.4-2.4-0.4c-0.3,0-2.8-0.1-2.9-0.1l-11.1,0V21.9h-6.4v11.2
			l-17.5,0v0h-6.4v30.3h6.4V39.7l3.3,0c0.8,0,8,0,10.8,0c1.2,0,2.4,0,3.4,0v16.8h-13.7v6.8h13.7v14.7h6.4V63.4h7.5l1.2,0
			c0.4,0,0.9,0,1.4,0c0.3,0,0.5,0,0.8,0c0.5,0,1,0,1.5-0.1l0,0c0.2,0,5.8-0.2,9.8-3.8c0.5-0.4,0.9-0.8,1.3-1.3
			c1.8-1.9,3-4.3,3.6-6.9c0,0,0,0,0,0C204.1,49.7,204,48,204,48z M186.9,56.6c0,0-1,0-1.1,0h-9.3V39.7c0.8,0,6.2,0,7.8,0.1
			c0.7,0,2.6,0.1,2.6,0.1c5.3,0,9.6,3.7,9.6,8.4C196.5,52.8,192.2,56.6,186.9,56.6z"/>
		<g>
			<polygon class="st0" points="245.5,65 239.9,65 239.7,65 239.7,78.1 239.9,78.1 245.5,78.1 245.7,78.1 245.7,65 			"/>
			<path class="st0" d="M237.9,69.3L237.9,69.3c-0.9,0-1.7,0-2.3-0.1c-1.9-0.2-3.2-1.5-3.2-3.1c0-1.6,1.4-2.9,3.2-2.9l16.6,0v-5.4
				h-15.5c-3,0-5.6,0.8-7.5,2.2c-0.7,0.5-1.2,1.1-1.7,1.7l-0.2,0.2c-0.8,1.1-1.2,2.5-1.2,3.9h0v0.5l0,0c0.1,1.1,0.3,2.2,0.8,3
				c0.5,0.9,1.2,1.7,2.3,2.5c1,0.7,2.1,1.3,3.3,1.7c1.2,0.4,2.6,0.6,4,0.6h17.3v-4.8H237.9z"/>
			<path class="st0" d="M255.1,33.9h-2.5V25h-1.8h-4.3h-5.1v-3.1h-6.1V25h-7.9v5.2h7.9v3.7h-9.8v5.2h29.3v5.1h5.2v28.8h-4.4v5.2h4.4
				h3.9h2.2v-34h1.9V39h-13.1V33.9z M241.4,33.9v-3.7h5.1v3.7H241.4z"/>
			<polygon class="st0" points="210.6,45.8 217.3,45.8 217.3,78.1 223.4,78.1 223.4,45.8 223.4,44 223.4,40.6 210.6,40.6 			"/>
			<path class="st0" d="M218.2,23.8v6.7h-5.9V36h5.5h0c1.9-0.1,3.3-0.7,4.3-1.8c0.8-0.9,1.2-2,1.4-3l0,0c0.1-0.6,0.2-1.4,0.2-1.4
				l0,0v-6H218.2z"/>
			<path class="st0" d="M268.1,31.3c0,0,0-0.1,0-0.1c0-0.6-0.3-1.3-0.3-1.3l0,0c-1.2-3.9-4.7-4.4-6-4.5h-6v5.5h6.2v5.4h6.1
				C268.1,36.3,268.1,31.3,268.1,31.3z"/>
			<path class="st0" d="M252.6,46.5c0-0.5-0.2-1.1-0.2-1.1v0c-1.2-4.1-5.7-4.6-7.1-4.6l-17.2,0v15.4h3.2h14.4l7,0v-9.5
				C252.6,46.6,252.6,46.5,252.6,46.5z M245.6,50.9h-11.5v-5h4h7.2h0.3V50.9z"/>
		</g>
	</g>
</g>
</svg>
