<?xml version="1.0" encoding="utf-8"?>
<!-- Generator: Adobe Illustrator 25.4.8, SVG Export Plug-In . SVG Version: 6.00 Build 0)  -->
<svg version="1.1" id="圖層_1" xmlns="http://www.w3.org/2000/svg" xmlns:xlink="http://www.w3.org/1999/xlink" x="0px" y="0px"
	 viewBox="0 0 268.1 100" style="enable-background:new 0 0 268.1 100;" xml:space="preserve">
<style type="text/css">
	.st0{fill:#FFFFFF;}
</style>
<g>
	<rect x="195.9" y="83.4" class="st0" width="63.2" height="0.7"/>
	<rect x="0.7" y="83.4" class="st0" width="60.7" height="0.7"/>
	<g>
		<path class="st0" d="M78.6,83.8c-0.6-0.5-1.6-1.2-2.5-1.6l0.5-0.8c0.8,0.4,2,1,2.5,1.5L78.6,83.8z M76.6,89.9
			c0.7-1.1,1.8-3.1,2.5-4.8l0.7,0.7c-0.7,1.6-1.6,3.4-2.4,4.8L76.6,89.9z M77.4,77.4c0.9,0.4,2,1.1,2.6,1.6l-0.6,0.9
			c-0.5-0.5-1.6-1.2-2.5-1.7L77.4,77.4z M87.3,90.9c-0.1-0.4-0.4-0.9-0.6-1.5c-5,0.7-5.6,0.8-5.9,1c-0.1-0.3-0.2-0.8-0.3-1.1
			c0.3-0.1,0.5-0.4,0.9-1c0.3-0.4,1.2-2,1.9-3.7h-3v-1.1h3.5v-2.7h-2.9v-1.1h2.9v-2.6h1v2.6h3v1.1h-3v2.7h3.5v1.1h-3.8
			c-0.7,1.6-1.5,3.2-2.4,4.4l4.3-0.5c-0.4-0.7-0.8-1.3-1.2-1.9l0.8-0.4c0.9,1.3,2,3.1,2.4,4.2L87.3,90.9z"/>
		<path class="st0" d="M121.5,77.9v13h-1v-0.7h-9.2v0.7h-1v-13H121.5z M120.5,89.2V79h-9.2v10.3H120.5z M116,87
			c-1.4,0.3-2.8,0.6-3.9,0.8l-0.2-0.8c1-0.2,2.5-0.5,4-0.7L116,87z M119.3,82.6c-0.3,1.4-0.9,2.6-1.5,3.6c0.3,0.8,0.6,1.3,1.1,1.4
			c0.2,0,0.3-0.6,0.4-1.5c0.2,0.2,0.5,0.4,0.7,0.5c-0.2,1.6-0.6,2.2-1.3,1.9c-0.6-0.1-1-0.7-1.4-1.5c-0.5,0.7-1.1,1.3-1.8,1.8
			c-0.1-0.2-0.4-0.5-0.6-0.7c0.8-0.5,1.5-1.2,2.1-2c-0.3-1.2-0.6-2.7-0.7-4.4h-4.1v-0.9h4.1c0-0.5-0.1-1.1-0.1-1.6h0.9
			c0,0.5,0.1,1.1,0.1,1.6h2.9v0.9H117c0.1,1.3,0.3,2.4,0.5,3.4c0.4-0.8,0.8-1.7,1-2.7L119.3,82.6z M115.5,82.7v2.9h-3v-2.9H115.5z
			 M114.8,83.4h-1.6v1.5h1.6V83.4z M119.1,80.8c-0.3-0.3-0.9-0.8-1.4-1.1l0.5-0.6c0.5,0.3,1.1,0.7,1.4,1L119.1,80.8z"/>
		<path class="st0" d="M144.3,78.8h1.3v9.8h4.3v1.2h-5.6V78.8z"/>
		<path class="st0" d="M171.8,78.8h2.9c2,0,3.4,0.7,3.4,2.7c0,1.1-0.5,2.1-1.5,2.4v0.1c1.2,0.3,2,1.1,2,2.6c0,2.2-1.5,3.2-3.7,3.2
			h-3.2V78.8z M174.5,83.4c1.7,0,2.4-0.7,2.4-1.8c0-1.3-0.8-1.8-2.3-1.8h-1.5v3.6H174.5z M174.8,88.6c1.7,0,2.7-0.7,2.7-2.2
			c0-1.4-1-2-2.7-2h-1.7v4.1H174.8z"/>
	</g>
	<g>
		<g>
			<polygon class="st0" points="0.5,9.5 0.5,43.9 12.7,43.9 12.7,39.9 5.1,39.9 5.1,9.5 			"/>
			<path class="st0" d="M22,9.5l-7.5,34.3H19l1.3-6.7h6.8l1.3,6.7H33L25.6,9.5H22z M26.5,33.6H21l2.7-17.4h0.1l1.7,12.5L26.5,33.6z"
				/>
			<path class="st0" d="M51.1,28.3c4.2-0.1,5,2.3,5,6c0,3.8-1,5.8-5,5.6V28.3z M52.3,43.9c6.3,0,8.6-3,8.6-9.4
				c0-3.8-0.9-6.8-4.8-8.1v-0.1c3.6-1,4.3-4.2,4.3-7.6c0-5.8-1.7-9.2-7.9-9.2h-5.7v34.3H52.3z M56,18.6c0,3.6-0.6,6.3-4.8,6.1V13.4
				h0.8C55.1,13.4,56,15.9,56,18.6"/>
			<rect x="65.2" y="9.5" class="st0" width="4.6" height="34.3"/>
			<path class="st0" d="M83.2,9.1c-8.8,0-8.9,11.4-8.9,17.6c0,6.2,0.1,17.6,8.9,17.6s8.9-11.4,8.9-17.6C92.1,20.5,92,9.1,83.2,9.1
				 M83.2,13.4c3.6,0,4.1,6.1,4.1,13.3c0,7.3-0.5,13.3-4.1,13.3c-3.6,0-4.1-6-4.1-13.3C79.1,19.4,79.6,13.4,83.2,13.4"/>
			<path class="st0" d="M107.9,10.2c-1.4-0.9-3.1-1.1-4.8-1.1c-5.2,0-7.7,4-7.7,8.8c0,9,9.6,10.4,9.6,17.2c0,2.5-1.2,4.8-4,4.8
				c-1.8,0-3.1-0.8-4.5-1.8v4.6c1.4,1.1,3.2,1.6,5,1.6c5.1,0,8.1-4.1,8.1-9c0-4.6-1.8-6.9-4.9-10.1l-3.5-3.8
				c-0.9-1.2-1.3-2.2-1.3-3.7c0-2.4,1.5-4.4,4-4.4c1.5,0,2.7,0.6,3.9,1.4L107.9,10.2z"/>
			<polygon class="st0" points="112,9.5 112,13.5 117.4,13.5 117.4,43.9 121.9,43.9 121.9,13.5 127.1,13.5 127.1,9.5 			"/>
			<polygon class="st0" points="131.3,9.5 131.3,43.9 135.8,43.9 135.8,26.9 142.7,26.9 142.7,43.9 147.2,43.9 147.2,9.5 142.7,9.5 
				142.7,22.9 135.8,22.9 135.8,9.5 			"/>
			<polygon class="st0" points="152.7,9.5 152.7,43.9 164.9,43.9 164.9,39.9 157.2,39.9 157.2,28.3 164.1,28.3 164.1,24.3 
				157.2,24.3 157.2,13.5 164.9,13.5 164.9,9.5 			"/>
			<polygon class="st0" points="168.8,9.5 168.8,13.5 174.2,13.5 174.2,43.9 178.7,43.9 178.7,13.5 183.9,13.5 183.9,9.5 			"/>
			<rect x="188.1" y="9.5" class="st0" width="4.5" height="34.3"/>
			<path class="st0" d="M213,40.1c1.1-2.3,1.6-5.3,1.9-8.2l-4.8,0c-0.1,1.2-0.2,2.4-0.3,3.5h-0.1l-1.7-2.5l-2.8,2.2l2.9,4.1
				c-0.5,0.5-1.1,0.7-1.9,0.7c-2.7,0-3.7-3.4-4-8.1c-0.1-1.6-0.1-3.4-0.1-5.2c0-7.3,0.5-13.3,4.1-13.3c3.6,0,4.1,6.1,4.1,13.3
				c0,1.8-0.1,3.5-0.2,5.2h4.8c0.2-1.9,0.2-3.7,0.2-5.2c0-6.2-0.1-17.6-8.9-17.6c-8.8,0-8.9,11.4-8.9,17.6c0,1.5,0,3.3,0.1,5.2
				c0.4,5.9,2.1,12.4,8.8,12.4c1.8,0,3.3-0.4,4.6-1.4l2.4,3.6l3-2.1L213,40.1z"/>
			<path class="st0" d="M219.7,9.5v23.7c0,6.2,0.6,11.1,7.9,11.1c7.9,0,7.9-5.9,7.9-10.4V9.5h-4.6v25.7c-0.1,2.8-0.3,4.8-3.5,4.8
				c-1.9,0-3.2-0.9-3.2-5.3V9.5H219.7z"/>
			<polygon class="st0" points="240.9,9.5 240.9,43.9 253.1,43.9 253.1,39.9 245.4,39.9 245.4,28.3 252.3,28.3 252.3,24.3 
				245.4,24.3 245.4,13.5 253.1,13.5 253.1,9.5 			"/>
			<path class="st0" d="M100.2,61.4h-1.5v-12h1.7c3.7,0,4.8,1.3,4.8,3.5c0,2.5-1.9,3.5-4.2,3.5h-0.9V61.4z M100.2,55.1h0.5
				c1.5,0,3.2-0.3,3.2-2.2c0-1.9-1.8-2.1-3.3-2.1h-0.4V55.1z"/>
			<path class="st0" d="M111.8,58.4l-1.4,3h-1.6l5.7-12.5l5.7,12.5h-1.6l-1.4-3H111.8z M114.6,52.2l-2.1,4.9h4.3L114.6,52.2z"/>
			<path class="st0" d="M133.6,61.4h-1.8l-3.5-5.1h-0.6v5.1h-1.5v-12h1.8c1.1,0,2.2,0,3.2,0.5c1,0.6,1.6,1.7,1.6,2.9
				c0,1.7-1.1,3.2-2.9,3.4L133.6,61.4z M127.6,55.1h0.5c1.5,0,3.2-0.3,3.2-2.2c0-1.9-1.8-2.2-3.3-2.2h-0.4V55.1z"/>
			<rect x="139.5" y="49.4" class="st0" width="1.5" height="12"/>
			<path class="st0" d="M153.4,51.7c-0.5-0.8-1-1.1-1.9-1.1c-1,0-2,0.7-2,1.7c0,0.9,0.9,1.4,1.7,1.7l0.9,0.3c1.7,0.7,3,1.6,3,3.6
				c0,2.2-1.7,3.8-3.8,3.8c-1.9,0-3.5-1.4-3.7-3.4l1.5-0.3c0,1.3,1,2.3,2.3,2.3c1.3,0,2.2-1.1,2.2-2.3c0-1.3-1-1.8-2.1-2.3l-0.8-0.4
				c-1.4-0.6-2.6-1.4-2.6-3c0-1.9,1.7-3.1,3.5-3.1c1.3,0,2.4,0.6,3.1,1.8L153.4,51.7z"/>
			<path class="st0" d="M256.2,14.9c0-3.2,2.6-5.7,5.7-5.7c3.2,0,5.7,2.5,5.7,5.7c0,3.2-2.6,5.7-5.7,5.7
				C258.7,20.6,256.2,18.1,256.2,14.9 M266.7,14.9c0-2.7-2.1-4.8-4.8-4.8c-2.7,0-4.8,2.1-4.8,4.8c0,2.7,2.1,4.8,4.8,4.8
				C264.6,19.7,266.7,17.6,266.7,14.9 M264.6,18.1h-1l-1.8-2.9h-1.2v2.9h-0.9v-6.4h2.8c0.5,0,1.1,0,1.6,0.4c0.5,0.3,0.8,0.8,0.7,1.4
				c0,1.3-0.9,1.8-2,1.8L264.6,18.1z M261.6,14.5c0.9,0,2.2,0.1,2.2-1.1c0-0.9-0.8-1-1.6-1h-1.7v2.1H261.6z"/>
		</g>
	</g>
</g>
</svg>
