<?xml version="1.0" encoding="utf-8"?>
<!-- Generator: Adobe Illustrator 25.4.8, SVG Export Plug-In . SVG Version: 6.00 Build 0)  -->
<svg version="1.1" id="圖層_1" xmlns="http://www.w3.org/2000/svg" xmlns:xlink="http://www.w3.org/1999/xlink" x="0px" y="0px"
	 viewBox="0 0 268.1 100" style="enable-background:new 0 0 268.1 100;" xml:space="preserve">
<style type="text/css">
	.st0{fill:#FFFFFF;}
</style>
<g>
	<path class="st0" d="M9.5,59.1c-3-2.6-3.7-6.1-3.8-13.4C5.6,33.1,7.5,27.5,6.8,26.1c-0.7-1.5-4.3-2-5.5-0.4
		c-1.5,1.9-1.6,14.9-0.9,21.7c1.5,13.9,9.3,14.8,10.4,14.1C11.9,60.7,10.9,60.3,9.5,59.1z"/>
	<path class="st0" d="M50.2,10.1c-0.2-2-4.2-2.8-5.5-2.3c-0.6,0.2-1,0.8-1.3,1.6c-1.7-1.4-5.4-1.9-10.2,1.9
		c-5.2,4.2-8.6,12.8-5.6,16.4c2.5,3.1,8.3,2.7,12.1-1.9c0.8-1,1.6-2.1,2.3-3.4c-0.3,5.4-0.6,12.8-0.5,21.8
		c0.2,16.8,1.8,41.9,2.2,43.3c0.5,1.4,2.5,1.5,3.4,1.1c0.8-0.4,0.9-1.3,0.6-6c-0.5-8.6-1-36.7-0.1-51C48.7,16.9,50.4,12.1,50.2,10.1
		z M39.5,19c-3.3,6.6-5.3,7.1-6.9,6.7c-1.8-0.5-1-5.3,1.7-9.8c2.5-4.3,5.7-5.2,6.8-4.3C41.8,12.2,41.8,14.4,39.5,19z"/>
	<path class="st0" d="M264.4,31.1c-0.8,1.5-0.1,2.3-2.3,2.7c-5.9,1.3-15.2-6.4-27.7-7c-13.9-0.6-18.7,5.3-23.2,5.1
		c-3.6-0.2-3.9-3.7-7.1-3.9c-3.5-0.3-7,5.9-11.7,5.3c-2.5-0.3-4.1-5.2-7.1-5.3c-3.9-0.1-6.9,4.8-9.5,7.5c-1.9,1.9-5,4.3-8.3,3
		c-3.6-1.4-3.7-4.7-4.1-5.7c-0.2-0.4-0.6-0.7-1.1-0.9c0.1-0.8,0-1.7-0.8-2.6c-1.5-1.9-6.4-2.4-10.3,1c-2.3,2-4.2,5.4-4.9,8.4
		c-3.5,2.7-8.5,6.9-13.4,12c-0.3-2.9-0.7-5.8-1.2-8.5c-0.7-3.8-2.3-8.1-3-8.9c-1.3-1.4-3.4-1.3-3.7-0.5c0,0.1-0.1,0.2-0.1,0.3
		c-2.2-0.2-6,0.1-9.2,2.5c-4.1,3.1-5.7,6.7-5.3,9.7c0,0.3,0.2,0.7,0.3,1c-0.9,0.7-4.8,3.5-8.6,2.2c-4.4-1.5-4.5-5.6-5-6.6
		c-0.3-0.6-1-0.9-1.7-1c0.1-0.8,0-2-0.8-2.9c-1.8-2.2-6.9-2.6-11.8,2.1c-4.3,4.3-7.5,13-3.9,16.5c3.4,3.4,8.8,0.6,11.3-2.4
		c2.9-3.5,4.3-7.3,4.3-7.3s1.8,4.3,7.4,4.7c4.8,0.4,8.4-2.3,9.9-3.7c0.9,0.8,2.2,1.4,4,1.2c3.4-0.3,7.5-3.4,10.2-8.5
		c0.3,1.4,0.5,2.9,0.8,4.7c0.5,3.4,0.9,7,1.2,10.9c-8.8,11-12.3,23.4-12.1,30.9c0.2,7.9,4.6,11.2,8.7,9.5c4.8-2,7.4-13.1,8.5-24.9
		c0.4-4.4,0.5-9.8,0.2-15.4c4.8-6.1,9.8-10.8,13.1-13.6c0.2,0.6,0.4,1.1,0.8,1.5c2.7,3.1,7.5,1.1,9.8-1.4c2.6-2.9,3.9-5.9,3.9-5.9
		s1.4,3.8,6.1,4.6c5,0.9,8.7-1.8,10.5-3.3c2.5-2,5.2-6,7.7-5.7c2.5,0.3,3.1,3.5,7.5,3.4c4.5-0.1,7.8-5.3,10.9-3.5
		c1.4,0.8,2.8,3.3,6.9,3.3c4.5,0,10.2-4.4,18.3-5c12.7-1.1,22.7,4.8,28.7,5.8c8,1.4,10.1-0.8,10.4-3.9
		C268.1,29.7,265.2,29.6,264.4,31.1z M89.8,47.9c-2.3,4.3-5,6.2-6.4,5.8c-2-0.5-1-5.1,1.1-8.6c1.8-3,3.9-5.1,5.9-5.3
		c2-0.2,2.6,0.8,2.8,1.5c0,0.1,0,0.2,0.1,0.2C92.5,42.5,91.5,44.7,89.8,47.9z M115.4,44.9c-1.1-0.9,0.9-5.6,4.7-7.9
		c1.7-1.1,3.3-1.3,4.4-1.4c-0.3,0.4-0.6,1-0.9,1.7C121.5,42.4,116.7,46,115.4,44.9z M127.9,74.7c-0.9,11.9-4,19.1-6.8,18.3
		c-2.6-0.8-2-14.6,7.2-29.5C128.3,67,128.2,70.7,127.9,74.7z M156.8,36.8c-2.2,3.5-4.1,4.8-5.2,4.4c-1.6-0.6-0.7-3.8,1.3-6.7
		c1.7-2.4,3-3.7,4.7-3.7c1.7-0.1,2.2,0.8,2.3,1.4c0,0,0,0,0,0C159.2,33.1,158.3,34.5,156.8,36.8z"/>
	<path class="st0" d="M185.9,10.3c4,3,5.9-0.4,2.5-3.3c-3-2.6-9.6-4.7-11.6-3.8c-0.7,0.3-0.6,1-0.2,1.4
		C177.8,5.8,180.6,6.4,185.9,10.3z"/>
</g>
</svg>
