<?xml version="1.0" encoding="utf-8"?>
<!-- Generator: Adobe Illustrator 25.4.8, SVG Export Plug-In . SVG Version: 6.00 Build 0)  -->
<svg version="1.1" id="圖層_1" xmlns="http://www.w3.org/2000/svg" xmlns:xlink="http://www.w3.org/1999/xlink" x="0px" y="0px"
	 viewBox="0 0 231.4 88.9" style="enable-background:new 0 0 231.4 88.9;" xml:space="preserve">
<style type="text/css">
	.st0{fill:#1C1C1B;}
	.st1{fill:#FFFFFF;}
	.st2{display:none;}
	.st3{display:inline;}
	.st4{clip-path:url(#SVGID_00000054945104820425745500000013614045362799567292_);}
	.st5{clip-path:url(#SVGID_00000145766317553548637310000010202137413921051321_);fill:#1C1C1B;}
	.st6{clip-path:url(#SVGID_00000124124356014583592000000006152871518728541076_);}
	.st7{clip-path:url(#SVGID_00000053527187530189430620000008466317313184550288_);fill:#1C1C1B;}
</style>
<g>
	<path class="st0" d="M37.7,73.5c0.1,0,0.2,0,0.2,0S37.8,73.5,37.7,73.5"/>
	<path class="st0" d="M63.8,60.7c-0.7,0.3-1.4,0.5-2.1,0.8C62.4,61.3,63.1,61,63.8,60.7"/>
	<path class="st1" d="M74.4,33.8c-2.4,0-4.3-1.4-4.3-3.1c0-1.7,1.9-3.1,4.3-3.1c0.2,0,0.4,0,0.6,0c-0.4-5.5-1.3-9-1.3-9l-30.3-5.9
		l-30.3,5.9c0,0-0.9,3.6-1.3,9c0.2,0,0.4,0,0.6,0c2.3,0,4.3,1.4,4.3,3.1c0,1.7-1.9,3.1-4.3,3.1c-0.3,0-0.5,0-0.7,0
		c0.2,7.2,1.6,15.9,6.1,24.2c1.1,0.7,2.3,1.3,3.5,1.9c-0.1-0.1-0.3-0.1-0.4-0.2c-0.5-0.7-0.9-1.5-1.3-2.2c-3.5-6.4-5.5-13.7-6-21.9
		c2.8-0.4,4.9-2.3,4.9-4.7c0-2.3-2-4.2-4.7-4.7c0.2-2.7,0.6-4.7,0.8-5.9l28.8-5.6l28.8,5.6c0.2,1.2,0.6,3.2,0.8,5.9
		c-2.7,0.5-4.7,2.4-4.7,4.7c0,2.4,2.1,4.3,4.9,4.7c-0.4,8.2-2.4,15.6-6,21.9c-0.5,0.8-1,1.6-1.5,2.4c-0.7,0.3-1.3,0.6-2,0.9
		c0.7-0.3,1.4-0.6,2-0.9l0,0c1-0.5,2.1-1,3.1-1.6c4.6-8.3,6.1-17.2,6.3-24.4C74.9,33.8,74.7,33.8,74.4,33.8"/>
	<path class="st0" d="M37.9,73.5c0.9,0.1,1.8,0.1,2.8,0.2C39.8,73.7,38.9,73.6,37.9,73.5"/>
	<path class="st0" d="M35.1,73.2L35.1,73.2c0.9,0.1,1.7,0.2,2.6,0.3C36.8,73.4,36,73.3,35.1,73.2"/>
	<path class="st1" d="M51.8,73.3c-1.9,0.2-3.7,0.4-5.6,0.5C48.1,73.6,50,73.5,51.8,73.3L51.8,73.3"/>
	<path class="st1" d="M51.8,73.3c-2.6,1.6-5.3,3-8.3,4.1c-3-1.2-5.8-2.6-8.4-4.2c-1.4-0.2-2.8-0.4-4.2-0.7c3.5,2.5,7.7,4.8,12.6,6.7
		c4.9-1.9,9-4.1,12.5-6.6C54.6,72.9,53.2,73.1,51.8,73.3"/>
	<path class="st1" d="M66.2,76.5c0,0.1-2.6,0.1-5.8,0.1s-5.8-0.1-5.8-0.1c0-0.1,2.6-0.1,5.8-0.1C63.6,76.3,66.2,76.4,66.2,76.5"/>
	<path class="st1" d="M32.4,76.5c0,0.1-2.6,0.1-5.8,0.1s-5.8-0.1-5.8-0.1c0-0.1,2.6-0.1,5.8-0.1C29.8,76.3,32.4,76.4,32.4,76.5"/>
	<path class="st1" d="M82,58.8c-2.2-1.2-5.8-3.3-7.8-4.7c-0.2-0.1-0.6-0.4-0.9-0.4c0.1,0.8-0.6,2.2-2.1,3.1c-1.7,1.1-3.5,2.1-5.4,3
		l0,0c-6.6,3.2-14.4,4.9-22.2,4.9l0,0c-7.8,0-15.5-1.7-22.2-4.9l0,0c-1.9-0.9-3.7-1.9-5.4-3c-1.5-1-2.3-2.3-2.2-3.1
		c-0.3,0-0.6,0.2-0.8,0.4c-2,1.4-5.5,3.5-7.8,4.7c-1,0.5,0,2.5,2.5,4.3c2.2,1.5,4.5,2.9,6.9,4.1c7.9,4,17.2,6.2,26.5,6.5
		c0.8,0,1.6,0,2.3,0c0.8,0,1.6,0,2.4,0c9.4-0.3,18.6-2.6,26.5-6.6c2.4-1.2,4.8-2.6,6.9-4.1C82,61.3,83,59.3,82,58.8 M79.1,62.6
		c-2.1,1.5-4.5,2.9-6.9,4.1c-7.9,3.9-17,6.2-26.3,6.5c-0.8,0-1.6,0-2.3,0l0,0c-0.7,0-1.5,0-2.3,0C32,72.9,22.9,70.7,15,66.7
		c-2.4-1.2-4.7-2.6-6.9-4.1c-1.9-1.3-2.7-2.7-2.7-3.2c0-0.1,0-0.1,0.1-0.1c2.2-1.2,5.8-3.4,7.8-4.8l0,0c0.3,0.9,1.2,2,2.3,2.7
		c1.7,1.1,3.5,2.2,5.5,3.1l0.4,0.2l0,0c6.7,3.1,14.2,4.7,22,4.7h0.1c7.8,0,15.4-1.6,22-4.8l0,0l0.4-0.2c1.9-0.9,3.7-1.9,5.5-3.1
		c1.2-0.8,2-1.9,2.2-2.8l0.1,0.1c2,1.4,5.6,3.6,7.8,4.7c0,0,0.1,0,0.1,0.1C81.8,59.9,81,61.3,79.1,62.6"/>
	<path class="st1" d="M44.4,70.4L44,69.9c-0.2-0.2-0.4-0.5-0.7-0.7c-0.2,0.1-0.3,0.2-0.4,0.3c-0.1,0.1-0.1,0.3-0.1,0.4
		s0,0.2,0.1,0.3c0.1,0.2,0.2,0.3,0.2,0.4c0.1,0.1,0.2,0.2,0.3,0.2c0.1,0.1,0.3,0.1,0.4,0.1c0.3,0,0.5-0.1,0.7-0.3
		C44.6,70.6,44.5,70.5,44.4,70.4C44.5,70.5,44.4,70.4,44.4,70.4"/>
	<path class="st1" d="M22.6,63.6c-0.1-0.1-0.2-0.1-0.4-0.2c-0.1,0-0.2-0.1-0.3-0.1v0.1l-0.2,0.4l-0.1,0.3l-0.1,0.3
		c0,0.1-0.1,0.2-0.2,0.4v0.1c0.1,0,0.2,0.1,0.2,0.1c0.4,0.1,0.7,0.2,0.9,0.1c0.2-0.1,0.4-0.2,0.5-0.4c0.1-0.1,0.1-0.3,0.1-0.4
		s0-0.2,0-0.3C22.8,63.8,22.7,63.7,22.6,63.6"/>
	<path class="st1" d="M43.9,68.5c0.1-0.1,0.2-0.1,0.3-0.3c0-0.1,0.1-0.2,0.1-0.3c0-0.1,0-0.2-0.1-0.3l-0.1-0.1
		c-0.1-0.1-0.2-0.1-0.3-0.1c-0.1,0-0.2,0-0.3,0.1s-0.1,0.2-0.1,0.3c0,0.1,0,0.2,0.1,0.3C43.5,68.2,43.7,68.4,43.9,68.5"/>
	<path class="st1" d="M29.9,66.6l-0.8,1.2c0.5,0.1,0.9,0.2,1,0.2h0.1c0-0.2-0.1-0.5-0.1-0.7C30,67,29.9,66.8,29.9,66.6"/>
	<path class="st1" d="M74.1,55.5c-0.5,0.8-1.2,1.7-2.2,2.3c-1.7,1.2-3.6,2.2-5.6,3.1L66,61l-0.7,0.3l0,0c-6.6,3-14.2,4.6-21.9,4.6
		h-0.1c-7.7,0-15.2-1.6-21.8-4.6l0,0l-0.9-0.4c-1.9-0.9-3.8-2-5.5-3.1c-0.9-0.6-1.7-1.4-2.2-2.2c-2,1.3-4.8,3-6.8,4.1
		c0.2,0.5,0.9,1.4,2.3,2.4c2.1,1.5,4.4,2.8,6.8,4c7.8,3.9,16.8,6.1,26,6.4c0.7,0,1.5,0,2.2,0l0,0c0.8,0,1.5,0,2.3,0
		c9.2-0.3,18.2-2.5,26-6.4c2.4-1.2,4.7-2.5,6.8-4c1.5-1,2.1-2,2.3-2.4C79,58.5,76.1,56.8,74.1,55.5 M18.7,63
		c-0.1,0.1-0.1,0.3-0.2,0.4L18.2,64c-0.2,0.4-0.4,0.7-0.5,0.8c-0.1,0.1-0.2,0.2-0.3,0.3c-0.1,0.1-0.3,0.1-0.5,0.2
		c-0.2,0-0.4,0-0.7,0c-0.2,0-0.5-0.1-0.8-0.3c-0.3-0.2-0.6-0.3-0.8-0.5s-0.3-0.4-0.3-0.6s0-0.4,0-0.6s0.2-0.4,0.3-0.7l0.8-1.4
		c0.2-0.3,0.3-0.5,0.3-0.6s-0.1-0.2-0.4-0.3l-0.1-0.1l0.1-0.2c0,0,0.1,0,0.1,0.1c0.1,0,0.2,0.1,0.3,0.2c0.3,0.2,0.4,0.2,0.5,0.3
		c0.2,0.1,0.3,0.2,0.5,0.2c0.2,0.1,0.3,0.1,0.4,0.2s0.2,0.1,0.3,0.1l0,0l-0.1,0.2l0,0c-0.1,0-0.3-0.1-0.4-0.2S16.7,61,16.6,61
		c0,0-0.1,0.1-0.2,0.3c0,0.1-0.1,0.1-0.1,0.2l-0.1,0.1L16,61.9v0.2l-0.3,0.5l-0.4,0.8c-0.1,0.2-0.2,0.4-0.1,0.6
		c0,0.1,0.1,0.3,0.1,0.4c0.1,0.2,0.3,0.3,0.5,0.4s0.4,0.2,0.6,0.2c0.1,0,0.2,0,0.4,0c0.1,0,0.2,0,0.3-0.1c0.1-0.1,0.2-0.1,0.3-0.2
		c0.1-0.1,0.2-0.3,0.4-0.6c0.3-0.5,0.5-1,0.8-1.7l0.1-0.2c0.1-0.1,0.1-0.2,0.1-0.3c0-0.1-0.1-0.2-0.2-0.2l-0.3-0.1l0,0l0.1-0.2
		l0.2,0.1l0.6,0.3c0.2,0.1,0.4,0.2,0.6,0.3h0.1c0,0.1,0,0.1-0.1,0.1c0,0,0,0-0.1,0.1c-0.1,0-0.2,0-0.3-0.1c-0.1-0.1-0.2-0.1-0.3-0.1
		c0,0-0.1,0-0.1,0.1c0,0,0,0.1-0.1,0.2c0,0.1-0.1,0.1-0.1,0.3C18.8,62.8,18.7,62.8,18.7,63C18.7,62.9,18.7,62.9,18.7,63 M23.9,64.9
		c-0.1,0.2-0.2,0.4-0.5,0.5c-0.2,0.1-0.5,0.2-0.8,0.1c0,0.1,0,0.1,0,0.2c0,0.2,0.1,0.3,0.1,0.4l0.2,1c0,0.3,0.1,0.4,0.1,0.5
		s0.1,0.1,0.2,0.2s0.1,0.1,0.2,0.2v0.1c0,0,0,0,0,0.1h-0.1h-0.1L23,68l-0.1-0.1c-0.1,0-0.1-0.1-0.3-0.1l-0.3-0.1c0,0-0.1,0-0.2-0.1
		c-0.1,0-0.1,0-0.1,0v-0.2c0-0.2,0-0.3,0-0.4c0-0.2,0-0.6-0.1-1.2c0-0.2,0-0.4-0.1-0.4c0-0.1-0.1-0.1-0.3-0.2c0,0-0.1,0-0.2-0.1
		c0,0.1-0.1,0.1-0.1,0.2L20.9,66l-0.3,0.6c0,0.1,0.1,0.1,0.2,0.2c0.2,0.1,0.3,0.2,0.4,0.3c0,0.1-0.1,0.2-0.1,0.2H21h-0.1
		c-0.5-0.2-0.7-0.3-0.8-0.4c-0.1,0-0.1,0-0.1,0l-0.5-0.1c-0.1,0-0.3-0.1-0.4-0.1L19,66.6c0-0.1,0-0.1,0-0.1v-0.1c0.1,0,0.2,0,0.3,0
		c0.1,0,0.2,0,0.3,0c0,0,0-0.1,0.1-0.1c0,0,0.1-0.1,0.1-0.3l0.3-0.7l0.2-0.4l0.1-0.3l0.1-0.2c0.1-0.2,0.2-0.4,0.3-0.6
		c0.2-0.4,0.3-0.7,0.3-0.8l-0.2-0.1c-0.2-0.1-0.3-0.1-0.3-0.2l0.1-0.2l0,0c0.1,0,0.2,0.1,0.3,0.1c0.1,0,0.2,0.1,0.3,0.1
		c0.2,0.1,0.2,0.1,0.2,0.1l0.2,0.1l0.4,0.1c0.3,0.1,0.5,0.2,0.8,0.3c0.5,0.2,0.8,0.4,0.9,0.7S24,64.6,23.9,64.9 M26.8,65.3
		c0,0.1-0.1,0.2-0.1,0.2c-0.1,0.4-0.2,0.6-0.3,0.8l-0.3,0.8L26,67.6l-0.2,0.6v0.1c0,0,0,0,0,0.1c0.1,0.1,0.2,0.1,0.4,0.2
		c0,0,0.1,0,0.2,0.1c0,0.1,0,0.1,0,0.2V69c0,0,0,0-0.1,0s-0.1,0-0.1,0s0,0-0.1,0c0,0-0.2-0.1-0.4-0.2l-0.6-0.2
		c-0.1,0-0.3-0.1-0.5-0.1s-0.3-0.1-0.3-0.1l0.1-0.2c0,0,0.1,0,0.2,0c0.2,0,0.3,0,0.4,0c0.1-0.1,0.1-0.1,0.2-0.3l0.1-0.4l0.3-0.7
		l0.1-0.2c0.2-0.4,0.2-0.6,0.2-0.6l0.1-0.4l0.1-0.2l0.1-0.4v-0.1v-0.1c-0.1-0.1-0.2-0.1-0.4-0.2c-0.1,0-0.1,0-0.1,0l0.1-0.3l1,0.3
		c0.1,0,0.2,0.1,0.2,0.1c0.1,0,0.4,0.1,0.7,0.2c0.2,0,0.3,0.1,0.3,0.1v0.1c0,0,0,0.1-0.1,0.1s-0.2,0-0.3,0c-0.1,0-0.2,0-0.3,0
		C26.9,65.1,26.8,65.2,26.8,65.3 M31.9,70.3L31.9,70.3c-0.2,0-0.4,0-0.6-0.1s-0.4-0.1-0.6-0.1S30.4,70,30.3,70l-0.6-0.1h-0.2
		c0-0.1,0-0.1,0.1-0.2H30c0.1,0,0.2,0,0.2,0s0,0,0.1-0.1v-0.1l-0.1-0.4v-0.7l-1.3-0.3c-0.1,0.1-0.2,0.3-0.5,0.7
		c-0.1,0.1-0.1,0.2-0.1,0.2c0,0.1,0,0.1,0,0.1c0,0.1,0.1,0.1,0.3,0.2c0,0,0.1,0,0.2,0.1c0,0.1,0,0.1,0,0.2c0,0,0,0,0,0.1
		c-0.1,0-0.5-0.1-1-0.3h-0.1c-0.2,0-0.3,0-0.5-0.1h-0.1l0.1-0.2c0,0,0.1,0,0.2,0c0.2,0,0.3,0,0.3,0s0.1-0.1,0.2-0.2l1.1-1.6l0.7-1
		l0.6-0.9c0.1,0,0.2,0,0.2,0h0.2v0.1L31,67c0,0.1,0,0.3,0.1,0.4c0,0.2,0.1,0.3,0.1,0.5c0,0.3,0.1,0.5,0.1,0.7c0,0.1,0,0.3,0.1,0.5
		c0,0.1,0,0.3,0.1,0.5c0,0.1,0,0.2,0.1,0.2c0,0,0.1,0.1,0.2,0.1S32,70,32.1,70C31.9,70.2,31.9,70.2,31.9,70.3 M38.9,67.1
		c-0.2,0-0.4,0-0.4,0c-0.1,0-0.1,0-0.2,0.1v0.1v0.1v0.1l0,0v0.1v0.1c0,0.1,0,0.2,0,0.2l-0.1,0.4v0.3L38.1,69c0,0.1,0,0.3-0.1,0.6
		l-0.1,0.5v0.4c0,0.1,0,0.2,0,0.3c0,0,0.1,0,0.1,0.1c0.2,0.1,0.4,0.1,0.5,0.2v0.2c-0.1,0-0.1,0-0.2,0c-0.1,0-0.2,0-0.4-0.1
		c-0.2,0-0.5-0.1-0.9-0.1c-0.2,0-0.4,0-0.8,0h-0.1c0-0.1,0-0.2,0-0.2h0.3h0.3h0.1c0-0.2,0.1-0.5,0.2-0.9v-0.3c0-0.1,0-0.3,0-0.4
		c-0.1,0-0.2,0-0.3,0L35,68.7l0,0l0,0c0,0,0,0-0.1,0s-0.1,0-0.2,0h-0.1c0,0-0.1,0-0.2,0l-0.1,0.2l0,0c0,0.1,0,0.1,0,0.1l-0.1,0.9
		v0.2c0,0.1,0,0.1,0,0.2l0,0l0.5,0.1c0,0,0,0,0.1,0h0.1c0,0.1,0,0.1,0,0.1v0.1c-0.1,0-0.2,0-0.2,0c-0.1,0-0.1,0-0.1,0s0,0-0.1,0H34
		c-0.1,0-0.3-0.1-0.5-0.1h-0.1c-0.1,0-0.2,0-0.2,0c-0.1,0-0.4,0-0.7-0.1c0-0.1,0-0.1,0.1-0.2h0.5c0.1,0,0.1,0,0.2,0l0.2-0.8l0,0
		c0-0.3,0.1-0.5,0.1-0.7v-0.1c0-0.1,0.1-0.3,0.1-0.7v-0.1v-0.3v-0.3v-0.1c0-0.1,0-0.3,0-0.5c0,0,0,0,0-0.1c0,0,0,0-0.1,0
		c0,0,0,0-0.1,0s-0.2-0.1-0.3-0.1l0,0c-0.1,0-0.1,0-0.1,0c0-0.1,0-0.1,0-0.1v-0.1c0,0,0.1,0,0.2,0c0.1,0,0.1,0,0.2,0
		c0.3,0.1,0.5,0.1,0.6,0.1s0.1,0,0.2,0c0.1,0,0.1,0,0.2,0c0.1,0,0.3,0,0.6,0c0,0,0.1,0,0.2,0c0.1,0,0.2,0,0.2,0v0.1v0.1h-0.6
		c-0.1,0-0.1,0-0.1,0.1v0.1v0.1v0.1V67l0,0c0,0,0,0,0,0.1l-0.1,0.4v0.1c0,0,0,0,0,0.1v0.1c0,0,0,0.1,0,0.2c0.1,0,0.1,0,0.2,0
		l0.5,0.1h0.3l0.6,0.1l0.6,0.1c0.1,0,0.2,0,0.3,0c0-0.1,0-0.3,0.1-0.6v-0.1l0.1-0.6v-0.2l0,0c-0.1-0.1-0.2-0.1-0.5-0.2
		c0,0-0.1,0-0.1-0.1s0-0.1,0.1-0.2c0.1,0,0.1,0,0.1,0h0.3c0.2,0.1,0.4,0.1,0.7,0.1c0.1,0,0.1,0,0.1,0h0.5h0.1c0.1,0,0.2,0,0.3,0
		s0.1,0,0.2,0C38.9,66.9,38.9,67,38.9,67.1 M46.9,70.9c-0.1,0.1-0.2,0.3-0.4,0.4c-0.1,0.1-0.2,0.1-0.5,0.1c-0.2,0-0.4,0-0.5-0.1
		c-0.2-0.1-0.4-0.2-0.7-0.4c-0.5,0.4-1,0.6-1.6,0.6c-0.5,0-0.9-0.1-1.1-0.3c-0.2-0.2-0.4-0.5-0.4-0.8c0-0.2,0-0.4,0.1-0.6
		s0.2-0.3,0.4-0.5c0.2-0.1,0.4-0.2,0.5-0.3c0.1,0,0.1-0.1,0.2-0.1c-0.2-0.2-0.3-0.3-0.3-0.4s-0.1-0.1-0.1-0.2s-0.1-0.2-0.1-0.3
		c0-0.2,0.1-0.4,0.2-0.6c0.1-0.2,0.3-0.3,0.6-0.4h0.1c0.1,0,0.2,0,0.4,0c0.3,0,0.6,0.1,0.8,0.2c0.2,0.2,0.3,0.3,0.3,0.6
		c0,0.1,0,0.2-0.1,0.4c0,0.1-0.1,0.2-0.3,0.3c-0.1,0.1-0.3,0.2-0.4,0.2h-0.1c0,0.1,0.2,0.2,0.3,0.3c0.1,0.1,0.1,0.1,0.2,0.2l0.4,0.5
		c0,0.1,0.1,0.1,0.1,0.1c0.1-0.1,0.2-0.3,0.3-0.4s0.1-0.2,0.1-0.3c0,0,0-0.1-0.1-0.1c0,0-0.1-0.1-0.2-0.1v-0.2c0.1,0,0.2,0,0.2,0
		c0.2,0,0.4,0,0.6,0h0.3h0.2c0,0,0.1,0,0.2,0v0.1v0.1V69c-0.2,0.1-0.3,0.1-0.4,0.2c-0.1,0.1-0.2,0.2-0.4,0.4
		c-0.1,0.1-0.3,0.4-0.6,0.7c0,0,0,0.1,0.1,0.1l0.1,0.1c0.1,0.1,0.2,0.2,0.4,0.3c0.1,0.1,0.2,0.1,0.3,0.1s0.1,0,0.1,0
		c0.1,0,0.2-0.1,0.3-0.2s0.1-0.1,0.1-0.1h0.1v0.1C47.1,70.7,47,70.8,46.9,70.9 M54.9,69.4V70v0.4c-0.2,0-0.3,0-0.4,0.1
		c-0.1,0-0.5,0.1-1.1,0.1c-0.4,0-0.9,0.1-1.5,0.2c-0.2,0-0.5,0.1-0.8,0.1c-0.1,0-0.2,0-0.3,0h-0.2L50.2,71v-0.2c0,0,0.1,0,0.3-0.1
		s0.4-0.1,0.5-0.2c0-0.1,0-0.2,0-0.2s0-0.1,0-0.2V70l-0.2-1.3v-0.3l-0.1-0.5l-0.1-0.4l-0.1-0.4c0,0,0,0,0-0.1h-0.1h-0.1
		c-0.1,0-0.3,0-0.4,0c0,0-0.1,0-0.2,0v-0.3c0.1,0,0.3,0,0.4,0c0.2,0,0.4,0,0.7-0.1c0.1,0,0.3,0,0.7-0.1c0.5-0.1,1-0.2,1.4-0.2
		l0.6-0.1c0.1,0,0.4,0,0.6,0c0,0,0.1,0.1,0.1,0.2l0.1,0.7v0.1c0,0,0,0,0,0.1h-0.1h-0.1c0,0-0.1-0.1-0.1-0.2l-0.2-0.2
		c-0.1-0.1-0.2-0.2-0.3-0.3c-0.1,0-0.1,0-0.2,0c0,0-0.1,0-0.2,0c-0.2,0-0.5,0-0.7,0.1c-0.3,0-0.5,0.1-0.8,0.1c0,0.1,0,0.3,0.1,0.7
		l0.1,0.6l0.1,0.4c0.1,0,0.1,0,0.2,0c0.4-0.1,0.7-0.1,0.9-0.2c0.2,0,0.3-0.1,0.3-0.1s0.1-0.1,0.1-0.2s0-0.2,0-0.5l0,0h0.2
		c0,0.2,0.1,0.3,0.1,0.4c0,0.2,0.1,0.4,0.1,0.4c0,0.1,0,0.1,0,0.2s0,0.2,0.1,0.3c0,0.1,0,0.2,0.1,0.3l0,0l0,0h-0.1h-0.2
		c0,0,0-0.1-0.1-0.2c-0.1-0.2-0.1-0.3-0.2-0.4c0,0-0.1-0.1-0.2-0.1c0,0-0.2,0-0.5,0.1c-0.4,0-0.6,0.1-0.8,0.1c0,0.1,0,0.1,0,0.1
		c0,0.3,0.1,0.5,0.1,0.7l0.1,0.7c0,0,0,0,0.1,0.1c0,0,0,0.1,0.1,0.1s0.4,0,0.9-0.1c0.3,0,0.6-0.1,0.8-0.2c0.1-0.1,0.3-0.1,0.4-0.3
		c0.1-0.2,0.2-0.4,0.3-0.7c0.1,0,0.1,0,0.2,0H55C54.9,69.2,54.9,69.2,54.9,69.4L54.9,69.4z M61.9,68.8c-0.3,0-0.5,0.1-0.7,0.1
		c-0.3,0.1-0.7,0.2-1,0.3h-0.1L60,69c0.1-0.1,0.2-0.1,0.4-0.2c0.1,0,0.2-0.1,0.2-0.1s0-0.2,0-0.4c0-0.1,0-0.1-0.1-0.2
		c-0.1-0.2-0.2-0.5-0.3-0.9l-0.4-1.1c-0.1-0.2-0.1-0.3-0.1-0.3l-0.3,2.1c0,0,0,0.1,0,0.2s0,0.2,0,0.2c-0.1,0.4-0.1,0.8-0.1,1
		c0,0.1,0,0.1,0,0.2L59,69.6l-0.3-0.5c-0.1-0.1-0.2-0.3-0.5-0.5c-0.1-0.1-0.2-0.2-0.3-0.3l-0.1-0.1l-0.1-0.1l0,0l-0.8-0.9L56.7,67
		l-0.3-0.3l0.1,0.5l0.3,1.1l0.3,1c0,0.2,0.1,0.3,0.2,0.3c0.1,0.1,0.2,0.1,0.5,0.1H58l0.1,0.2c-0.1,0-0.3,0.1-0.4,0.1
		c-0.2,0-0.4,0.1-0.6,0.1c-0.1,0-0.3,0.1-0.7,0.2l-0.1-0.2c0.3-0.1,0.4-0.2,0.5-0.3c0-0.1,0-0.2,0-0.4l-0.3-1.2l-0.2-0.8L56,66.9
		c0-0.1,0-0.1,0-0.1c-0.1-0.3-0.2-0.5-0.2-0.5c-0.1,0-0.2,0-0.5,0c-0.1,0-0.1,0-0.2,0c0-0.1,0-0.1,0-0.1v-0.1c0.1,0,0.2-0.1,0.3-0.1
		l1-0.2h0.1h0.2c0,0,0.1,0.1,0.2,0.1c0.1,0.1,0.3,0.3,0.4,0.5l0.1,0.1l0.1,0.1l0.8,1c0,0,0,0.1,0.1,0.1c0.1,0.1,0.1,0.1,0.2,0.2
		c0.1,0.1,0.1,0.1,0.2,0.2c0.1,0.1,0.1,0.1,0.2,0.2c0-0.1,0-0.1,0-0.2c0-0.2,0.1-0.4,0.1-0.6c0.1-0.3,0.1-0.8,0.2-1.5
		c0-0.1,0-0.3,0.1-0.5c0-0.2,0.1-0.3,0.1-0.3s0.1,0,0.1-0.1h0.1c0.1,0,0.3-0.1,0.4-0.1c0.2-0.1,0.4-0.1,0.6-0.2
		c0.1,0,0.2-0.1,0.2-0.1s0,0,0.1,0v0.1v0.1c0,0,0,0,0,0.1c-0.2,0.1-0.4,0.2-0.5,0.3c-0.1,0.1-0.1,0.1-0.1,0.2l0,0l0.3,1
		c0,0.1,0.2,0.5,0.4,1.3c0.1,0.2,0.1,0.4,0.2,0.7v0.1c0,0,0,0.1,0.1,0.1c0,0,0.2,0,0.7,0v0.1v0.1C62.3,68.7,62.1,68.7,61.9,68.8
		 M65.4,67.6C65.3,67.6,65.3,67.6,65.4,67.6c-0.1,0-0.1,0-0.2,0c0,0-0.2,0-0.5,0.1l-0.6,0.2c-0.1,0-0.3,0.1-0.5,0.2
		c-0.1,0.1-0.2,0.1-0.3,0.1L63.2,68c0,0,0.1-0.1,0.2-0.1c0.1-0.1,0.2-0.2,0.3-0.2c0-0.1,0-0.2,0-0.3L63.6,67l-0.4-0.6l-0.1-0.2
		c-0.1-0.4-0.2-0.6-0.2-0.7l-0.2-0.4l-0.1-0.2l-0.2-0.4l0.1-0.1c0,0,0-0.1-0.1-0.1s-0.3,0-0.5,0.1h-0.1l-0.1-0.3l1-0.3
		c0.1,0,0.2-0.1,0.2-0.1c0.1,0,0.3-0.1,0.6-0.2c0.2-0.1,0.3-0.1,0.3-0.1v0.1v0.1c-0.1,0.1-0.2,0.1-0.3,0.2s-0.2,0.1-0.3,0.2
		c0,0.1,0,0.1,0.1,0.2c0,0.1,0.1,0.2,0.1,0.2c0.1,0.4,0.2,0.6,0.3,0.8L64,66l0.1,0.4l0.3,0.6v0.1c0,0,0,0,0,0.1c0.1,0,0.3,0,0.4-0.1
		c0,0,0.1,0,0.2,0c0,0.1,0.1,0.1,0.1,0.2C65.4,67.5,65.4,67.5,65.4,67.6L65.4,67.6 M70.2,65.7c-0.1,0.1-0.5,0.2-1,0.4
		c-0.4,0.1-0.8,0.3-1.4,0.6c-0.3,0.1-0.6,0.3-0.9,0.4l-0.1,0.1l-0.4,0.2l-0.1-0.2c0,0,0.1-0.1,0.2-0.1c0.2-0.1,0.4-0.2,0.4-0.3
		c0-0.1,0-0.1-0.1-0.2c0,0,0-0.1-0.1-0.2v-0.1l-0.6-1.2L66,64.6l-0.3-0.5l-0.2-0.3l-0.1-0.4c0,0,0,0,0-0.1h-0.1h-0.1
		c-0.1,0-0.3,0.1-0.4,0.1h-0.1l-0.1-0.3c0.1,0,0.2-0.1,0.3-0.1c0.2,0,0.4-0.1,0.6-0.2c0.1,0,0.3-0.1,0.6-0.3
		c0.5-0.2,0.9-0.4,1.3-0.6l0.6-0.3c0.1-0.1,0.3-0.1,0.6-0.2c0.1,0,0.1,0.1,0.1,0.1l0.3,0.9l0.1,0.1c0,0,0,0,0,0.1L69,62.7h-0.1
		c0,0-0.1-0.1-0.2-0.1l-0.3-0.2c-0.1-0.1-0.2-0.1-0.3-0.2c-0.1,0-0.1,0-0.2,0.1c0,0-0.1,0-0.2,0.1c-0.2,0.1-0.4,0.2-0.7,0.3
		c-0.3,0.1-0.5,0.2-0.7,0.3c0,0.1,0.1,0.3,0.3,0.6l0.2,0.5l0.2,0.3c0.1,0,0.1,0,0.1,0c0.4-0.2,0.7-0.3,0.8-0.4
		c0.2-0.1,0.3-0.1,0.3-0.2c0,0,0-0.1,0-0.2s0-0.2-0.1-0.5l0,0l0.2-0.1c0.1,0.2,0.2,0.3,0.2,0.4c0.1,0.2,0.2,0.4,0.2,0.4
		c0,0.1,0,0.1,0.1,0.1c0,0.1,0.1,0.1,0.1,0.3c0.1,0.1,0.1,0.2,0.1,0.3v0.1v0.1c0,0-0.1-0.1-0.1-0.2c-0.1-0.2-0.2-0.3-0.3-0.3
		c0,0-0.1,0-0.2,0s-0.2,0.1-0.5,0.2s-0.6,0.3-0.7,0.3c0,0.1,0,0.1,0,0.1c0.1,0.2,0.2,0.4,0.3,0.6l0.3,0.7c0,0.1,0.1,0.1,0.2,0.1
		s0.4-0.1,0.9-0.3c0.3-0.1,0.5-0.3,0.7-0.4c0.1-0.1,0.2-0.2,0.3-0.4c0.1-0.2,0.1-0.4,0.1-0.7c0.1,0,0.1-0.1,0.2-0.1h0.1
		c0,0.1,0,0.1,0,0.1v0.1l0.2,0.6l0.1,0.4C70.4,65.6,70.3,65.6,70.2,65.7 M75.4,63L75.4,63l-0.3,0.2c0,0-0.1,0.1-0.4,0.2
		c0,0-0.2,0.1-0.6,0.3c-0.4,0.2-0.7,0.4-1.1,0.5l-0.6,0.4c-0.2,0.1-0.5,0.3-0.7,0.4l0,0c0,0,0,0-0.1,0c0,0,0,0,0-0.1
		s-0.1-0.1-0.1-0.2c0.1-0.1,0.1-0.1,0.2-0.2s0.2-0.1,0.2-0.1c0.1,0,0.1-0.1,0.1-0.1c0-0.1,0-0.1-0.1-0.1l-0.2-0.4l-0.1-0.4l-0.1-0.2
		l-0.2-0.3l-0.2-0.3l-0.4-0.7l-0.2-0.3l0,0c-0.1-0.2-0.2-0.3-0.2-0.3s-0.1,0-0.2,0H70c-0.1,0-0.1,0-0.2,0s-0.1,0-0.2,0l-0.1-0.1
		c0,0,0,0,0-0.1l0,0c0,0,0.2-0.1,0.6-0.3l0.4-0.2l0.3-0.2c0.1-0.1,0.3-0.2,0.5-0.3c0.1,0,0.1-0.1,0.1-0.1h0.1c0,0,0.1,0,0.1,0.1v0.1
		c0,0,0,0.1-0.1,0.1l-0.3,0.3c0,0,0,0,0,0.1l0,0v0.1l0.1,0.2l0,0l0,0c0,0,0,0.1,0.1,0.2v0.1c0,0,0.1,0.1,0.1,0.2
		c0.1,0.1,0.1,0.2,0.2,0.3c0.1,0.1,0.1,0.2,0.2,0.4c0,0,0.1,0.1,0.1,0.2l0.8,1.4c0,0.1,0.1,0.1,0.1,0.1l0.3-0.1l0.2-0.1l0.2-0.1
		c0.3-0.2,0.6-0.4,0.7-0.5s0.2-0.2,0.2-0.3c0-0.1,0-0.2,0.1-0.3c0-0.1,0-0.2-0.1-0.4l0.1-0.1c0,0,0.1-0.1,0.2-0.1V62
		c0.1,0.1,0.2,0.4,0.4,0.8C75.4,62.8,75.4,62.9,75.4,63L75.4,63"/>
	<path class="st1" d="M46.4,84.2c2.5,0,2-2.6,0.7-2.7c-0.9,0-1.2,0.5-1.2,0.5c0.9-0.7,2,0.9,0.6,1.2c-1.7,0.4-2.7-3.9-2.7-3.9
		C43.8,80.2,44.7,84.2,46.4,84.2 M40.5,84.2c1.8,0,2.6-3.9,2.6-4.9c0,0-1,4.3-2.7,3.9c-1.4-0.3-0.3-2,0.6-1.2c0,0-0.3-0.6-1.2-0.5
		C38.5,81.5,38,84.1,40.5,84.2 M40.1,84.9c0,0,0.6,0.6,1.5,0.2c0,0-0.6,0.7-0.2,1.6c0,0,1-0.3,1.1-1.1c0,0.4-0.2,1.9,0.9,2.7l0,0
		c1.1-0.7,1-2.3,0.9-2.7c0.2,0.8,1.1,1.1,1.1,1.1c0.4-0.9-0.2-1.6-0.2-1.6c0.9,0.4,1.5-0.2,1.5-0.2c-2.7-0.6-3.4-4.3-3.4-4.3
		S42.8,84.4,40.1,84.9"/>
	<path class="st1" d="M40.7,34.7c-0.7,0.1-1.5,0.1-2.3,0.1L36,34.7h-1v0.9h0.2h1.2c0.3,0,0.6,0.1,0.9,0.4c0.2,0.2,0.2,0.5,0.3,0.9
		l0.1,0.6c0.2,2.4,0.3,4.5,0.3,6.4c0,1.1-0.1,1.9-0.2,2.4c-0.1,0.4-0.3,0.8-0.6,1.2c-0.1,0.2-0.4,0.4-0.8,0.7
		c-0.4,0.2-0.7,0.4-1.1,0.5c-0.7,0.2-1.4,0.3-2.2,0.3c-0.7,0-1.4-0.2-2-0.5c-0.5-0.2-0.9-0.6-1.1-1c-0.4-0.6-0.6-1.3-0.6-2.1
		L29,42.5l0.1-2l-0.1-1v-1.1V38c0-0.2,0-0.4,0-0.6c0-0.8,0-1.3,0.1-1.4c0.1-0.2,0.5-0.3,0.9-0.3c0.5,0,1,0,1.4-0.1v-0.1v-0.7v-0.1
		c-0.2,0-0.5,0-1,0s-1.1,0-1.7,0s-1.3,0-1.9,0c-0.2,0-0.8,0-1.9-0.1c-0.5,0-0.9,0-1.3,0c-0.2,0-0.3,0-0.5,0v0.9c0.1,0,0.3,0,0.5,0
		c1,0,1.5,0.2,1.7,0.4c0.1,0.2,0.2,0.9,0.2,2.2v5.6c0,1.1,0.1,1.9,0.2,2.5c0.2,0.8,0.5,1.5,1,2.1c0.5,0.5,1.2,1,2.1,1.3
		s2,0.5,3.3,0.5c1.1,0,2.1-0.1,3-0.3c0.8-0.2,1.5-0.5,2.1-0.9s1-0.8,1.3-1.3c0.2-0.3,0.4-0.7,0.5-1.3c0.1-0.5,0.2-1.6,0.2-3.2
		l-0.1-2.4c0-0.6,0-1.2-0.1-1.7c0-0.2,0-0.3,0-0.5s0-0.4,0-0.6c0-0.5,0-0.8,0-1c0-0.3,0-0.5,0-0.6c0-0.2,0.1-0.3,0.2-0.4
		c0.1,0,0.4-0.1,0.9-0.2c0.3,0,0.7-0.1,1-0.1c0-0.1,0-0.2,0-0.3s0-0.3-0.1-0.5L40.7,34.7z"/>
	<path class="st1" d="M62.2,45.5c-0.4,0.9-0.8,1.7-1.4,2.2c-0.4,0.4-0.9,0.7-1.5,0.8c-0.8,0.2-1.8,0.2-2.9,0.2
		c-1.7,0-2.8-0.1-3.1-0.2c-0.2-0.1-0.3-0.3-0.3-0.6v-2.5c0-0.6,0-1.4,0-2.3v-0.4c0.6-0.1,1.6-0.1,2.8-0.1c1.1,0,1.7,0,1.8,0.1
		c0.2,0.1,0.4,0.2,0.5,0.3c0.1,0.2,0.3,0.6,0.4,1.4c0.1,0.4,0.2,0.6,0.2,0.8h0.9v-0.3c0-0.2,0-0.6,0-1c0-0.5,0-0.8,0-1
		c0-0.1,0-0.3,0-0.6c0-0.2,0-0.8,0-1.6c0-0.4,0-0.9-0.1-1.6h-0.7h-0.2c-0.2,1-0.4,1.6-0.4,1.7c-0.1,0.2-0.2,0.4-0.4,0.5
		c-0.1,0.1-0.5,0.2-1.2,0.2c-0.6,0.1-1.7,0.1-3.2,0.1c-0.1,0-0.3,0-0.5,0v-1.5v-2c0-1.3,0-2.1,0-2.3c0.8,0,1.7,0,2.7,0
		c0.9,0,1.7,0,2.5,0.1c0.4,0,0.7,0,0.8,0.1c0.3,0,0.6,0,0.8,0.1c0.3,0.4,0.6,0.7,0.8,1.1L61,38c0.1,0.3,0.2,0.5,0.3,0.7
		c0.2,0,0.4,0,0.4,0h0.5c0-0.1,0-0.2,0-0.2V38v-2.4c0-0.3-0.1-0.5-0.2-0.6c-1-0.1-1.7-0.2-2.2-0.2h-2.3c-1.5,0-3.2,0-5,0.1
		c-1.2,0-2,0.1-2.3,0.1c-0.9,0-1.6,0-2.3-0.1c-0.3,0-0.8-0.1-1.2-0.1l-0.1,0.9c0.2,0,0.4,0,0.5,0c0.4,0,0.9,0.1,1.4,0.2
		c0.2,0,0.3,0.1,0.4,0.1c0.2,0,0.3,0.1,0.4,0.2c0,0.1,0,0.2,0,0.2l0.1,1.5v1.3l0.1,1.9v1.3v4.4v0.4c0,0.3,0,0.5,0,0.7
		c0,0.3,0,0.6-0.1,0.9c-0.3,0.2-0.9,0.3-1.8,0.4c-0.5,0-0.8,0.1-0.9,0.1v0.8h1.5h0.5c1.4-0.1,2.7-0.1,3.7-0.1c2,0,3.7,0,5.1,0.1
		c2,0.1,3.2,0.1,3.7,0.1c0.3,0,0.7,0,1.3,0l0.2-1.3l0.5-2.2l0.1-0.4c0-0.1,0-0.3,0.1-0.5c-0.2,0-0.3,0-0.4,0
		C62.7,45.4,62.5,45.5,62.2,45.5"/>
	<path class="st1" d="M42.7,48.3c-0.5,0-0.9,0.4-0.9,0.9s0.4,0.9,0.9,0.9s0.9-0.4,0.9-0.9C43.7,48.7,43.3,48.3,42.7,48.3"/>
	<path class="st1" d="M49.9,8.6C49.2,8,48,8.1,47.1,8.8l-0.5-0.5V7.9V7.8c0-0.1-0.1-0.1-0.1-0.2l-0.2-0.2l-0.1-0.1c0,0,0,0-0.1,0
		c-0.1-0.1-0.2-0.1-0.4,0l-0.2,0.1l-7.1-6.7c-0.2-0.2-0.5-0.2-0.6,0c-0.2,0.2-0.2,0.4,0,0.6c-0.1,0.1-0.3,0.4-0.1,0.5L38,2l-0.2,0.2
		l-0.3-0.3c-0.1-0.1-0.2-0.1-0.3,0L37.1,2c0,0,0,0.1,0.1,0.1l0.1,0.1L37,2.5l-0.1-0.1c-0.1-0.1-0.2-0.1-0.2,0
		c-0.1,0.1-0.1,0.1,0,0.2l0.5,0.5l-0.1,0.1v0.1l0.5,0.5h0.1l0.1-0.1l0.5,0.5c0.1,0.1,0.2,0.1,0.2,0c0.1-0.1,0.1-0.1,0-0.2l-0.1-0.1
		l0.2-0.2l0.1,0.1l0.1,0.1c0,0,0.1,0,0.1-0.1c0.1-0.1,0.1-0.2,0-0.3l-0.3-0.3L38.8,3l0.3,0.3c0.1,0.1,0.4,0,0.6-0.1L44.8,8l-0.1,0.2
		c0,0.1,0,0.2,0,0.3l0,0l0.1,0.1L45,8.8c0.1,0.1,0.1,0.1,0.2,0.1h0.1h0.5l0.5,0.5c-0.7,0.9-0.8,2-0.2,2.7c0.7,0.7,2.2,0.5,3.2-0.5
		C50.4,10.6,50.6,9.3,49.9,8.6 M49.4,10c-0.1,0.4-0.3,0.7-0.6,1c-0.4,0.4-0.9,0.6-1.3,0.6c-0.2,0-0.4,0-0.6-0.2
		c-0.4-0.3-0.3-1,0.2-1.6c0.1-0.1,0.1-0.1,0.2-0.2c0.1-0.1,0.1-0.1,0.2-0.2C47.8,9.2,48.2,9,48.6,9c0.2,0,0.4,0,0.6,0.2
		C49.5,9.5,49.5,9.8,49.4,10"/>
	<path class="st1" d="M37.5,11.6c1,0.9,2.4,1.2,3.2,0.5c0.7-0.6,0.6-1.8-0.2-2.7L41,8.9h0.5h0.1c0.1,0,0.1,0,0.2-0.1L42,8.6l0.1-0.1
		l0,0c0.1-0.1,0.1-0.2,0-0.3L42,8l5.1-4.8c0.1,0.1,0.4,0.2,0.6,0.1L48,2.9l0.2,0.2l-0.3,0.3c-0.1,0.1-0.1,0.2,0,0.3L48,3.8
		c0,0,0.1,0,0.1-0.1l0.1-0.1l0.2,0.2l-0.1,0.1c-0.1,0.1-0.1,0.1,0,0.2c0.1,0.1,0.2,0.1,0.2,0L49,3.6l0.1,0.1h0.1l0.5-0.5V3.1L49.6,3
		l0.5-0.5c0.1-0.1,0.1-0.1,0-0.2s-0.2-0.1-0.2,0l-0.1,0.1l-0.2-0.2l0.1-0.1L49.8,2c0,0,0-0.1-0.1-0.1c-0.1-0.1-0.2-0.1-0.3,0L49,2.2
		V2l0.3-0.3c0.1-0.1,0-0.4-0.1-0.5c0.2-0.2,0.2-0.4,0-0.6s-0.5-0.2-0.6,0l-7.1,6.7l-0.2-0.1c-0.1,0-0.2,0-0.4,0l0,0l-0.2,0.2
		l-0.2,0.2c-0.1,0-0.1,0.1-0.1,0.2v0.1v0.4l-0.5,0.5c-1-0.7-2.2-0.8-2.8-0.2C36.3,9.3,36.5,10.6,37.5,11.6 M37.7,9.2
		C37.9,9,38.1,9,38.3,9c0.3,0,0.7,0.1,1.1,0.4c0.1,0.1,0.2,0.1,0.2,0.2c0.1,0.1,0.1,0.1,0.2,0.2c0.5,0.6,0.5,1.2,0.2,1.6
		c-0.2,0.2-0.4,0.2-0.6,0.2c-0.4,0-0.9-0.2-1.3-0.6c-0.3-0.3-0.5-0.7-0.6-1C37.5,9.8,37.5,9.5,37.7,9.2"/>
	<path class="st1" d="M41.8,81.4c-1.2-0.7-2.8-0.9-4.2-0.9c-1.8,0.1-3.8,0.6-3.4,1.7v0.1c-0.1-0.2-0.4-0.4-0.3-0.8
		c0.1-0.4,0.4-0.7,0.8-0.9c0.2-0.1,0.5-0.3,0.8-0.4c-0.4,0-1-0.2-1.4-0.5c-0.3-0.2-0.6-0.6-0.5-0.9s0.3-0.5,0.5-0.6
		c-0.1-0.1-0.2-0.1-0.2-0.2c-0.2-0.2-0.4-0.5-0.5-0.8s-0.2-0.6-0.1-1c0.1-0.4,0.3-0.8,0.7-0.9c0.2-0.1,0.6-0.1,0.7,0.1
		c0.1,0.1,0.1,0.5-0.2,0.5s-0.2-0.4,0-0.2c-0.4-0.2-0.6,0.3-0.5,0.5c0.1,0.4,0.5,0.7,0.8,1c0.5,0.5,1.2,0.8,1.9,1
		c0.8,0.4,1.7,0.6,2.5,1c0.6,0.2,1.1,0.6,1.5,1c0.2,0.2,0.4,0.4,0.6,0.6c0.1,0.1,0.2,0.1,0.2,0.2C41.7,81.2,41.8,81.4,41.8,81.4
		L41.8,81.4"/>
	<path class="st1" d="M45.2,81.4c1.2-0.7,2.8-0.9,4.2-0.9c1.8,0.1,3.8,0.6,3.4,1.7v0.1c0.1-0.2,0.4-0.4,0.3-0.8
		c-0.1-0.4-0.4-0.7-0.8-0.9c-0.2-0.1-0.5-0.3-0.8-0.4c0.4,0,0.9-0.2,1.4-0.5c0.3-0.2,0.6-0.6,0.5-0.9s-0.3-0.5-0.5-0.6
		c0.1-0.1,0.2-0.1,0.2-0.2c0.2-0.2,0.4-0.5,0.5-0.8s0.2-0.6,0.1-1c0-0.4-0.3-0.8-0.7-0.9c-0.2-0.1-0.6-0.1-0.7,0.1
		c-0.1,0.1-0.1,0.5,0.2,0.5s0.2-0.4,0-0.2c0.4-0.2,0.6,0.3,0.5,0.5c-0.1,0.4-0.5,0.7-0.8,1c-0.5,0.5-1.2,0.8-1.9,1
		c-0.8,0.4-1.7,0.6-2.6,1c-0.6,0.2-1.1,0.6-1.5,1c-0.2,0.2-0.4,0.4-0.6,0.6c-0.1,0.1-0.2,0.1-0.2,0.2C45.2,81.2,45.1,81.4,45.2,81.4
		C45.1,81.4,45.2,81.4,45.2,81.4"/>
	<path class="st1" d="M79,9.5c0.1,0.8-1.2,1.4-1.2,1.4c-2.5,0.8-4.2,0.2-11.6-2.6c-0.1-1.1-0.7-2.1-2.1-2.8
		c-1.9-0.9-4.9-0.6-7.7-0.1c-4.6-0.7-7.1,0.1-7.1,0.1c2.3-0.2,4.3-0.1,6.2,0.1C54.7,5.8,54,6,53.4,6.2c-2.5-0.2-3.9,0.1-3.9,0.1
		c1.1,0,2.1,0,3.1,0.1c-1.3,0.4-2.1,0.7-2.1,0.7c0.8-0.3,1.6-0.5,2.4-0.7c5.2,0.5,8.5,2.4,8.5,2.4c1.3,0.7,2.4,1.3,3.5,1.8
		c-3,2.4-7.9,1.2-8,0.1s0.8-1.4,0.8-1.4s0.4,0.3,1,0.3s0.8-0.5,0.8-0.5c0.1-1.1-1.7-0.8-1.7-0.8c-1.9,0.2-3.5,4.2,2.4,4.3
		c2.3,0,4-0.7,5-1.8c4.6,2.4,6.5,3.3,8.6,3.3c2.6,0,2.4-2.1,2.4-2.1c0,0.9-1.3,1.4-1.3,1.4c-2.2,0.7-3.7,0.1-9.5-2.9
		c0.5-0.6,0.7-1.2,0.8-1.8c5.8,2.3,8,3,10.4,2.9C79.4,11.5,79,9.5,79,9.5 M61.2,5.2c1.8,0,4.3,1.3,4.7,3C65.3,8,64.7,7.7,64,7.5
		c-2.6-1-4.9-1.6-6.9-1.9C59.8,5.1,61.2,5.2,61.2,5.2 M65.1,10.4c-0.7-0.4-1.5-0.8-2.4-1.3c-3.7-1.9-6.7-2.7-9-2.9
		c0.9-0.2,1.7-0.4,2.4-0.5c3.9,0.5,6.4,1.5,6.4,1.5c1.3,0.5,2.4,1,3.5,1.4C66,9.2,65.7,9.8,65.1,10.4"/>
	<path class="st1" d="M37.7,5.5c0,0-2.6-0.8-7.1-0.1c-2.7-0.6-5.8-0.9-7.7,0.1c-1.4,0.7-2.1,1.7-2.1,2.8c-7.4,2.9-9.1,3.4-11.6,2.6
		c0,0-1.4-0.6-1.2-1.4c0,0-0.4,2,2.4,2.1c2.4,0.1,4.6-0.6,10.4-2.9c0.1,0.6,0.3,1.3,0.8,1.8c-5.8,3-7.3,3.6-9.5,2.9
		c0,0-1.3-0.5-1.3-1.4c0,0-0.2,2.1,2.4,2.1c2.1,0,4-0.8,8.6-3.3c1,1.1,2.7,1.8,5,1.8c5.9-0.1,4.2-4.1,2.4-4.3c0,0-1.8-0.4-1.7,0.8
		c0,0,0.1,0.5,0.8,0.5c0.6,0,1-0.3,1-0.3s0.9,0.3,0.8,1.4s-5,2.3-8-0.1c1-0.5,2.2-1.1,3.5-1.8c0,0,3.4-1.9,8.5-2.4
		c0.8,0.2,1.5,0.4,2.4,0.7c0,0-0.8-0.3-2.1-0.7c1-0.1,2-0.1,3.1-0.1c0,0-1.4-0.4-3.9-0.1C33,6,32.3,5.8,31.5,5.6
		C33.4,5.4,35.5,5.4,37.7,5.5 M25.7,5.2c0,0,1.4-0.1,4.1,0.3c-2,0.3-4.3,0.9-6.9,1.9c-0.7,0.3-1.3,0.5-1.9,0.7
		C21.5,6.5,23.9,5.2,25.7,5.2 M33.3,6.3c-2.3,0.3-5.3,1-9,2.9c-0.9,0.5-1.7,0.9-2.4,1.3C21.3,9.9,21,9.3,21,8.7
		c1-0.4,2.2-0.9,3.5-1.4c0,0,2.5-1,6.4-1.5C31.6,5.9,32.4,6,33.3,6.3"/>
	<path class="st1" d="M15,36.4c0.5,7.6,2.5,14.5,5.8,20.4c0.7,1.3,1.5,2.6,2.4,3.8c0.6,0.3,1.3,0.5,1.9,0.8c-1.2-1.6-2.3-3.2-3.3-5
		c-3.1-5.6-5-12.1-5.6-19.2c2.9-1.1,4.8-3.6,4.8-6.4c0-2.7-1.8-5.1-4.6-6.3c0.1-0.8,0.2-1.6,0.3-2.4l26.7-5.2l26.7,5.2
		c0.1,0.8,0.2,1.6,0.3,2.4c-2.8,1.2-4.6,3.6-4.6,6.3c0,2.8,1.9,5.2,4.8,6.4C70,44.4,68.1,50.8,65,56.4c-1,1.8-2.2,3.5-3.4,5.2
		c0.6-0.2,1.3-0.5,1.9-0.7c0.9-1.3,1.8-2.6,2.5-3.9c3.3-5.9,5.2-12.8,5.8-20.4c-2.8-1-4.8-3.3-4.8-5.8s1.9-4.7,4.6-5.6
		c-0.1-1.4-0.3-2.7-0.6-4l-27.6-5.4l-27.7,5.4c-0.2,1.3-0.4,2.6-0.6,4c2.8,0.9,4.6,3.1,4.6,5.6C19.9,33.3,18,35.6,15,36.4"/>
	<path class="st1" d="M46.2,73.7c-0.9,0.4-1.8,0.9-2.7,1.2c-1-0.4-1.9-0.8-2.8-1.3c-0.9,0-1.7-0.1-2.6-0.2c1.7,0.9,3.5,1.8,5.4,2.5
		c1.9-0.8,3.7-1.6,5.4-2.5C48,73.6,47.1,73.7,46.2,73.7"/>
	<g class="st2">
		<g class="st3">
			<g>
				<defs>
					<rect id="SVGID_1_" x="14.7" y="15.4" width="57.6" height="61"/>
				</defs>
				<clipPath id="SVGID_00000159443130364332694420000011347956747612848263_">
					<use xlink:href="#SVGID_1_"  style="overflow:visible;"/>
				</clipPath>
				<g style="clip-path:url(#SVGID_00000159443130364332694420000011347956747612848263_);">
					<g>
						<g>
							<defs>
								<rect id="SVGID_00000018220116017986758700000011440344524381663899_" x="37.2" y="73.5" width="12.4" height="3"/>
							</defs>
							<clipPath id="SVGID_00000168810180715570157180000014777304145529268155_">
								<use xlink:href="#SVGID_00000018220116017986758700000011440344524381663899_"  style="overflow:visible;"/>
							</clipPath>
							<path style="clip-path:url(#SVGID_00000168810180715570157180000014777304145529268155_);fill:#1C1C1B;" d="M46.2,73.7
								c-0.9,0.4-1.8,0.9-2.7,1.2c-1-0.4-1.9-0.8-2.8-1.3c-1.2,0-2.3-0.1-3.5-0.2c2,1.1,4,2.1,6.2,3c2.2-0.9,4.2-1.9,6.2-3
								C48.5,73.6,47.4,73.7,46.2,73.7"/>
						</g>
					</g>
				</g>
			</g>
		</g>
		<g class="st3">
			<g>
				<defs>
					<rect id="SVGID_00000110458264877344232200000001829853118552163757_" x="14.7" y="15.4" width="57.6" height="61"/>
				</defs>
				<clipPath id="SVGID_00000052825014623488256240000005267616716676687793_">
					<use xlink:href="#SVGID_00000110458264877344232200000001829853118552163757_"  style="overflow:visible;"/>
				</clipPath>
				<g style="clip-path:url(#SVGID_00000052825014623488256240000005267616716676687793_);">
					<g>
						<g>
							<defs>
								<rect id="SVGID_00000045587323088711271500000003439668012308078246_" x="14.7" y="15.4" width="57.6" height="46.1"/>
							</defs>
							<clipPath id="SVGID_00000103944942268496220370000013230709163126980243_">
								<use xlink:href="#SVGID_00000045587323088711271500000003439668012308078246_"  style="overflow:visible;"/>
							</clipPath>
							<path style="clip-path:url(#SVGID_00000103944942268496220370000013230709163126980243_);fill:#1C1C1B;" d="M14.7,36.2
								C15.2,44,17.2,51,20.5,57c0.6,1.2,1.3,2.3,2.1,3.3c0.8,0.4,1.7,0.7,2.6,1c-1.2-1.6-2.3-3.3-3.3-5c-3.1-5.6-5-12.1-5.6-19.2
								c2.9-1.1,4.8-3.6,4.8-6.4c0-2.7-1.8-5.1-4.6-6.3c0.1-0.8,0.2-1.6,0.3-2.4l26.7-5.2L70.2,22c0.1,0.8,0.2,1.6,0.3,2.4
								c-2.8,1.2-4.6,3.6-4.6,6.3c0,2.8,1.9,5.2,4.8,6.4c-0.6,7.2-2.5,13.6-5.6,19.2c-1,1.8-2.2,3.5-3.4,5.2c0.9-0.3,1.7-0.7,2.5-1
								c0.8-1.1,1.5-2.3,2.2-3.5c3.4-6,5.3-13.1,5.8-20.8c-2.9-0.7-4.9-2.8-4.9-5.4c0-2.5,1.9-4.6,4.7-5.3c-0.2-1.9-0.4-3.4-0.6-4.5
								l-28-5.5l-28,5.5c-0.2,1.1-0.4,2.6-0.6,4.5c2.8,0.8,4.7,2.9,4.7,5.3C19.5,33.3,17.6,35.4,14.7,36.2"/>
						</g>
					</g>
				</g>
			</g>
		</g>
	</g>
	<path class="st1" d="M76.8,53.1c-0.3-0.1-0.6-0.3-0.9-0.4c-0.1,0.1-0.2,0.3-0.3,0.4C76.1,53.1,76.4,53.1,76.8,53.1"/>
	<path class="st1" d="M79.3,47.7c0.1-0.3,0.2-0.6,0.3-0.9c-0.1,0.2-0.2,0.3-0.3,0.5C79.3,47.4,79.3,47.6,79.3,47.7"/>
	<path class="st0" d="M80.1,45.9C80,46,79.9,46,79.8,46.1c-0.1,0.2-0.1,0.4-0.2,0.6C79.7,46.5,79.9,46.2,80.1,45.9"/>
	<path class="st1" d="M78.5,50.8c0.6-1.5,1.1-2.9,1.5-4.3c0.7,0,4.6-0.3,7-4.8c0,0-4.8-0.7-6.6,3.2c0.4-1.7,0.6-3.3,0.7-4.8
		c0.2,0,4.4-1,5.6-6.3c0,0-4.8,0.5-5.6,4.7c0-2.2-0.1-4.2-0.4-5.8c0.7-0.2,3.8-1.3,4.8-5.5c0,0-4.7,0.5-5,4.7
		c-0.2-1.2-0.4-2.1-0.6-2.8c0.3-0.6,1.4-3.7-1.6-7.3c0,0-2.8,4.1,1.2,7.1c0.3,0.9,0.6,2.3,0.9,4.1c-0.5-1.2-1.7-3.1-4.7-4.2
		c0,0-0.3,4.9,4.8,5.5c0.2,2,0.3,4.3,0,6.8c-0.4-1.4-1.5-3.9-5.2-5.5c0,0-0.6,5.5,5.1,6.5c-0.2,1.3-0.4,2.7-0.8,4
		c-0.2,0.1-0.4,0.2-0.6,0.4c-0.3-1.5-1.3-3.5-3.9-5.2c0,0-1.2,4,2,6.3c-0.1,0.1-0.3,0.2-0.4,0.3c-0.5,0.3-0.9,0.5-1.4,0.8
		c-0.4-0.4-0.9-0.8-1.5-1.2c0,0-0.3,1-0.1,2.1c-0.5,0.3-1,0.6-1.5,0.9c-0.1,0.2-0.1,0.3-0.2,0.5c0.1,0,0.1-0.1,0.2-0.1
		c0.5-0.3,1-0.6,1.5-0.9c0.6-0.4,1.2-0.7,1.8-1c0.4-0.3,0.9-0.5,1.3-0.8c0.2-0.1,0.4-0.2,0.6-0.3c0.5-0.3,1-0.6,1.5-0.9
		c-0.3,0.4-0.5,0.8-0.8,1.2c-0.5,0.9-1,1.6-1.5,2.4c-0.4,0.6-0.8,1.3-1.1,1.9c-0.1,0.1-0.2,0.3-0.3,0.5L75,53.5h0.6
		c0.4,0,0.7,0,1.1,0c0.1,0,0.3,0,0.4,0c0.8,0,1.6,0,2.3,0c1,0,2,0,2.9,0c-0.6,0.3-1.3,0.7-1.9,1c-1.1,0.6-2.1,1.2-3.1,1.7
		c0.1,0.1,0.2,0.1,0.3,0.2c1-0.5,1.9-1.1,2.9-1.6s2-1.1,2.9-1.6c-2-0.1-4.1-0.1-6.3-0.1c0.1-0.1,0.1-0.3,0.2-0.4
		c0.7,0.1,4.6,0.3,7.7-3.8C85.3,48.8,80.9,47.6,78.5,50.8 M79.5,46.8c-0.1,0.3-0.2,0.6-0.3,0.9c0-0.1,0-0.3,0-0.4
		C79.3,47.1,79.4,46.9,79.5,46.8 M75.7,53.1c0.1-0.1,0.2-0.3,0.3-0.4c0.3,0.2,0.6,0.3,0.9,0.4C76.4,53.1,76.1,53.1,75.7,53.1
		 M77.2,52.7c0-0.4,0-1-0.3-1.7c0.5-0.9,1.1-1.8,1.6-2.7c0.1,0.1,0.3,0.1,0.4,0.2C78.5,49.9,77.9,51.3,77.2,52.7"/>
	<path class="st1" d="M11,52.7c-0.2,0.1-0.5,0.3-0.8,0.4c0.4,0,0.7,0,1.1,0C11.2,53,11.1,52.8,11,52.7"/>
	<path class="st1" d="M14.7,50.5c-0.5-0.3-1-0.6-1.4-0.8c0.2-1.2-0.1-2.2-0.1-2.2c-0.6,0.4-1.1,0.8-1.5,1.2c-0.5-0.3-1-0.6-1.4-0.8
		c-0.1-0.1-0.2-0.1-0.3-0.2c3.3-2.3,2-6.4,2-6.4C9.3,43,8.4,45,8,46.5c-0.2-0.1-0.4-0.2-0.6-0.4c-0.4-1.3-0.7-2.7-0.9-4
		c5.7-1,5.1-6.5,5.1-6.5c-3.7,1.6-4.9,4.1-5.2,5.5c-0.2-2.5-0.2-4.9,0-6.8c5.2-0.6,4.8-5.5,4.8-5.5C8.3,29.9,7,31.7,6.5,33
		c0.3-1.8,0.6-3.3,0.9-4.1c4-3,1.2-7.1,1.2-7.1c-3.1,3.6-1.9,6.7-1.6,7.3c-0.2,0.7-0.4,1.6-0.6,2.8c-0.3-4.2-5-4.7-5-4.7
		c1,4.3,4.1,5.4,4.8,5.5c-0.2,1.6-0.4,3.5-0.3,5.7c-0.7-4.2-5.6-4.7-5.6-4.7C1.5,39.1,5.8,40,5.9,40c0.1,1.5,0.3,3.2,0.7,4.8
		C4.8,41,0,41.7,0,41.7c2.4,4.5,6.3,4.8,7,4.8c0.4,1.4,0.9,2.9,1.5,4.3c-2.4-3.2-6.8-2-6.8-2c3.1,4.2,7,3.9,7.7,3.9
		c0.1,0.1,0.1,0.3,0.2,0.4c-2.2,0-4.4,0-6.4,0.1c1,0.6,2,1.1,2.9,1.6c1.1,0.6,2.1,1.2,3.2,1.8c0.1-0.1,0.2-0.1,0.3-0.2
		c-1-0.6-2.1-1.2-3.3-1.9c-0.6-0.3-1.2-0.7-1.9-1c0.9,0,1.8,0,2.7,0c0.8,0,1.7,0,2.6,0c0.1,0,0.3,0,0.4,0c0.3,0,0.7,0,1,0h0.6
		L11.4,53c-0.1-0.1-0.2-0.3-0.2-0.4c-0.3-0.6-0.7-1.2-1.1-1.8c-0.5-0.8-1-1.6-1.5-2.4c-0.3-0.4-0.5-0.9-0.8-1.3
		c0.5,0.3,1,0.6,1.5,0.9c0.2,0.1,0.3,0.2,0.5,0.3c0.5,0.3,0.9,0.5,1.4,0.8c0.6,0.3,1.2,0.7,1.8,1c0.5,0.3,0.9,0.5,1.4,0.8
		c0.1,0,0.2,0.1,0.2,0.1C14.8,50.8,14.7,50.7,14.7,50.5 M11,52.7c0.1,0.1,0.2,0.3,0.2,0.4c-0.4,0-0.7,0-1.1,0
		C10.5,53,10.8,52.8,11,52.7 M8.4,48.4c0.6,0.9,1.1,1.8,1.7,2.7c-0.2,0.7-0.3,1.2-0.2,1.6c-0.7-1.4-1.3-2.8-1.8-4.2
		C8.2,48.5,8.3,48.5,8.4,48.4"/>
	<path class="st1" d="M61.7,61.5c0.7-0.2,1.3-0.5,2-0.8C63.1,61,62.4,61.3,61.7,61.5"/>
	<path class="st1" d="M74.2,54L74.2,54c0.8,0.6,1.8,1.2,2.9,1.9c1.1-0.6,2.1-1.2,3.3-1.8c0.1,0,0.1-0.1,0.2-0.1c-0.3,0-0.7,0-1,0
		c-1.2,0-2.4,0-3.8,0.1L74.2,54z"/>
	<path class="st1" d="M73.3,53.6L73.3,53.6c0.3,0,0.6,0.2,0.8,0.3l0.8-1.3c0.7-1.3,1.5-2.6,2.5-4.1c0,0-0.1,0-0.1,0.1
		c-1.4,0.8-2.8,1.7-4.6,2.7c-0.3,0.1-0.5,0.3-0.7,0.4c-0.2,0.6-0.4,1.2-0.7,1.8C71.9,53.2,72.6,53.1,73.3,53.6"/>
	<path class="st1" d="M61.7,61.5c0.1-0.1,0.2-0.3,0.3-0.4C61.9,61.2,61.8,61.4,61.7,61.5L61.7,61.5"/>
	<path class="st1" d="M23.4,60.7c0.6,0.2,1.2,0.5,1.7,0.7c-0.1-0.1-0.2-0.3-0.3-0.4c0.1,0.1,0.2,0.3,0.3,0.4
		C24.5,61.2,24,60.9,23.4,60.7"/>
	<path class="st1" d="M13.1,54.1c0.2-0.1,0.4-0.3,0.8-0.3l0,0c0.6-0.4,1.4-0.3,2.1,0c-0.2-0.6-0.5-1.2-0.7-1.7
		c-0.3-0.2-0.6-0.4-1-0.6c-1.5-0.9-2.9-1.7-4.1-2.4c0.8,1.3,1.5,2.5,2.1,3.5L13.1,54.1z"/>
	<path class="st1" d="M12.9,54.2l-1.7-0.1c-1.5,0-2.8-0.1-4-0.1H7c1.2,0.7,2.2,1.2,3.3,1.8C11.3,55.3,12.2,54.7,12.9,54.2"/>
	<path class="st1" d="M68.9,58.2c-0.6,0.3-1.2,0.6-1.7,0.9C67.8,58.8,68.3,58.5,68.9,58.2"/>
	<path class="st1" d="M71.2,56.8c1.5-1,2.2-2.3,2.1-3.1c-0.8-0.3-1.8,0.1-2.5,0.6c-0.6,1.3-1.2,2.6-1.9,3.9
		C69.7,57.7,70.5,57.3,71.2,56.8"/>
	<path class="st1" d="M16,56.8c1.4,0.9,2.9,1.7,4.4,2.5c-0.9-0.4-1.7-0.9-2.5-1.4c-0.6-1.2-1.2-2.3-1.7-3.5
		c-0.7-0.5-1.6-0.9-2.4-0.6C13.8,54.6,14.6,55.9,16,56.8"/>
	<path class="st1" d="M145.3,58.8c0,0.5-0.1,1.1-0.1,1.6c-0.2,2.9-0.4,5.9-0.7,8.8c-0.1,0.7-0.1,1.3-0.2,2c-0.1,1.5,0.5,1.7,1.7,2
		c0.3,0.1,0.6,0.1,0.9,0.1c0.3,0,0.5,0.2,0.5,0.6c0,0.3-0.3,0.4-0.6,0.4c-0.8,0-1.6,0-2.4-0.1c-1.2-0.1-2.4,0-3.6,0.1
		c-0.3,0-0.7,0-1,0c-0.2,0-0.4-0.1-0.4-0.4s0.1-0.5,0.4-0.5c0.6-0.1,1.2-0.2,1.7-0.4c0.8-0.3,1.2-0.8,1.3-1.6c0.3-2.9,0.7-5.9,1-8.8
		c0.2-1.4,0.3-2.7,0.5-4.1c0-0.4,0-0.7,0-1.1c0-0.7-0.3-1.1-0.9-1.3c-0.5-0.2-1.1-0.3-1.7-0.4c-0.3,0-0.5-0.2-0.5-0.5
		s0.2-0.4,0.5-0.4c0.5,0,1,0,1.5,0.1c1.1,0.2,2.1,0,3.2-0.1c0.5,0,0.7,0.1,0.9,0.6c0.7,2,1.5,4,2.3,6c0.8,2.2,1.7,4.3,2.5,6.5
		c0.2,0.6,0.4,1.2,0.7,1.8c0,0.1,0.1,0.3,0.2,0.3c0.2,0,0.2-0.2,0.2-0.3c1.2-3,2.4-5.9,3.5-8.9c0.7-1.8,1.5-3.6,2.2-5.4
		c0.2-0.4,0.4-0.6,0.8-0.5c0.4,0.1,0.8,0,1.2,0.1c1.2,0.2,2.4-0.1,3.6-0.1c0.2,0,0.4,0,0.5,0.3s-0.1,0.6-0.4,0.6
		c-0.4,0-0.9,0.2-1.3,0.3c-0.9,0.3-1.3,0.7-1.3,1.6c0,0.9,0.1,1.8,0.1,2.7c0,0.9,0.1,1.7,0.1,2.6c0.1,2.6,0.3,5.2,0.4,7.9
		c0,0.1,0,0.2,0,0.3c0,1.6,0.6,1.8,1.8,2.1c0.3,0.1,0.6,0.1,0.9,0.2c0.3,0,0.5,0.2,0.5,0.5s-0.3,0.4-0.5,0.4c-0.9,0-1.9,0-2.8-0.1
		c-1.4-0.1-2.8,0-4.2,0.1c-0.4,0-0.9,0-1.3,0c-0.3,0-0.5-0.1-0.5-0.4s0.1-0.4,0.4-0.5c0.5-0.1,1.1-0.2,1.6-0.4
		c0.6-0.2,0.9-0.6,0.9-1.2c0.1-1.2,0-2.4-0.1-3.6c0-0.8,0-1.6-0.1-2.4c-0.1-2.2-0.2-4.4-0.3-6.5c0-0.4-0.1-0.8-0.1-1.3
		c-0.3,0.6-0.5,1.1-0.7,1.7c-0.7,1.7-1.3,3.4-2,5.1c-0.9,2.4-1.9,4.7-2.8,7c-0.3,0.8-0.6,1.5-0.9,2.3c-0.1,0.2-0.1,0.4-0.4,0.5
		c-0.3,0.1-0.6,0-0.7-0.3c-0.3-0.7-0.6-1.5-0.9-2.2c-1-2.4-1.9-4.9-2.9-7.3c-0.7-1.7-1.3-3.4-2-5.1
		C145.6,59.5,145.5,59.1,145.3,58.8L145.3,58.8"/>
	<path class="st1" d="M190.7,31.9c1.6,0,3.2,0,4.7,0c0.4,0,0.5-0.1,0.5-0.5c0-2,0-4,0-5.9c0-0.9-0.3-1.3-1.2-1.5
		c-0.4-0.1-0.8-0.2-1.3-0.2c-0.3,0-0.4-0.2-0.4-0.5s0.2-0.4,0.5-0.4c0.9,0,1.9,0,2.8,0.1c1.2,0.1,2.4,0,3.6-0.1c0.6,0,1.1,0,1.7,0
		c0.3,0,0.4,0.1,0.4,0.4s-0.1,0.4-0.4,0.5c-0.6,0.1-1.2,0.2-1.7,0.4c-0.6,0.2-0.9,0.7-0.9,1.3c0,0.5,0,1,0,1.5c0,4,0,8,0,12
		c0,1.7,0.4,2.1,2,2.4c0.2,0,0.4,0.1,0.6,0.1c0.3,0,0.4,0.2,0.4,0.5s-0.2,0.4-0.5,0.4c-1,0-1.9,0-2.9-0.1c-1.2-0.1-2.3,0-3.5,0.1
		c-0.6,0-1.1,0-1.7,0c-0.3,0-0.4-0.1-0.5-0.4c0-0.3,0.1-0.5,0.4-0.5c0.4,0,0.8-0.1,1.2-0.2c0.9-0.3,1.2-0.6,1.2-1.6
		c0-1.8,0-3.6,0-5.4c0-0.2,0-0.5,0-0.7c0-0.4-0.1-0.5-0.5-0.5c-0.8,0-1.7,0-2.5,0c-2.3,0-4.6,0-6.9,0c-0.5,0-0.5,0-0.5,0.6
		c0,1.9,0,3.9,0,5.8c0,0.2,0,0.3,0,0.5c0,0.6,0.4,1,1,1.2c0.4,0.1,0.9,0.2,1.3,0.3c0.3,0,0.5,0.2,0.5,0.5c0,0.4-0.3,0.4-0.5,0.4
		c-1.4,0-2.7-0.2-4.1-0.2c-1.3,0-2.5,0.2-3.8,0.2c-0.2,0-0.4,0-0.5-0.2c-0.2-0.3,0-0.7,0.4-0.7s0.9-0.2,1.3-0.3
		c0.8-0.2,1.2-0.6,1.3-1.5c0-0.3,0.1-0.7,0.1-1c0-3.9,0-7.9,0-11.8c0-0.4,0-0.8,0-1.2c0-1.2-0.6-1.5-1.6-1.7c-0.3-0.1-0.7-0.1-1-0.2
		c-0.3,0-0.5-0.2-0.4-0.5c0-0.3,0.2-0.4,0.5-0.4c1,0,1.9,0,2.9,0.1c1.2,0.1,2.4,0,3.6-0.1c0.5,0,1,0,1.5,0c0.3,0,0.4,0.1,0.4,0.4
		s-0.1,0.5-0.4,0.5c-0.5,0.1-1,0.1-1.5,0.3c-0.6,0.2-0.9,0.6-0.9,1.3c0,2.1,0,4.2,0,6.3c0,0.4,0.2,0.4,0.5,0.4
		C187.6,31.9,189.1,31.9,190.7,31.9"/>
	<path class="st1" d="M132.2,36.6c0,1,0,1.9,0,2.9c0,0.8,0.3,1.2,1.1,1.5c0.5,0.2,1,0.3,1.5,0.3c0.2,0,0.3,0,0.4,0.2
		c0.2,0.3,0,0.7-0.4,0.7c-1,0-1.9,0-2.9-0.1c-1.2-0.1-2.4,0-3.6,0.1c-0.6,0-1.2,0-1.8,0c-0.3,0-0.5-0.1-0.5-0.4
		c0-0.3,0.1-0.5,0.4-0.5c0.4,0,0.9-0.1,1.3-0.3c1-0.3,1.2-0.6,1.3-1.6c0-0.4,0.1-0.8,0.1-1.2c0-4,0-8,0-12c0-0.4,0-0.8-0.1-1.2
		c0-0.5-0.3-0.8-0.8-1.1c-0.6-0.3-1.2-0.3-1.8-0.4c-0.2,0-0.4-0.1-0.5-0.4c0-0.3,0.1-0.5,0.5-0.5c1,0,1.9,0,2.9,0.1
		c1.3,0.1,2.6,0,3.8-0.1c1.9-0.1,3.8-0.1,5.6,0.7c2.6,1.1,3.6,4.4,1.9,6.7c-0.7,1-1.6,1.6-2.7,2.1c-0.1,0.1-0.2,0.1-0.4,0.2
		c-0.3,0.1-0.4,0.3-0.2,0.6c1.4,2.2,2.8,4.3,4.3,6.5c0.5,0.8,1.2,1.3,2.1,1.6c0.4,0.1,0.9,0.2,1.3,0.3c0.3,0,0.4,0.2,0.4,0.5
		s-0.2,0.4-0.5,0.4c-0.5,0-1,0-1.5-0.1c-1.1-0.2-2.1,0-3.1,0.1c-0.4,0-0.6-0.1-0.9-0.4c-0.9-1.6-1.9-3.1-2.9-4.7
		c-0.6-1-1.2-1.9-1.9-2.9c-0.6-0.9-1.5-1.1-2.5-1.1c-0.3,0-0.2,0.2-0.2,0.4C132.2,34.5,132.2,35.6,132.2,36.6L132.2,36.6z
		 M132.2,28.4L132.2,28.4c0,1.1,0,2.2,0,3.3c0,0.2,0,0.4,0.3,0.4c0.9,0.1,1.8,0.1,2.7,0c1.3-0.2,2.3-0.7,2.8-2s0.5-2.7,0.2-4.1
		c-0.3-1.2-1.1-1.9-2.3-2.2c-0.9-0.2-1.7-0.2-2.6,0c-0.8,0.2-1.1,0.5-1.1,1.4C132.2,26.4,132.2,27.4,132.2,28.4"/>
	<path class="st1" d="M227.3,42.7c-1.3,0.1-2.3-0.5-3.2-1.2c-0.6-0.6-1.2-1.2-1.8-1.9c-0.2-0.3-0.3-0.3-0.5,0
		c-0.7,0.9-1.5,1.7-2.4,2.2c-1.7,0.9-3.4,1.3-5.3,0.6c-1.9-0.6-3.4-2.6-3.4-4.6c0-1.6,0.8-2.7,1.9-3.7c0.8-0.7,1.8-1.3,2.8-1.8
		c0.4-0.2,0.4-0.2,0.1-0.6c-2-2.4-1.1-5.6,1.2-6.9c1.6-0.9,3.8-0.4,5,1c0.8,1,0.8,2.3,0,3.4c-0.7,0.8-1.5,1.4-2.4,1.9
		c-0.3,0.2-0.3,0.3-0.1,0.6c1.3,1.4,2.5,2.9,3.8,4.3c0.1,0.1,0.2,0.2,0.3,0c0.7-1,1.6-1.8,2.1-3s0.2-1.7-1.1-2
		c-0.3-0.1-0.6-0.1-1-0.2c-0.3,0-0.5-0.2-0.5-0.5c0-0.4,0.3-0.4,0.6-0.4c0.7,0,1.5,0,2.2,0.1c1.5,0.1,3,0,4.4-0.1c0.3,0,0.5,0,0.8,0
		s0.5,0,0.6,0.4c0,0.3-0.2,0.5-0.5,0.6c-0.4,0.1-0.8,0.2-1.3,0.3c-1.2,0.3-2,1.1-2.7,2c-0.9,1.2-1.9,2.3-2.8,3.5
		c-0.1,0.2-0.2,0.3,0,0.5c1,1.1,1.9,2.3,3.1,3.1c1,0.7,2.2,0.6,3.2-0.3c0.2-0.2,0.4-0.3,0.7-0.1s0.2,0.5,0,0.8
		c-0.6,0.7-1.2,1.3-2,1.6C228.4,42.6,227.8,42.8,227.3,42.7 M217,40.7c1.7,0,2.9-0.8,4-1.9c0.3-0.3,0.2-0.4,0-0.7
		c-0.6-0.7-1.2-1.3-1.8-2c-0.9-1-1.7-1.9-2.6-2.9c-0.1-0.1-0.3-0.3-0.5-0.1c-0.9,0.7-1.6,1.4-2.1,2.4C213,37.8,214.2,40.8,217,40.7
		 M216.8,27.5c0,1.2,0.6,2.1,1.2,2.9c0.1,0.2,0.3,0.1,0.4,0c0.4-0.3,0.8-0.6,1.1-1c0.7-0.9,1.1-1.8,0.7-2.9c-0.2-0.6-0.6-1-1.2-1.1
		c-0.7-0.1-1.3,0.1-1.7,0.6C217,26.6,216.8,27.1,216.8,27.5"/>
	<path class="st1" d="M185.6,68.5c0,1.1,0,2.2,0,3.2c0,0.8,0.4,1.3,1.2,1.3c1.3,0.1,2.7,0.1,4,0c1.8-0.2,3.1-1.2,4.2-2.5
		c0.3-0.3,0.4-0.7,0.7-1c0.2-0.3,0.4-0.3,0.7-0.2c0.3,0.2,0.3,0.4,0.2,0.6c-0.6,1.3-1.2,2.7-1.6,4.1c-0.1,0.2-0.2,0.3-0.4,0.3
		c-1.6-0.1-3.1,0-4.7-0.1c-1.7-0.1-3.4-0.1-5.1,0c-0.6,0-1.2,0-1.7,0c-1,0-1.9,0-2.9,0.1c-0.3,0-0.5,0-0.6-0.4
		c0-0.4,0.2-0.5,0.5-0.5c0.5-0.1,1-0.1,1.5-0.3c0.7-0.3,1-0.6,1-1.4c0.1-1.2,0.1-2.4,0.1-3.6c0-2.6,0-5.1,0-7.7c0-1,0-2-0.1-3
		c0-0.7-0.4-1.2-1-1.3c-0.5-0.1-1-0.3-1.5-0.3c-0.3,0-0.5-0.2-0.5-0.5s0.2-0.4,0.5-0.4c1.8,0,3.6,0.1,5.3,0.1c1.8,0.1,3.6,0,5.5-0.1
		c1,0,2,0,3-0.1c0.3,0,0.5,0.1,0.6,0.5c0.2,1.2,0.5,2.4,0.8,3.6c0.1,0.2,0.1,0.5-0.2,0.6s-0.6,0.1-0.7-0.3c-0.2-0.6-0.5-1.2-0.9-1.6
		c-0.7-0.9-1.6-1.4-2.8-1.5c-1.1-0.1-2.2,0-3.3-0.1c-0.2,0-0.4,0-0.6,0.1c-0.7,0.1-1.1,0.5-1.1,1.2c0,2,0,4.1,0,6.1
		c0,0.2,0.1,0.3,0.3,0.3c1.2,0,2.4,0,3.6,0c0.8,0,1.4-0.4,1.7-1.3c0.1-0.5,0.2-0.9,0.3-1.4c0-0.3,0.3-0.4,0.6-0.4s0.4,0.2,0.4,0.5
		c0,1.2-0.2,2.4-0.1,3.6c0,0.9,0.1,1.9,0.1,2.8c0,0.3,0,0.5-0.3,0.5s-0.6-0.1-0.6-0.4c-0.1-0.6-0.2-1.1-0.4-1.7
		c-0.3-0.7-0.9-1.1-1.6-1.1c-1.1,0-2.3,0-3.4,0c-0.3,0-0.4,0.2-0.4,0.5C185.6,66.4,185.6,67.5,185.6,68.5L185.6,68.5z"/>
	<path class="st1" d="M127.8,68.4c0,1-0.1,2.2,0.1,3.4c0.1,0.8,0.5,1.3,1.3,1.3c1.4,0,2.8,0.2,4.2-0.1c2-0.4,3.4-1.5,4.5-3.2
		c0.1-0.1,0.1-0.2,0.2-0.3c0.1-0.2,0.3-0.3,0.6-0.1c0.2,0.1,0.3,0.3,0.2,0.5c-0.1,0.4-0.3,0.7-0.5,1.1c-0.4,0.9-0.8,1.9-1.1,2.9
		c-0.1,0.4-0.3,0.6-0.8,0.6c-2.9-0.1-5.8-0.2-8.6-0.1c-1.8,0.1-3.7,0-5.5,0.1c-0.2,0-0.4,0-0.5-0.2c-0.2-0.3,0-0.6,0.4-0.7
		c0.5-0.1,1-0.2,1.5-0.3c0.8-0.3,1.1-0.8,1.1-1.6c0-0.2,0-0.4,0-0.6c0-4.2,0-8.4,0-12.7c0-1.6-0.3-2-1.8-2.4
		c-0.3-0.1-0.6-0.1-0.8-0.1c-0.3,0-0.5-0.2-0.5-0.5s0.2-0.4,0.5-0.4c1.8,0,3.5,0.1,5.3,0.1c1.2,0,2.4,0,3.6,0c0.1,0,0.2,0,0.2,0
		c1.6,0,3.1-0.1,4.7-0.1c0.4,0,0.5,0.1,0.6,0.5c0.1,1.1,0.4,2.2,0.7,3.3c0.1,0.3,0.3,0.7-0.2,0.8c-0.4,0.1-0.5,0-0.7-0.5
		c-0.6-1.5-1.5-2.5-3.1-2.8c-1.4-0.2-2.8-0.2-4.3-0.1c-0.7,0.1-1.1,0.4-1.2,1.2c-0.1,0.4-0.1,0.8-0.1,1.2c0,1.6,0,3.2,0,4.9
		c0,0.4,0.1,0.5,0.5,0.5c1.3-0.1,2.5,0.1,3.8-0.1c0.7-0.1,1.1-0.5,1.3-1.1c0.2-0.5,0.3-1,0.3-1.5c0-0.3,0.2-0.5,0.5-0.5
		s0.5,0.2,0.4,0.5c0,0.8-0.1,1.5-0.1,2.3c-0.1,1.2,0,2.5,0.1,3.7c0,0.1,0,0.3,0,0.4c0,0.3-0.1,0.5-0.4,0.5c-0.3,0-0.5-0.1-0.5-0.4
		c-0.1-0.5-0.2-1-0.3-1.5c-0.3-0.9-0.8-1.3-1.8-1.3c-1.2,0-2.3,0-3.5,0c-0.3,0-0.4,0.1-0.4,0.4C127.8,66.2,127.8,67.2,127.8,68.4"/>
	<path class="st1" d="M107,30.8c0-1.6,0-3.2,0-4.8c0-1.5-0.4-2-1.9-2.3c-0.3-0.1-0.6-0.1-0.8-0.1c-0.3,0-0.4-0.2-0.4-0.5
		s0.2-0.4,0.5-0.4c1,0,2.1,0,3.1,0.1c1.2,0.1,2.4,0,3.6-0.1c0.6,0,1.1,0,1.7,0c0.3,0,0.4,0.1,0.4,0.4s-0.1,0.5-0.4,0.5
		c-0.3,0.1-0.7,0.1-1,0.2c-1.2,0.2-1.7,0.8-1.7,2c0,0.5,0,1.1,0,1.6c0,2.6,0,5.2,0,7.8c0,1.1,0.2,2.2,0.5,3.2
		c0.6,1.6,1.8,2.5,3.4,2.8c1.2,0.2,2.3,0.2,3.4-0.2c1.6-0.5,2.6-1.7,3.1-3.2c0.3-1,0.4-1.9,0.4-2.9c0-3,0-5.9,0-8.9
		c0-0.1,0-0.3,0-0.4c-0.1-0.9-0.4-1.3-1.2-1.6c-0.5-0.2-1-0.2-1.5-0.3c-0.3,0-0.4-0.2-0.4-0.5s0.2-0.4,0.5-0.4
		c1.1,0.1,2.3,0.1,3.4,0.2c1,0,2-0.1,2.9-0.2c0.3,0,0.5,0,0.5,0.4c0,0.3-0.1,0.5-0.5,0.5c-0.1,0-0.3,0.1-0.4,0.1
		c-0.4,0.1-0.8,0.2-1.2,0.3c-0.6,0.2-0.9,0.6-1,1.2c-0.1,0.4-0.1,0.7-0.1,1.1c0,3,0,6,0,9c0,1.3-0.3,2.6-0.8,3.8
		c-1.1,2.2-2.8,3.4-5.3,3.6c-1.6,0.1-3.1,0-4.6-0.6c-1.8-0.7-3-2-3.7-3.8c-0.3-0.9-0.5-1.8-0.5-2.7C107,33.9,107,32.4,107,30.8
		L107,30.8z"/>
	<path class="st1" d="M167.5,34.5c-0.8,0-1.6,0-2.4,0c-0.2,0-0.4,0.1-0.5,0.3c-0.5,1.4-1.1,2.9-1.5,4.3c-0.4,1.4-0.1,1.9,1.3,2.2
		c0.2,0,0.3,0,0.5,0.1c0.3,0,0.5,0.2,0.5,0.5s-0.2,0.4-0.5,0.5c-0.7,0-1.5,0-2.2-0.1c-1-0.1-2,0-3,0.1c-0.4,0-0.8,0-1.1,0
		c-0.2,0-0.4-0.1-0.4-0.3s0.1-0.4,0.3-0.5c0.1,0,0.1,0,0.2-0.1c1.4-0.1,2.3-1,2.8-2.2c1.1-2.5,2.1-5.1,3.1-7.7
		c0.9-2.2,1.8-4.5,2.8-6.7c0.3-0.7,0.5-1.3,0.8-2c0.1-0.3,0.3-0.4,0.6-0.4s0.4,0.2,0.5,0.4c0.3,0.9,0.7,1.9,1,2.8
		c1.3,3.7,2.6,7.3,4,10.9c0.3,0.8,0.6,1.6,0.9,2.4c0.5,1.5,1.6,2.3,3.1,2.5c0.1,0,0.2,0,0.3,0.1c0.2,0.1,0.3,0.3,0.3,0.5
		s-0.2,0.3-0.4,0.3c-0.5,0-1.1,0-1.6,0c-1.6-0.2-3.2-0.1-4.8,0c-0.5,0-1.1,0-1.6,0c-0.3,0-0.5-0.2-0.5-0.4c0-0.3,0.1-0.5,0.4-0.5
		c0.4,0,0.9-0.1,1.3-0.2c0.6-0.2,0.8-0.5,0.7-1.2c-0.1-0.6-0.3-1.1-0.5-1.6c-0.4-1.2-0.8-2.3-1.2-3.5c-0.1-0.3-0.3-0.4-0.6-0.4
		C169.1,34.5,168.3,34.5,167.5,34.5 M167.6,26.8c-0.1,0.1-0.1,0.2-0.2,0.3c-0.5,1.2-0.9,2.4-1.4,3.7c-0.3,0.8-0.6,1.6-0.9,2.3
		c-0.1,0.3,0,0.4,0.3,0.4c1.3,0,2.7,0,4,0c0.4,0,0.4-0.1,0.3-0.4c-0.5-1.6-1.1-3.1-1.6-4.7C168.1,27.8,167.9,27.3,167.6,26.8"/>
	<path class="st1" d="M206.9,73.1c0.6,0,1.2,0,1.9,0c1.7-0.1,2.8-1.1,3.6-2.5c0.3-0.5,0.5-1,0.8-1.5c0.1-0.3,0.3-0.5,0.7-0.4
		s0.4,0.4,0.3,0.7c-0.4,1.4-0.7,2.9-0.9,4.4c0,0.3-0.2,0.4-0.5,0.4c-1.7-0.1-3.3-0.1-5-0.1c-1.6,0-3.3-0.1-4.9,0c-0.6,0-1.2,0-1.8,0
		c-0.9,0-1.9,0-2.8,0.1c-0.3,0-0.5,0-0.5-0.4c0-0.3,0.2-0.5,0.5-0.5c0.5-0.1,1.1-0.2,1.6-0.4c0.6-0.2,0.9-0.7,1-1.3
		c0-0.2,0-0.4,0-0.6c0-4.5,0-8.9,0-13.4c0-1.3-0.3-1.6-1.5-1.9c-0.4-0.1-0.7-0.2-1.1-0.2c-0.3,0-0.5-0.2-0.5-0.5s0.2-0.4,0.5-0.4
		c1,0,2,0,3,0.1c1.1,0.1,2.2,0,3.2-0.1c0.7,0,1.3,0,2-0.1c0.3,0,0.4,0.1,0.4,0.4c0,0.3-0.1,0.5-0.4,0.5c-0.5,0-1,0.2-1.5,0.3
		c-0.8,0.2-1.1,0.7-1.1,1.4s0,1.3,0,2c0,3.9,0,7.8,0,11.7c0,0.2,0,0.4,0,0.5c0,0.9,0.4,1.4,1.4,1.4
		C205.7,73.2,206.3,73.2,206.9,73.1L206.9,73.1"/>
	<path class="st1" d="M172.6,74.2c-1.4,0.1-2.6,0.1-3.9,0.2c-0.1,0-0.3,0-0.4,0c-0.2,0-0.3-0.2-0.4-0.4c0-0.2,0.1-0.4,0.3-0.4
		c0.3-0.1,0.6-0.1,0.9-0.2c1.5-0.3,1.9-0.7,1.9-2.2c0-0.5,0-0.9,0-1.4c0-3.8,0-7.7,0-11.5c0-0.4,0-0.7-0.1-1.1
		c-0.1-0.6-0.5-0.9-0.9-1.1c-0.5-0.2-1-0.3-1.6-0.4c-0.3,0-0.5-0.2-0.5-0.5c0-0.4,0.3-0.4,0.6-0.4c1.5,0,3,0.2,4.5,0.2
		c1.2,0,2.4-0.2,3.7-0.1c0.4,0,0.6,0.2,0.5,0.6c-0.1,0.2-0.2,0.3-0.5,0.3c-0.5,0-1,0.2-1.5,0.3c-0.6,0.2-1,0.5-1.1,1.2
		c0,0.2,0,0.4,0,0.6c0,4.4,0,8.9,0,13.4c0,0.5,0,1,0.4,1.4s0.9,0.5,1.3,0.6c0.3,0.1,0.6,0.1,1,0.2c0.3,0,0.4,0.2,0.4,0.5
		s-0.2,0.4-0.5,0.4c-1,0-2-0.1-3-0.1C173.3,74.2,172.9,74.2,172.6,74.2"/>
	<path class="st1" d="M150.5,32.4c0-2.2,0-4.4,0-6.6c0-1.3-0.4-1.8-1.7-2c-0.3-0.1-0.7-0.1-1-0.2s-0.4-0.3-0.4-0.6
		c0-0.3,0.3-0.3,0.5-0.3c1.1,0,2.1,0.1,3.2,0.1c1.1,0.1,2.2,0,3.3-0.1c0.6,0,1.1,0,1.7,0c0.3,0,0.4,0.1,0.5,0.4
		c0,0.3-0.1,0.5-0.4,0.5c-0.5,0.1-1.1,0.2-1.6,0.3c-0.7,0.2-1,0.7-1.1,1.4c0,0.2,0,0.3,0,0.5c0,4.4,0,8.8,0,13.2
		c0,1.3,0.3,1.7,1.6,2c0.4,0.1,0.7,0.1,1.1,0.2c0.3,0,0.5,0.2,0.4,0.5c0,0.3-0.2,0.4-0.5,0.4c-0.7,0-1.5,0-2.2-0.1
		c-1.9-0.2-3.8,0.1-5.7,0.1c-0.1,0-0.2,0-0.4,0c-0.3,0-0.5-0.1-0.5-0.4c0-0.3,0.2-0.5,0.5-0.5c0.4-0.1,0.8-0.1,1.2-0.2
		c1-0.3,1.4-0.7,1.4-1.8C150.5,37,150.5,34.7,150.5,32.4L150.5,32.4z"/>
</g>
</svg>
