<?xml version="1.0" encoding="utf-8"?>
<!-- Generator: Adobe Illustrator 25.4.8, SVG Export Plug-In . SVG Version: 6.00 Build 0)  -->
<svg version="1.1" id="圖層_1" xmlns="http://www.w3.org/2000/svg" xmlns:xlink="http://www.w3.org/1999/xlink" x="0px" y="0px"
	 viewBox="0 0 268.1 100" style="enable-background:new 0 0 268.1 100;" xml:space="preserve">
<style type="text/css">
	.st0{fill:#FFFFFF;}
</style>
<g>
	<g>
		<path class="st0" d="M36,86c-4.8,0-9.3-1.8-12.9-5c-4.8-0.2-9.2-2.2-12.6-5.6C7.2,72,5.2,67.6,4.9,62.8C1.7,59.2,0,54.7,0,49.9
			c0-4.8,1.7-9.3,4.9-12.9c0.3-4.8,2.2-9.2,5.6-12.6c3.2-3.3,10.3-5.1,12.5-5.5c7.1-6.4,18.7-6.5,25.9-0.1c4.7,0.3,9.2,2.3,12.6,5.6
			c3.4,3.4,5.3,7.8,5.6,12.6c3.2,3.5,4.9,8.1,4.9,12.9c0,4.8-1.7,9.3-4.9,12.9c-0.3,4.8-2.2,9.2-5.6,12.6c-3.4,3.4-7.8,5.4-12.6,5.6
			C45.3,84.3,40.8,86,36,86 M36,17.4c-4,0-7.9,1.6-10.9,4.4l-0.4,0.4l-0.5,0.1c-2.3,0.5-8.7,2.2-11.1,4.6c-2.9,2.9-4.5,6.7-4.6,10.8
			l0,0.7L8.1,39C5.2,42,3.6,45.8,3.6,49.9c0,4.1,1.6,7.9,4.4,10.9l0.5,0.5l0,0.7c0.1,4.1,1.7,7.9,4.6,10.8c2.8,2.9,6.7,4.5,10.8,4.6
			l0.7,0l0.5,0.5c5.9,5.7,15.8,5.7,21.7,0l0.5-0.5l0.7,0c4.1-0.1,7.9-1.7,10.8-4.6c2.9-2.9,4.5-6.8,4.6-10.8v-0.7l0.5-0.5
			c2.8-3,4.4-6.9,4.4-10.9c0-4.1-1.5-7.9-4.4-10.9l-0.5-0.5v-0.7c-0.1-4.1-1.7-7.9-4.6-10.8c-2.9-2.9-6.7-4.5-10.8-4.6l-0.7,0
			l-0.5-0.5C44,19,40.1,17.4,36,17.4"/>
		<path class="st0" d="M60.1,26C54.9,26,49.6,27,44.4,27C33,27.5,26,25.1,10.8,27.3c0,0-3.3,0.9-3.5,3.2c0,0-2.8,1.9,1.9,1.4
			c7.9-0.9,0.9,22.3,5.7,20.6c3.6-1.3,1.1-10.3,2.4-12.5c1.3-1.8,4.3-1.2,6.5-1.3c6.2-0.5,8.9-0.3,14.1-0.3c9.7,0,15.4,1.2,18.1-1.6
			c2.1-3.4-7.9-1.2-20-1.2c-2.1,0-14.9-0.3-16.8-1c-2.2-0.9-2.9-3.4-0.3-4.3c4.4-1.3,15.8,0,20.6,0c6.2,0,12.8-0.4,19.6-0.8
			c1.8-0.1,2.4,1,3-2.7C62.3,25.5,61.4,26,60.1,26"/>
		<path class="st0" d="M51.5,50.4c-6.4,0-20.8-0.1-20.9-2.1c0-3.2,11.7-1.7,15.2-1.4c24.3,2,23.4-1.5,23.4-1.5
			c-1.1-3.3-11.1-1.3-16.1-1.5c-4.9-0.2-11.3-0.5-16.2-0.5c-3.6,0-14.6-0.5-14.6,4.6c-0.2,9.1,39.5,1.3,39.4,7.7
			c-0.1,3.3-22.2,2.7-28.8,2.2C7.8,56,2,55.3,2.4,57.7c0,2.9,36.5,2.9,47.5,2.9c8.2,0,19.7-0.5,19.7-5.5
			C69.5,49.8,56.3,50.4,51.5,50.4"/>
		<path class="st0" d="M37.5,65c-7.7-0.6-10.2-0.5-16,0.7c-3,0.6-12.7-3.2-13.9-1.5c-0.7,1,0.1,2.6,0.6,2.7c3.6,0.8,4.9,1.2,7.1,1.8
			c3.5,1.2,2.2,3.2,2.2,6.2c0,2.3-1.1,5.1,1.7,5.4c3.8,0.5,1.1-8.6,2.8-10.3c3.1-3.4,22.2-2.5,28.2-0.9c6.6,1.8,0.5,10.1,4.9,10.2
			c2.2,0.1,2.3-2,2.4-4.9C57.5,62.6,49.5,65.8,37.5,65"/>
	</g>
	<g>
		<path class="st0" d="M92.1,35.8c0.2,0,0.7,0.2,1.6,0.5h0.1c3.6-1.5,5.7-2.3,6.3-2.3c1.1,0,2.3,0.2,3.4,0.5c1,0.4,1.5,0.8,1.5,1.2
			c-0.1,0.3-0.2,0.8-0.4,1.5c-0.4,1.5-0.7,9.9-0.9,25.2c0,3.1-0.4,4.7-1,4.7c-0.2,0-0.8-0.3-1.7-0.8c-1.5-0.9-3.1-2.3-4.9-4.3
			c0.1-0.2,0.4-0.2,0.7-0.2c1.7,0.5,2.7,0.7,2.9,0.7c0.2,0,0.3-0.7,0.3-2c0-0.9,0.1-2.2,0.1-4c-5.2,5.2-7.9,8-8,8.5
			c-0.2,0.3-0.4,0.6-0.6,0.9c-0.4,0.7-0.8,1-1.3,1C90,66.9,89,66.2,87.5,65c-1-0.8-1.5-1.3-1.5-1.5c0-0.5,0.2-0.9,0.5-1.2
			c0.7-0.2,2-1,3.7-2.3c0.4-0.3,0.8-0.5,1.3-0.8c-0.1-0.4-0.1-0.8-0.1-1.3c0-8.9-0.1-15.8-0.2-20.7C91.3,36.3,91.6,35.8,92.1,35.8
			 M94.7,57.1c1.9-1.3,3.8-2.4,5.5-3.3c0,0,0.1-0.1,0.1-0.1V40.4c0-2.2-0.5-3.2-1.4-3.2c-1.1,0.1-2.3,0.7-3.8,1.8
			c0,0.2,0,0.5-0.1,0.8c-0.1,1.9-0.2,3.8-0.3,5.7c0.9-0.4,2.2-0.9,3.9-1.5c0.5,0,0.8,1,0.8,2.9c0,0.4-0.5,0.9-1.5,1.3
			c-0.8,0.6-1.5,1-2.1,1.2c-0.4,0.1-0.8,0.3-1.3,0.6V54c0,0.5,0,1.2,0.1,2.1C94.7,56.5,94.7,56.8,94.7,57.1 M126.2,21.8
			c0.3,0,1,0.3,2.1,0.9c0.7,0.7,1.1,1.2,1.3,1.5c0,0.2-0.2,0.4-0.5,0.6c-1.9,1.3-4.1,3.1-6.6,5.3c2-0.3,4.2-0.6,6.5-1
			c0.4,0,0.7,0.7,0.7,2.2c0,0.4-0.4,0.7-1.2,1c-2.6,0.6-5,1-7.1,1.3c-0.1,0.3-0.1,0.8-0.2,1.3v0.7c1.9-0.3,4.1-0.7,6.6-1.2
			c0.5,0,0.7,0.7,0.7,2.2c0,0.4-0.4,0.7-1.3,1c-2.3,0.6-4.4,1.1-6.2,1.3c0,0.8-0.1,1.5-0.1,1.9c0.5-0.1,1-0.2,1.6-0.2
			c2.1-0.1,3.9-0.4,5.4-0.9c0.9-0.3,1.7-0.5,2.3-0.5c0.6,0,1.2,1.2,1.9,3.7c0,0.3-0.3,0.5-0.9,0.5h-2.7c-0.9,0-2.4,0.1-4.4,0.2
			c0,1.4,0.2,3.1,0.5,5.3c2-0.4,4.1-0.8,6.3-1.2c0.5,0,0.7,0.8,0.7,2.4c0,0.4-0.4,0.8-1.2,1c-1.8,0.4-3.6,0.8-5.2,1
			c0.1,0.9,0.3,1.7,0.5,2.6c0.5,2.5,1,4.6,1.5,6.5c1.3-2.2,2.4-4.3,3.2-6.5c0.2-0.6,0.7-0.9,1.4-0.9c0.3,0,1.1,0.3,2.3,1
			c0.9,0.7,1.4,1.1,1.4,1.2c0,0.3-0.2,0.7-0.7,1.2c-2.5,3.1-4.6,5.9-6.2,8.3c0.2,0.4,0.3,0.8,0.4,1.1c0.8,1.7,1.7,3.1,2.7,4.1
			c1,1,1.9,1.6,2.8,1.6c1-0.1,1.8-0.8,2.3-2.1c0.4-1.4,0.8-3.7,1-6.8c0.1-0.6,0.3-0.9,0.5-0.9c0.2,0,0.4,0.3,0.5,1
			c0.9,3,1.4,5.3,1.3,6.7c0,2.5,0.2,4.8,0.6,6.9c0,0.4-0.3,0.6-1,0.7c-1.5-0.1-3-0.5-4.4-1.2c-1.7-0.9-3.2-1.9-4.5-3.2
			c-1.5-1.4-2.9-3.2-4-5.3c0,0.1-0.1,0.2-0.1,0.3c-0.5,0.6-0.8,1.3-0.9,2.1c-0.1,0.4-0.6,1-1.6,1.6c-1.5,1-3.2,1.5-5.2,1.5
			c-0.9,0-1.4-0.2-1.4-0.5c2.7-2.1,5.1-4.8,7.2-8.2c0.2-0.2,0.3-0.3,0.4-0.5c-0.1-0.2-0.2-0.5-0.4-0.8c-0.9-2.2-1.9-5.8-3.3-11
			c-1.6,0.3-3,0.5-4.3,0.6c-0.8,0.1-1.6,0.2-2.5,0.3v0.2c1.3,0.1,2.9,0.4,4.7,0.9c0.4,0.3,0.5,0.8,0.5,1.3c-0.1,1.3-0.4,1.9-0.8,1.9
			c-0.2,0-0.6-0.3-1.2-0.7c-0.8-0.5-1.9-1.1-3.3-1.8c0,1.9-0.1,3.2-0.1,3.9c1.7-0.2,3.5-0.5,5.6-0.9c0.3,0,0.5,0.7,0.5,2.1
			c0,0.3-0.3,0.6-1,0.8c-2.5,0.5-4.6,0.9-6.3,1.1c-0.3,0.4-0.7,0.9-1.2,1.6c0,0.2,0.2,0.2,0.5,0.2c0.6-0.2,1.2-0.2,1.6-0.2
			c0.8,0,2.1,0.1,3.8,0.3c1.2,0.4,1.8,0.8,1.8,1.3c0,0.2-0.2,0.4-0.6,0.7c-0.6,0.6-1.2,1.7-1.7,3c-0.6,1.7-1.1,3-1.6,3.9
			c-0.8,1-1.4,1.9-1.8,2.6c-0.1,0.5-0.4,0.8-0.9,0.9c-0.3,0-0.7-0.1-1.2-0.4c-1.1-0.4-2.2-1.3-3.5-2.6c-0.9-0.7-1.8-1.5-2.5-2.4
			c0-0.2,0.2-0.2,0.5-0.2c2.6,0.6,4.2,1,4.8,1c0.6,0,1.2-0.5,1.8-1.5c0.9-1.5,1.4-2.5,1.4-3.1c0-0.8-0.6-1.2-1.7-1.2
			c-1.8,0-3.5,0.6-5.1,1.6c-0.4,0-0.7-0.2-0.7-0.7c0-0.1,0.1-0.2,0.2-0.4c0.9-1.2,1.6-2.3,2.1-3.2c0.2-0.3,0.3-0.5,0.4-0.7
			c-1,0.2-2.1,0.4-3.2,0.7c-0.4,0-0.7-0.4-1-1.2c-0.2-0.5-0.3-1-0.3-1.5c0-0.4,0.2-0.5,0.7-0.5c0.8,0,2.6-0.2,5.4-0.6
			c0-0.9-0.1-2.2-0.1-3.9c-0.9,0.6-1.8,1.4-2.9,2.3c-0.6,0.6-1.7,1.2-3.3,1.6c-0.3,0-0.5-0.2-0.5-0.5c1.2-1.1,2.5-2.3,3.8-3.8
			c0.3-0.4,0.6-0.7,0.9-0.9c-1.2,0.2-2.5,0.4-3.8,0.7c-0.3,0-0.6-0.3-0.9-1c-0.2-0.6-0.2-1.1-0.2-1.6c0-0.3,0.2-0.5,0.7-0.5
			c1.1-0.1,3.1-0.4,6.1-0.9v-1.8c-0.9,0.3-2.2,0.5-4.1,0.7c-0.5,0-0.8-0.2-0.8-0.5c1.5-0.6,3.2-1.5,5-2.5c1.7-0.9,2.5-1.4,2.6-1.6
			c0.1-0.4,0.5-0.5,1.3-0.5c0.3,0,0.9,0.3,1.8,0.9c0.6,0.6,0.9,1.1,1.1,1.3c0,0-0.2,0.1-0.5,0.2c-0.9,0.3-1.9,0.6-2.9,0.9
			c0,0.1,0.1,0.1,0.1,0.2c0,0.4-0.1,1.1-0.1,1.9v0.2c1.8-0.3,3.8-0.7,6-1.1c-0.1-0.4-0.2-0.9-0.4-1.3c-0.4-1.5-0.9-2.9-1.4-4
			c0-0.1,0-0.2,0.1-0.2c-0.2,0-0.3,0.1-0.5,0.1c-3.9,0.5-7.3,1.4-10.1,2.6c-0.3,0-0.7-0.4-1.2-1.1c-0.6-1.1-1-1.8-1-2
			c0-0.4,0.3-0.6,1-0.7c1.9-0.1,4.4-0.5,7.4-1.2c0.6-0.1,1.3-0.2,2-0.3v-1.9c-1.6,0.3-3.4,0.7-5.4,1.2c-0.4,0-0.7-0.4-1.1-1.3
			c-0.2-0.6-0.3-1.3-0.3-1.8c0-0.4,0.2-0.5,0.7-0.5c0.9-0.1,2.9-0.4,6-0.9v-2.1c-2.2,0.2-4.7,0.7-7.5,1.3c-0.4,0-0.8-0.4-1.1-1.2
			c-0.2-0.6-0.3-1.2-0.3-1.7c0-0.4,0.2-0.5,0.7-0.5c1.3-0.1,4.4-0.5,9.4-1.2c1.4-1.4,2.8-2.9,4.3-4.7c1.9-2.2,2.9-3.4,3-3.8
			C125.1,22,125.5,21.8,126.2,21.8 M117.9,24.3c0.3,0,0.5,0.1,0.5,0.3c0,0.4-0.2,0.7-0.6,1c-1.9,2.3-3.1,3.9-3.8,4.9
			c-0.2,0.4-0.5,0.7-0.7,0.7c-0.5,0-1.1-0.3-1.9-1c-0.9-1.1-1.3-1.9-1.3-2.3c0-0.5,0.4-0.8,1.2-1C113.7,25.8,115.9,25,117.9,24.3
			 M132.8,43.1c0.4,0.2,0.8,0.8,1.2,1.6c0.5,1,1.2,1.8,2.1,2.6c0.9,1.1,1.3,2.2,1.3,3.3c0,0.5-0.3,0.7-0.9,0.7
			c-1.3-0.6-2.4-1.1-3.4-1.3c-1.1-0.2-1.7-1.4-1.7-3.5c0-1.1,0.2-2,0.5-2.7C132.1,43.4,132.5,43.1,132.8,43.1"/>
		<path class="st0" d="M186.3,40.2c1.7,0,4,0.4,7.1,1.1c2.4,1.1,3.7,2.1,3.7,3.2c0,0.6-1.7,1.9-5.2,3.8c-7.2,3.9-14.3,8.3-21.5,13.3
			c-0.2,0.1-0.3,0.2-0.5,0.3c3.1,0.5,6.4,1.4,9.9,2.8c4.3,2.1,9.9,3.5,16.6,4.2c5.8,0.6,9.6,1.8,11.4,3.6c0.4,0.2,0.7,0.4,0.7,0.7
			c-4.1,2.5-9.7,3.7-16.7,3.7c-1.5-0.2-2.7-0.8-3.5-1.9c-1.4-2.2-3.6-4-6.6-5.4c-5.6-2.8-11.2-4.2-16.7-4.2c-3,0-5.4,0.5-7.2,1.5
			c-1.1,0.6-1.8,0.9-2.2,0.9c-1,0-2-0.7-2.9-2.2c-0.7-1.2-1-2-1-2.4c0-0.4,0.4-0.7,1.3-0.7c2.3,0,4.7-0.2,7.2-0.7
			c0.1-0.1,0.2-0.2,0.4-0.3c15.2-7.3,22.9-12.6,23.1-15.8c0-1.1-1-1.7-2.9-1.7c-3.2,0-7.8,1.7-14,5.1c-2.2,1.5-3.6,2.3-4.3,2.3
			c-0.5,0-1.2-0.7-2.1-2.1c-0.9-1.4-1.3-2.2-1.3-2.5c0.1-0.5,0.7-0.8,1.8-1c3.7-0.8,9.3-2.4,16.9-4.7
			C180.2,40.5,183.2,40.2,186.3,40.2 M174.6,25.6c0.7,0.2,1.3,1,1.9,2.2c0.9,1.2,2,2.4,3.3,3.5c1.4,1.4,2.2,2.8,2.3,4.3
			c-0.1,1.1-0.8,1.6-1.9,1.6c-2.1-0.6-4-1-5.7-1.3c-1.9-0.2-2.8-1.4-2.8-3.5c0-2.2,0.4-4,1.2-5.4C173.4,26.1,174,25.7,174.6,25.6"/>
		<path class="st0" d="M246.1,30.7c0.2,0,0.6,0.1,1,0.3c0.4-0.2,1-0.4,1.7-0.5c3.2-0.7,5.8-1,7.5-1c0.9,0,2,0.3,3.6,0.9
			c1,0.5,1.5,0.9,1.5,1.3c0,0.2-0.1,0.5-0.4,1c-0.3,0.7-0.9,3.9-1.7,9.4c0,0.2-0.6,0.2-1.7,0.2c-1.2,0-1.8-0.2-1.8-0.5
			c0.2-2.8,0.2-5.3,0.2-7.5c0-1.6-0.6-2.4-1.6-2.4c-1.5,0-3.5,0.6-5.8,1.7c-0.1,0.2-0.2,0.5-0.2,0.8c0.1,0,0.1-0.1,0.2-0.1
			c1.3,0,3,0.2,4.9,0.5c0.7,0.4,1,0.9,1,1.5c-0.3,2.2-0.8,3.3-1.5,3.3c-0.2,0-0.5-0.3-1-0.7c-0.7-0.8-1.8-1.6-3.4-2.6
			c-0.2-0.1-0.3-0.2-0.4-0.2c0,0.3-0.1,0.6-0.1,0.9c0,0.5,0.1,1.2,0.2,2c0,0.7,0.1,1.3,0.1,1.7c0,0.4-0.2,0.8-0.7,1.2
			c-0.4,0.4-0.8,0.6-1.2,0.7c0.7,0.9,1.2,1.6,1.3,2.2c0.4-0.1,0.8-0.1,1.3-0.2c2.4-0.1,4.4-0.4,6.1-0.8c1.1-0.3,1.9-0.4,2.5-0.4
			c0.5,0,1.1,1.1,1.7,3.4c-0.1,0.4-0.4,0.7-1,0.7l-2.5-0.2c-0.8,0-2.2,0.1-4.1,0.2c-0.2,1-0.4,1.9-0.5,2.8c1.2-0.1,2.3-0.1,3.2-0.1
			c0.8,0,2,0.4,3.6,1.3c1.8,0.9,2.7,1.6,2.7,2.1c0,0-0.2,0.1-0.5,0.3c-0.4,0.3-1.1,1-1.9,2.1c-0.1,0.2-0.2,0.4-0.3,0.5
			c0,0.3,0.1,0.7,0.1,1.1c0,0.3-0.3,0.5-1,0.8c-5,1-9.1,1.6-12.5,1.8c-2.1,0.2-4.6,0.5-7.4,1c0.3,0,0.5,0,0.8,0.1
			c0.5,0.2,0.8,0.5,0.8,0.9c0,0.3,0,0.9-0.1,1.7c1.2-0.2,3-0.7,5.5-1.3c0.3,0,0.5,0.7,0.5,2c0,0.2-0.3,0.5-1,0.7
			c-1.2,0.7-2.3,1.2-3.1,1.4c-0.6,0.1-1.2,0.4-2,0.8v2.9c0,0.2,0.1,0.2,0.2,0.2c0.5,0,2.6-0.5,6.3-1.6v0.2c-1.7,2.3-3.6,3.9-5.5,4.9
			c-1.2,0.4-2.2,0.9-2.9,1.3c-0.4,0.4-0.8,0.5-1.2,0.5c-0.2,0-0.5-0.2-0.7-0.7c-0.6-1.4-1-2.2-1-2.4s0.2-0.5,0.7-0.9
			c0.3-0.3,0.4-0.8,0.4-1.4v-6.3c0-0.6-0.1-1.3-0.2-2.1c-0.2-0.3-0.2-0.6-0.2-0.7c-0.2,0-0.5,0.1-0.7,0.1c-0.3,0-0.6-0.4-1-1.2
			c-0.2-0.5-0.3-1-0.3-1.5c0-0.3,0.3-0.5,0.8-0.5c1,0,2.8-0.3,5.6-0.7v-0.1c0-0.2,0.1-0.5,0.2-0.9c0-0.4,0.1-0.8,0.1-1.2
			c0-0.3-0.1-0.6-0.1-0.9c-1.4,0.6-2.3,0.9-2.8,0.9c-0.9,0-1.5-0.7-1.9-2.2c0-0.5,0.6-1,1.7-1.3c0.8-0.2,1.6-0.3,2.6-0.5
			c-0.2-1.1-0.3-2-0.5-2.7c-1.9,0.4-3.6,1-5.1,1.6h-0.1c-0.2,1-0.4,2.3-0.5,3.8c-0.6,4.3-2,8.5-4.1,12.4c0.1,0.4,0.2,0.7,0.2,1
			c-1.8,2.4-3.5,4-5.1,4.6c-1.3,0.4-2.8,0.6-4.3,0.6c-0.4,0-0.7-0.2-0.7-0.7c0-0.4,0.3-0.9,0.9-1.5c4.2-3.1,6.8-6.6,8-10.5
			c0.9-2.8,1.6-6.9,2-12.1c0.2-1.5,0.8-2.2,1.8-2.2c0.5,0.2,1,0.4,1.3,0.7c2-0.1,4.6-0.4,7.7-1c1-0.1,2-0.2,3.1-0.4
			c-0.4-0.4-0.7-0.8-0.7-1.1c0-1.5,0.2-2.8,0.7-3.8c0.4-0.7,0.7-1,0.9-1c0.3,0,0.6,0.3,1,1v-8.3C245.3,31.1,245.6,30.7,246.1,30.7
			 M242.3,25.1c0.6,0.1,0.9,0.7,0.9,1.9c0,0.6-0.5,1.1-1.4,1.3c-1.2,0.1-2.5,0.3-4,0.6c-1.2,0.2-2.4,0.4-3.4,0.5
			c-1.5,0.2-3,0.4-4.6,0.9c-0.7,0-1.1-0.8-1.2-2.4c0-0.9,0.5-1.4,1.4-1.8C237.9,25.4,242,25.1,242.3,25.1 M230.1,32.9
			c0.2,0,0.5,0,0.8,0.1c0.4-0.2,0.9-0.4,1.6-0.5c2.9-0.9,5.2-1.3,6.9-1.3c0.6,0,1.5,0.2,2.7,0.7c0.8,0.4,1.2,0.8,1.2,1.1
			c0,0.2-0.1,0.5-0.2,1c-0.2,0.8-0.6,4-1.2,9.7c0,0.2-0.4,0.2-1.3,0.2c-0.9,0-1.4-0.2-1.4-0.5v-7.8c0-1.5-0.5-2.2-1.3-2.2
			c-1.5,0-3.3,0.6-5.5,1.8V36c1.1,0,2.5,0.1,4.1,0.4c0.6,0.4,0.9,0.9,0.9,1.5c-0.2,2.3-0.7,3.4-1.4,3.4c-0.2-0.1-0.5-0.3-0.9-0.8
			c-0.6-0.8-1.5-1.6-2.8-2.4c0,1.6,0,2.7-0.1,3.5c0,0.9-0.1,1.5-0.1,1.9c0,0.4-0.5,0.7-1.5,0.7c-0.6,0-1-0.6-1.2-1.7
			c-0.1-2.2-0.2-4.2-0.2-5.9c0-0.9-0.1-1.9-0.1-3C229.2,33.1,229.5,32.9,230.1,32.9 M247.2,50.5l0.1-2.8c-0.9,0.1-1.7,0.2-2.6,0.3
			c-0.6,0.1-1.2,0.2-1.8,0.2c0,0,0.1,0.1,0.1,0.2c0,0.1-0.1,0.3-0.2,0.8c-0.1,0.4-0.2,0.7-0.2,0.9v1c1.2-0.2,2.4-0.3,3.7-0.5
			C246.6,50.6,246.9,50.6,247.2,50.5 M242.7,54c0,1.2,0.1,2.3,0.2,3.5c1.2-0.1,2.5-0.3,3.8-0.5l0.2-3.7
			C245.5,53.5,244,53.8,242.7,54 M259.3,23.3c0.6,0.1,1,0.8,1,2c0,0.6-0.5,1-1.5,1.2c-1.1,0.1-2.4,0.3-3.9,0.7
			c-1.2,0.2-2.4,0.4-3.5,0.5c-1.4,0.1-2.9,0.4-4.5,0.8c-0.7,0-1.2-0.8-1.3-2.5c0-0.6,0.4-1.1,1.3-1.4
			C254.8,23.8,259,23.3,259.3,23.3 M259,60.1c0.4,0,0.8,0.4,1.4,1.3c1.1,1.3,1.6,2.1,1.6,2.4c0,0.1-0.4,0.4-1.2,0.7
			c-3.5,1.6-6.4,2.7-8.7,3.2c-0.8,0.2-1.5,0.4-2.1,0.5v0.4c0,1.6,0.2,2.7,0.7,3.2c0.7,0.4,2.2,0.5,4.4,0.5c3.2,0,5.6-0.6,6.9-1.9
			c1-0.9,1.5-2.6,1.5-5v-5.8c0-0.5,0.1-0.7,0.2-0.7c0.4,0,0.9,0.6,1.6,1.9c0.8,2,1.3,4.5,1.3,7.7c0,1.5,0.2,2.7,0.5,3.4
			c0.2,1,0.3,1.8,0.3,2.4c0,0.7-0.4,1.1-1.3,1.3c-1.8,0.4-5.3,0.5-10.5,0.5c-3.2,0-5.6-0.5-7-1.5c-1.5-1.5-2.3-4.1-2.3-7.9v-4.6
			c0-0.5,0.2-0.9,0.7-1.3c0.6-0.3,1.2-0.5,1.7-0.5c1.5,0,2.2,0.3,2.2,0.8c0,0.1-0.1,0.3-0.2,0.5c-0.1,0.4-0.2,0.9-0.3,1.6
			c-0.2,1.3-0.3,2.3-0.3,3.2c1.6-1.3,3.4-2.4,5.2-3.5c1.5-0.9,2.4-1.6,2.7-2.2C258.4,60.3,258.7,60.1,259,60.1 M250.9,52.9
			c-0.2,1.2-0.3,2.4-0.3,3.6c1-0.1,2-0.3,3-0.4c0.4-1.3,0.7-1.9,0.7-2c0-0.9-0.4-1.3-1.2-1.3C252.3,52.8,251.6,52.9,250.9,52.9"/>
	</g>
</g>
</svg>
