<?xml version="1.0" encoding="utf-8"?>
<!-- Generator: Adobe Illustrator 25.4.8, SVG Export Plug-In . SVG Version: 6.00 Build 0)  -->
<svg version="1.1" id="圖層_1" xmlns="http://www.w3.org/2000/svg" xmlns:xlink="http://www.w3.org/1999/xlink" x="0px" y="0px"
	 viewBox="0 0 149.6 100" style="enable-background:new 0 0 149.6 100;" xml:space="preserve">
<style type="text/css">
	.st0{fill:#FFFFFF;}
</style>
<g>
	<g>
		<g>
			<g>
				<path class="st0" d="M23.2,90.4c-0.2,0.2-0.5,0.4-1,0.4c-0.2,5.6-0.5,7.6-1.6,8.4c-0.7,0.6-1.6,0.8-2.8,0.8
					c0-0.7-0.1-1.2-0.4-1.6c-0.3-0.4-0.8-0.6-1.5-0.8v-0.2c-0.7,0.1-1.5,0.1-2.6,0.1h-2.4c-2.3,0-2.7-0.5-2.7-2v-3.3
					c-0.5,0.2-0.9,0.4-1.4,0.6v0.7c0,0.2-1.2,0.8-2.2,0.8H4.2v-2.2H2.5v2.7c0,0.3-0.9,0.9-2.1,0.9H0V77.5l2.6,1.1H4l1.3-1.4l1.9,1.5
					l-0.1-0.3h3.2L10,75.8l3.3,0.6c-0.1,0.3-0.3,0.5-0.8,0.6l0.2,1.5h0.1l0.9-1.3c0,0,1.1,0.9,1.7,1.6c-0.1,0.3-0.3,0.4-0.6,0.4
					h-2.1l0.2,1.3c-0.3,0.5-1.3,0.7-2.4,0.7l-0.2-2H7.8v0c-0.1,0.2-0.5,0.4-1,0.5v12.3c1.1-1.1,2.1-2.5,2.8-3.8c-0.2,0-0.3,0-0.4,0
					H8.8v-7.7l2.9,1.2h6.5l0.9-1c-0.5,0.3-1.4,0.4-2.4,0.2l0.3-1.8h-1.3l-0.2-0.7h1.6l0.4-2.7l3.2,0.7c-0.1,0.3-0.3,0.6-1,0.6
					l-0.2,1.4h0.9l1-1.3c0,0,1.1,0.9,1.7,1.6c-0.1,0.3-0.3,0.4-0.6,0.4h-3.1l-0.3,1.4l0.2-0.2l2.6,1.9c-0.1,0.2-0.4,0.4-0.8,0.4v4.8
					c0,0.2-1.4,0.7-2.3,0.7h-0.5v-0.7h-6.9c-0.1,0.1-0.3,0.2-0.5,0.3l2.8,0.7c-0.1,0.2-0.3,0.4-1,0.3c-0.3,0.3-0.5,0.5-0.8,0.8h7.2
					l1.4-1.4L23.2,90.4z M4.2,91.5V79.3H2.5v12.2H4.2z M11.5,92.3c0,0.3-0.3,0.5-0.7,0.6V95c1.4-1.2,2.4-3,2.9-4.6h-2.5
					C10.4,91,9.5,91.5,8.6,92L11.5,92.3z M17.1,95.3c0.7,0.3,0.9,0.5,0.9,0.9c0,0.6-0.4,1-1.6,1.1c0.5,0,1.1,0,1.4,0
					c0.3,0,0.5-0.1,0.7-0.2c0.5-0.4,0.7-2.4,0.8-6.8h-4.8l2,0.8c-0.1,0.2-0.3,0.4-0.9,0.3c-0.1,0.2-0.3,0.4-0.4,0.6
					c4.4-0.2,3.7,3.4,1.6,2.7c-0.4-0.7-1.3-1.5-2.1-2c-1,1.1-2.4,2-4,2.6c0.1,0.1,0.3,0.1,0.6,0.1h2.1c0.7,0,1.5,0,1.8,0
					c0.2,0,0.5-0.1,0.7-0.1c0.2,0,0.5-0.1,0.7-0.1H17L17.1,95.3z M11.6,82.4v1.8h6.8v-1.8H11.6z M18.4,86.8v-1.8h-6.8v1.8H18.4z"/>
				<path class="st0" d="M40,90.9c-1.6,1.5-4,3.5-7.3,5.8c-0.1,0.3-0.3,0.7-0.6,0.8l-1.5-3.3c0.7-0.2,1.8-0.6,3-1.1v-7h-2.4
					l-0.2-0.7h2.6v-6.4h-2.5l-0.2-0.7h5.4l1.4-2.1c0,0,1.6,1.4,2.5,2.4c-0.1,0.3-0.3,0.4-0.7,0.4h-3v6.4h0.2l1.2-1.9
					c0,0,1.4,1.4,2.1,2.3c-0.1,0.3-0.3,0.4-0.6,0.4h-2.9v5.9c1.1-0.5,2.2-0.9,3.3-1.4L40,90.9z M40.3,91.9c2.5,8.5-5.3,7.1-2.8,3.9
					c1.1-0.6,2.2-1.9,2.5-3.9H40.3z M55.2,90c-0.2,0.2-0.5,0.4-1,0.5c-0.2,5.2-0.6,7.6-1.7,8.5c-0.7,0.6-1.7,0.9-3.1,0.9
					c0-0.8-0.1-1.5-0.5-1.9c-0.4-0.4-1.2-0.8-2.3-1l0-0.3c0.9,0.1,2.5,0.2,3,0.2c0.4,0,0.6-0.1,0.8-0.2c0.5-0.5,0.8-2.7,0.9-6.6
					h-8.2v0.6c0,0.2-0.9,0.9-2.4,0.9h-0.5V76.7l3.3,1.2h6.6l1.5-2.1c0,0,1.7,1.4,2.8,2.4c-0.1,0.3-0.3,0.4-0.7,0.4h-5v3h1.2l1.4-1.9
					c0,0,1.6,1.3,2.5,2.2c-0.1,0.3-0.3,0.4-0.7,0.4h-4.5v3H50l1.4-1.9c0,0,1.6,1.3,2.5,2.2c-0.1,0.3-0.3,0.4-0.7,0.4h-4.5v3.1h2.4
					l1.5-1.4L55.2,90z M42.4,91.9c4.2,3.1,1.3,6.8-0.3,4.7c0.4-1.5,0.3-3.3,0-4.6L42.4,91.9z M43.2,78.7v3h2.6v-3H43.2z M45.8,82.4
					h-2.6v3h2.6V82.4z M43.2,89.3h2.6v-3.1h-2.6V89.3z M44.9,91.6c5,2,2.8,5.8,0.9,4.1c0-1.3-0.6-2.9-1.2-4L44.9,91.6z M47.5,91.2
					c5.2,0.9,3.6,4.7,1.7,3.4c-0.3-1.1-1.2-2.5-1.9-3.3L47.5,91.2z"/>
				<path class="st0" d="M67.4,79H63l-0.2-0.7h4.5l-0.3-2.4l3.7,0.2c0,0.3-0.2,0.6-0.7,0.7l0.2,1.4h1.1l1.3-1.8c0,0,1.6,1.3,2.5,2.2
					c-0.1,0.3-0.3,0.4-0.7,0.4h-4l0.2,1.2C70,80.8,69,81,67.6,81L67.4,79z M83.3,80l2.8,2.2c-0.2,0.2-0.6,0.4-1.1,0.5v13.9
					c0,1.9-0.4,3-3.3,3.3c0-0.9-0.1-1.5-0.4-2c-0.2-0.4-0.6-0.7-1.4-0.9v-0.4c0,0,1.4,0.1,1.8,0.1c0.3,0,0.4-0.2,0.4-0.5v-9.9h-4
					v0.1c0,0.2-1.3,0.8-2.4,0.8h-0.1v0.5h2.7l1.2-1.4c0,0,1.3,1,2.1,1.7c-0.1,0.3-0.3,0.4-0.7,0.4h-5.4v1.1h2.3l1-1.1l2.2,1.6
					c-0.1,0.2-0.4,0.3-0.7,0.4v3.3c0,0.2-1.2,0.6-1.9,0.6h-0.4v-0.6h-2.5v0.5c5.3,0.5,4.2,4.2,2.2,3.2c-0.4-0.9-1.3-1.9-2.2-2.6v3.3
					c0,0.2-0.9,0.7-1.7,0.7h-0.4v-3.4c-1.5,1.3-3.4,2.3-5.5,3l-0.2-0.4c1.9-1.1,3.5-2.7,4.6-4.3h-1.3v0.3c0,0.2-1,0.7-1.9,0.7h-0.3
					v-6.2l2.4,1h2.4v-1.1h-5.5l-0.2-0.7h5.7v-1.3c-0.4,0.2-1.4,0.6-2.1,0.6H71l0-0.6h-3.9v12.4c0,0.3-1.1,1-2.3,1h-0.5V80.3l2.9,1.2
					h3.6l1.2-1.3l2.6,1.9c-0.1,0.2-0.4,0.4-0.8,0.4V86l1.6,0.2v-5.8l2.8,1.1H82L83.3,80z M67.1,82.2v1.5h4v-1.5H67.1z M71.1,85.7
					v-1.3h-4v1.3H71.1z M71.1,93.2h2.5v-2.8h-2.5V93.2z M71.7,90.5c2.7,1.2,1.2,3.2,0.1,2.2c0.1-0.7-0.1-1.5-0.5-2L71.7,90.5z
					 M84.4,76.4c0,0,1.5,1.3,2.4,2.2c-0.1,0.3-0.3,0.4-0.7,0.4h-4.5l-0.3,1.5c-0.6,0.4-1.7,0.6-2.9,0.3l0.3-1.8h-3.2l-0.2-0.7h3.5
					l0.4-2.5l3.7,0.6c-0.1,0.3-0.3,0.6-1,0.6l-0.2,1.2H83L84.4,76.4z M75.7,90.3v2.8h2.5v-1.8c-0.1,0.1-0.3,0.2-0.5,0.2
					c-0.3,0.5-0.8,1.2-1.3,1.6l-0.5-0.2c0.2-0.6,0.5-1.7,0.6-2.4l1.7,0.4v-0.6H75.7z M78.2,82.2v1.5h4v-1.5H78.2z M82.2,85.7v-1.2
					h-4v1.2H82.2z"/>
				<path class="st0" d="M101,79.3c0,0,1.4,1.1,2.2,1.9c-0.1,0.3-0.3,0.4-0.7,0.4h-8.9l-0.2-0.7h6.3L101,79.3z M99.2,84.2l1.1-1.5
					c0,0,1.3,1,2,1.8c-0.1,0.3-0.3,0.4-0.7,0.4h-7.1l-0.2-0.7H99.2z M94.5,88.2l-0.2-0.7h4.8l1.1-1.5c0,0,1.3,1,2,1.8
					c-0.1,0.3-0.3,0.4-0.7,0.4H94.5z M101.8,97.8c0,0.2-1.3,0.8-2.2,0.8h-0.4v-1.3h-2.1v1.6c0,0.2-1.1,0.8-2.2,0.8h-0.4V89.6
					l2.7,1.1H99l1.2-1.3l2.5,1.9c-0.1,0.2-0.5,0.4-0.9,0.5V97.8z M95.5,76.4c6.6,0.3,4.2,5.3,1.6,3.5c-0.2-1.2-1.1-2.6-1.8-3.4
					L95.5,76.4z M99.2,96.6v-5.1h-2.1v5.1H99.2z M117.5,78.5c-0.2,0.2-0.5,0.4-1.1,0.5v17.6c0,1.9-0.4,3-3.5,3.3
					c-0.1-0.9-0.2-1.5-0.5-1.9c-0.4-0.4-0.9-0.7-2-0.9v-0.4c0,0,2.3,0.2,2.8,0.2c0.4,0,0.5-0.2,0.5-0.5v-9.7h-7.8
					c0,4.4-0.1,9.7-4,13.3l-0.3-0.2c1.8-3.7,1.8-8.5,1.8-13.1v-9.8l2.9,1.1h7.1l1.3-1.5L117.5,78.5z M105.9,78.6V82h2.6v-3.1l3,0.3
					c-0.1,0.3-0.2,0.5-0.8,0.6V82h0.7l1-1.5c0,0,0.6,0.5,1.2,1.2v-3.2H105.9z M105.9,85.9h2.6v-3.1h-2.6V85.9z M111.4,87.2l2.2,1.7
					c-0.2,0.2-0.5,0.4-0.9,0.5v5.3c0,0.2-1.1,0.6-1.7,0.6h-0.3v-1.2h-1.8v1c0,0.2-0.9,0.6-1.8,0.6h-0.3v-8.3l2.2,0.9h1.5L111.4,87.2
					z M110.6,93.3v-4.3h-1.8v4.3H110.6z M112.5,84.3c0,0,0.6,0.5,1.2,1.2v-2.6h-0.1h-2.8v3.1h0.6L112.5,84.3z"/>
				<path class="st0" d="M125.3,82c6.8,0.5,4.6,5.6,2,3.8c-0.3-1.3-1.3-2.8-2.2-3.7L125.3,82z M133,79.8c-0.9,3.3-2.5,9.4-2.8,10.8
					c-0.2,0.9-0.4,1.8-0.4,2.5c0.1,1.4,1.1,2.3,1,4.6c-0.1,1.3-0.9,2.2-2.1,2.2c-0.6,0-1.2-0.4-1.4-1.3c0.5-2.7,0.4-5.1-0.2-5.5
					c-0.4-0.3-0.8-0.4-1.3-0.4v-0.5h1.1c0.4,0,0.5,0,0.7-0.5c0.5-1,0.5-1,4.9-11.9L133,79.8z M127.3,76.2c7.1,0.7,4.8,5.9,2,4.1
					c-0.3-1.4-1.4-2.9-2.2-3.9L127.3,76.2z M143.4,82.3h1.4l1.4-1.6l2.6,2.1c-0.2,0.2-0.5,0.4-1.1,0.5v15.6c0,0.2-0.9,0.8-2.3,0.8
					h-0.5v-2.5h-9.4v1.9c0,0.2-0.8,0.7-2.2,0.7h-0.5V81.2l3,1.2h1.4v-3.9h-4.9l-0.2-0.7h13l1.6-2.1c0,0,1.8,1.4,2.8,2.4
					c-0.1,0.3-0.4,0.4-0.7,0.4h-5.4V82.3z M144.9,96.5v-6.3c-0.3,0-0.6,0-0.8,0H143c-1.7,0-1.9-0.6-1.9-2.1v-5.1h-1.5v0.7
					c0,2.9-0.3,5.9-4,7.9l-0.1-0.1v4.9H144.9z M135.5,83.1v8.1c1.6-2,1.7-4.7,1.7-7.4v-0.7H135.5z M141.8,91c0,0,1.4,1.2,2.3,2
					c-0.1,0.3-0.3,0.4-0.7,0.4h-6.9l-0.2-0.7h4.3L141.8,91z M141,82.3v-3.9h-1.5v3.9H141z M143.4,83.1v4.4c0,0.3,0.1,0.4,0.4,0.4
					h0.6h0.6v-4.8H143.4z"/>
			</g>
		</g>
		<g>
			<g>
				<path class="st0" d="M23.2,90.4c-0.2,0.2-0.5,0.4-1,0.4c-0.2,5.6-0.5,7.6-1.6,8.4c-0.7,0.6-1.6,0.8-2.8,0.8
					c0-0.7-0.1-1.2-0.4-1.6c-0.3-0.4-0.8-0.6-1.5-0.8v-0.2c-0.7,0.1-1.5,0.1-2.6,0.1h-2.4c-2.3,0-2.7-0.5-2.7-2v-3.3
					c-0.5,0.2-0.9,0.4-1.4,0.6v0.7c0,0.2-1.2,0.8-2.2,0.8H4.2v-2.2H2.5v2.7c0,0.3-0.9,0.9-2.1,0.9H0V77.5l2.6,1.1H4l1.3-1.4l1.9,1.5
					l-0.1-0.3h3.2L10,75.8l3.3,0.6c-0.1,0.3-0.3,0.5-0.8,0.6l0.2,1.5h0.1l0.9-1.3c0,0,1.1,0.9,1.7,1.6c-0.1,0.3-0.3,0.4-0.6,0.4
					h-2.1l0.2,1.3c-0.3,0.5-1.3,0.7-2.4,0.7l-0.2-2H7.8v0c-0.1,0.2-0.5,0.4-1,0.5v12.3c1.1-1.1,2.1-2.5,2.8-3.8c-0.2,0-0.3,0-0.4,0
					H8.8v-7.7l2.9,1.2h6.5l0.9-1c-0.5,0.3-1.4,0.4-2.4,0.2l0.3-1.8h-1.3l-0.2-0.7h1.6l0.4-2.7l3.2,0.7c-0.1,0.3-0.3,0.6-1,0.6
					l-0.2,1.4h0.9l1-1.3c0,0,1.1,0.9,1.7,1.6c-0.1,0.3-0.3,0.4-0.6,0.4h-3.1l-0.3,1.4l0.2-0.2l2.6,1.9c-0.1,0.2-0.4,0.4-0.8,0.4v4.8
					c0,0.2-1.4,0.7-2.3,0.7h-0.5v-0.7h-6.9c-0.1,0.1-0.3,0.2-0.5,0.3l2.8,0.7c-0.1,0.2-0.3,0.4-1,0.3c-0.3,0.3-0.5,0.5-0.8,0.8h7.2
					l1.4-1.4L23.2,90.4z M4.2,91.5V79.3H2.5v12.2H4.2z M11.5,92.3c0,0.3-0.3,0.5-0.7,0.6V95c1.4-1.2,2.4-3,2.9-4.6h-2.5
					C10.4,91,9.5,91.5,8.6,92L11.5,92.3z M17.1,95.3c0.7,0.3,0.9,0.5,0.9,0.9c0,0.6-0.4,1-1.6,1.1c0.5,0,1.1,0,1.4,0
					c0.3,0,0.5-0.1,0.7-0.2c0.5-0.4,0.7-2.4,0.8-6.8h-4.8l2,0.8c-0.1,0.2-0.3,0.4-0.9,0.3c-0.1,0.2-0.3,0.4-0.4,0.6
					c4.4-0.2,3.7,3.4,1.6,2.7c-0.4-0.7-1.3-1.5-2.1-2c-1,1.1-2.4,2-4,2.6c0.1,0.1,0.3,0.1,0.6,0.1h2.1c0.7,0,1.5,0,1.8,0
					c0.2,0,0.5-0.1,0.7-0.1c0.2,0,0.5-0.1,0.7-0.1H17L17.1,95.3z M11.6,82.4v1.8h6.8v-1.8H11.6z M18.4,86.8v-1.8h-6.8v1.8H18.4z"/>
				<path class="st0" d="M40,90.9c-1.6,1.5-4,3.5-7.3,5.8c-0.1,0.3-0.3,0.7-0.6,0.8l-1.5-3.3c0.7-0.2,1.8-0.6,3-1.1v-7h-2.4
					l-0.2-0.7h2.6v-6.4h-2.5l-0.2-0.7h5.4l1.4-2.1c0,0,1.6,1.4,2.5,2.4c-0.1,0.3-0.3,0.4-0.7,0.4h-3v6.4h0.2l1.2-1.9
					c0,0,1.4,1.4,2.1,2.3c-0.1,0.3-0.3,0.4-0.6,0.4h-2.9v5.9c1.1-0.5,2.2-0.9,3.3-1.4L40,90.9z M40.3,91.9c2.5,8.5-5.3,7.1-2.8,3.9
					c1.1-0.6,2.2-1.9,2.5-3.9H40.3z M55.2,90c-0.2,0.2-0.5,0.4-1,0.5c-0.2,5.2-0.6,7.6-1.7,8.5c-0.7,0.6-1.7,0.9-3.1,0.9
					c0-0.8-0.1-1.5-0.5-1.9c-0.4-0.4-1.2-0.8-2.3-1l0-0.3c0.9,0.1,2.5,0.2,3,0.2c0.4,0,0.6-0.1,0.8-0.2c0.5-0.5,0.8-2.7,0.9-6.6
					h-8.2v0.6c0,0.2-0.9,0.9-2.4,0.9h-0.5V76.7l3.3,1.2h6.6l1.5-2.1c0,0,1.7,1.4,2.8,2.4c-0.1,0.3-0.3,0.4-0.7,0.4h-5v3h1.2l1.4-1.9
					c0,0,1.6,1.3,2.5,2.2c-0.1,0.3-0.3,0.4-0.7,0.4h-4.5v3H50l1.4-1.9c0,0,1.6,1.3,2.5,2.2c-0.1,0.3-0.3,0.4-0.7,0.4h-4.5v3.1h2.4
					l1.5-1.4L55.2,90z M42.4,91.9c4.2,3.1,1.3,6.8-0.3,4.7c0.4-1.5,0.3-3.3,0-4.6L42.4,91.9z M43.2,78.7v3h2.6v-3H43.2z M45.8,82.4
					h-2.6v3h2.6V82.4z M43.2,89.3h2.6v-3.1h-2.6V89.3z M44.9,91.6c5,2,2.8,5.8,0.9,4.1c0-1.3-0.6-2.9-1.2-4L44.9,91.6z M47.5,91.2
					c5.2,0.9,3.6,4.7,1.7,3.4c-0.3-1.1-1.2-2.5-1.9-3.3L47.5,91.2z"/>
				<path class="st0" d="M67.4,79H63l-0.2-0.7h4.5l-0.3-2.4l3.7,0.2c0,0.3-0.2,0.6-0.7,0.7l0.2,1.4h1.1l1.3-1.8c0,0,1.6,1.3,2.5,2.2
					c-0.1,0.3-0.3,0.4-0.7,0.4h-4l0.2,1.2C70,80.8,69,81,67.6,81L67.4,79z M83.3,80l2.8,2.2c-0.2,0.2-0.6,0.4-1.1,0.5v13.9
					c0,1.9-0.4,3-3.3,3.3c0-0.9-0.1-1.5-0.4-2c-0.2-0.4-0.6-0.7-1.4-0.9v-0.4c0,0,1.4,0.1,1.8,0.1c0.3,0,0.4-0.2,0.4-0.5v-9.9h-4
					v0.1c0,0.2-1.3,0.8-2.4,0.8h-0.1v0.5h2.7l1.2-1.4c0,0,1.3,1,2.1,1.7c-0.1,0.3-0.3,0.4-0.7,0.4h-5.4v1.1h2.3l1-1.1l2.2,1.6
					c-0.1,0.2-0.4,0.3-0.7,0.4v3.3c0,0.2-1.2,0.6-1.9,0.6h-0.4v-0.6h-2.5v0.5c5.3,0.5,4.2,4.2,2.2,3.2c-0.4-0.9-1.3-1.9-2.2-2.6v3.3
					c0,0.2-0.9,0.7-1.7,0.7h-0.4v-3.4c-1.5,1.3-3.4,2.3-5.5,3l-0.2-0.4c1.9-1.1,3.5-2.7,4.6-4.3h-1.3v0.3c0,0.2-1,0.7-1.9,0.7h-0.3
					v-6.2l2.4,1h2.4v-1.1h-5.5l-0.2-0.7h5.7v-1.3c-0.4,0.2-1.4,0.6-2.1,0.6H71l0-0.6h-3.9v12.4c0,0.3-1.1,1-2.3,1h-0.5V80.3l2.9,1.2
					h3.6l1.2-1.3l2.6,1.9c-0.1,0.2-0.4,0.4-0.8,0.4V86l1.6,0.2v-5.8l2.8,1.1H82L83.3,80z M67.1,82.2v1.5h4v-1.5H67.1z M71.1,85.7
					v-1.3h-4v1.3H71.1z M71.1,93.2h2.5v-2.8h-2.5V93.2z M71.7,90.5c2.7,1.2,1.2,3.2,0.1,2.2c0.1-0.7-0.1-1.5-0.5-2L71.7,90.5z
					 M84.4,76.4c0,0,1.5,1.3,2.4,2.2c-0.1,0.3-0.3,0.4-0.7,0.4h-4.5l-0.3,1.5c-0.6,0.4-1.7,0.6-2.9,0.3l0.3-1.8h-3.2l-0.2-0.7h3.5
					l0.4-2.5l3.7,0.6c-0.1,0.3-0.3,0.6-1,0.6l-0.2,1.2H83L84.4,76.4z M75.7,90.3v2.8h2.5v-1.8c-0.1,0.1-0.3,0.2-0.5,0.2
					c-0.3,0.5-0.8,1.2-1.3,1.6l-0.5-0.2c0.2-0.6,0.5-1.7,0.6-2.4l1.7,0.4v-0.6H75.7z M78.2,82.2v1.5h4v-1.5H78.2z M82.2,85.7v-1.2
					h-4v1.2H82.2z"/>
				<path class="st0" d="M101,79.3c0,0,1.4,1.1,2.2,1.9c-0.1,0.3-0.3,0.4-0.7,0.4h-8.9l-0.2-0.7h6.3L101,79.3z M99.2,84.2l1.1-1.5
					c0,0,1.3,1,2,1.8c-0.1,0.3-0.3,0.4-0.7,0.4h-7.1l-0.2-0.7H99.2z M94.5,88.2l-0.2-0.7h4.8l1.1-1.5c0,0,1.3,1,2,1.8
					c-0.1,0.3-0.3,0.4-0.7,0.4H94.5z M101.8,97.8c0,0.2-1.3,0.8-2.2,0.8h-0.4v-1.3h-2.1v1.6c0,0.2-1.1,0.8-2.2,0.8h-0.4V89.6
					l2.7,1.1H99l1.2-1.3l2.5,1.9c-0.1,0.2-0.5,0.4-0.9,0.5V97.8z M95.5,76.4c6.6,0.3,4.2,5.3,1.6,3.5c-0.2-1.2-1.1-2.6-1.8-3.4
					L95.5,76.4z M99.2,96.6v-5.1h-2.1v5.1H99.2z M117.5,78.5c-0.2,0.2-0.5,0.4-1.1,0.5v17.6c0,1.9-0.4,3-3.5,3.3
					c-0.1-0.9-0.2-1.5-0.5-1.9c-0.4-0.4-0.9-0.7-2-0.9v-0.4c0,0,2.3,0.2,2.8,0.2c0.4,0,0.5-0.2,0.5-0.5v-9.7h-7.8
					c0,4.4-0.1,9.7-4,13.3l-0.3-0.2c1.8-3.7,1.8-8.5,1.8-13.1v-9.8l2.9,1.1h7.1l1.3-1.5L117.5,78.5z M105.9,78.6V82h2.6v-3.1l3,0.3
					c-0.1,0.3-0.2,0.5-0.8,0.6V82h0.7l1-1.5c0,0,0.6,0.5,1.2,1.2v-3.2H105.9z M105.9,85.9h2.6v-3.1h-2.6V85.9z M111.4,87.2l2.2,1.7
					c-0.2,0.2-0.5,0.4-0.9,0.5v5.3c0,0.2-1.1,0.6-1.7,0.6h-0.3v-1.2h-1.8v1c0,0.2-0.9,0.6-1.8,0.6h-0.3v-8.3l2.2,0.9h1.5L111.4,87.2
					z M110.6,93.3v-4.3h-1.8v4.3H110.6z M112.5,84.3c0,0,0.6,0.5,1.2,1.2v-2.6h-0.1h-2.8v3.1h0.6L112.5,84.3z"/>
				<path class="st0" d="M125.3,82c6.8,0.5,4.6,5.6,2,3.8c-0.3-1.3-1.3-2.8-2.2-3.7L125.3,82z M133,79.8c-0.9,3.3-2.5,9.4-2.8,10.8
					c-0.2,0.9-0.4,1.8-0.4,2.5c0.1,1.4,1.1,2.3,1,4.6c-0.1,1.3-0.9,2.2-2.1,2.2c-0.6,0-1.2-0.4-1.4-1.3c0.5-2.7,0.4-5.1-0.2-5.5
					c-0.4-0.3-0.8-0.4-1.3-0.4v-0.5h1.1c0.4,0,0.5,0,0.7-0.5c0.5-1,0.5-1,4.9-11.9L133,79.8z M127.3,76.2c7.1,0.7,4.8,5.9,2,4.1
					c-0.3-1.4-1.4-2.9-2.2-3.9L127.3,76.2z M143.4,82.3h1.4l1.4-1.6l2.6,2.1c-0.2,0.2-0.5,0.4-1.1,0.5v15.6c0,0.2-0.9,0.8-2.3,0.8
					h-0.5v-2.5h-9.4v1.9c0,0.2-0.8,0.7-2.2,0.7h-0.5V81.2l3,1.2h1.4v-3.9h-4.9l-0.2-0.7h13l1.6-2.1c0,0,1.8,1.4,2.8,2.4
					c-0.1,0.3-0.4,0.4-0.7,0.4h-5.4V82.3z M144.9,96.5v-6.3c-0.3,0-0.6,0-0.8,0H143c-1.7,0-1.9-0.6-1.9-2.1v-5.1h-1.5v0.7
					c0,2.9-0.3,5.9-4,7.9l-0.1-0.1v4.9H144.9z M135.5,83.1v8.1c1.6-2,1.7-4.7,1.7-7.4v-0.7H135.5z M141.8,91c0,0,1.4,1.2,2.3,2
					c-0.1,0.3-0.3,0.4-0.7,0.4h-6.9l-0.2-0.7h4.3L141.8,91z M141,82.3v-3.9h-1.5v3.9H141z M143.4,83.1v4.4c0,0.3,0.1,0.4,0.4,0.4
					h0.6h0.6v-4.8H143.4z"/>
			</g>
		</g>
	</g>
	<g>
		<path class="st0" d="M48.2,33.2L48.2,33.2l0.5,0.1l0-0.1c0.1-1.4,0.3-2.6,0.5-3.8l0,0l-0.4-0.1l0,0c-0.1,0.4-0.2,0.7-0.4,0.8
			c-0.2,0.1-0.6,0.1-1.2-0.1c-0.5-0.1-1-0.2-1.5-0.4c-0.1-0.1-0.1-0.2-0.2-0.3l0.1-0.1c0.9-0.5,1.8-1.1,2.8-1.6
			c0.2-0.1,0.4-0.2,0.5-0.1c0.1,0.1,0.1,0.2,0,0.6l0,0l0.4,0.1l0,0c0.2-0.9,0.4-1.8,0.7-2.7l0,0l-0.4-0.1l0,0
			c-0.1,0.3-0.8,0.8-1.4,1.2c0,0,0,0,0,0l0,0c-1.1,0.6-2.1,1.1-3,1.6c-0.4-0.8-0.9-1.6-1.2-2.3c-0.5-1.1-0.7-1.6-0.5-2.5l0,0
			l-0.4-0.1l0,0c-0.2,0.9-0.5,1.8-0.7,3l0,0l0.4,0.1l0,0c0.1-0.3,0.2-0.4,0.3-0.5c0.1,0,0.3,0.1,0.6,0.7c0.5,1,0.9,1.8,1.3,2.6
			l-1.3-0.3c-1.1-0.3-1.3-0.5-1.1-1.4l0,0l-0.4-0.1l0,0c-0.1,0.6-0.3,1.2-0.4,1.7c-0.2,0.7-0.3,1.4-0.5,2.1l0,0l0.4,0.1l0,0
			c0.1-0.4,0.2-0.7,0.4-0.8c0.2-0.1,0.6-0.1,1.2,0.1c1.4,0.3,2.6,0.6,3.7,0.9C48.2,32.1,48.3,32.3,48.2,33.2z"/>
		<path class="st0" d="M47.7,21.3c0.5,0.6,1.1,1.3,1.7,1.9c0.4,0.5,0.5,0.8,0.4,1.3c0,0.1-0.1,0.4-0.1,0.4c0,0,0,0,0,0
			c0.1,0.1,0.3,0.1,0.5,0.2c0,0,0,0,0,0c0.1-0.4,0.3-0.7,0.4-1.1c0.2-0.5,0.3-0.7,0.5-1.2c0,0,0,0,0,0c0,0,0,0,0,0
			c-0.1-0.1-0.2-0.1-0.3-0.2c0,0,0,0,0,0c0,0,0,0,0,0c-0.2,0.4-0.3,0.4-0.4,0.4c-0.2,0-0.3-0.2-0.5-0.3c-0.3-0.3-0.5-0.6-0.8-0.9
			c0.3-0.6,0.6-1.2,0.9-1.8c0.1-0.2,0.2-0.4,0.3-0.6c0.4,0,0.8,0.1,1.2,0.1c0.4,0,0.5,0.1,0.6,0.3c0.1,0.2-0.1,0.4-0.3,0.9
			c0,0,0,0,0,0c0,0,0,0,0,0c0.1,0.1,0.3,0.2,0.3,0.2c0,0,0,0,0,0c0,0,0,0,0,0c0,0,0.4-0.9,0.9-1.8c0.3-0.5,0.7-1,0.9-1.4
			c0,0,0,0,0,0c0,0,0,0,0,0c-0.1-0.1-0.2-0.1-0.3-0.2c0,0,0,0,0,0c0,0,0,0,0,0c-0.3,0.4-0.8,0.6-1.5,0.5c-1.9-0.2-4-0.3-6.7-0.6
			c0,0,0,0,0,0c0,0,0,0,0,0c-0.1,0.2-0.2,0.4-0.3,0.7c0,0,0,0,0,0c0,0,0,0,0,0C46,19.3,46.9,20.3,47.7,21.3z M49.6,19.4
			c-0.3,0.6-0.7,1.2-1,1.9c-0.2-0.2-0.4-0.4-0.6-0.6c-0.4-0.5-0.8-1-1.2-1.4C47.8,19.3,48.7,19.3,49.6,19.4z"/>
		<path class="st0" d="M46.8,15.1c0.6-0.7,0.9-0.6,1.7-0.4l6.4,2l0.5-0.6l-2.9-6.1c-0.4-0.9-0.4-1.1,0.1-1.8l0,0L52.4,8l-2.1,2.4
			l0.3,0.3l0,0c0.4-0.4,0.6-0.6,0.8-0.6c0.2,0,0.3,0.2,0.4,0.5l2,4.2l-4.4-1.4C49.2,13.2,49,13.1,49,13c-0.1-0.2,0.1-0.5,0.5-0.9
			l0,0l-0.3-0.3l-2.7,3.1L46.8,15.1L46.8,15.1z"/>
		<path class="st0" d="M63,9.6c-0.6,0.4-0.8,0.2-1.2-0.1c-0.1-0.1-0.2-0.2-0.4-0.2c-1.2-0.7-2.3-1.2-3.5-1.8
			c-0.8-0.4-1.6-0.8-2.4-1.2l0,0l0,0c-0.2,0.2-0.4,0.3-0.6,0.5l0,0l0,0c0.5,2.1,1.1,4.1,1.7,6.1c0.2,0.8,0.2,1.1-0.5,1.7l0,0
			l0.3,0.3l0,0c0.7-0.7,1.5-1.4,2.4-2.1l0,0l0,0c-0.1-0.1-0.2-0.2-0.2-0.3l0,0l0,0c-0.5,0.4-0.8,0.5-1,0.4c-0.1,0-0.2-0.2-0.3-0.5
			c-0.1-0.3-0.2-0.7-0.3-1c0.6-0.5,1.3-1.1,2.2-1.7c0.4,0.2,0.7,0.4,1.1,0.5c0.3,0.2,0.5,0.3,0.5,0.5c0,0.2-0.2,0.4-0.6,0.7l0,0l0,0
			c0.1,0.1,0.2,0.2,0.3,0.3l0,0l0,0c0.5-0.3,1.1-0.7,1.7-1.1c0.6-0.3,1.3-0.8,1.3-0.8L63,9.6L63,9.6z M56.6,10.8
			c-0.2-0.8-0.5-1.7-0.7-2.5c0.3,0.1,0.6,0.3,0.9,0.4c0.5,0.2,1,0.5,1.5,0.7C57.7,10,57.2,10.4,56.6,10.8z"/>
		<path class="st0" d="M61.4,3.3c0.4-0.1,0.6-0.2,0.7-0.1c0.1,0.1,0.2,0.3,0.4,0.7c0.1,0.1,0.1,0.3,0.2,0.5c0.5,1.2,0.9,2.4,1.4,3.5
			c0,0.1,0,0.1,0.1,0.2c0.3,0.6,0.4,1-0.2,1.3l0,0L64,9.7l0,0c2.1-0.9,4.2-1.4,5.7-1.8l0,0l0,0c-0.2-0.6-0.4-1.2-0.6-1.8l0,0
			l-0.4,0.1l0,0.4c0.1,0.6,0.1,0.8-0.9,1.1c-0.3,0.1-0.6,0.2-0.8,0.3c-1,0.3-1.1,0.2-1.6-0.9L65,5.7c-0.3-0.7-0.5-1.3-0.8-2
			C64,3.2,63.9,2.8,64,2.6c0.1-0.2,0.4-0.3,0.8-0.5l0,0l-0.2-0.4l0,0c-1,0.4-2.2,0.8-3.3,1.2l0,0L61.4,3.3L61.4,3.3z"/>
		<path class="st0" d="M70.3,7.7c0.9-0.2,1.9-0.3,2.8-0.3l0,0l0-0.4l0,0c-0.6,0-0.9,0-1-0.2C72,6.7,72,6.5,72.1,6.2
			c0.2-0.4,0.3-0.7,0.5-1.1C73.5,5,74.4,5,75.4,5c0.2,0.4,0.3,0.7,0.5,1.1C76,6.4,76,6.6,75.9,6.7c-0.1,0.2-0.4,0.2-1,0.2l0,0l0,0.4
			l0,0c1.3,0,2.6,0.1,3.8,0.3l0.1,0l0-0.5l0,0C78,7.1,78,6.9,77.7,6.4c0-0.1-0.1-0.2-0.1-0.3c-0.9-2.1-1.8-4-2.7-6l0-0.1L74,0l0,0
			c-0.9,2.1-1.8,4-2.6,6c-0.1,0.1-0.1,0.3-0.2,0.4c-0.2,0.6-0.3,0.7-1,0.8l0,0L70.3,7.7L70.3,7.7z M72.9,4.4
			c0.4-0.9,0.8-1.8,1.1-2.5l0.2,0.5c0.3,0.6,0.6,1.3,0.9,1.9C74.3,4.4,73.6,4.4,72.9,4.4z"/>
		<path class="st0" d="M85.9,9.8L85.9,9.8c0.6-1.7,1.3-3.5,1.9-5.3c0.2-0.6,0.4-0.9,0.6-1c0.2-0.1,0.4-0.1,0.9,0.1l0,0l0.1-0.4l0,0
			c-0.9-0.3-1.8-0.7-2.9-1l0,0l-0.1,0.4l0,0c0.5,0.2,0.7,0.3,0.8,0.5c0.1,0.2,0,0.6-0.2,1.2c-0.3,0.9-0.7,1.9-1,2.8
			c-0.6-1.6-1.2-3.2-1.8-4.8l-0.4-1l-0.6-0.2c-0.6-0.2-1.2-0.4-1.8-0.6l0,0l-0.1,0.4l0,0c0.4,0.1,0.7,0.3,0.8,0.5
			c0.1,0.2,0,0.6-0.2,1.2c-0.5,1.3-0.9,2.5-1.3,3.6c-0.4,1.2-0.5,1.3-1.5,1.1l0,0l0,0c0,0.1-0.1,0.2-0.1,0.4l0,0l0,0
			c1,0.2,1.9,0.5,2.8,0.7l0,0L82.1,8l0,0c-0.5-0.1-0.7-0.2-0.8-0.4c-0.1-0.2,0-0.6,0.2-1.2c0.4-1.1,0.8-2.2,1.3-3.5
			c0.3,0.9,0.6,1.7,0.9,2.6c0.5,1.3,1,2.7,1.5,4.1l0,0l0,0C85.5,9.7,85.7,9.7,85.9,9.8L85.9,9.8z"/>
		<path class="st0" d="M93.5,15.8c0.5,0.6,1.1,0.9,1.7,1c0,0,0,0,0.1,0c0.5,0,0.9-0.2,1.3-0.6c0.6-0.7,0.8-1.6,0.5-2.5
			c0.6,0.1,1.2,0,1.7-0.5c1-1,0.7-2.3,0-3.1c-0.9-1-1.8-1.9-2.8-2.8l0,0l0,0c-0.1,0.1-0.2,0.2-0.3,0.3l0,0l0,0
			c0.4,0.3,0.5,0.6,0.5,0.8c0,0.3-0.2,0.5-0.7,1c-0.9,0.8-1.8,1.7-2.7,2.7c-0.4,0.5-0.7,0.7-0.9,0.7c-0.2,0-0.5-0.2-0.8-0.5l0,0l0,0
			c-0.1,0.1-0.1,0.2-0.2,0.3l0,0l0,0C91.7,13.7,92.6,14.7,93.5,15.8z M95.5,11.6c0.6-0.6,1.3-1.2,1.9-1.8c0.1,0.1,0.3,0.3,0.4,0.4
			c0.6,0.6,0.5,1.2-0.1,1.8c-0.3,0.3-0.6,0.4-0.9,0.4c-0.3,0-0.6-0.2-0.8-0.4C95.8,11.9,95.7,11.8,95.5,11.6z M93.8,15.1
			c0-0.1-0.1-0.1-0.1-0.2c-0.5-0.6-0.5-0.8,0.1-1.5c0.4-0.5,0.9-0.9,1.3-1.4c0.2,0.2,0.4,0.5,0.7,0.7c0.8,0.9,0.3,1.7-0.1,2.1
			c-0.3,0.4-0.7,0.5-1,0.5c0,0,0,0,0,0C94.3,15.5,94.1,15.4,93.8,15.1z"/>
		<path class="st0" d="M95.8,17.7L95.8,17.7L95.8,17.7c-0.2,0-0.3,0.1-0.4,0.2l0,0l0,0c0.5,0.7,1.1,1.5,1.6,2.4l0,0l0,0
			c0.1-0.1,0.2-0.1,0.3-0.2l0,0l0,0c-0.3-0.4-0.3-0.7-0.3-0.9c0.1-0.1,0.2-0.2,0.6-0.3c0.4-0.1,0.8-0.1,1.2-0.2
			c0.4,0.7,0.8,1.5,1.3,2.4c-0.3,0.3-0.5,0.6-0.8,0.9c-0.2,0.3-0.4,0.4-0.5,0.3c-0.2,0-0.4-0.3-0.6-0.7l0,0l0,0
			c-0.1,0.1-0.2,0.1-0.3,0.1l0,0l0,0c0.4,0.9,0.9,1.8,1.4,3l0,0l0,0c0.2,0,0.3,0,0.5,0l0,0l0,0c0-0.1,0-0.2,0-0.2
			c0-0.4,0-0.6,0.5-1.1c1.5-1.7,2.9-3.6,4.2-5.4l0,0l0,0c-0.1-0.2-0.2-0.5-0.3-0.7l0,0l0,0c-2.2,0.4-4.4,0.7-6.6,1
			C96.5,18.4,96.3,18.3,95.8,17.7z M102.4,18.3c-0.6,0.9-1.2,1.6-1.7,2.3c-0.3-0.7-0.7-1.3-1-1.9C100.5,18.6,101.5,18.5,102.4,18.3z
			"/>
		<path class="st0" d="M107.5,28.1c-0.2-1.3-0.4-2.6-0.6-3.9l0,0l-0.4,0.1l0,0c0.1,0.5,0.1,0.7,0,0.9c-0.2,0.2-0.5,0.3-1.1,0.4
			c-1.2,0.2-2.4,0.4-3.6,0.6c-0.1,0-0.2,0-0.3,0.1c-0.8,0.2-0.8,0.2-1.1-0.7l0,0l-0.6,0.1l0,0c0.4,1.1,0.6,2.3,0.8,3.6l0,0l0.4-0.1
			l0,0c-0.1-1,0-1.2,1.1-1.3c0.4-0.1,0.9-0.2,1.3-0.2c0,0.1,0,0.3,0.1,0.4c-0.8,0.9-1.8,1.8-2.8,2.7l0,0l0,0c0,0.8,0.1,1.6,0,2.4
			l0,0.1l0.5-0.1l0,0c0.1-0.6,0.5-1.2,1.5-2.3c0.4-0.4,0.7-0.8,1.1-1.3c0.3,1.2,1.2,1.8,2.2,1.6C107,31,107.7,29.7,107.5,28.1z
			 M105.6,29.5c-0.4,0.1-0.7,0-1-0.2c-0.3-0.2-0.5-0.5-0.5-1c0-0.3-0.1-0.5-0.1-0.8c0.9-0.2,1.8-0.3,2.7-0.5c0,0.3,0.1,0.5,0.1,0.8
			C106.9,28.8,106.5,29.4,105.6,29.5z"/>
		<path class="st0" d="M103.4,42.3c0.8-2.5,1.4-5.1,1.3-7.7c-0.4,2.6-1,5.1-1.8,7.5c-0.8,2.4-2,4.7-3.2,7c0.8-1,1.5-2.1,2.1-3.2
			C102.4,44.8,102.9,43.6,103.4,42.3z"/>
		<path class="st0" d="M100.9,49.9c0.9-1,1.6-2.2,2.2-3.4c0.7-1.2,1.2-2.4,1.6-3.7c0.9-2.6,1.4-5.3,1.4-8c-0.4,2.7-1,5.3-1.9,7.8
			C103.3,45.1,102.2,47.5,100.9,49.9z"/>
		<path class="st0" d="M46.2,35.1c0,2.6,0.5,5.2,1.3,7.7c0.4,1.2,1,2.4,1.6,3.6c0.6,1.1,1.3,2.2,2.1,3.2c-1.3-2.3-2.4-4.6-3.2-7
			C47.1,40.2,46.6,37.7,46.2,35.1z"/>
		<path class="st0" d="M46.7,43c-0.9-2.5-1.5-5.1-1.9-7.8c0,2.7,0.5,5.4,1.4,8c0.5,1.3,1,2.5,1.6,3.7c0.7,1.2,1.4,2.3,2.2,3.4
			C48.7,47.9,47.6,45.5,46.7,43z"/>
		<path class="st0" d="M57.2,53.6L57.2,53.6c-0.2,0.1-0.4,0.2-0.6,0.2c0-0.7-0.3-1.4-0.8-2c-0.6-0.7-1.5-1-2.4-1
			c-0.9,0-1.7,0.4-2.4,1c-1.4,1.3-1.5,3.4-0.2,4.8c0.5,0.6,1.2,0.9,1.9,0.9c0,0.1-0.1,0.3-0.2,0.5l0,0l0.3,0.3l1.8-1.8l-0.3-0.3l0,0
			c-1.1,0.7-2.1,0.6-2.8-0.1c-1-1-0.3-2.4,0.6-3.3c0.9-0.9,2.3-1.5,3.3-0.5c0.7,0.7,0.7,1.7-0.1,2.8l0,0l0.3,0.3l1.8-1.8L57.2,53.6z
			"/>
		<path class="st0" d="M61.1,56c-1.7-1-3.9-0.6-4.9,1.1c-0.5,0.8-0.6,1.7-0.4,2.6c0.2,0.9,0.8,1.7,1.7,2.2c0.6,0.4,1.3,0.5,1.9,0.5
			c0.3,0,0.5,0,0.8-0.1c0.9-0.2,1.7-0.8,2.1-1.6C63.4,59.1,62.8,57,61.1,56z M57.9,61.3c-0.6-0.4-0.9-0.9-0.9-1.6
			c0-0.5,0.2-1.2,0.6-1.8c0.4-0.6,0.9-1.1,1.3-1.4c0.3-0.2,0.6-0.2,0.9-0.2c0.3,0,0.6,0.1,1,0.3c1.3,0.8,1,2.3,0.3,3.4
			c-0.4,0.6-0.8,1.1-1.3,1.4C59.1,61.7,58.5,61.6,57.9,61.3z"/>
		<path class="st0" d="M69.7,59.7c-0.1,0.2-0.2,0.3-0.4,0.4c-0.3-0.6-0.9-1.1-1.7-1.3c-1.8-0.5-3.6,0.5-4.1,2.4
			c-0.3,0.9-0.2,1.8,0.2,2.6c0.4,0.8,1.1,1.4,2,1.6c0.8,0.2,1.5,0.2,2.1-0.2c0.1,0.1,0.1,0.3,0.1,0.5l0,0.1l0.4,0.1l0.7-2.4
			l-0.4-0.1l0,0C68,64.5,67,65,66.1,64.7c-0.6-0.2-1-0.6-1.2-1.2c-0.1-0.5-0.1-1.2,0.1-1.9c0.4-1.3,1.2-2.5,2.6-2.1
			c1,0.3,1.4,1.2,1.3,2.4l0,0.1l0.4,0.1l0.7-2.4L69.7,59.7L69.7,59.7z"/>
		<path class="st0" d="M77.1,65.5l-2.6-3l1.4-1.1c0.7-0.6,1.1-0.9,1.9-0.9c0,0,0,0,0,0l0.1,0l0-0.4l-2.7,0l0,0.4l0.1,0
			c0.2,0,0.4,0.1,0.4,0.1c0,0.1,0,0.2-0.4,0.6l-1.9,1.6l0-1.2c0-0.5,0-0.8,0.2-1c0.1-0.1,0.3-0.2,0.8-0.2l0.1,0l0-0.4l-3.4,0l0,0.4
			l0.1,0c0.4,0,0.6,0.1,0.7,0.2c0.1,0.2,0.1,0.5,0.1,1l0,3.3c0,0.5,0,0.8-0.2,1C71.5,66,71.3,66,70.9,66l-0.1,0l0,0.4l3.4,0l0-0.4
			l-0.1,0c-0.4,0-0.6-0.1-0.7-0.2c-0.1-0.2-0.2-0.5-0.1-1l0-1.3l0.2-0.1l1.9,2.2c0.1,0.2,0.2,0.3,0.2,0.4c0,0-0.1,0.1-0.5,0.1
			l-0.1,0l0,0.4l3.4,0l0-0.4l-0.1,0C78,66.1,77.5,65.9,77.1,65.5z"/>
		<path class="st0" d="M84.2,59.9l0.1,0.2l0.4-0.1l-0.5-1.6l-5.9,1.5l0.3,1.7l0.4-0.1l0-0.3c0-0.5,0-0.8,0.9-1l0.7-0.2l1,4.1
			c0.3,1,0.2,1.2-0.6,1.4l-0.1,0l0.1,0.4l3.3-0.8l-0.1-0.4l-0.1,0c-0.8,0.2-0.9,0.1-1.2-0.9l-1-4.1l0.7-0.2
			C83.8,59.2,83.9,59.4,84.2,59.9z"/>
		<path class="st0" d="M92.7,60.9c-0.7,0.3-0.8,0.2-1.4-0.3L86.9,57l0,0l-0.6,0.3l0.3,5.7c0,0.8,0,1-0.6,1.3l-0.1,0l0.2,0.4l2.4-1.2
			l-0.2-0.4l-0.1,0c-0.4,0.2-0.6,0.3-0.8,0.2c-0.1-0.1-0.2-0.2-0.2-0.5l-0.1-1l2-1l0.8,0.6c0.2,0.2,0.3,0.3,0.3,0.5
			c0,0.2-0.2,0.3-0.6,0.5l-0.1,0l0.2,0.4l3.1-1.6L92.7,60.9L92.7,60.9z M88.7,60.4l-1.5,0.8L87,58.9L88.7,60.4z"/>
		<path class="st0" d="M95.8,58.4c-0.6,0.5-0.8,0.4-1.4-0.4l-2-2.6c-0.6-0.8-0.6-1,0-1.5l0.1,0l-0.3-0.4l-2.7,2l0.3,0.4l0.1,0
			c0.6-0.5,0.8-0.4,1.4,0.4l2,2.6c0.6,0.8,0.6,1,0,1.5l-0.1,0l0.3,0.4l2.7-2L95.8,58.4L95.8,58.4z"/>
		<path class="st0" d="M100.1,52l0.2,0.2c0.3,0.4,0.4,0.7-0.2,1.4l-0.5,0.6c-0.3,0.3-0.5,0.5-0.7,0.5c-0.2,0-0.5-0.2-0.8-0.5l-2.3-2
			c-0.8-0.7-0.8-0.9-0.3-1.5l0-0.1l-0.3-0.3L93,52.9l0.3,0.3l0-0.1c0.5-0.6,0.7-0.6,1.5,0.1l2.5,2.2c0.4,0.3,0.6,0.6,0.6,0.8
			c0,0.2-0.1,0.4-0.3,0.7l0,0l0.3,0.3l3.7-4.3l-1.2-1.2L100.1,52z"/>
		<path class="st0" d="M82.9,37c-0.3-0.1-0.5-0.3-0.8-0.4c-0.2-0.1-0.3-0.1-0.5-0.2c0.3-0.2,0.4-0.5,0.4-0.8c0.1-0.4-0.1-0.8-0.4-1
			c0,0-0.1-0.1-0.1-0.2c0-0.3,0.1-0.5,0.1-0.8c0.1-0.8,0.2-1.6,0.3-2.4c0.1-0.9,0.2-1.7,0.3-2.6c0.1-0.9,0.2-1.8,0.2-2.7
			c0.1-0.8,0.1-1.5,0.1-2.3c0-0.1,0-0.2,0-0.2c0-0.1,0-0.1,0-0.2c-0.4,3.7-0.9,7.4-1.5,11.1c-0.6-0.2-1.1-0.6-1.6-0.9
			c0.1,0,0.2,0,0.4-0.1c0,0,0,0,0,0c-0.2,0-0.4,0-0.5-0.1c-0.1,0-0.3,0-0.4-0.1c-0.4-0.2-0.8-0.3-1.2-0.3c-0.6-0.1-1.1-0.1-1.7-0.2
			c-0.5,0-1-0.1-1.5-0.1c-0.8-0.1-1.5,0-2.1,0.4C72.3,33,72.1,33,72,33.1c-0.1-0.2-0.1-0.4,0.2-0.4c0.2,0,0.3,0,0.5-0.1
			c0.6-0.2,1.1-0.3,1.7-0.5c0.6-0.2,1.1-0.3,1.7-0.3c1.5,0,3,0.1,4.4-0.1c0.1,0,0.1,0,0.2,0c0,0,0,0,0,0c-1.3-0.1-2.7-0.1-4.1-0.1
			c0,0,0.1,0,0.1-0.1c0.3-0.1,0.6-0.3,0.9-0.4c0.1,0,0.1,0,0.2,0c0.9,0,1.8-0.1,2.8-0.1c0.1,0,0.1,0,0.2,0c0,0,0,0,0-0.1
			c-0.9-0.1-1.8-0.1-2.7-0.1c0.1-0.1,0.2-0.3,0.3-0.4c0.1-0.1,0.1-0.1,0.2-0.1c0.6,0,1.2,0,1.8-0.1c0.2,0,0.4,0,0.6-0.1c0,0,0,0,0,0
			c-0.8-0.1-1.6-0.1-2.4-0.1c0-0.2,0-0.3,0-0.5c0.8,0,1.6,0,2.5-0.2c-0.2,0-0.4-0.1-0.5-0.1c-0.6,0-1.2,0-1.9-0.1c0,0-0.1,0-0.1-0.1
			c-0.1-0.1-0.2-0.3-0.2-0.5c1,0,2,0,3-0.2c-0.1,0-0.3-0.1-0.4-0.1c-0.9,0-1.8,0-2.7-0.1c-0.8,0-1.7-0.1-2.5,0
			c-0.3,0-0.6,0.1-0.9,0.1c-0.2,0-0.5,0.1-0.7,0.2c-0.6,0.1-1.1,0.2-1.7,0.2c-0.3,0-0.6,0.1-0.9,0.2c-0.1,0-0.3,0.1-0.4,0.1
			c-0.3,0-0.7,0-1,0c-0.4,0-0.4,0-0.4-0.4c0,0,0,0,0,0c0.7,0,1.4,0,2.1-0.1c0,0-0.1,0-0.1-0.1c-0.2,0-0.5-0.1-0.7-0.1
			c-0.4,0-0.8,0-1.3,0c0,0-0.1,0-0.1-0.1c0-0.1,0-0.3,0-0.4c0.8,0,1.6,0,2.4-0.1c0,0-0.1,0-0.1-0.1c-0.3,0-0.5-0.1-0.8-0.1
			c-0.5,0-0.9,0-1.4,0c0,0-0.1,0-0.1-0.1c0-0.1-0.1-0.6-0.1-0.7c0.9,0,2.8-0.1,2.8-0.1s0-0.1-0.1-0.2c-0.8-0.1-1.9-0.1-2.7-0.1
			c0-0.2,0-0.6,0-0.7c0.4,0,0.6-0.1,0.9-0.1c0.3,0,0.7,0,1,0c0.5,0,0.7-0.1,0.9-0.2c-0.7,0-1.3-0.1-1.9-0.1c-0.3,0-0.6-0.1-0.9-0.1
			c0,0-0.1-0.5-0.1-0.7c1.1,0,2.1,0,3.2-0.1c0,0-0.1,0-0.1,0c-0.7,0-1.3-0.1-2-0.1c-0.4,0-0.8,0-1.2,0c0,0-0.1,0-0.1-0.1
			c0-0.1,0-0.5,0-0.7c0.7,0,1.3,0,2-0.2c-0.2-0.1-0.5-0.1-0.7-0.1c-0.4,0-0.7,0-1.1,0c-0.1,0-0.2,0-0.1-0.1c0-0.1,0-0.2,0-0.3
			c-0.1,0-0.3,0-0.4,0c0,0.5,0,1,0.1,1.5c0.1,1,0.1,2,0.2,3c0.1,0.8,0.2,1.6,0.2,2.3c0,0.1,0,0.2-0.1,0.2c-0.3,0.2-0.5,0.3-0.8,0.5
			c-0.2,0.2-0.4,0.4-0.5,0.6c-0.6,1.2-1.1,2.3-1.7,3.5c-0.3,0.7-0.5,1.4-0.7,2.1c-0.1,0.4-0.1,0.8-0.2,1.2c-0.1,0.7-0.1,1.5,0.1,2.2
			c0.2,1,0.6,1.9,1,2.8c0.6,1.3,1.1,2.6,1.7,4c0.2,0.5,0.4,1.1,0.5,1.7c0.1,0.3,0.2,0.7,0.3,1c0.2,0.6,0.3,1.1,0.5,1.7
			c0.1,0.3,0.2,0.7,0.3,1c-0.3,0.1-1.1,0-1,0.4c0.2,1.3,0.5,2.3,0.7,3.5c0,0.1,0.2,0.4,0.2,0.3c0,0,0-0.3,0-0.5
			c-0.1-0.8-0.1-1.1-0.2-1.8c0.5,0.8,0.9,1.7,1.5,2.5c0-0.1,0-0.1,0-0.1c-0.5-1-1-2.1-1.5-3.1c0-0.1-0.1-0.2-0.1-0.3
			c0-0.2,0.1-0.3,0.2-0.4c0.3-0.1,0.3-0.1,0.4,0.2c0.5,0.8,1,1.7,1.5,2.5c0,0,0.1,0.1,0.1,0.1c0,0,0,0,0.1,0c-0.5-1-0.9-1.9-1.4-2.9
			c0.3-0.1,0.6-0.1,0.9-0.2c0,0.2,1.9,3.6,2.1,3.8c-0.6-1.3-1.2-2.5-1.9-3.8c0.3,0,0.7-0.1,1-0.1c0.7,1.3,1.4,2.6,2.2,3.8
			c0-0.1,0-0.1,0-0.2c-0.6-1.2-1.2-2.4-1.8-3.6c0,0,0.6-0.3,0.3-0.3c-0.8,0-2.2,0.1-3.2,0.1c0-0.1-0.1-0.4-0.1-0.5
			c-0.1-0.6-0.2-0.8-0.3-1.5c-0.2-1.1-0.5-2.1-0.9-3.1c-0.6-1.6-1.2-3.2-1.9-4.7c-0.6-1.2-0.9-2.5-0.9-3.9c0-0.9,0.1-1.8,0.4-2.6
			c0.2-0.7,0.5-1.4,0.8-2.1c0.3-0.7,0.5-1.5,0.9-2.1c0.1-0.2,0.2-0.3,0.3-0.5c0.2-0.4,0.5-0.7,0.8-0.8c0.8-0.4,1.7-0.8,2.6-1.1
			c0.6-0.2,1.2-0.2,1.9-0.4c0.4-0.1,0.7-0.1,1.1-0.1c0.2,0,0.5-0.1,0.7-0.1c-0.1,0.3-0.1,0.5,0,0.7c0.3,0.7,0.6,0.8,1.3,0.8
			c0.4,0,0.7-0.1,1.1-0.2c0.1,0,0.2-0.1,0.2-0.2c0.1-0.3,0-0.5-0.1-0.7c-0.1-0.1-0.1-0.3-0.2-0.4c0.2,0,0.3,0.1,0.4,0.2
			c0.3,0.4,0.3,0.8,0.2,1.3c-0.1,0.5-0.5,0.7-0.9,1c-0.1-0.3-0.2-0.5-0.4-0.8c0,0.1,0,0.1,0,0.1c0,0.2,0.1,0.4,0.1,0.6
			c0,0,0,0.1,0,0.1c-0.1,0.1-0.2,0.1-0.3,0.1c-0.1-0.3-0.2-0.6-0.5-0.9c0.1,0.3,0.1,0.6,0.2,1c-0.2,0-0.3,0.1-0.5,0.1
			c-0.2-0.6-0.4-1.2-0.7-1.7c0.2,0.6,0.3,1.1,0.5,1.7c-0.2,0-0.5,0-0.7,0.1c-0.2-0.7-0.5-1.4-0.9-2c0.2,0.7,0.4,1.4,0.6,2.1
			c-0.2,0.1-0.4,0.1-0.5,0.1c-0.2-0.7-0.5-1.4-0.9-2c0.1,0.3,0.2,0.6,0.2,0.8c0.1,0.4,0.2,0.8,0.3,1.1c0,0.1,0,0.2-0.1,0.2
			c-0.1,0.1-0.4,0.1-0.5,0.1c-0.2-0.7-0.5-1.4-0.9-2.1c0,0.1,0,0.1,0,0.1c0.2,0.6,0.4,1.3,0.5,1.9c0,0.1,0,0.2-0.1,0.2
			c-0.1,0-0.2,0.1-0.3,0.1c-0.1,0-0.2,0-0.3-0.1c-0.2-0.4-0.5-0.9-0.7-1.3c-0.1-0.1-0.1-0.2-0.2-0.3c-0.1-0.1-0.1-0.2-0.2-0.3
			c0.3,0.7,0.5,1.4,0.8,2.1c-0.1,0-0.2,0-0.3,0c-0.1,0.1-0.2,0-0.3-0.1c-0.3-0.4-0.5-0.7-0.8-1.1c-0.1-0.1-0.3-0.3-0.4-0.4
			c0,0,0,0,0,0c0.3,0.5,0.7,1.1,1,1.6c-0.1,0.1-0.4,0.3-0.5,0.3c-0.1,0-0.1-0.1-0.2-0.1c-0.2-0.2-0.4-0.4-0.6-0.6
			c-0.2-0.2-0.5-0.4-0.7-0.6c0.6,0.8,1.3,1.5,1.9,2.3c-0.2,0.1-0.4,0.2-0.5,0.3c-0.6-0.7-1.3-1.4-2.1-1.9c0.6,0.7,1.2,1.4,1.8,2.1
			c-0.2,0.1-0.4,0.2-0.6,0.3c-0.1,0.1-0.1,0-0.2,0c-0.4-0.5-0.7-0.9-1.2-1.2c0,0-0.1-0.1-0.1-0.1c0.4,0.5,0.8,1,1.2,1.5
			c-0.2,0.1-0.4,0.2-0.6,0.3c-0.3-0.4-0.6-0.7-1-0.9c0.3,0.3,0.5,0.7,0.8,1c-0.1,0.1-0.3,0.1-0.4,0.2c-0.1,0.1-0.2,0.1-0.2,0
			c-0.1-0.2-0.3-0.3-0.6-0.3c0.1,0.2,0.3,0.3,0.4,0.5c-0.2,0.1-0.4,0.2-0.6,0.3c0.1,0,0.1,0,0.1,0c0.5-0.2,1.1-0.4,1.6-0.6
			c0.7-0.3,1.3-0.7,2-1c0.2-0.1,0.5-0.2,0.7-0.4c0.5-0.3,0.9-0.6,1.4-0.8c0.2-0.1,0.5-0.2,0.7-0.2c0.8-0.1,1.5,0,2.3,0.1
			c0.6,0.1,1.1,0.1,1.7,0.2c0.4,0,0.8,0,1.1,0.2c0.5,0.2,0.9,0.4,1.3,0.7c0.4,0.2,0.7,0.5,1.2,0.7c0.2,0.1,0.4,0.1,0.5,0.2
			c0.1,0.1,0.2,0.1,0.3,0.2c0.1,0.2,0.1,0.4,0.1,0.6c0,0.1-0.1,0.2-0.1,0.3c0,0,0,0.1-0.1,0.1c-0.1,0-0.1,0-0.2,0
			c0,0-0.1-0.1-0.1-0.1c0-0.3,0-0.6-0.2-0.8c0,0.3,0,0.6-0.1,0.9c-0.1-0.1-0.2-0.1-0.2-0.1c-0.2-0.1-0.2-0.2-0.2-0.4
			c0-0.1,0-0.3,0-0.4c0-0.1-0.1-0.2-0.1-0.3c-0.1,0.2-0.1,0.5-0.1,0.7c-0.4-0.3-0.3-0.7-0.3-1.1c0,0-0.1,0.1-0.1,0.1
			c0,0.2,0,0.5,0,0.7c0,0.2,0.1,0.4,0.2,0.5c0.3,0.2,0.6,0.3,0.8,0.4c0,0,0.1,0.1,0.1,0.1c0,0,0,0,0,0.1c-0.1,0-0.1,0-0.2,0
			c-0.1,0-0.2,0-0.3-0.1c-0.4-0.1-0.9-0.3-1.3-0.4c0-0.5,0-1-0.2-1.5c0,0.5-0.1,0.9-0.1,1.4c-0.2,0-0.3,0-0.5-0.1c0-0.3,0-0.5,0-0.8
			c0-0.3,0-0.5-0.2-0.8c0,0.5-0.1,1-0.1,1.6c-0.2,0-0.4,0-0.5,0c0-0.3,0-0.6,0-0.9c0-0.3-0.1-0.7-0.2-0.8c0,0.5-0.1,1.1-0.1,1.7
			c-0.2,0-0.4,0-0.6-0.1c0.1-0.6,0.1-1.2-0.1-1.7c-0.1,0.5,0,1.1-0.2,1.7c-0.1,0-0.2-0.1-0.3-0.1c0-0.6-0.1-1.1-0.3-1.6v1.6
			c-0.1,0-0.3,0-0.4-0.1c0,0-0.1-0.1-0.1-0.1c-0.1-0.3-0.1-0.5-0.2-0.8c-0.1-0.3-0.2-0.5-0.3-0.8c0,0,0,0,0,0
			c0.1,0.5,0.1,1.1,0.2,1.6c-0.2,0-0.4,0-0.5,0c0,0-0.1,0-0.1-0.1c-0.1-0.2-0.1-0.5-0.1-0.7c-0.1-0.3-0.2-0.5-0.3-0.8c0,0,0,0-0.1,0
			c0,0.1,0,0.1,0,0.2c0.1,0.4,0.1,0.8,0.2,1.2c0,0.2,0,0.2-0.2,0.3c-0.1,0-0.2,0-0.2,0.1c-0.1,0-0.1,0-0.2-0.1
			c-0.2-0.6-0.4-1.1-0.7-1.6c0,0-0.1-0.1-0.1-0.1c0,0.1,0,0.1,0,0.1c0.2,0.6,0.3,1.1,0.5,1.7c0,0,0,0.1,0,0.1
			c-0.2,0.1-0.4,0.2-0.6,0.3c-0.2-0.5-0.4-1-0.8-1.5c0,0,0,0.1,0,0.1c0.2,0.5,0.3,0.9,0.5,1.4c0,0,0,0.1,0,0.1
			c-0.2,0.1-0.3,0.2-0.5,0.4c-0.2-0.6-0.4-1.1-0.8-1.5c0,0,0,0.1,0,0.1c0.2,0.5,0.4,1,0.5,1.5c0,0.1,0,0.2,0,0.2
			c-0.1,0.1-0.3,0.2-0.5,0.3c-0.2-0.5-0.4-0.9-0.8-1.3c0.2,0.5,0.4,1,0.6,1.5c-0.3,0.1-0.5,0.3-0.7,0.4c-0.2-0.5-0.4-1-0.7-1.4
			c0,0,0,0.1,0,0.1c0.1,0.4,0.3,0.9,0.4,1.3c0,0,0,0.1,0,0.1c-0.3,0.1-0.5,0.3-0.8,0.4c-0.2-0.5-0.4-0.9-0.7-1.3c0,0,0,0.1,0,0.1
			c0.1,0.4,0.3,0.8,0.4,1.2c0,0,0,0.1,0,0.2c-0.2,0.1-0.5,0.2-0.8,0.4c-0.1-0.4-0.3-0.9-0.6-1.2c0.1,0.5,0.2,0.9,0.4,1.4
			c0.1,0,0.2,0,0.2,0c1.1-0.3,2.1-0.8,3.1-1.4c0.9-0.5,1.7-1.1,2.6-1.5c0.5-0.2,1-0.3,1.6-0.3c0.6,0.1,1.2,0.2,1.9,0.3
			c0.6,0.1,1.1,0.1,1.7,0.1c0.2,0,0.4,0,0.6,0.1c0.2,0.1,0.4,0.2,0.7,0.2c0.8,0.2,1.5,0.6,2.2,0.9c0.3,0.1,0.5,0.3,0.6,0.7
			c0.1,0.8-0.6,1.2-1.2,1.2c0-0.2-0.1-0.4-0.1-0.6c0,0,0,0-0.1,0c0,0.2,0,0.4-0.1,0.6c-0.1,0-0.3,0-0.4,0c-0.1,0-0.1,0-0.1-0.1
			c0-0.3,0-0.5,0-0.8c0-0.2-0.1-0.4-0.1-0.6c-0.1,0.5-0.1,1-0.1,1.5c-0.2,0-0.4-0.1-0.6-0.1c0.1-0.7,0.1-1.3-0.1-1.9
			c-0.1,0.6,0,1.2-0.2,1.8c-0.2-0.1-0.3-0.1-0.4-0.1c-0.1,0-0.1-0.1-0.1-0.2c0-0.5,0-0.9-0.1-1.3c0,0,0-0.1-0.1-0.1
			c0,0.5-0.1,1-0.1,1.6c-0.2,0-0.4,0-0.5,0c-0.1,0-0.1,0-0.1-0.1c0-0.2,0-0.5,0-0.7c0-0.2-0.1-0.4-0.1-0.6c0,0,0,0-0.1,0
			c0,0.1,0,0.1,0,0.2c0,0.4-0.1,0.8-0.1,1.2c0,0,0,0.1-0.1,0.1c-0.2,0-0.3,0-0.5,0c0-0.6,0-1.2-0.2-1.7c0,0,0,0-0.1,0v1.8
			c-0.1,0-0.2,0-0.3,0c-0.1,0-0.2,0-0.2-0.2c-0.1-0.3-0.1-0.7-0.2-1c-0.1-0.2-0.1-0.4-0.2-0.6c0,0.4,0.1,0.9,0.1,1.3
			c0,0.5,0,0.5-0.4,0.5C76,38.3,76,38,75.9,37.7c-0.1-0.3-0.2-0.6-0.3-0.8c0,0,0,0,0,0c0.1,0.6,0.1,1.2,0.2,1.8c-0.1,0-0.1,0-0.2,0
			c-0.1,0-0.1,0-0.2,0c-0.2-0.7-0.4-1.4-0.8-2.1c0.2,0.7,0.4,1.4,0.6,2.2c-0.1,0-0.2,0.1-0.3,0.1c-0.1,0.1-0.2,0-0.2-0.1
			c-0.1-0.3-0.2-0.6-0.3-0.9c-0.1-0.3-0.3-0.6-0.5-0.9c0,0,0,0,0,0c0,0,0,0.1,0,0.1c0.2,0.6,0.4,1.2,0.6,1.7c0,0,0,0.1,0,0.2
			c-0.2,0.1-0.3,0.1-0.5,0.2c-0.1-0.3-0.2-0.6-0.4-0.9c-0.2-0.4-0.4-0.7-0.5-0.8c0,0.1,0.1,0.1,0.1,0.2c0.2,0.5,0.3,1,0.5,1.5
			c0,0,0,0.1,0,0.1c-0.2,0.1-0.4,0.2-0.6,0.3c-0.2-0.6-0.4-1.1-0.8-1.6c0.2,0.6,0.4,1.1,0.5,1.7c-0.2,0.1-0.4,0.2-0.6,0.2
			c-0.1-0.3-0.2-0.6-0.3-0.8c-0.1-0.3-0.3-0.5-0.4-0.7c0,0,0,0,0,0c0.2,0.5,0.3,1.1,0.5,1.7c-0.2,0.1-0.4,0.2-0.5,0.3
			c-0.2-0.5-0.4-1.1-0.8-1.5c0,0.1,0,0.2,0.1,0.3c0.1,0.4,0.3,0.8,0.4,1.2c0,0.1,0,0.2,0,0.2c-0.2,0.1-0.4,0.2-0.6,0.3
			c-0.2-0.5-0.4-0.9-0.7-1.2c0.1,0.4,0.2,0.7,0.3,1.1c0,0.2,0.1,0.3,0,0.5c0.1,0,0.1,0,0.2,0c0.1-0.1,0.3-0.1,0.4-0.2
			c0.7-0.3,1.4-0.6,2-0.9c0.4-0.2,0.7-0.4,1.1-0.6c1.3-0.6,2.6-1,4-0.9c0.5,0,1.1,0,1.6,0.1c0.6,0.1,1.1,0.4,1.5,0.7
			c0.4,0.3,0.5,1,0.1,1.4c-0.3,0.3-0.6,0.4-1,0.5c0-0.3-0.1-0.6-0.3-0.9c0,0.3,0,0.5,0,0.7c0,0.3,0,0.3-0.3,0.3
			c-0.2,0-0.2-0.1-0.2-0.2c-0.1-0.4-0.2-0.8-0.3-1.3c0-0.1-0.1-0.3-0.2-0.4c0,0.6,0.1,1.2,0.1,1.8c-0.2,0-0.3,0-0.4,0
			c-0.1-0.3-0.2-0.7-0.2-1c-0.1-0.3-0.2-0.7-0.4-1c0,0.3,0.1,0.6,0.2,0.9c0.1,0.4,0.1,0.8,0.2,1.1c0,0,0,0.1,0,0.1
			c-0.1,0.1-0.2,0.1-0.4,0.2c-0.2-0.7-0.5-1.4-0.9-2c0,0,0,0.1,0,0.1c0.2,0.6,0.4,1.3,0.6,1.9c0.1,0.2,0,0.2-0.2,0.3
			c-0.1,0-0.2,0-0.2-0.1c-0.3-0.5-0.5-1-0.8-1.6c-0.1-0.1-0.2-0.3-0.3-0.4c0,0,0,0.1,0,0.1c0.1,0.3,0.3,0.6,0.4,0.9
			c0.2,0.4,0.3,0.7,0.4,1.1c0,0.1,0.1,0.1,0,0.2c-0.1,0-0.2,0.1-0.3,0.1c-0.4-0.7-0.8-1.4-1.4-2c0,0.1,0,0.1,0.1,0.2
			c0.4,0.7,0.7,1.3,1.1,2c0,0,0,0.1,0,0.2c-0.1,0.1-0.2,0.2-0.3,0.3c-0.5-0.7-1-1.4-1.6-2c0.4,0.6,0.8,1.3,1.2,1.9
			c0.2,0.2,0.1,0.2-0.1,0.4c-0.1,0.1-0.2,0.1-0.2,0.3c-0.2-0.2-0.3-0.4-0.4-0.6c-0.1-0.2-0.3-0.4-0.4-0.6c-0.2-0.2-0.3-0.4-0.5-0.5
			c-0.2-0.2-0.3-0.3-0.5-0.5l0,0c0.1,0.1,0.1,0.1,0.2,0.2c0.5,0.7,0.9,1.3,1.4,2c0,0.1,0.1,0.1,0.2,0.2c-0.1,0.2-0.3,0.4-0.5,0.6
			c-0.5-0.7-1-1.3-1.6-1.8c0.5,0.7,1,1.4,1.5,2.1c-0.1,0.2-0.3,0.4-0.4,0.6c-0.4-0.6-0.8-1.1-1.4-1.6c0.4,0.6,0.8,1.2,1.1,1.7
			c0,0,0.1,0,0.1,0c0.1-0.1,0.2-0.2,0.2-0.3c0.4-0.4,0.8-0.8,1.2-1.2c0,0,0.1,0,0.1-0.1c0,0.1,0.1,0.2,0.1,0.2c0,0,0.1,0.1,0.1,0.1
			c0.2,0,0.4,0.1,0.6,0.2c0.4,0.3,0.7,0.6,1,1c0.4,0.6,0.5,1.4,0.5,2.1c0,0.5-0.2,1-0.3,1.5c-0.1,0.3-0.2,0.7-0.1,1.1
			c0.1,0.2,0.2,0.5,0.3,0.7c0.2,0.6,0.4,1.1,0.7,1.8c-0.6-0.1-1,0-1.3,0c0,0,0.4,0.2,0.5,0.2c0.2,0,0.3,0.1,0.4,0.3
			c0.4,0.7,0.7,1.3,1.1,1.9c0,0.1,0.1,0.1,0.1,0.2c0,0,0,0,0.1,0c-0.4-0.8-0.7-1.5-1.1-2.3c0.3,0,0.5,0.1,0.8,0.1
			c0.2,0,0.3,0.1,0.3,0.3c0,0.2,0,0.3,0.1,0.5c0.1,0.5,0.1,0.9,0.2,1.4c0,0.2,0.1,0.4,0.1,0.7c0-0.1,0-0.1,0-0.1c0-1,0-2,0.1-2.9
			c0,0-0.1-0.1-0.1-0.1c-0.3-0.1-0.7-0.1-1-0.2c-0.1,0-0.1,0-0.1-0.1c-0.2-0.6-0.4-1.1-0.6-1.7c-0.1-0.3-0.2-0.5-0.1-0.8
			c0.1-0.3,0.1-0.5,0.2-0.8c0.1-0.4,0.2-0.8,0.2-1.3c0.1-0.5,0.1-1.1-0.1-1.6c-0.1-0.2,0-0.3,0-0.5c0.1-0.3,0.2-0.7,0.2-1
			c0-0.3,0.1-0.6,0.1-0.9c0-0.1,0.1-0.2,0.2-0.2c0.1,0,0.3,0,0.4,0c0.4,0,0.8-0.2,1-0.6c0.2-0.3,0.4-0.7,0.5-1
			c0-0.1,0.1-0.1,0.2-0.2c0.2-0.1,0.3-0.1,0.5-0.2c0.8-0.5,0.9-1.5,0-2c0,0-0.1,0-0.1-0.1c0.2,0,0.4,0,0.6,0c0.4,0,0.8-0.1,1.1-0.2
			c0.3-0.1,0.6-0.3,0.7-0.7c0-0.2,0-0.4,0-0.7C83.3,37.3,83.2,37.1,82.9,37z M69.7,29.7c0-0.1,0-0.2,0-0.3h0.8
			C70.3,29.5,70,29.6,69.7,29.7z M77.6,29.5c0,0.3-0.1,0.3-0.3,0.4c-0.1-0.4-0.2-0.8-0.5-1.1c0,0.2,0.1,0.3,0.1,0.5
			c0,0.2,0.1,0.4,0.1,0.5c0,0.1,0,0.1-0.1,0.2c0,0,0,0,0,0c-0.4,0-0.4,0-0.5-0.3c-0.1-0.3-0.2-0.6-0.4-0.8c0.1,0.4,0.2,0.8,0.2,1.2
			c-0.2,0-0.4,0-0.5-0.1c-0.2-0.2-0.4-0.5-0.4-0.9c0-0.1,0.1-0.3,0.2-0.4c0,0,0,0,0.1,0c0.5-0.1,1.1-0.1,1.6-0.2
			c0.1,0,0.2,0,0.2,0.1C77.5,28.9,77.6,29.2,77.6,29.5z M71.1,33.7c-0.2-0.3-0.4-0.5-0.7-0.8c0.3-0.1,0.6-0.1,0.9-0.2
			c0,0,0.1,0,0.1,0c0.1,0,0.2,0,0.2,0.1C71.7,33.3,71.5,33.5,71.1,33.7z M77.5,45.3c-0.1-0.1-0.2-0.1-0.2-0.2
			c-0.4-0.6-0.9-1-1.5-1.3c0,0-0.1,0-0.1,0c-0.1-0.1-0.1-0.2-0.2-0.2c0.1-0.1,0.2-0.2,0.3-0.2c0.3,0,0.7,0,1,0c0,0,0.1,0,0.1,0.1
			c0.2,0.2,0.5,0.4,0.7,0.6c0,0,0,0,0.1,0l0,0c-0.2-0.2-0.3-0.4-0.5-0.6h0.6C77.8,44,77.7,44.6,77.5,45.3z M79.6,42
			c0,0-0.1,0.1-0.1,0.1c-0.3,0-0.6,0-0.9,0c-0.1,0-0.1,0-0.2,0.1c0.4,0.2,0.7,0.1,1.1,0.1c-0.2,0.2-0.4,0.4-0.7,0.4
			c-0.8,0.1-1.7,0.1-2.5,0.1c0,0,0,0-0.1,0c0.3-0.3,0.5-0.6,0.9-0.7c0.5-0.1,0.9-0.3,1.4-0.5c0.1,0,0.3-0.1,0.5-0.1
			c0.3,0,0.6,0,0.9,0C79.7,41.8,79.6,41.9,79.6,42z"/>
		<path class="st0" d="M72.5,15.5c-1.3,0.3-2.3,1.1-2.9,2.3c-0.5,1.1-0.8,2.2-0.8,3.4c0,0.2,0,0.3-0.2,0.3c-0.3,0.1-0.4,0.4-0.3,0.7
			c0.1,0.3,0.5,0.4,0.8,0.3c-0.1,0-0.1-0.1-0.2-0.1c-0.3-0.2-0.4-0.5,0-0.7c0.2-0.1,0.3-0.3,0.3-0.5c0,0,0-0.1,0-0.1
			c0-0.1,0.2-0.5,0.4-0.5c0.9,0,1.8,0,2.7-0.1c0.1,0,0.3,0,0.4,0c0,0,0,0,0,0c-1.1-0.1-2.2-0.1-3.3-0.1c0-0.2,0.2-0.4,0.2-0.5
			c1,0,2-0.1,3-0.1c0,0,0-0.1,0-0.1c-1-0.1-1.9-0.1-2.9-0.1c0-0.1,0.1-0.5,0.2-0.5c0.7,0,1.5,0,2.2,0c0.1,0,0.2,0,0.3,0
			c0,0,0-0.1,0-0.1c-0.8-0.1-1.6-0.1-2.5-0.1c0-0.1,0.1-0.3,0.2-0.4c0-0.1,0.1-0.2,0.3-0.2c0.5,0,1,0,1.5-0.1c0.1,0,0.3,0,0.4,0
			c0,0,0,0,0,0c-0.6-0.1-1.3-0.1-1.9-0.1c0.1-0.1,0.1-0.3,0.2-0.4c0-0.1,0.1-0.2,0.2-0.2c0.4,0,0.9,0,1.3-0.1c0.1,0,0.1,0,0.2,0
			c0,0,0,0,0-0.1c-0.5,0-1-0.1-1.5-0.1c0-0.1,0.1-0.1,0.1-0.2c0.1-0.2,0.3-0.3,0.5-0.3c0.2,0,0.3,0,0.5,0c0.1,0,0.3,0,0.4-0.1
			c0,0,0,0,0-0.1c-0.3,0-0.6-0.1-1-0.1c0.1-0.1,0.2-0.2,0.3-0.3c0.2-0.2,0.4-0.3,0.6-0.2c0.2,0,0.3,0,0.5,0c0,0,0,0,0-0.1
			c-0.2,0-0.4,0-0.6-0.1c0,0,0,0,0,0l0.9-0.4C72.7,15.5,72.6,15.5,72.5,15.5z"/>
		<path class="st0" d="M77.7,10.6c-0.3-0.1-0.5-0.1-0.8-0.1c-1.1-0.1-2.1-0.1-3.2,0c-0.5,0.1-0.8,0.3-0.9,0.9c0,0.2,0,0.4,0,0.6
			c0,1.1,0.1,2.2,0.2,3.3c0,0,0,0.1,0,0.1l0,0c0-0.1,0-0.3,0-0.4c0-0.1,0-0.2,0.2-0.2c0.4,0,0.9,0,1.3-0.1c0.1,0,0.1,0,0.2,0
			c0,0,0,0,0-0.1c-0.5,0-1.1,0-1.6-0.1c0-0.1,0-0.2,0-0.3c0-0.1,0-0.2,0.2-0.2c0.5,0,1,0,1.5-0.1c0.1,0,0.1,0,0.2,0c0,0,0,0,0-0.1
			c-0.6,0-1.2,0-1.9-0.1v-0.5c0.7,0,1.5,0,2.2-0.1c-0.1,0-0.1,0-0.2,0c-0.5,0-1.1,0-1.6,0c-0.4,0-0.4,0-0.3-0.3c0-0.1,0-0.2,0.2-0.2
			c0.5,0,1,0,1.5,0c0.2,0,0.5,0,0.7-0.1c0,0,0,0,0-0.1c-0.8-0.1-1.6-0.1-2.4,0c0-0.2,0-0.3,0-0.5c0.9,0,1.8,0,2.8-0.1
			c-0.9-0.1-1.8-0.1-2.7-0.1c0.1-0.4,0.2-0.7,0.7-0.8c0.5,0,1.1-0.1,1.6-0.1c0.6,0,1.2,0,1.8,0.2c0.3,0.1,0.5,0.2,0.5,0.5
			c0,0.1,0,0.2,0,0.3c0,1.1,0,2.1,0,3.2c0,0.3,0,0.3,0.3,0.4c0,0,0-0.1,0-0.1c0-1.2,0.1-2.5,0.1-3.7C78.4,11,78.1,10.7,77.7,10.6z"
			/>
		<path class="st0" d="M82.8,21.5c-0.1,0-0.2-0.1-0.2-0.2c0-1-0.2-1.9-0.5-2.8c-0.6-1.5-1.5-2.5-3.1-2.9c-0.1,0-0.3-0.1-0.5-0.1
			c0,0.1,0,0.1,0.1,0.1c1,0.4,1.7,1,2.3,1.8c0.8,1.2,1.2,2.5,1.4,4c0,0.2,0,0.4,0.3,0.5c0,0,0.1,0,0.1,0.1c0.2,0.2,0.2,0.4,0,0.6
			c-0.1,0.1-0.2,0.1-0.3,0.1c0.3,0.1,0.7-0.1,0.8-0.4C83.2,21.9,83.1,21.6,82.8,21.5z"/>
		<path class="st0" d="M82,22.6H69.4C73.6,23.1,77.8,23.1,82,22.6z"/>
		<path class="st0" d="M81.9,21.8L81.9,21.8c-4.1-0.4-8.2-0.4-12.3,0H81.9z"/>
		<path class="st0" d="M73.6,23.6c0.5,0.2,8,0.2,8.7,0C79.3,23.5,76.4,23.5,73.6,23.6z"/>
		<path class="st0" d="M82.1,24.7C82.1,24.6,82.1,24.6,82.1,24.7c-2.8-0.2-5.6-0.2-8.5-0.1c0,0,0,0,0,0.1c0.1,0,0.3,0,0.4,0
			c1.3,0,2.6,0.1,3.9,0.1c1.3,0,2.6-0.1,3.8-0.1C81.9,24.7,82,24.7,82.1,24.7z"/>
		<path class="st0" d="M75.8,51.5c0.1-0.8-0.8-5.5-1.2-6C74.7,47.5,75.1,49.5,75.8,51.5z"/>
		<path class="st0" d="M74.2,25.7c2.5,0.2,5,0.2,7.5,0C79.1,25.5,76.7,25.5,74.2,25.7z"/>
		<path class="st0" d="M81.4,26.6c-2.3-0.1-4.6-0.1-7,0v0.1C76.7,26.9,79,26.8,81.4,26.6C81.4,26.7,81.4,26.6,81.4,26.6z"/>
		<path class="st0" d="M76.9,51.2c-0.2-2.1-0.6-4.1-1.2-6.1C75.5,45.7,76.5,50.7,76.9,51.2z"/>
		<path class="st0" d="M81.2,27.6c-2.2-0.2-4.3-0.1-6.5,0C75.2,27.9,80.7,27.9,81.2,27.6z"/>
		<path class="st0" d="M73.7,46.1c0.2,1.8,0.5,3.5,1.1,5.2C74.6,49.6,74.3,47.8,73.7,46.1C73.7,46.1,73.7,46.1,73.7,46.1z"/>
		<path class="st0" d="M73.4,15.4h4.5C76.4,14.9,74.9,15,73.4,15.4z"/>
		<path class="st0" d="M80.3,32.5c-0.6-0.2-4.5-0.2-4.8,0C76.2,32.7,80,32.7,80.3,32.5z"/>
		<path class="st0" d="M80.8,20.6c-1.9-0.2-3.7-0.2-5.6,0C77.1,20.8,78.9,20.8,80.8,20.6z"/>
		<path class="st0" d="M75.4,19.8c1.7,0.2,3.5,0.2,5.2,0C78.9,19.7,77.1,19.7,75.4,19.8z"/>
		<path class="st0" d="M77.1,56.1c-0.6-1.2-1.2-2.4-1.7-3.6c-0.1-0.1-0.2-0.2-0.4-0.1c0.2,0.5,1.9,3.5,2.2,3.8
			C77.1,56.2,77.1,56.1,77.1,56.1z"/>
		<path class="st0" d="M75.8,19.1c0.3,0.2,4.3,0.2,4.6,0C79.8,18.9,76.1,18.9,75.8,19.1z"/>
		<path class="st0" d="M75.8,18.3c1.5,0.1,2.9,0.2,4.4,0C78.7,18.2,77.3,18.1,75.8,18.3z"/>
		<path class="st0" d="M82.7,37.7c0-0.2-0.1-0.3-0.1-0.4c0,0,0,0,0,0c0,0.3,0,0.6-0.1,0.9c-0.1-0.1-0.3-0.1-0.4-0.1
			c0,0-0.1-0.1-0.1-0.1c0-0.2,0-0.4,0-0.6c0-0.1,0-0.2-0.1-0.3c0,0,0,0,0,0c0,0.3,0,0.5-0.1,0.8c0,0,0,0,0,0
			c-0.2-0.2-0.3-0.3-0.3-0.6c0-0.1,0-0.2,0-0.3c0-0.1-0.1-0.1-0.1-0.2c0,0.1-0.1,0.1-0.1,0.2c0,0.1,0,0.2,0,0.3
			c0,0.2,0.1,0.5,0.3,0.6c0.3,0.3,0.8,0.4,1.2,0.5c0,0,0.1,0,0.2,0c0,0,0,0,0.1-0.1c-0.3,0-0.3-0.2-0.3-0.3
			C82.7,37.8,82.7,37.8,82.7,37.7z"/>
		<path class="st0" d="M77.9,55.2C77.9,55.2,77.9,55.2,77.9,55.2c-0.4-0.9-0.8-1.8-1.2-2.6c-0.1-0.2-0.2-0.2-0.4-0.1
			C76.8,53.4,77.3,54.4,77.9,55.2C77.9,55.2,77.9,55.2,77.9,55.2z"/>
		<path class="st0" d="M75.4,55.2c-0.4-0.9-0.9-1.7-1.3-2.6c-0.1-0.2-0.2-0.2-0.4-0.1c0.5,1,1.1,2,1.7,3
			C75.4,55.4,75.4,55.3,75.4,55.2z"/>
		<path class="st0" d="M75.9,17.6c1.1,0.1,2.2,0.1,3.4,0C78.1,17.4,77,17.4,75.9,17.6z"/>
		<path class="st0" d="M72.7,47.3c0.1,1,0.2,2,0.6,2.9C73.5,49.7,73,47.5,72.7,47.3z"/>
		<path class="st0" d="M80.4,39.8c0-0.1-0.1-0.2-0.1-0.3c0,0,0,0,0,0c0,0.2,0,0.4-0.1,0.6c0,0,0,0-0.1,0C80,40,80,39.9,79.9,39.8
			c-0.1-0.1-0.1-0.3-0.2-0.5c0-0.1-0.1-0.1-0.1-0.2c0,0,0,0,0,0c0.1,0.3,0.1,0.5,0.2,0.8c0,0.1,0.1,0.2,0.2,0.2
			c0.3,0.2,0.6,0.3,1,0.4c0.1,0,0.1,0,0.2,0C81,40.5,81,40.5,81,40.5c-0.2,0-0.2-0.2-0.2-0.3c0-0.1-0.1-0.3-0.1-0.4c0,0,0,0,0,0
			c0,0.2,0,0.4-0.1,0.6c-0.2,0-0.3-0.1-0.2-0.3C80.4,40,80.4,39.9,80.4,39.8z"/>
		<path class="st0" d="M75.9,16.8c0.4,0.1,2.6,0.1,2.9,0C77.8,16.6,76.9,16.6,75.9,16.8z"/>
		<path class="st0" d="M76.8,45.6c-0.1,0.4,0.2,1.9,0.4,2.2C77.2,47,77.1,46.3,76.8,45.6z"/>
		<path class="st0" d="M77.7,16c-0.6-0.1-1.3-0.1-1.9,0C76.5,16.1,77.1,16.1,77.7,16z"/>
	</g>
</g>
</svg>
