<?xml version="1.0" encoding="utf-8"?>
<!-- Generator: Adobe Illustrator 25.4.8, SVG Export Plug-In . SVG Version: 6.00 Build 0)  -->
<svg version="1.1" id="圖層_1" xmlns="http://www.w3.org/2000/svg" xmlns:xlink="http://www.w3.org/1999/xlink" x="0px" y="0px"
	 viewBox="0 0 149.6 100" style="enable-background:new 0 0 149.6 100;" xml:space="preserve">
<style type="text/css">
	.st0{fill:#FFFFFF;}
</style>
<g>
	<path class="st0" d="M58.1,24.6c-0.6,0.1-1.3,0.2-2.5,0.5c-1.1,0.3-1.4,1.5-1.4,2.1c0,0.3,0.1,1.2,0.1,3.9c0,2.6,0.6,4.3,1.2,7.1
		c0.6,2.8,2.6,4.4,4.2,4.8c1.1,0.3,0.2,1.6,0.2,1.6c-0.8,1.2-1.2,3.2-1.2,3.6c0,0.4-0.1,1-0.1,1c-0.7,1.7-0.8,4.7-0.5,5.6
		c0.3,0.9,0.2,1.1,0.2,1.1c-0.5,1.5-0.4,2.8-0.3,4.1c0.1,1.3,0.7,3.1,0.8,3.5c0.1,0.4-0.4,1.2-0.7,1.4c-0.3,0.2-1.3,0.1-1.2,1.6
		c0.1,1.4,1.5,1.3,1.5,1.3s2.1,0.1,3.6,0.2c1.5,0,5.5,0.1,6.7,0.2c1.1,0.1,3.2,0.1,3.2,0.1c0.9-0.3,0.8-3.8,0.5-4.5
		c-0.2-0.8-0.5-0.3-1.2-0.9c-0.6-0.6,0.1-2.3,0.3-3.5c0.2-1.2,0.3-2.4,0.2-3.4c-0.1-1-0.6-2.2-0.6-3.1c0-0.8,0.1-0.6,0-2.4
		c-0.1-1.7-1.7-5.1-2.1-6.2c-0.4-1.1,0.5-1.6,1.8-2.7c1.3-1.1,1-2.1,1.3-4.1c0.3-2,0.3-5,0.3-7.2c0-2.2,0-3.5-0.4-4.6
		c-0.4-1.2-1.8-1.4-2.9-1.8c-1.1-0.4-2.5-0.4-2.7-0.7c-0.3-0.8,0.8-1.1,1.2-2.2c0.5-1.6-0.1-2.6-0.3-3c-0.3-0.5-0.6-1.6,0.1-2.4
		c0.8-0.8,3.9-1.3,5-1.4c1.1-0.1,1.6,0.1,1.9,0.1c0.9,0,2.1-1.8,2.1-1.8c0.3-0.4-0.5,1.9,0.2,1.9c0.3,0,1.2,0.2,1.7,0.7
		c0.5,0.6,0,1.7-0.5,2.9c-0.5,1.2,0.1,2.5,0.3,2.9c0.2,0.4,1.9,1.9-0.8,2.1c-1.2,0.1-2.2,0.8-2.6,1.1c-0.5,0.4-1.1,1.3-1.1,3.2
		c-0.1,1.9,0.3,8.3,0.7,9.4c0.2,0.8,0.2,1.6,0.8,3.2c0.6,1.6,1.8,2.1,2.8,2.7c1,0.6-0.5,3.5-0.9,4.8c-0.5,1.3-1,2.4-0.6,3.7
		c0.4,1.3,0.3,1.8,0,2.8c-0.3,1-0.8,3-0.3,5.1c0.5,2.1,0.5,2.1,0.6,3.1c0.1,1-0.9,1.1-1.7,1.2c-0.8,0.1-0.9,1.1-0.8,3
		C74.3,68.2,75,68,75,68s4,0.2,5.2,0.2c1.1,0.1,3.9-0.1,3.9-0.1s4.2,0,5.8,0c1.6,0,1.6-1.3,1.4-2.2c-0.1-0.9-1.1-1.2-1.9-1.7
		c-0.9-0.5-0.3-1.5,0-2.5c1.2-3.8,0.2-6.5,0.2-6.5c-0.3-1,0-0.7,0.1-3.5c0.1-2.8-1.7-6.6-2.1-7.8c-0.5-1.6,0.4-2,0.4-2
		c3.3-1.2,3.5-4.6,3.7-6.5c0.2-1.9,0.2-7.5,0.2-9.5c0.1-1.9-2-2.8-2-2.8c-0.7-0.2-0.6-0.3-1.4-0.4c-2.8-0.4-2.7-0.6-2.4-1.6
		c0.6-1.4,1-2.6,0.6-4.3c-0.4-1.4-1-2.5-1.7-3.5c-1-1.5,0.5-2.9,2.3-2.5c1.1,0.2,1.4,0.1,2-0.3c0.6-0.4,1.1-1,0.9-1.2
		c-0.2-0.2-1.8-0.6-1.9-0.7c-0.2-0.6,2.1,0.2,2.1-0.4c0-0.6-0.1-1.2-0.3-1.7c-0.3-0.5-1.4-0.7-1.7-0.7c-0.4,0-1,0.2-1.6-0.5
		c-0.6-0.8-1.1-1.4-1.5-1.3c-0.4,0.1-0.6,1.4-0.7,1.6c-0.1,0.3-0.2,0.7-0.9,1.2c-0.8,0.4-1.7,0-1.7,0c-2.9-1.4-4.1-1.5-9.4-1.5
		c-5.3,0-8.7,2.3-10.1,3.3c-1.4,1-2.2,0.6-2.5,0.4c-0.5-0.3-1.3-1.4-1.3-1.4c-1.1-1.7-1-3.2-2.3-3.2c-1.6,0-1.2,3.3-0.6,5.1
		c0.5,1.7,2.8,5.1,3.3,5.6c0.4,0.5,1.8,1.3,1.1,2.5c-0.7,1.2-0.7,1.5-0.6,3.2c0.1,2,1.8,2.1,1.9,2.6C61.6,24.1,58.7,24.5,58.1,24.6z
		 M84.6,37.7l1.1-10.1c0,0,0.1-1.1,1.4-1.2c1.3-0.2,1.9,1.2,1.8,2.2c0,1.3-0.5,3.7-0.5,4.4c0,0.6-0.3,2.6-0.6,4.7
		c0,0.3-0.2,1.3-0.8,1.6c-0.7,0.4-1.6,0.6-2,0.3C84.4,39.3,84.5,38.6,84.6,37.7z M81.8,47.1c0,0,0.2-0.9,1.4-0.9
		c1.2,0.1,1.2,0.9,1.2,1.4c0,1.8,1.1,5,2.3,7.4c0.4,0.8-1.5,2.5-1.1,7c0,0.4-0.3,1.6-1.4,2.2c-1.1,0.5-2.3,0.6-3.2-0.2
		c-0.9-0.8-1.3-2.3-1-3.7c1-4.6-0.2-5.8,0.1-6.6c0.7-1.8,1.5-5,1.5-5L81.8,47.1z M79.5,27.4c0.5,2.4,0.7,3.8,0.9,5.3
		c0.2,1.9,0.5,3.8,0.6,5.7c0.1,2.1-1.7,1.5-1.7,1.5c-1.4-0.3-1.2-0.6-1.7-2c-0.7-2-1.2-7.4-1.1-9.4c0-0.8-0.1-1.8,1.4-2.1
		C79.4,26.1,79.5,27.4,79.5,27.4z M67.6,29c0,0,0.1-1.9,1.5-1.9c1.4,0,1.4,1.7,1.3,3c-0.1,1.3-0.6,7.6-0.6,7.6s-0.1,2.5-1.5,2.4
		c-1.3,0-1.9-0.1-1.8-1.8L67.6,29z M64.7,46.4c1.2-0.2,1.5,0.8,1.5,0.8c0.1,0.5,0.3,1,0.1,1.7c-0.2,1.1,0.1,2.3,1.1,4.1
		c1.4,2.7,0.2,4.2,0.3,5.2c0.1,1,0.1,1.9,0.3,3.1c0.2,1.2-0.4,2.1-0.4,2.1c-0.7,1.3-3.7,1-4.6,0.4c-1.9-1.2-1.1-4-1.1-4.7
		c0.2-2.1-1.3-3.6-0.3-5.2c1.7-2.8,1.9-5.6,1.9-6C63.5,47.4,63.4,46.6,64.7,46.4z M61.5,29.9c0.5,2.2,1.8,8.7,1.8,8.7s0.4,1-0.7,1.5
		c-1.1,0.5-2.4-0.2-2.8-1.6c-2-6.7-1.7-9.6-1.7-9.6s-0.2-1.6,1.5-1.8C60.9,27,61.3,28.8,61.5,29.9z"/>
	<path class="st0" d="M97.8,14.3c-0.2-0.2-1-0.7-1.6-0.7c-0.5,0-1.3-1.1-2.4-0.2c-0.7,0.6-0.8,1.3-0.8,1.4c-0.1,0.1-0.3,0.4-0.2,1
		c0.2,1,1.4,2.6,1.8,2.9c7.4,6.3,11.7,15.4,11.7,25.1c0,18.1-14.8,32.9-32.9,32.9c-18.1,0-32.9-14.8-32.9-32.9
		c0-9.5,4.1-18.6,11.3-24.8c0.1-0.1,0.1-0.1,0.1-0.1c0.2-0.1,1.2-0.8,1.7-1.3c1.3-1.3,1.1-2.1-0.1-3.6c-0.5-0.3-1-1-2-1
		c-0.5,0-2,0.8-2.5,1.2c-1,0.8-1.1,0.9-1.2,1c0,0.1-0.1,0.1-0.2,0.2C39.4,22.8,35,32.9,35,43.8c0,21.2,17.2,38.4,38.4,38.4
		c21.1,0,38.4-17.2,38.4-38.4C111.7,32.3,106.7,21.6,97.8,14.3z"/>
</g>
<g>
	<path class="st0" d="M13.7,88.6c-0.1,0.1-0.3,0.2-0.5,0.3v10.5c0,0.1-0.6,0.4-1,0.4h-0.2v-0.9H3.3v0.5c0,0.2-0.5,0.5-1,0.5H2.1
		V87.8l1.3,0.6h8.4l0.6-0.7L13.7,88.6z M11.9,98.5v-9.8H3.3v9.8H11.9z M7.7,95.5C7,95.8,6,96.3,4.6,96.9c-0.1,0.2-0.2,0.3-0.3,0.3
		l-0.7-1.3c0.7-0.1,2.4-0.3,4.1-0.7L7.7,95.5z M8.6,91.1c0.1,1.1,0.2,2.1,0.5,3c0.4-0.7,0.7-1.6,0.9-2.5l1.5,0.6
		c-0.1,0.1-0.2,0.3-0.5,0.2c-0.4,1.1-0.9,2-1.5,2.7c0.2,0.5,0.5,0.9,0.9,1.2c0.2,0.2,0.2,0.2,0.3,0c0.1-0.3,0.4-0.8,0.5-1.3l0.1,0
		l-0.2,1.8c0.3,0.5,0.4,0.8,0.2,1c-0.4,0.4-1.2,0-1.6-0.4c-0.4-0.4-0.8-0.9-1-1.4c-0.9,0.9-1.9,1.5-3,2l-0.1-0.2
		c1-0.6,2-1.5,2.8-2.6c-0.5-1.2-0.7-2.6-0.9-4.1H3.8l-0.1-0.4h3.9c0-0.6,0-1.2-0.1-1.8L9,89.2c0,0.2-0.2,0.3-0.5,0.3
		c0,0.4,0,0.8,0,1.2H10l0.3-0.4c-0.1,0-0.1-0.1-0.2-0.1c-0.2-0.4-0.6-0.9-0.9-1.2l0.1-0.1c1.6,0.1,1.8,0.9,1.6,1.2
		c0.2,0.2,0.6,0.5,0.8,0.7c0,0.1-0.2,0.2-0.3,0.2H8.6z M6.2,94.9v-0.4H5.2v0.4c0,0.1-0.4,0.3-0.8,0.3H4.2v-3.5l1,0.4h0.9l0.5-0.5
		l1,0.7c-0.1,0.1-0.2,0.2-0.4,0.2v2c0,0.1-0.5,0.3-0.8,0.3H6.2z M6.2,94.1v-1.6H5.2v1.6H6.2z"/>
	<path class="st0" d="M25.7,97.5c0,0,0.9,0.7,1.6,1.2c0,0.1-0.2,0.2-0.4,0.2h-12l-0.1-0.4h6.8c0.7-2.1,1.5-5,1.9-7l2,0.5
		c-0.1,0.2-0.2,0.3-0.5,0.3c-0.6,1.7-1.7,4.2-2.9,6.2h3L25.7,97.5z M15.4,90.8l-0.1-0.4h9.1l0.8-1c0,0,0.9,0.7,1.5,1.2
		c0,0.1-0.2,0.2-0.4,0.2H15.4z M17.3,91.7c3.7,3.6,2.7,7.3,1.3,5.9c0-1.8-0.8-4.1-1.5-5.8L17.3,91.7z M19.5,87.5
		c3.5,1,2.5,3.5,1.2,2.6c-0.2-0.8-0.8-1.9-1.3-2.5L19.5,87.5z"/>
	<path class="st0" d="M36.1,89.4c5,1.6,4.3,4.8,2.8,3.9c-0.1-0.5-0.4-0.9-0.7-1.4c-2,0.4-5,0.8-8.5,1.2c-0.1,0.1-0.2,0.2-0.3,0.3
		l-0.5-1.5c0,0,0.3-0.1,0.5-0.1c1.5-0.8,3.5-3.1,4.2-4.4l1.8,0.8c-0.1,0.1-0.2,0.3-0.5,0.2c-1,1.1-2.9,2.6-4.6,3.5
		c1.8,0,4.7-0.1,7.8-0.3c-0.6-0.8-1.4-1.6-2-2.1L36.1,89.4z M37.7,93.6l1.4,1.1C39,94.8,38.8,95,38.5,95v4.4c0,0.1-0.7,0.3-1.1,0.3
		h-0.2v-1.1h-5.6v0.7c0,0.1-0.6,0.4-1.1,0.4h-0.2v-6l1.4,0.6H37L37.7,93.6z M37.2,98.3v-3.5h-5.6v3.5H37.2z"/>
	<path class="st0" d="M41.5,90.7c3,0.5,2,2.7,0.9,1.9c-0.1-0.6-0.6-1.3-1-1.8L41.5,90.7z M44.4,90.7c-0.3,1.4-0.9,4-1,4.6
		c-0.1,0.4-0.1,0.8-0.1,1.1c0,0.7,0.5,1.3,0.4,2.4c0,0.6-0.4,1-0.9,1c-0.3,0-0.5-0.2-0.5-0.7c0.2-1.4,0.1-2.6-0.1-2.8
		c-0.2-0.1-0.4-0.2-0.6-0.2v-0.3H42c0.2,0,0.2,0,0.3-0.3c0.2-0.5,0.2-0.5,1.8-5L44.4,90.7z M42.2,87.6c3.1,0.6,2.1,2.8,1,2
		c-0.1-0.7-0.6-1.4-1.1-1.9L42.2,87.6z M44.2,89.8c0,0,0.2-0.1,0.3-0.1c0.5-0.4,1.1-1.7,1.3-2.3l1.2,0.6c-0.1,0.1-0.2,0.2-0.5,0.2
		c-0.4,0.5-1,1.2-1.6,1.7c0.3,0,0.7,0,1.1,0c0.2-0.3,0.4-0.7,0.5-0.9l1.1,0.7c-0.1,0.1-0.2,0.2-0.5,0.2c-0.5,0.6-1.2,1.4-1.9,2
		c0.4,0,0.9-0.1,1.5-0.1c-0.1-0.3-0.2-0.6-0.3-0.8l0.2-0.1c1.7,1,0.9,2.2,0.3,1.6c0-0.1,0-0.3,0-0.4c-0.5,0.2-1.2,0.4-1.8,0.6
		c-0.1,0.1-0.2,0.2-0.3,0.2l-0.4-1c0,0,0.2,0,0.3-0.1c0.4-0.3,0.8-0.8,1.1-1.3c-0.2,0.1-0.5,0.2-0.7,0.3c-0.1,0.1-0.2,0.2-0.3,0.3
		L44.2,89.8z M45.1,92.8c0.8,2.7-1.5,2.2-0.7,1.2c0.3-0.2,0.5-0.7,0.5-1.2H45.1z M52.6,96.7l1.2,1c-0.1,0.1-0.3,0.2-0.5,0.2
		c-0.2,0.9-0.5,1.5-1,1.8c-0.3,0.2-0.9,0.3-1.5,0.3c0-0.3,0-0.6-0.3-0.7c-0.2-0.2-0.7-0.3-1.2-0.4v-0.2c0.5,0.1,1.4,0.1,1.7,0.1
		c0.2,0,0.3,0,0.4-0.1c0.2-0.1,0.3-0.5,0.4-1h-5.6L46,98.2l-1.2-0.8c0.1-0.1,0.3-0.2,0.5-0.3c0.2-0.5,0.4-1.3,0.5-1.7l1.4,0.6h4.6
		v-1h-6.5l-0.1-0.4h6.5l0.3-0.3c-0.1,0-0.1-0.1-0.2-0.2c0.1-0.5,0.1-1.1,0-1.6l0.2,0c0.7,0.7,0.7,1.4,0.5,1.7l1,0.8
		c-0.1,0.1-0.2,0.2-0.5,0.2v1.2c0,0.1-0.6,0.3-1,0.3h-0.2v-0.3h-5c-0.1,0.3-0.2,0.6-0.3,0.9H52L52.6,96.7z M45.9,92.7
		c1.3,1.2,0.3,2.3-0.2,1.7c0.1-0.5,0.1-1.2,0-1.6L45.9,92.7z M46.6,92.5c1.5,1,0.8,2.2,0.2,1.6c0-0.5-0.2-1.1-0.4-1.6L46.6,92.5z
		 M47.3,89.3l-0.1-0.4h2.2l0.5-0.6c0,0,0.5,0.4,0.9,0.8c0,0.1-0.2,0.2-0.3,0.2H47.3z M50.3,89.8c0,0,0.2,0,0.3-0.1
		c0.5-0.4,1.2-1.6,1.4-2.2l1.2,0.6c-0.1,0.1-0.2,0.2-0.5,0.2c-0.4,0.5-1,1.1-1.6,1.6c0.3,0,0.7,0,1.1,0c0.2-0.3,0.4-0.6,0.5-0.9
		l1.1,0.7c-0.1,0.1-0.2,0.2-0.5,0.1c-0.5,0.6-1.3,1.4-2,1.9c0.5,0,1-0.1,1.6-0.1c-0.1-0.3-0.2-0.6-0.4-0.8l0.2-0.1
		c1.8,0.9,1,2.2,0.4,1.6c0-0.2,0-0.3-0.1-0.5c-0.5,0.2-1.2,0.4-2,0.7c-0.1,0.1-0.1,0.2-0.2,0.2l-0.4-1c0,0,0.2-0.1,0.3-0.1
		c0.4-0.3,0.9-0.8,1.2-1.4c-0.3,0.1-0.6,0.2-0.9,0.3c-0.1,0.1-0.2,0.3-0.3,0.3l-0.3-0.8c0,0.1-0.2,0.2-0.3,0.2h-2.4l-0.1-0.4h1.6
		l0.4-0.5c0,0,0.5,0.4,0.8,0.7L50.3,89.8z M49.6,90.4c0,0,0.5,0.4,0.8,0.7c0,0.1-0.1,0.2-0.3,0.2h-2.4l-0.1-0.4h1.6L49.6,90.4z
		 M49.4,94.3v-0.4h-0.9v0.3c0,0.1-0.3,0.3-0.6,0.3h-0.1v-2.8l0.9,0.4h0.7l0.4-0.4l0.8,0.6c0,0.1-0.2,0.1-0.3,0.2v1.6
		c0,0.1-0.4,0.3-0.7,0.3H49.4z M48,87.4c2,0.5,1.1,1.9,0.4,1.3c0-0.4-0.3-0.9-0.5-1.2L48,87.4z M49.4,93.5v-1.1h-0.9v1.1H49.4z
		 M51.2,92.7c0.8,2.6-1.5,2.1-0.7,1.1c0.3-0.2,0.5-0.6,0.5-1.1L51.2,92.7z M52.7,92.4c1.6,1,0.8,2.2,0.2,1.6c0-0.5-0.2-1.1-0.4-1.6
		L52.7,92.4z"/>
	<path class="st0" d="M61.7,93.8c-0.1,1.3-0.4,2.4-1.1,3.3c1.8,0.9,4.1,1.3,6.7,1.4v0.2c-0.6,0.1-0.9,0.6-1.1,1.2
		c-2.6-0.3-4.7-0.9-6.2-2.1c-1.1,1-2.7,1.7-5.1,2.1l-0.1-0.2c2.2-0.6,3.6-1.5,4.4-2.6c-0.6-0.6-1.1-1.4-1.5-2.4l0.2-0.1
		c0.4,0.8,1,1.4,1.7,2c0.5-0.8,0.7-1.7,0.7-2.8h-2.9v0.7c0,0.1-0.5,0.4-1.1,0.4h-0.2v-5.5l1.4,0.6h2.8v-2.4l1.8,0.2
		c0,0.2-0.1,0.3-0.5,0.4v1.8h2.8l0.6-0.7l1.3,1c-0.1,0.1-0.3,0.2-0.6,0.3v3.9c0,0.1-0.6,0.4-1.1,0.4h-0.2v-1H61.7z M60.5,93.4v-0.1
		v-3h-2.9v3.1H60.5z M61.8,90.3v3v0.1h2.9v-3.1H61.8z"/>
	<path class="st0" d="M79.2,89c0,0,0.9,0.7,1.5,1.2c0,0.1-0.2,0.2-0.4,0.2h-12L68.2,90h7.1c0.4-0.8,0.9-1.8,1.1-2.6l1.9,0.5
		c-0.1,0.2-0.2,0.3-0.5,0.3c-0.5,0.5-1.3,1.3-2,1.8h2.6L79.2,89z M73.3,91.1l1.3,1c-0.1,0.1-0.3,0.2-0.6,0.3v6
		c0,0.9-0.2,1.3-1.5,1.5c0-0.4-0.1-0.6-0.2-0.8c-0.1-0.2-0.4-0.3-0.8-0.4v-0.2c0,0,0.9,0.1,1.1,0.1c0.2,0,0.2-0.1,0.2-0.3v-1.9h-2.2
		c-0.1,1.3-0.5,2.7-1.9,3.7l-0.1-0.1c0.9-1.3,0.9-3.1,0.9-4.8v-3.8l1.4,0.5h1.8L73.3,91.1z M72.8,95.9v-1.8h-2.1v0.9
		c0,0.3,0,0.6,0,0.9H72.8z M70.7,92.2v1.6h2.1v-1.6H70.7z M71.1,87.5c3.4,0.5,2.3,3.1,1.1,2.2C72,89,71.5,88.1,71,87.6L71.1,87.5z
		 M76.6,97.2c0,0.1-0.5,0.3-0.9,0.3h-0.2v-5.9l1.7,0.2c0,0.2-0.1,0.3-0.5,0.4V97.2z M78,91.2l1.7,0.2c0,0.2-0.2,0.3-0.5,0.4v6.6
		c0,0.9-0.2,1.4-1.7,1.5c0-0.3-0.1-0.6-0.3-0.8c-0.2-0.2-0.5-0.3-1.2-0.4v-0.2c0,0,1.4,0.1,1.7,0.1c0.2,0,0.3-0.1,0.3-0.3V91.2z"/>
	<path class="st0" d="M91.7,90.8c-0.5,2.2-1.5,4.1-3,5.6c1.5,1.1,3.4,1.8,5.4,2.2l0,0.2c-0.6,0.1-1.1,0.5-1.4,1.1
		c-1.9-0.6-3.5-1.5-4.9-2.7c-1.6,1.2-3.6,2.1-6.2,2.7l-0.1-0.2c2.4-0.8,4.2-1.9,5.6-3.2c-1.3-1.4-2.2-3.3-2.7-5.7h-2.7l-0.1-0.4h9.9
		l0.8-1.1c0,0,0.9,0.7,1.5,1.3c0,0.1-0.2,0.2-0.4,0.2H91.7z M84.7,90.8c0.6,2.1,1.7,3.7,3.1,4.9c1.2-1.4,1.9-3.1,2.3-4.9H84.7z
		 M86.5,87.5c3.8,0.7,2.8,3.4,1.4,2.5c-0.2-0.8-0.9-1.8-1.6-2.4L86.5,87.5z"/>
	<path class="st0" d="M94.9,94.6c1.3-1.7,2.6-4.4,3.3-7.2l1.9,0.6c-0.1,0.2-0.2,0.3-0.5,0.3c-0.4,1-0.9,2-1.4,2.8l0.6,0.2
		c0,0.1-0.2,0.2-0.4,0.3v7.8c0,0.1-0.5,0.4-1,0.4H97v-7.1c-0.6,0.8-1.3,1.4-2,2L94.9,94.6z M107,98.2c0.4,0.2,0.5,0.3,0.5,0.5
		c0,0.6-0.6,0.8-3.3,0.8h-1.7c-1.4,0-1.9-0.3-1.9-1.4V87.7l1.7,0.2c0,0.2-0.1,0.3-0.5,0.4v3.9h3.3l0.7-0.9c0,0,0.8,0.7,1.3,1.1
		c0,0.1-0.2,0.2-0.4,0.2h-4.9v5.2c0,0.4,0.2,0.5,0.9,0.5h1.6c0.7,0,1.2,0,1.5,0c0.2,0,0.3-0.1,0.4-0.2c0.1-0.2,0.4-0.9,0.6-1.8h0.2
		L107,98.2z"/>
	<path class="st0" d="M111,91.7v7.7c0,0.2-0.5,0.5-1,0.5h-0.3v-8.2h-1.4l-0.1-0.4h1.6v-3.8l1.7,0.2c0,0.2-0.1,0.3-0.5,0.4v3.3h0.2
		l0.6-0.9c0,0,0.7,0.6,1.1,1c0,0.1-0.2,0.2-0.3,0.2H111z M119.8,95.3c0,0,0.7,0.5,1.1,0.9c0,0.1-0.2,0.2-0.3,0.2h-2.1v2.1
		c0,0.8-0.2,1.2-1.5,1.4c0-0.3-0.1-0.5-0.2-0.7c-0.2-0.1-0.4-0.3-0.9-0.3v-0.2c0,0,1.1,0.1,1.3,0.1c0.2,0,0.2-0.1,0.2-0.2v-2.1h-5.1
		l-0.1-0.4h5.2v-0.9l1.6,0.2c0,0.2-0.2,0.3-0.5,0.3v0.4h0.8L119.8,95.3z M112.4,89.2h3.4v-1.7l1.5,0.2c0,0.2-0.1,0.3-0.4,0.3v1.2
		h2.2l0.6-0.8c0,0,0.7,0.5,1.2,1c0,0.1-0.2,0.2-0.3,0.2h-3.6v1h1.5l0.5-0.6l1.2,0.9c-0.1,0.1-0.3,0.2-0.5,0.3v3c0,0.7-0.2,1-1.3,1.1
		c0-0.2,0-0.4-0.1-0.5c-0.1-0.1-0.3-0.2-0.7-0.3v-0.2c0,0,0.6,0.1,0.8,0.1c0.2,0,0.2-0.1,0.2-0.2v-0.4h-1.6v1.1
		c0,0.1-0.5,0.3-0.9,0.3h-0.2v-1.4h-1.6V95c0,0.1-0.5,0.3-0.9,0.3H113V90l1.2,0.5h1.6v-1h-3.3L112.4,89.2z M113.4,96.7
		c3.3,0.3,2.6,2.5,1.4,1.9c-0.2-0.6-0.9-1.4-1.5-1.8L113.4,96.7z M114.2,90.9v1h1.6v-1H114.2z M115.8,93.2v-1h-1.6v1H115.8z
		 M116.9,90.9v1h1.6v-1H116.9z M118.5,93.2v-1h-1.6v1H118.5z M117.4,87.5c2.6-0.1,1.9,1.8,0.9,1.2c-0.1-0.4-0.6-0.9-1-1.1
		L117.4,87.5z"/>
	<path class="st0" d="M134.3,90.4c-0.1,0.1-0.3,0.2-0.6,0.2c-0.2,4.8-0.6,7.6-1.4,8.4c-0.5,0.5-1,0.7-1.9,0.7c0-0.4-0.1-0.7-0.3-0.9
		c-0.2-0.2-0.8-0.4-1.4-0.5l0-0.2c0.7,0.1,1.7,0.1,2,0.1c0.3,0,0.4,0,0.6-0.2c0.6-0.5,0.9-3.4,1.1-7.6H132c-0.6,3.5-2.2,6.6-5.4,8.6
		l-0.1-0.1c2.6-2.2,3.9-5.3,4.3-8.5h-0.6c-0.7,2.4-2.1,4.6-4.2,6l-0.1-0.2c1.6-1.6,2.7-3.7,3.1-5.9h-0.7c-0.6,1-1.4,1.9-2.3,2.5
		l-0.2-0.1c0.4-0.5,0.8-1.1,1.1-1.9h0h-1.6v2.8c0.6-0.2,1.2-0.4,1.8-0.5l0.1,0.2c-0.5,0.3-1.1,0.7-1.9,1.1v5c0,0.1-0.5,0.4-1,0.4
		H124v-4.7c-0.4,0.2-0.9,0.5-1.4,0.7c-0.1,0.2-0.2,0.3-0.3,0.3l-0.6-1.5c0.5-0.1,1.3-0.3,2.3-0.6V91h-1c-0.3,0.8-0.7,1.6-1.1,2.2
		l-0.2-0.1c0.4-1.3,0.7-3,0.7-4.7l1.6,0.3v-1.2l1.7,0.2c0,0.2-0.1,0.3-0.5,0.4v2.6h0.2l0.6-0.9c0,0,0.5,0.5,1,0.9
		c0.4-0.9,0.7-2,0.9-3.1l1.7,0.5c-0.1,0.2-0.2,0.3-0.5,0.3c-0.2,0.7-0.5,1.3-0.8,1.9h4l0.7-0.7L134.3,90.4z M124,90.6v-1.8
		c-0.1,0.1-0.2,0.2-0.4,0.2c-0.1,0.5-0.3,1.1-0.4,1.6H124z"/>
	<path class="st0" d="M138.4,96.2c3.1,1.2,2.1,3.5,1,2.6c-0.1-0.4-0.2-0.8-0.4-1.2c-0.6,0.5-1.5,1.1-2.5,1.8
		c-0.1,0.2-0.2,0.3-0.4,0.4l-0.7-1.3c0.4-0.2,0.5-0.3,0.5-0.6v-6.4c-0.3,0.3-0.6,0.5-0.9,0.8l-0.1-0.1c0.9-1.3,1.7-3.4,2-4.8
		l1.9,0.4c0,0.2-0.2,0.3-0.5,0.3v0c3.4,1.1,2,3.1,1.2,2.3c-0.2-0.6-0.6-1.4-1.3-2.1c-0.3,0.7-0.9,1.5-1.5,2.3h1.3l0.6-0.7
		c0,0,0.7,0.5,1.1,0.9c0,0.1-0.2,0.2-0.3,0.2h-2.7l-0.1-0.2c-0.2,0.3-0.4,0.5-0.7,0.7l1.2,0.5h1.6l0.5-0.6l1.1,0.9
		c-0.1,0.1-0.2,0.2-0.4,0.2v3c0,0.1-0.6,0.3-0.9,0.3h-0.2v-0.4h-1.8V98c0.5-0.2,1.2-0.4,1.8-0.7c-0.2-0.4-0.4-0.8-0.6-1.1
		L138.4,96.2z M137.1,93.5h1.8v-1.1h-1.8V93.5z M138.9,95.1v-1.2h-1.8v1.2H138.9z M145.8,91c0-0.3,0.1-0.8,0.1-1.2h-4.2
		c0,0.5-0.1,0.9-0.3,1.1l1.1,0.5h2.5l0.6-0.6l1.2,0.9c-0.1,0.1-0.3,0.2-0.5,0.2v2.5c0,0.1-0.6,0.3-0.9,0.3h-0.2v-0.5h-2.7v1.5h2.9
		l0.6-0.6l1.2,0.9c-0.1,0.1-0.3,0.2-0.5,0.3v3.1c0,0.1-0.6,0.3-0.9,0.3h-0.2v-0.9h-3.1v0.7c0,0.1-0.5,0.4-1,0.4h-0.2V91l0,0
		c-0.3,0.2-0.8,0.2-0.9-0.2c-0.1-0.3,0.1-0.7,0.4-0.8c0.3-0.2,0.5-0.8,0.5-1.2h0.2c0.1,0.2,0.1,0.4,0.2,0.6h4.2l0.7-0.7l1.2,1.1
		c-0.1,0.1-0.2,0.1-0.5,0.1c-0.3,0.3-0.9,0.8-1.2,1.1L145.8,91z M142.4,91.8v2h2.7v-2H142.4z M142.4,96v2.4h3.1V96H142.4z
		 M142.8,87.4c3,0.4,1.8,2.6,0.6,1.7c0-0.6-0.4-1.3-0.8-1.7L142.8,87.4z"/>
</g>
</svg>
