<?xml version="1.0" encoding="utf-8"?>
<!-- Generator: Adobe Illustrator 25.4.8, SVG Export Plug-In . SVG Version: 6.00 Build 0)  -->
<svg version="1.1" id="圖層_1" xmlns="http://www.w3.org/2000/svg" xmlns:xlink="http://www.w3.org/1999/xlink" x="0px" y="0px"
	 viewBox="0 0 149.6 100" style="enable-background:new 0 0 149.6 100;" xml:space="preserve">
<style type="text/css">
	.st0{fill:#FFFFFF;}
</style>
<g>
	<path class="st0" d="M29.2,50.3l-12.1,2.1l-0.3,1.9l-5.6,1L13.8,40l17.7-3.1L29.2,50.3z M35.7,22.6l-21.7,3.8l0.7-4.2l9.7-1.7
		c-0.5-1.5-1.6-3.5-2.6-4.9l5.5-2.8c1.3,1.5,2.6,3.7,3.2,5.1l-4.1,2.3l10.1-1.8L35.7,22.6z M31.6,34.9l-17.3,3l0.7-4l17.3-3
		L31.6,34.9z M61.5,44.3l-21.9,3.8L39.1,51l-6,1.1l4-22.3c-0.7,0.8-1.5,1.6-2.3,2.3c-0.3-1.3-1.1-3.4-1.9-4.5l-0.3,1.4l-17.3,3
		l0.7-4l17.3-3l-0.4,2.4c4.8-4.7,9.3-12,11.9-17.3l6.1,0.3c-1.2,2.2-2.5,4.5-4.1,6.8l6.6-1.2c-0.5-1.6-1.5-3.6-2.3-5.2L57,8
		c1.1,1.7,2.2,4,2.8,5.5l-4.4,2.3l10.8-1.9l-0.8,4.7l-8.7,1.5L56,23.9l7.6-1.3l-0.8,4.7l-7.6,1.3l-0.7,3.7l7.7-1.3l-0.8,4.7L53.7,37
		L53,41l9.5-1.7L61.5,44.3z M18.7,43.2l-0.9,5l6.3-1.1l0.9-5L18.7,43.2z M40.5,43.2l6.5-1.1l0.7-4l-6.5,1.1L40.5,43.2z M49.2,29.6
		l-6.5,1.1l-0.7,3.7l6.5-1.1L49.2,29.6z M50.7,21.1l-6.5,1.1l-0.7,3.8L50,25L50.7,21.1z"/>
	<path class="st0" d="M114.4,23c-1.3-1.1-3.9-2.5-6.3-3.9c-1.4,1.7-2.9,3.2-4.4,4.5c-0.8-0.5-2.5-1.1-4-1.5
		c4.1,4.3,11.3,7.6,19.3,8.6c-1.8,1.4-4.4,4-5.8,5.7c-6.4-1.3-12-4.2-16.3-8l-2.3,12.9l-7,1.2l2.2-12.6c-5.9,5.5-12.9,10.5-20,14.1
		c-0.8-1.1-2.7-2.8-3.9-3.7c9.6-4.4,19.4-11.4,25.3-18.2L93,11.8l-20.5,3.6l0.9-5.2l20.5-3.6l1-5.4l7-1.2l-1,5.4l21.2-3.7l-0.9,5.2
		L100,10.6l-1.8,9.9c0.2,0.3,0.4,0.6,0.7,0.9c4-3.2,7.1-7.5,9-11.9l6.4-0.2c-0.8,1.7-1.7,3.4-2.7,5.1c2.9,1.4,6.3,3.1,8.1,4.2
		L114.4,23z M87.9,13.9c-0.9,1.7-1.8,3.5-2.9,5.1c1.8,1,3.7,2.1,4.8,2.9l-5.2,4.5c-0.7-0.7-1.9-1.6-3.2-2.4
		c-2.3,2.7-4.8,5.2-7.6,7.2c-0.9-0.7-3.2-2-4.6-2.5c5.5-3.7,9.7-8.9,12.2-14.6L87.9,13.9z"/>
	<path class="st0" d="M45.6,69.1l9-1.6L53.9,72l-5.5,1l3.3,0.1c-1.2,1.7-2.5,3.4-3.7,5l3.9-0.7L51,81.7l-7.9,1.4l-0.6,3.5l9-1.6
		l-0.8,4.4l-9,1.6l-1.4,7.9l-6.2,1.1l1.4-7.9l-9.7,1.7l0.8-4.4l9.7-1.7l0.6-3.5l-8.4,1.5l0.8-4.4l4-0.7c-0.2-1.3-0.7-2.8-1.2-4
		l3.3-1.3L29,76.3l0.8-4.4l9.7-1.7l0.5-3.1l-8.2,1.4l0.8-4.3l8.2-1.4l0.7-3.8l6.2-1.1l-0.7,3.8l7.7-1.3l-0.8,4.3l-7.7,1.3L45.6,69.1
		z M42.4,78.9c1.3-1.8,2.7-3.9,3.6-5.6l-8.6,1.5c0.7,1.3,1.3,2.9,1.4,4.1L36.1,80L42.4,78.9z M79.6,69.6c-2,5.4-4.8,10.6-8.4,15.2
		c1.9,1.6,4.2,2.7,6.9,3.4c-1.6,1.2-3.9,3.5-5.1,4.9c-2.3-0.7-4.4-1.9-6.1-3.4c-2.2,2.3-4.6,4.3-7.3,6.1c-0.5-0.6-1.3-1.3-2.2-1.9
		l-0.4,2.2l-6.1,1.1l7-39.4l23.2-4.1l-1.5,8.3c-0.4,2.3-1.3,3.6-3.6,4.7c-2.3,1.1-5.3,1.7-9.4,2.4c0-1.4-0.6-3-1.1-4.2
		c2.7-0.4,5.8-0.9,6.7-1.1c0.9-0.2,1.2-0.4,1.2-0.9l0.6-3.6l-11,1.9l-1.9,10.6l13.4-2.3l1.1-0.4L79.6,69.6z M57.7,91.6
		c2.3-1.6,4.2-3.4,6-5.4c-1.7-2.3-2.8-5.1-3.6-8.2L57.7,91.6z M65.2,75.3c0.6,2.1,1.5,4.2,2.7,5.9c1.6-2.3,3-4.7,4.1-7.1L65.2,75.3z
		"/>
	<path class="st0" d="M97.6,74.8c-0.3-1.2-0.9-3.1-1.6-4.8l-3.6,20l-5.8,1l2.8-16c-1.7,3.4-3.7,6.5-5.6,8.8
		c-0.3-1.2-1.2-2.9-1.9-3.9c3.4-3.9,7.1-10.7,9.3-16.2l-5.4,0.9l0.9-4.8l5.6-1l1.6-9.1l5.8-1l-1.6,9.1l4.3-0.8l-0.9,4.8l-4.3,0.8
		l-0.2,1.2c1,1.5,3.7,5.7,4.2,6.8L97.6,74.8z M118.5,78l-0.4,4.2c-7.4,2.2-15.2,4.5-21.1,6.3l-0.7-4.2c3.2-0.9,7.4-2,11.9-3.3
		l-0.2,0c1.4-2.3,3.1-5.7,4-8.1l5.8,0.1c-1.3,2.2-2.7,4.5-3.9,6.4L118.5,78z M101.4,82c0.1-1.6-0.2-4.2-0.7-6l5.3-1.9
		c0.5,1.8,1,4.2,1,5.8L101.4,82z M117.6,71.4l-16.8,2.9l1.9-10.4l16.8-2.9L117.6,71.4z M109.7,54.7l-6.9,1.2l0.7-4.2l6.9-1.2
		l0.7-3.8l5.7-1l-0.7,3.8l7.1-1.3l-0.7,4.2l-7.1,1.3l-0.4,2.5l6-1.1l-0.7,4.1l-17.7,3.1l0.7-4.1l6-1L109.7,54.7z M113.2,65.5l-5.7,1
		l-0.6,3.3l5.7-1L113.2,65.5z M137.7,55.9l-3.1,0.6l-3.8,21.5c-0.4,2.4-1.2,3.8-3.1,4.9c-1.8,1.1-4.3,1.7-7.8,2.4
		c0-1.3-0.5-3.3-1.1-4.5c2.1-0.3,4-0.6,4.7-0.7c0.7-0.2,1-0.4,1.1-1l1.3-7.4l-5,2.2c0.2-2.9-0.2-7.4-0.9-10.8l5-2
		c0.6,2.5,1.1,5.7,1.3,8.3l2.1-11.8l-6.9,1.2l0.8-4.7l6.9-1.2l1.7-9.4l6.1-1.1l-1.7,9.4l3.1-0.6L137.7,55.9z"/>
</g>
</svg>
