<?xml version="1.0" encoding="utf-8"?>
<!-- Generator: Adobe Illustrator 25.4.1, SVG Export Plug-In . SVG Version: 6.00 Build 0)  -->
<svg version="1.1" id="圖層_1" xmlns="http://www.w3.org/2000/svg" xmlns:xlink="http://www.w3.org/1999/xlink" x="0px" y="0px"
	 viewBox="0 0 21.6 29.8" style="enable-background:new 0 0 21.6 29.8;" xml:space="preserve">
<style type="text/css">
	.st0{fill:#FFFFFF;}
	.st1{fill:none;stroke:#FFFFFF;stroke-width:0.25;stroke-linecap:round;stroke-linejoin:round;stroke-miterlimit:10;}
</style>
<g>
	<g>
		<path class="st0" d="M6.3,26.6H1c-0.1,0-0.2,0-0.3-0.1c-0.1-0.1-0.1-0.2-0.1-0.3V16H6v1.5H2.4v3h3.4v1.5H2.4v3.2h3.9V26.6z"/>
		<path class="st0" d="M8.9,16.4l1.6,7.1l0,0.6h0.1l0-0.6l1.8-7.5h1.8l-2.8,10.7h-1.3c-0.3,0-0.5-0.1-0.5-0.4L7,16h1.3
			C8.6,16,8.8,16.1,8.9,16.4z"/>
		<path class="st0" d="M21,26.6h-5.3c-0.1,0-0.2,0-0.3-0.1c-0.1-0.1-0.1-0.2-0.1-0.3V16h5.4v1.5h-3.6v3h3.4v1.5h-3.4v3.2H21V26.6z"
			/>
	</g>
	<g>
		<polygon class="st1" points="5.8,8.4 7.9,10.2 8.2,9.6 		"/>
		<polygon class="st1" points="2.8,9.2 0.9,8.4 3,10.4 		"/>
		<polygon class="st1" points="0.9,8.4 0.7,8.3 3,10.4 		"/>
		<polygon class="st1" points="6.4,12.7 6.3,12.8 7.3,14.5 		"/>
		<polygon class="st1" points="3,10.4 0.7,8.3 4,12.4 		"/>
		<polygon class="st1" points="3.5,8.9 3,10.4 4.9,11.3 		"/>
		<polygon class="st1" points="3,10.4 4,12.4 4.9,11.3 		"/>
		<polygon class="st1" points="5.4,7.3 3.5,8.9 5.8,8.4 		"/>
		<polygon class="st1" points="9.2,8.6 9.5,9.5 10.1,7.7 		"/>
		<polygon class="st1" points="4.1,3.2 2.6,6.9 5.4,7.3 		"/>
		<polygon class="st1" points="3.5,8.9 4.9,11.3 5.8,8.4 		"/>
		<polygon class="st1" points="4.9,11.3 6.3,12.8 6.4,12.7 		"/>
		<polygon class="st1" points="4.9,11.3 4,12.4 6.3,12.8 		"/>
		<polygon class="st1" points="4,12.4 5.4,14.2 6.3,12.8 		"/>
		<polygon class="st1" points="4.1,3.2 5.4,7.3 7.5,5.3 		"/>
		<polygon class="st1" points="4.9,11.3 7.8,10.8 7.9,10.2 		"/>
		<polygon class="st1" points="9.2,8.6 9.2,9.4 9.5,9.5 		"/>
		<polygon class="st1" points="9.3,7.1 9.2,8.6 10.1,7.7 		"/>
		<polygon class="st1" points="4.9,11.3 6.4,12.7 7.8,10.8 		"/>
		<polygon class="st1" points="8.5,8.3 9.2,8.6 9.3,7.1 		"/>
		<polygon class="st1" points="5.8,8.4 4.9,11.3 7.9,10.2 		"/>
		<polygon class="st1" points="5.4,7.3 5.8,8.4 8.5,8.3 		"/>
		<polygon class="st1" points="5.8,8.4 8.2,9.6 8.5,8.3 		"/>
		<polygon class="st1" points="8.2,9.6 7.9,10.2 9.2,9.4 		"/>
		<polygon class="st1" points="8.5,8.3 8.2,9.6 9.2,9.4 		"/>
		<polygon class="st1" points="8.5,8.3 9.2,9.4 9.2,8.6 		"/>
		<polygon class="st1" points="9.2,9.4 7.9,10.2 9.5,9.5 		"/>
		<polygon class="st1" points="7.9,10.2 7.8,10.8 9.5,9.5 		"/>
		<polygon class="st1" points="6.4,12.7 7.3,14.5 9.7,13 		"/>
		<polygon class="st1" points="7.8,10.8 6.4,12.7 9.7,13 		"/>
		<polygon class="st1" points="9.5,9.5 7.8,10.8 9.7,13 		"/>
		<polygon class="st1" points="9.3,7.1 13.2,6.6 13.4,5.3 		"/>
		<polygon class="st1" points="18.4,8.5 19,11 20.3,8 		"/>
		<polygon class="st1" points="12.2,14.3 9.7,13 12.5,15.4 		"/>
		<polygon class="st1" points="9.7,13 7.3,14.5 12.5,15.4 		"/>
		<polygon class="st1" points="7.5,5.3 9.3,7.1 13.4,5.3 		"/>
		<polygon class="st1" points="10.1,7.7 9.5,9.5 13,7.2 		"/>
		<polygon class="st1" points="10.1,7.7 13,7.2 13.2,6.6 		"/>
		<polygon class="st1" points="9.3,7.1 10.1,7.7 13.2,6.6 		"/>
		<polygon class="st1" points="14.5,8.5 9.5,9.5 15.1,10.5 		"/>
		<polygon class="st1" points="9.5,9.5 9.7,13 13.5,12.9 		"/>
		<polygon class="st1" points="9.7,13 12.2,14.3 13.5,12.9 		"/>
		<polygon class="st1" points="13,7.2 9.5,9.5 14.5,8.5 		"/>
		<polygon class="st1" points="9.5,9.5 13.5,12.9 15.1,10.5 		"/>
		<polygon class="st1" points="13,7.2 14.5,8.5 15.3,7.6 		"/>
		<polygon class="st1" points="16.5,8.9 15.1,10.5 17.6,9.9 		"/>
		<polygon class="st1" points="15.3,7.6 14.5,8.5 16.5,8.9 		"/>
		<polygon class="st1" points="14.5,8.5 15.1,10.5 16.5,8.9 		"/>
		<polygon class="st1" points="17.3,3.2 15.3,7.6 18.4,8.5 		"/>
		<polygon class="st1" points="15.1,10.5 13.5,12.9 18,13 		"/>
		<polygon class="st1" points="17.6,9.9 15.1,10.5 18,13 		"/>
		<polygon class="st1" points="16.5,8.9 17.6,9.9 18.4,8.5 		"/>
		<polygon class="st1" points="18.4,8.5 17.6,9.9 19,11 		"/>
	</g>
</g>
</svg>
